%FSLAX34Y34*%
%MOMM*%
%LNSOLDERMASK_BOTTOM*%
G71*
G01*
%ADD10C, 1.900*%
%ADD11C, 1.800*%
%ADD12C, 2.400*%
%ADD13C, 1.100*%
%ADD14C, 1.100*%
%ADD15R, 1.400X1.900*%
%ADD16R, 1.700X1.800*%
%LPD*%
X201613Y-301625D02*
G54D10*
D03*
X188813Y-327025D02*
G54D10*
D03*
X163413Y-327025D02*
G54D10*
D03*
X227013Y-301625D02*
G54D10*
D03*
G36*
X160313Y-311125D02*
X141313Y-311125D01*
X141313Y-292125D01*
X160313Y-292125D01*
X160313Y-311125D01*
G37*
X214213Y-327025D02*
G54D10*
D03*
X239613Y-327025D02*
G54D10*
D03*
X176213Y-301625D02*
G54D10*
D03*
G36*
X103913Y-192982D02*
X110933Y-185962D01*
X120893Y-185962D01*
X127913Y-192982D01*
X127913Y-222942D01*
X120893Y-229962D01*
X110933Y-229962D01*
X103913Y-222942D01*
X103913Y-192982D01*
G37*
G36*
X262613Y-192982D02*
X269633Y-185962D01*
X279593Y-185962D01*
X286613Y-192982D01*
X286613Y-222942D01*
X279593Y-229962D01*
X269633Y-229962D01*
X262613Y-222942D01*
X262613Y-192982D01*
G37*
X36538Y-319063D02*
G54D11*
D03*
X52388Y-319088D02*
G54D11*
D03*
X68263Y-319088D02*
G54D11*
D03*
X369913Y-344463D02*
G54D12*
D03*
X369888Y-298450D02*
G54D12*
D03*
X304813Y-344463D02*
G54D12*
D03*
X304800Y-298575D02*
G54D12*
D03*
X233363Y-414338D02*
G54D12*
D03*
X207963Y-414338D02*
G54D12*
D03*
X182563Y-414338D02*
G54D12*
D03*
X157163Y-414338D02*
G54D12*
D03*
X287350Y-271450D02*
G54D13*
D03*
X227013Y-271462D02*
G54D14*
D03*
X103188Y-363538D02*
G54D13*
D03*
X336550Y-322263D02*
G54D13*
D03*
X103200Y-271450D02*
G54D13*
D03*
X176213Y-271462D02*
G54D13*
D03*
X244475Y-301625D02*
G54D13*
D03*
X169875Y-60312D02*
G54D15*
D03*
X144475Y-60312D02*
G54D15*
D03*
X182575Y-60312D02*
G54D15*
D03*
X157175Y-60312D02*
G54D15*
D03*
X131775Y-60312D02*
G54D15*
D03*
X125425Y-392100D02*
G54D15*
D03*
X138125Y-392100D02*
G54D15*
D03*
X71451Y-392100D02*
G54D16*
D03*
X90451Y-392100D02*
G54D16*
D03*
G36*
X60276Y-344762D02*
X76276Y-344762D01*
X76276Y-372762D01*
X60276Y-372762D01*
X60276Y-344762D01*
G37*
G36*
X27476Y-344762D02*
X43476Y-344762D01*
X43476Y-372762D01*
X27476Y-372762D01*
X27476Y-344762D01*
G37*
X157163Y-36462D02*
G54D12*
D03*
X182563Y-36462D02*
G54D12*
D03*
X207963Y-36462D02*
G54D12*
D03*
X233363Y-36462D02*
G54D12*
D03*
X588962Y-301625D02*
G54D10*
D03*
X576162Y-327025D02*
G54D10*
D03*
X550762Y-327025D02*
G54D10*
D03*
X614362Y-301625D02*
G54D10*
D03*
G36*
X547662Y-311125D02*
X528662Y-311125D01*
X528662Y-292125D01*
X547662Y-292125D01*
X547662Y-311125D01*
G37*
X601562Y-327025D02*
G54D10*
D03*
X626962Y-327025D02*
G54D10*
D03*
X563562Y-301625D02*
G54D10*
D03*
G36*
X491262Y-192982D02*
X498282Y-185962D01*
X508242Y-185962D01*
X515262Y-192982D01*
X515262Y-222942D01*
X508242Y-229962D01*
X498282Y-229962D01*
X491262Y-222942D01*
X491262Y-192982D01*
G37*
G36*
X649962Y-192982D02*
X656982Y-185962D01*
X666942Y-185962D01*
X673962Y-192982D01*
X673962Y-222942D01*
X666942Y-229962D01*
X656982Y-229962D01*
X649962Y-222942D01*
X649962Y-192982D01*
G37*
X423888Y-319063D02*
G54D11*
D03*
X439738Y-319088D02*
G54D11*
D03*
X455612Y-319088D02*
G54D11*
D03*
X757262Y-344463D02*
G54D12*
D03*
X757238Y-298450D02*
G54D12*
D03*
X692162Y-344463D02*
G54D12*
D03*
X692150Y-298575D02*
G54D12*
D03*
X620712Y-414338D02*
G54D12*
D03*
X595312Y-414338D02*
G54D12*
D03*
X569912Y-414338D02*
G54D12*
D03*
X544512Y-414338D02*
G54D12*
D03*
X674700Y-271450D02*
G54D13*
D03*
X614362Y-271462D02*
G54D14*
D03*
X490538Y-363538D02*
G54D13*
D03*
X723900Y-322263D02*
G54D13*
D03*
X490550Y-271450D02*
G54D13*
D03*
X563562Y-271462D02*
G54D13*
D03*
X631825Y-301625D02*
G54D13*
D03*
X557225Y-60313D02*
G54D15*
D03*
X531825Y-60313D02*
G54D15*
D03*
X569925Y-60313D02*
G54D15*
D03*
X544525Y-60313D02*
G54D15*
D03*
X519125Y-60313D02*
G54D15*
D03*
X512775Y-392100D02*
G54D15*
D03*
X525475Y-392100D02*
G54D15*
D03*
X458800Y-392100D02*
G54D16*
D03*
X477800Y-392100D02*
G54D16*
D03*
G36*
X447626Y-344762D02*
X463626Y-344762D01*
X463626Y-372762D01*
X447626Y-372762D01*
X447626Y-344762D01*
G37*
G36*
X414826Y-344762D02*
X430826Y-344762D01*
X430826Y-372762D01*
X414826Y-372762D01*
X414826Y-344762D01*
G37*
X544512Y-36463D02*
G54D12*
D03*
X569912Y-36463D02*
G54D12*
D03*
X595312Y-36463D02*
G54D12*
D03*
X620712Y-36463D02*
G54D12*
D03*
X201613Y-738188D02*
G54D10*
D03*
X188813Y-763588D02*
G54D10*
D03*
X163413Y-763588D02*
G54D10*
D03*
X227013Y-738188D02*
G54D10*
D03*
G36*
X160313Y-747688D02*
X141313Y-747688D01*
X141313Y-728688D01*
X160313Y-728688D01*
X160313Y-747688D01*
G37*
X214213Y-763588D02*
G54D10*
D03*
X239613Y-763588D02*
G54D10*
D03*
X176213Y-738188D02*
G54D10*
D03*
G36*
X103913Y-629545D02*
X110933Y-622525D01*
X120893Y-622525D01*
X127913Y-629545D01*
X127913Y-659505D01*
X120893Y-666525D01*
X110933Y-666525D01*
X103913Y-659505D01*
X103913Y-629545D01*
G37*
G36*
X262613Y-629545D02*
X269633Y-622525D01*
X279593Y-622525D01*
X286613Y-629545D01*
X286613Y-659505D01*
X279593Y-666525D01*
X269633Y-666525D01*
X262613Y-659505D01*
X262613Y-629545D01*
G37*
X36538Y-755625D02*
G54D11*
D03*
X52388Y-755650D02*
G54D11*
D03*
X68263Y-755650D02*
G54D11*
D03*
X369913Y-781025D02*
G54D12*
D03*
X369888Y-735013D02*
G54D12*
D03*
X304813Y-781025D02*
G54D12*
D03*
X304800Y-735138D02*
G54D12*
D03*
X233363Y-850900D02*
G54D12*
D03*
X207963Y-850900D02*
G54D12*
D03*
X182563Y-850900D02*
G54D12*
D03*
X157163Y-850900D02*
G54D12*
D03*
X287350Y-708012D02*
G54D13*
D03*
X227013Y-708025D02*
G54D14*
D03*
X103188Y-800100D02*
G54D13*
D03*
X336550Y-758825D02*
G54D13*
D03*
X103200Y-708012D02*
G54D13*
D03*
X176213Y-708025D02*
G54D13*
D03*
X244475Y-738188D02*
G54D13*
D03*
X169875Y-496875D02*
G54D15*
D03*
X144475Y-496875D02*
G54D15*
D03*
X182575Y-496875D02*
G54D15*
D03*
X157175Y-496875D02*
G54D15*
D03*
X131775Y-496875D02*
G54D15*
D03*
X125425Y-828663D02*
G54D15*
D03*
X138125Y-828663D02*
G54D15*
D03*
X71451Y-828662D02*
G54D16*
D03*
X90451Y-828662D02*
G54D16*
D03*
G36*
X60276Y-781325D02*
X76276Y-781325D01*
X76276Y-809325D01*
X60276Y-809325D01*
X60276Y-781325D01*
G37*
G36*
X27476Y-781325D02*
X43476Y-781325D01*
X43476Y-809325D01*
X27476Y-809325D01*
X27476Y-781325D01*
G37*
X157163Y-473025D02*
G54D12*
D03*
X182563Y-473025D02*
G54D12*
D03*
X207963Y-473025D02*
G54D12*
D03*
X233363Y-473025D02*
G54D12*
D03*
X588962Y-738188D02*
G54D10*
D03*
X576162Y-763588D02*
G54D10*
D03*
X550762Y-763588D02*
G54D10*
D03*
X614362Y-738188D02*
G54D10*
D03*
G36*
X547662Y-747688D02*
X528662Y-747688D01*
X528662Y-728688D01*
X547662Y-728688D01*
X547662Y-747688D01*
G37*
X601562Y-763588D02*
G54D10*
D03*
X626962Y-763588D02*
G54D10*
D03*
X563562Y-738188D02*
G54D10*
D03*
G36*
X491262Y-629545D02*
X498282Y-622525D01*
X508242Y-622525D01*
X515262Y-629545D01*
X515262Y-659505D01*
X508242Y-666525D01*
X498282Y-666525D01*
X491262Y-659505D01*
X491262Y-629545D01*
G37*
G36*
X649962Y-629545D02*
X656982Y-622525D01*
X666942Y-622525D01*
X673962Y-629545D01*
X673962Y-659505D01*
X666942Y-666525D01*
X656982Y-666525D01*
X649962Y-659505D01*
X649962Y-629545D01*
G37*
X423888Y-755625D02*
G54D11*
D03*
X439738Y-755650D02*
G54D11*
D03*
X455612Y-755650D02*
G54D11*
D03*
X757262Y-781025D02*
G54D12*
D03*
X757238Y-735013D02*
G54D12*
D03*
X692162Y-781025D02*
G54D12*
D03*
X692150Y-735138D02*
G54D12*
D03*
X620712Y-850900D02*
G54D12*
D03*
X595312Y-850900D02*
G54D12*
D03*
X569912Y-850900D02*
G54D12*
D03*
X544512Y-850900D02*
G54D12*
D03*
X674700Y-708012D02*
G54D13*
D03*
X614362Y-708025D02*
G54D14*
D03*
X490538Y-800100D02*
G54D13*
D03*
X723900Y-758825D02*
G54D13*
D03*
X490550Y-708012D02*
G54D13*
D03*
X563562Y-708025D02*
G54D13*
D03*
X631825Y-738188D02*
G54D13*
D03*
X557225Y-496875D02*
G54D15*
D03*
X531825Y-496875D02*
G54D15*
D03*
X569925Y-496875D02*
G54D15*
D03*
X544525Y-496875D02*
G54D15*
D03*
X519125Y-496875D02*
G54D15*
D03*
X512775Y-828663D02*
G54D15*
D03*
X525475Y-828663D02*
G54D15*
D03*
X458800Y-828662D02*
G54D16*
D03*
X477800Y-828662D02*
G54D16*
D03*
G36*
X447626Y-781325D02*
X463626Y-781325D01*
X463626Y-809325D01*
X447626Y-809325D01*
X447626Y-781325D01*
G37*
G36*
X414826Y-781325D02*
X430826Y-781325D01*
X430826Y-809325D01*
X414826Y-809325D01*
X414826Y-781325D01*
G37*
X544512Y-473025D02*
G54D12*
D03*
X569912Y-473025D02*
G54D12*
D03*
X595312Y-473025D02*
G54D12*
D03*
X620712Y-473025D02*
G54D12*
D03*
M02*
