; Drill file
; Format: 2.4 (00.0000)
M48
INCH
T01C0.0079
T02C0.0787
T03C0.1142
%
G05
G90
T01
X007310Y-034440
X007310Y-034380
X007310Y-034310
X007310Y-034250
X007310Y-034190
X007310Y-034130
X007310Y-034060
X007310Y-034000
X007380Y-034000
X007440Y-034000
X007500Y-034000
X007560Y-034000
X007630Y-034000
X007690Y-034000
X007750Y-034000
X007810Y-034000
X007880Y-034000
X007940Y-034000
X008000Y-034000
X008060Y-034000
X008060Y-034060
X008060Y-034130
X008060Y-034190
X008060Y-034250
X008060Y-034310
X008060Y-034380
X008060Y-034440
X022560Y-034440
X022560Y-034380
X022560Y-034310
X022560Y-034250
X022560Y-034190
X022560Y-034130
X022560Y-034060
X022560Y-034000
X022630Y-034000
X022690Y-034000
X022750Y-034000
X022810Y-034000
X022880Y-034000
X022940Y-034000
X023000Y-034000
X023060Y-034000
X023130Y-034000
X023190Y-034000
X023250Y-034000
X023310Y-034000
X023310Y-034060
X023310Y-034130
X023310Y-034190
X023310Y-034250
X023310Y-034310
X023310Y-034380
X023310Y-034440
X023310Y-017690
X023250Y-017690
X023190Y-017690
X023130Y-017690
X023060Y-017690
X023000Y-017690
X022940Y-017690
X022880Y-017690
X022810Y-017690
X022750Y-017690
X022690Y-017690
X022630Y-017690
X022560Y-017690
X022560Y-017620
X022560Y-017560
X022560Y-017500
X022560Y-017440
X022560Y-017380
X022560Y-017310
X022560Y-017250
X022560Y-017190
X022560Y-017120
X022560Y-017060
X022560Y-017000
X022560Y-016940
X022560Y-016880
X022560Y-016810
X022630Y-016810
X022690Y-016810
X022750Y-016810
X022810Y-016810
X022880Y-016810
X022940Y-016810
X023000Y-016810
X023060Y-016810
X023130Y-016810
X023190Y-016810
X023250Y-016810
X023310Y-016810
X023310Y-016880
X023310Y-016940
X023310Y-017000
X023310Y-017060
X023310Y-017120
X023310Y-017190
X023310Y-017250
X023310Y-017310
X023310Y-017380
X023310Y-017440
X023310Y-017500
X023310Y-017560
X023310Y-017620
X008060Y-017620
X008060Y-017690
X008000Y-017690
X007940Y-017690
X007880Y-017690
X007810Y-017690
X007750Y-017690
X007690Y-017690
X007630Y-017690
X007560Y-017690
X007500Y-017690
X007440Y-017690
X007380Y-017690
X007310Y-017690
X007310Y-017620
X007310Y-017560
X007310Y-017500
X007310Y-017440
X007310Y-017380
X007310Y-017310
X007310Y-017250
X007310Y-017190
X007310Y-017120
X007310Y-017060
X007310Y-017000
X007310Y-016940
X007310Y-016880
X007310Y-016810
X007380Y-016810
X007440Y-016810
X007500Y-016810
X007560Y-016810
X007630Y-016810
X007690Y-016810
X007750Y-016810
X007810Y-016810
X007880Y-016810
X007940Y-016810
X008000Y-016810
X008060Y-016810
X008060Y-016880
X008060Y-016940
X008060Y-017000
X008060Y-017060
X008060Y-017120
X008060Y-017190
X008060Y-017250
X008060Y-017310
X008060Y-017380
X008060Y-017440
X008060Y-017500
X008060Y-017560
X008060Y-000500
X008000Y-000500
X007940Y-000500
X007880Y-000500
X007810Y-000500
X007750Y-000500
X007690Y-000500
X007630Y-000500
X007560Y-000500
X007500Y-000500
X007440Y-000500
X007380Y-000500
X007310Y-000500
X007310Y-000440
X007310Y-000370
X007310Y-000310
X007310Y-000250
X007310Y-000190
X007310Y-000130
X007310Y-000060
X008060Y-000060
X008060Y-000130
X008060Y-000190
X008060Y-000250
X008060Y-000310
X008060Y-000370
X008060Y-000440
X022560Y-000440
X022560Y-000370
X022560Y-000310
X022560Y-000250
X022560Y-000190
X022560Y-000130
X022560Y-000060
X022560Y-000500
X022630Y-000500
X022690Y-000500
X022750Y-000500
X022810Y-000500
X022880Y-000500
X022940Y-000500
X023000Y-000500
X023060Y-000500
X023130Y-000500
X023190Y-000500
X023250Y-000500
X023310Y-000500
X023310Y-000440
X023310Y-000370
X023310Y-000310
X023310Y-000250
X023310Y-000190
X023310Y-000130
X023310Y-000060
T02
X003060Y-027870
X003060Y-018620
X003060Y-010690
X003060Y-001440
X012310Y-001440
X018310Y-001440
X018310Y-010690
X012310Y-010690
X012310Y-018620
X018310Y-018620
X027560Y-018620
X027560Y-010690
X027560Y-001440
X027560Y-027870
X018310Y-027870
X012310Y-027870
T03
X005500Y-026560
X009880Y-026560
X020750Y-026560
X025130Y-026560
X025130Y-009380
X020750Y-009380
X009880Y-009380
X005500Y-009380
M30
