%FSLAX34Y34*%
%MOMM*%
%LNCOPPER_TOP*%
G71*
G01*
%ADD10C, 1.500*%
%ADD11C, 1.400*%
%ADD12C, 2.000*%
%ADD13C, 0.700*%
%ADD14C, 0.700*%
%ADD15C, 0.700*%
%LPD*%
X201613Y-301625D02*
G54D10*
D03*
X188813Y-327025D02*
G54D10*
D03*
X163413Y-327025D02*
G54D10*
D03*
X227013Y-301625D02*
G54D10*
D03*
G36*
X158313Y-309125D02*
X143313Y-309125D01*
X143313Y-294125D01*
X158313Y-294125D01*
X158313Y-309125D01*
G37*
X214213Y-327025D02*
G54D10*
D03*
X239613Y-327025D02*
G54D10*
D03*
X176213Y-301625D02*
G54D10*
D03*
G36*
X105913Y-193812D02*
X111763Y-187962D01*
X120063Y-187962D01*
X125913Y-193812D01*
X125913Y-222112D01*
X120063Y-227962D01*
X111763Y-227962D01*
X105913Y-222112D01*
X105913Y-193812D01*
G37*
G36*
X264613Y-193812D02*
X270463Y-187962D01*
X278763Y-187962D01*
X284613Y-193812D01*
X284613Y-222112D01*
X278763Y-227962D01*
X270463Y-227962D01*
X264613Y-222112D01*
X264613Y-193812D01*
G37*
X36538Y-319063D02*
G54D11*
D03*
X52388Y-319088D02*
G54D11*
D03*
X68263Y-319088D02*
G54D11*
D03*
X369913Y-344463D02*
G54D12*
D03*
X369888Y-298450D02*
G54D12*
D03*
X304813Y-344463D02*
G54D12*
D03*
X304800Y-298575D02*
G54D12*
D03*
X233363Y-414338D02*
G54D12*
D03*
X207963Y-414338D02*
G54D12*
D03*
X182563Y-414338D02*
G54D12*
D03*
X157163Y-414338D02*
G54D12*
D03*
X287350Y-271450D02*
G54D13*
D03*
X227013Y-271462D02*
G54D14*
D03*
X103188Y-363538D02*
G54D13*
D03*
X336550Y-322263D02*
G54D13*
D03*
G54D15*
X103188Y-271462D02*
X103188Y-363538D01*
G54D15*
X227013Y-271462D02*
X176213Y-271462D01*
G54D15*
X227013Y-271462D02*
X287338Y-271462D01*
G54D15*
X244475Y-301625D02*
X271463Y-301625D01*
X103200Y-271450D02*
G54D13*
D03*
X176213Y-271462D02*
G54D13*
D03*
X244475Y-301625D02*
G54D13*
D03*
G54D15*
X336563Y-322250D02*
X292113Y-322250D01*
X271475Y-301613D01*
X157163Y-36462D02*
G54D12*
D03*
X182563Y-36462D02*
G54D12*
D03*
X207963Y-36462D02*
G54D12*
D03*
X233363Y-36462D02*
G54D12*
D03*
X588962Y-301625D02*
G54D10*
D03*
X576162Y-327025D02*
G54D10*
D03*
X550762Y-327025D02*
G54D10*
D03*
X614362Y-301625D02*
G54D10*
D03*
G36*
X545662Y-309125D02*
X530662Y-309125D01*
X530662Y-294125D01*
X545662Y-294125D01*
X545662Y-309125D01*
G37*
X601562Y-327025D02*
G54D10*
D03*
X626962Y-327025D02*
G54D10*
D03*
X563562Y-301625D02*
G54D10*
D03*
G36*
X493262Y-193812D02*
X499112Y-187962D01*
X507412Y-187962D01*
X513262Y-193812D01*
X513262Y-222112D01*
X507412Y-227962D01*
X499112Y-227962D01*
X493262Y-222112D01*
X493262Y-193812D01*
G37*
G36*
X651962Y-193812D02*
X657812Y-187962D01*
X666112Y-187962D01*
X671962Y-193812D01*
X671962Y-222112D01*
X666112Y-227962D01*
X657812Y-227962D01*
X651962Y-222112D01*
X651962Y-193812D01*
G37*
X423888Y-319063D02*
G54D11*
D03*
X439738Y-319088D02*
G54D11*
D03*
X455612Y-319088D02*
G54D11*
D03*
X757262Y-344463D02*
G54D12*
D03*
X757238Y-298450D02*
G54D12*
D03*
X692162Y-344463D02*
G54D12*
D03*
X692150Y-298575D02*
G54D12*
D03*
X620712Y-414338D02*
G54D12*
D03*
X595312Y-414338D02*
G54D12*
D03*
X569912Y-414338D02*
G54D12*
D03*
X544512Y-414338D02*
G54D12*
D03*
X674700Y-271450D02*
G54D13*
D03*
X614362Y-271462D02*
G54D14*
D03*
X490538Y-363538D02*
G54D13*
D03*
X723900Y-322263D02*
G54D13*
D03*
G54D15*
X490538Y-271462D02*
X490538Y-363538D01*
G54D15*
X614362Y-271462D02*
X563562Y-271462D01*
G54D15*
X614362Y-271462D02*
X674688Y-271462D01*
G54D15*
X631825Y-301625D02*
X658812Y-301625D01*
X490550Y-271450D02*
G54D13*
D03*
X563562Y-271462D02*
G54D13*
D03*
X631825Y-301625D02*
G54D13*
D03*
G54D15*
X723912Y-322250D02*
X679462Y-322250D01*
X658825Y-301613D01*
X544512Y-36463D02*
G54D12*
D03*
X569912Y-36463D02*
G54D12*
D03*
X595312Y-36463D02*
G54D12*
D03*
X620712Y-36463D02*
G54D12*
D03*
X201613Y-738188D02*
G54D10*
D03*
X188813Y-763588D02*
G54D10*
D03*
X163413Y-763588D02*
G54D10*
D03*
X227013Y-738188D02*
G54D10*
D03*
G36*
X158313Y-745688D02*
X143313Y-745688D01*
X143313Y-730688D01*
X158313Y-730688D01*
X158313Y-745688D01*
G37*
X214213Y-763588D02*
G54D10*
D03*
X239613Y-763588D02*
G54D10*
D03*
X176213Y-738188D02*
G54D10*
D03*
G36*
X105913Y-630375D02*
X111763Y-624525D01*
X120063Y-624525D01*
X125913Y-630375D01*
X125913Y-658675D01*
X120063Y-664525D01*
X111763Y-664525D01*
X105913Y-658675D01*
X105913Y-630375D01*
G37*
G36*
X264613Y-630375D02*
X270463Y-624525D01*
X278763Y-624525D01*
X284613Y-630375D01*
X284613Y-658675D01*
X278763Y-664525D01*
X270463Y-664525D01*
X264613Y-658675D01*
X264613Y-630375D01*
G37*
X36538Y-755625D02*
G54D11*
D03*
X52388Y-755650D02*
G54D11*
D03*
X68263Y-755650D02*
G54D11*
D03*
X369913Y-781025D02*
G54D12*
D03*
X369888Y-735013D02*
G54D12*
D03*
X304813Y-781025D02*
G54D12*
D03*
X304800Y-735138D02*
G54D12*
D03*
X233363Y-850900D02*
G54D12*
D03*
X207963Y-850900D02*
G54D12*
D03*
X182563Y-850900D02*
G54D12*
D03*
X157163Y-850900D02*
G54D12*
D03*
X287350Y-708012D02*
G54D13*
D03*
X227013Y-708025D02*
G54D14*
D03*
X103188Y-800100D02*
G54D13*
D03*
X336550Y-758825D02*
G54D13*
D03*
G54D15*
X103188Y-708025D02*
X103188Y-800100D01*
G54D15*
X227013Y-708025D02*
X176213Y-708025D01*
G54D15*
X227013Y-708025D02*
X287338Y-708025D01*
G54D15*
X244475Y-738188D02*
X271463Y-738188D01*
X103200Y-708012D02*
G54D13*
D03*
X176213Y-708025D02*
G54D13*
D03*
X244475Y-738188D02*
G54D13*
D03*
G54D15*
X336563Y-758813D02*
X292113Y-758813D01*
X271475Y-738175D01*
X157163Y-473025D02*
G54D12*
D03*
X182563Y-473025D02*
G54D12*
D03*
X207963Y-473025D02*
G54D12*
D03*
X233363Y-473025D02*
G54D12*
D03*
X588962Y-738188D02*
G54D10*
D03*
X576162Y-763588D02*
G54D10*
D03*
X550762Y-763588D02*
G54D10*
D03*
X614362Y-738188D02*
G54D10*
D03*
G36*
X545662Y-745688D02*
X530662Y-745688D01*
X530662Y-730688D01*
X545662Y-730688D01*
X545662Y-745688D01*
G37*
X601562Y-763588D02*
G54D10*
D03*
X626962Y-763588D02*
G54D10*
D03*
X563562Y-738188D02*
G54D10*
D03*
G36*
X493262Y-630375D02*
X499112Y-624525D01*
X507412Y-624525D01*
X513262Y-630375D01*
X513262Y-658675D01*
X507412Y-664525D01*
X499112Y-664525D01*
X493262Y-658675D01*
X493262Y-630375D01*
G37*
G36*
X651962Y-630375D02*
X657812Y-624525D01*
X666112Y-624525D01*
X671962Y-630375D01*
X671962Y-658675D01*
X666112Y-664525D01*
X657812Y-664525D01*
X651962Y-658675D01*
X651962Y-630375D01*
G37*
X423888Y-755625D02*
G54D11*
D03*
X439738Y-755650D02*
G54D11*
D03*
X455612Y-755650D02*
G54D11*
D03*
X757262Y-781025D02*
G54D12*
D03*
X757238Y-735013D02*
G54D12*
D03*
X692162Y-781025D02*
G54D12*
D03*
X692150Y-735138D02*
G54D12*
D03*
X620712Y-850900D02*
G54D12*
D03*
X595312Y-850900D02*
G54D12*
D03*
X569912Y-850900D02*
G54D12*
D03*
X544512Y-850900D02*
G54D12*
D03*
X674700Y-708012D02*
G54D13*
D03*
X614362Y-708025D02*
G54D14*
D03*
X490538Y-800100D02*
G54D13*
D03*
X723900Y-758825D02*
G54D13*
D03*
G54D15*
X490538Y-708025D02*
X490538Y-800100D01*
G54D15*
X614362Y-708025D02*
X563562Y-708025D01*
G54D15*
X614362Y-708025D02*
X674688Y-708025D01*
G54D15*
X631825Y-738188D02*
X658812Y-738188D01*
X490550Y-708012D02*
G54D13*
D03*
X563562Y-708025D02*
G54D13*
D03*
X631825Y-738188D02*
G54D13*
D03*
G54D15*
X723912Y-758813D02*
X679462Y-758813D01*
X658825Y-738175D01*
X544512Y-473025D02*
G54D12*
D03*
X569912Y-473025D02*
G54D12*
D03*
X595312Y-473025D02*
G54D12*
D03*
X620712Y-473025D02*
G54D12*
D03*
M02*
