; Drill file
; Format: 2.4 (00.0000)
M48
INCH
T01C0.0079
T02C0.0118
T03C0.0157
T04C0.0236
T05C0.0354
T06C0.0512
T07C0.0787
T08C0.1142
%
G05
G90
T01
X007310Y-034440
X007310Y-034380
X007310Y-034310
X007310Y-034250
X007310Y-034190
X007310Y-034130
X007310Y-034060
X007310Y-034000
X007380Y-034000
X007440Y-034000
X007500Y-034000
X007560Y-034000
X007630Y-034000
X007690Y-034000
X007750Y-034000
X007810Y-034000
X007880Y-034000
X007940Y-034000
X008000Y-034000
X008060Y-034000
X008060Y-034060
X008060Y-034130
X008060Y-034190
X008060Y-034250
X008060Y-034310
X008060Y-034380
X008060Y-034440
X022560Y-034440
X022560Y-034380
X022560Y-034310
X022560Y-034250
X022560Y-034190
X022560Y-034130
X022560Y-034060
X022560Y-034000
X022630Y-034000
X022690Y-034000
X022750Y-034000
X022810Y-034000
X022880Y-034000
X022940Y-034000
X023000Y-034000
X023060Y-034000
X023130Y-034000
X023190Y-034000
X023250Y-034000
X023310Y-034000
X023310Y-034060
X023310Y-034130
X023310Y-034190
X023310Y-034250
X023310Y-034310
X023310Y-034380
X023310Y-034440
X023310Y-017690
X023250Y-017690
X023190Y-017690
X023130Y-017690
X023060Y-017690
X023000Y-017690
X022940Y-017690
X022880Y-017690
X022810Y-017690
X022750Y-017690
X022690Y-017690
X022630Y-017690
X022560Y-017690
X022560Y-017620
X022560Y-017560
X022560Y-017500
X022560Y-017440
X022560Y-017380
X022560Y-017310
X022560Y-017250
X022560Y-017190
X022560Y-017120
X022560Y-017060
X022560Y-017000
X022560Y-016940
X022560Y-016880
X022560Y-016810
X022630Y-016810
X022690Y-016810
X022750Y-016810
X022810Y-016810
X022880Y-016810
X022940Y-016810
X023000Y-016810
X023060Y-016810
X023130Y-016810
X023190Y-016810
X023250Y-016810
X023310Y-016810
X023310Y-016880
X023310Y-016940
X023310Y-017000
X023310Y-017060
X023310Y-017120
X023310Y-017190
X023310Y-017250
X023310Y-017310
X023310Y-017380
X023310Y-017440
X023310Y-017500
X023310Y-017560
X023310Y-017620
X008060Y-017620
X008060Y-017690
X008000Y-017690
X007940Y-017690
X007880Y-017690
X007810Y-017690
X007750Y-017690
X007690Y-017690
X007630Y-017690
X007560Y-017690
X007500Y-017690
X007440Y-017690
X007380Y-017690
X007310Y-017690
X007310Y-017620
X007310Y-017560
X007310Y-017500
X007310Y-017440
X007310Y-017380
X007310Y-017310
X007310Y-017250
X007310Y-017190
X007310Y-017120
X007310Y-017060
X007310Y-017000
X007310Y-016940
X007310Y-016880
X007310Y-016810
X007380Y-016810
X007440Y-016810
X007500Y-016810
X007560Y-016810
X007630Y-016810
X007690Y-016810
X007750Y-016810
X007810Y-016810
X007880Y-016810
X007940Y-016810
X008000Y-016810
X008060Y-016810
X008060Y-016880
X008060Y-016940
X008060Y-017000
X008060Y-017060
X008060Y-017120
X008060Y-017190
X008060Y-017250
X008060Y-017310
X008060Y-017380
X008060Y-017440
X008060Y-017500
X008060Y-017560
X008060Y-000500
X008000Y-000500
X007940Y-000500
X007880Y-000500
X007810Y-000500
X007750Y-000500
X007690Y-000500
X007630Y-000500
X007560Y-000500
X007500Y-000500
X007440Y-000500
X007380Y-000500
X007310Y-000500
X007310Y-000440
X007310Y-000370
X007310Y-000310
X007310Y-000250
X007310Y-000190
X007310Y-000130
X007310Y-000060
X008060Y-000060
X008060Y-000130
X008060Y-000190
X008060Y-000250
X008060Y-000310
X008060Y-000370
X008060Y-000440
X022560Y-000440
X022560Y-000370
X022560Y-000310
X022560Y-000250
X022560Y-000190
X022560Y-000130
X022560Y-000060
X022560Y-000500
X022630Y-000500
X022690Y-000500
X022750Y-000500
X022810Y-000500
X022880Y-000500
X022940Y-000500
X023000Y-000500
X023060Y-000500
X023130Y-000500
X023190Y-000500
X023250Y-000500
X023310Y-000500
X023310Y-000440
X023310Y-000370
X023310Y-000310
X023310Y-000250
X023310Y-000190
X023310Y-000130
X023310Y-000060
T02
X004060Y-031500
X004060Y-027870
X006940Y-027880
X009630Y-029060
X011310Y-027870
X013250Y-029870
X019310Y-031500
X019310Y-027870
X022190Y-027880
X024870Y-029060
X026560Y-027870
X028500Y-029870
X028500Y-012690
X026560Y-010690
X024870Y-011880
X022190Y-010690
X019310Y-010690
X019310Y-014310
X013250Y-012690
X011310Y-010690
X009630Y-011880
X006940Y-010690
X004060Y-010690
X004060Y-014310
T03
X008940Y-027880
X024190Y-027880
X024190Y-010690
X008940Y-010690
T04
X001440Y-029750
X002060Y-029750
X002690Y-029750
X005940Y-029060
X006940Y-029060
X007940Y-029060
X008940Y-029060
X009430Y-030060
X008430Y-030060
X007430Y-030060
X006430Y-030060
X016690Y-029750
X017310Y-029750
X017940Y-029750
X021190Y-029060
X022190Y-029060
X023190Y-029060
X024190Y-029060
X024680Y-030060
X023680Y-030060
X022680Y-030060
X021680Y-030060
X021680Y-012880
X022680Y-012880
X023680Y-012880
X024680Y-012880
X024190Y-011880
X023190Y-011880
X022190Y-011880
X021190Y-011880
X017940Y-012560
X017310Y-012560
X016690Y-012560
X009430Y-012880
X008430Y-012880
X007430Y-012880
X006430Y-012880
X005940Y-011880
X006940Y-011880
X007940Y-011880
X008940Y-011880
X002690Y-012560
X002060Y-012560
X001440Y-012560
T05
X006190Y-033500
X007190Y-033500
X008190Y-033500
X009190Y-033500
X012000Y-030750
X012000Y-028940
X014560Y-028940
X014560Y-030750
X021440Y-033500
X022440Y-033500
X023440Y-033500
X024440Y-033500
X027250Y-030750
X027250Y-028940
X029810Y-028940
X029810Y-030750
X024440Y-018620
X023440Y-018620
X022440Y-018620
X021440Y-018620
X021440Y-016310
X022440Y-016310
X023440Y-016310
X024440Y-016310
X027250Y-013560
X027250Y-011750
X029810Y-011750
X029810Y-013560
X024440Y-001440
X023440Y-001440
X022440Y-001440
X021440Y-001440
X009190Y-001440
X008190Y-001440
X007190Y-001440
X006190Y-001440
X012000Y-011750
X012000Y-013560
X014560Y-013560
X014560Y-011750
X009190Y-016310
X008190Y-016310
X007190Y-016310
X006190Y-016310
X006190Y-018620
X007190Y-018620
X008190Y-018620
X009190Y-018620
T06
X004560Y-025380
X010810Y-025380
X019810Y-025380
X026060Y-025380
X026060Y-008190
X019810Y-008190
X010810Y-008190
X004560Y-008190
T07
X003060Y-027870
X003060Y-018620
X003060Y-010690
X003060Y-001440
X012310Y-001440
X018310Y-001440
X027560Y-001440
X027560Y-010690
X027560Y-018620
X018310Y-018620
X012310Y-018620
X012310Y-010690
X018310Y-010690
X018310Y-027870
X012310Y-027870
X027560Y-027870
T08
X005500Y-026560
X009880Y-026560
X020750Y-026560
X025130Y-026560
X025130Y-009380
X020750Y-009380
X009880Y-009380
X005500Y-009380
M30
