; Drill file
; Format: 2.4 (00.0000)
M48
INCH
T01C0.0118
T02C0.0157
T03C0.0236
T04C0.0354
T05C0.0512
%
G05
G90
T01
X004060Y-031500
X004060Y-027870
X006940Y-027880
X009630Y-029060
X011310Y-027870
X013250Y-029870
X019310Y-031500
X019310Y-027870
X022190Y-027880
X024870Y-029060
X026560Y-027870
X028500Y-029870
X028500Y-012690
X026560Y-010690
X024870Y-011880
X022190Y-010690
X019310Y-010690
X019310Y-014310
X013250Y-012690
X011310Y-010690
X009630Y-011880
X006940Y-010690
X004060Y-010690
X004060Y-014310
T02
X008940Y-027880
X024190Y-027880
X024190Y-010690
X008940Y-010690
T03
X001440Y-029750
X002060Y-029750
X002690Y-029750
X005940Y-029060
X006940Y-029060
X007940Y-029060
X008940Y-029060
X009430Y-030060
X008430Y-030060
X007430Y-030060
X006430Y-030060
X016690Y-029750
X017310Y-029750
X017940Y-029750
X021190Y-029060
X022190Y-029060
X023190Y-029060
X024190Y-029060
X024680Y-030060
X023680Y-030060
X022680Y-030060
X021680Y-030060
X021680Y-012880
X022680Y-012880
X023680Y-012880
X024680Y-012880
X024190Y-011880
X023190Y-011880
X022190Y-011880
X021190Y-011880
X017940Y-012560
X017310Y-012560
X016690Y-012560
X009430Y-012880
X008430Y-012880
X007430Y-012880
X006430Y-012880
X005940Y-011880
X006940Y-011880
X007940Y-011880
X008940Y-011880
X002690Y-012560
X002060Y-012560
X001440Y-012560
T04
X006190Y-033500
X007190Y-033500
X008190Y-033500
X009190Y-033500
X012000Y-030750
X012000Y-028940
X014560Y-028940
X014560Y-030750
X021440Y-033500
X022440Y-033500
X023440Y-033500
X024440Y-033500
X027250Y-030750
X027250Y-028940
X029810Y-028940
X029810Y-030750
X024440Y-018620
X023440Y-018620
X022440Y-018620
X021440Y-018620
X021440Y-016310
X022440Y-016310
X023440Y-016310
X024440Y-016310
X027250Y-013560
X027250Y-011750
X029810Y-011750
X029810Y-013560
X024440Y-001440
X023440Y-001440
X022440Y-001440
X021440Y-001440
X009190Y-001440
X008190Y-001440
X007190Y-001440
X006190Y-001440
X012000Y-011750
X012000Y-013560
X014560Y-013560
X014560Y-011750
X009190Y-016310
X008190Y-016310
X007190Y-016310
X006190Y-016310
X006190Y-018620
X007190Y-018620
X008190Y-018620
X009190Y-018620
T05
X004560Y-025380
X010810Y-025380
X019810Y-025380
X026060Y-025380
X026060Y-008190
X019810Y-008190
X010810Y-008190
X004560Y-008190
M30
