%FSLAX34Y34*%
%MOMM*%
%LNSILK_BOTTOM*%
G71*
G01*
%ADD10C, 0.100*%
%ADD11C, 0.133*%
%ADD12C, 0.189*%
%ADD13C, 0.206*%
%ADD14C, 0.270*%
%ADD15C, 0.111*%
%LPD*%
G54D10*
X274638Y-174625D02*
X115838Y-174625D01*
X115838Y-338188D01*
X274638Y-338188D01*
X274638Y-174625D01*
G54D10*
X133350Y-196850D02*
X133350Y-271438D01*
X257075Y-271438D01*
X257075Y-196850D01*
G54D10*
X133350Y-196850D02*
X153988Y-196850D01*
X153988Y-187325D01*
X163513Y-187325D01*
X163513Y-177800D01*
X195263Y-177800D01*
G54D10*
X257012Y-196850D02*
X236375Y-196850D01*
X236375Y-187325D01*
X226850Y-187325D01*
X226850Y-177800D01*
X195100Y-177800D01*
G54D11*
X320663Y-53658D02*
X317996Y-49658D01*
X317996Y-60325D01*
G54D11*
X312023Y-55658D02*
X307756Y-55658D01*
G54D11*
X301783Y-49658D02*
X301783Y-60325D01*
X299116Y-53658D01*
X296449Y-60325D01*
X296449Y-49658D01*
G54D11*
X289250Y-51658D02*
X289250Y-58325D01*
X289783Y-59658D01*
X290850Y-60325D01*
X291917Y-60325D01*
X292983Y-59658D01*
X293517Y-58325D01*
X293517Y-51658D01*
X292983Y-50325D01*
X291917Y-49658D01*
X290850Y-49658D01*
X289783Y-50325D01*
X289250Y-51658D01*
G54D11*
X286317Y-60325D02*
X286317Y-54325D01*
G54D11*
X286317Y-55658D02*
X285250Y-54325D01*
X284183Y-54325D01*
G54D11*
X278211Y-55658D02*
X273944Y-55658D01*
G54D11*
X267971Y-58325D02*
X267437Y-59658D01*
X266371Y-60325D01*
X265304Y-60325D01*
X264237Y-59658D01*
X263704Y-58325D01*
X263704Y-56992D01*
X264237Y-55658D01*
X265304Y-54992D01*
X266371Y-54992D01*
X267437Y-54325D01*
X267971Y-52992D01*
X267971Y-51658D01*
X267437Y-50325D01*
X266371Y-49658D01*
X265304Y-49658D01*
X264237Y-50325D01*
X263704Y-51658D01*
G54D11*
X260770Y-60325D02*
X260770Y-49658D01*
X258104Y-49658D01*
X257037Y-50325D01*
X256504Y-51658D01*
X256504Y-58325D01*
X257037Y-59658D01*
X258104Y-60325D01*
X260770Y-60325D01*
G54D11*
X253570Y-60325D02*
X250904Y-49658D01*
X248237Y-60325D01*
G54D11*
X252504Y-56325D02*
X249304Y-56325D01*
G54D11*
X316396Y-76200D02*
X320663Y-76200D01*
X320663Y-75533D01*
X320129Y-74200D01*
X316929Y-70200D01*
X316396Y-68867D01*
X316396Y-67533D01*
X316929Y-66200D01*
X317996Y-65533D01*
X319063Y-65533D01*
X320129Y-66200D01*
X320663Y-67533D01*
G54D11*
X310423Y-71533D02*
X306156Y-71533D01*
G54D11*
X295916Y-67533D02*
X295916Y-74200D01*
X296449Y-75533D01*
X297516Y-76200D01*
X298583Y-76200D01*
X299649Y-75533D01*
X300183Y-74200D01*
X300183Y-67533D01*
X299649Y-66200D01*
X298583Y-65533D01*
X297516Y-65533D01*
X296449Y-66200D01*
X295916Y-67533D01*
G54D11*
X292983Y-76200D02*
X292983Y-70200D01*
G54D11*
X292983Y-71533D02*
X291916Y-70200D01*
X290849Y-70200D01*
G54D11*
X284877Y-71533D02*
X280610Y-71533D01*
G54D11*
X272503Y-70867D02*
X270370Y-70867D01*
X270370Y-74200D01*
X270903Y-75533D01*
X271970Y-76200D01*
X273037Y-76200D01*
X274103Y-75533D01*
X274637Y-74200D01*
X274637Y-67533D01*
X274103Y-66200D01*
X273037Y-65533D01*
X271970Y-65533D01*
X270903Y-66200D01*
X270370Y-67533D01*
G54D11*
X267437Y-76200D02*
X267437Y-65533D01*
X263170Y-76200D01*
X263170Y-65533D01*
G54D11*
X260236Y-76200D02*
X260236Y-65533D01*
X257570Y-65533D01*
X256503Y-66200D01*
X255970Y-67533D01*
X255970Y-74200D01*
X256503Y-75533D01*
X257570Y-76200D01*
X260236Y-76200D01*
G54D11*
X320663Y-83408D02*
X320129Y-82075D01*
X319063Y-81408D01*
X317996Y-81408D01*
X316929Y-82075D01*
X316396Y-83408D01*
X316396Y-84742D01*
X316929Y-86075D01*
X317996Y-86742D01*
X316929Y-87408D01*
X316396Y-88742D01*
X316396Y-90075D01*
X316929Y-91408D01*
X317996Y-92075D01*
X319063Y-92075D01*
X320129Y-91408D01*
X320663Y-90075D01*
G54D11*
X310423Y-87408D02*
X306156Y-87408D01*
G54D11*
X300183Y-81408D02*
X300183Y-92075D01*
X297516Y-85408D01*
X294849Y-92075D01*
X294849Y-81408D01*
G54D11*
X289783Y-86742D02*
X287650Y-86742D01*
X287650Y-90075D01*
X288183Y-91408D01*
X289250Y-92075D01*
X290317Y-92075D01*
X291383Y-91408D01*
X291917Y-90075D01*
X291917Y-83408D01*
X291383Y-82075D01*
X290317Y-81408D01*
X289250Y-81408D01*
X288183Y-82075D01*
X287650Y-83408D01*
G54D11*
X284717Y-92075D02*
X284717Y-86075D01*
G54D11*
X284717Y-87408D02*
X283650Y-86075D01*
X282583Y-86075D01*
G54D11*
X276611Y-87408D02*
X272344Y-87408D01*
G54D11*
X266371Y-90075D02*
X265837Y-91408D01*
X264771Y-92075D01*
X263704Y-92075D01*
X262637Y-91408D01*
X262104Y-90075D01*
X262104Y-88742D01*
X262637Y-87408D01*
X263704Y-86742D01*
X264771Y-86742D01*
X265837Y-86075D01*
X266371Y-84742D01*
X266371Y-83408D01*
X265837Y-82075D01*
X264771Y-81408D01*
X263704Y-81408D01*
X262637Y-82075D01*
X262104Y-83408D01*
G54D11*
X254904Y-90075D02*
X255437Y-91408D01*
X256504Y-92075D01*
X257570Y-92075D01*
X258637Y-91408D01*
X259170Y-90075D01*
X259170Y-83408D01*
X258637Y-82075D01*
X257570Y-81408D01*
X256504Y-81408D01*
X255437Y-82075D01*
X254904Y-83408D01*
G54D11*
X251970Y-81408D02*
X251970Y-92075D01*
X248237Y-92075D01*
G54D11*
X317463Y-107950D02*
X317463Y-97283D01*
X320663Y-103950D01*
X320663Y-105283D01*
X316396Y-105283D01*
G54D11*
X310423Y-103283D02*
X306156Y-103283D01*
G54D11*
X300183Y-107950D02*
X300183Y-97283D01*
X297516Y-97283D01*
X296449Y-97950D01*
X295916Y-99283D01*
X295916Y-100617D01*
X296449Y-101950D01*
X297516Y-102617D01*
X296449Y-103283D01*
X295916Y-104617D01*
X295916Y-105950D01*
X296449Y-107283D01*
X297516Y-107950D01*
X300183Y-107950D01*
G54D11*
X300183Y-102617D02*
X297516Y-102617D01*
G54D11*
X292983Y-107950D02*
X292983Y-97283D01*
G54D11*
X287010Y-103283D02*
X282743Y-103283D01*
G54D11*
X274636Y-102617D02*
X272503Y-102617D01*
X272503Y-105950D01*
X273036Y-107283D01*
X274103Y-107950D01*
X275170Y-107950D01*
X276236Y-107283D01*
X276770Y-105950D01*
X276770Y-99283D01*
X276236Y-97950D01*
X275170Y-97283D01*
X274103Y-97283D01*
X273036Y-97950D01*
X272503Y-99283D01*
G54D11*
X269570Y-107950D02*
X269570Y-97283D01*
X265303Y-107950D01*
X265303Y-97283D01*
G54D11*
X262370Y-107950D02*
X262370Y-97283D01*
X259703Y-97283D01*
X258636Y-97950D01*
X258103Y-99283D01*
X258103Y-105950D01*
X258636Y-107283D01*
X259703Y-107950D01*
X262370Y-107950D01*
G54D11*
X316396Y-113158D02*
X320663Y-113158D01*
X320663Y-117825D01*
X320129Y-117825D01*
X319063Y-117158D01*
X317996Y-117158D01*
X316929Y-117825D01*
X316396Y-119158D01*
X316396Y-121825D01*
X316929Y-123158D01*
X317996Y-123825D01*
X319063Y-123825D01*
X320129Y-123158D01*
X320663Y-121825D01*
G54D11*
X310423Y-119158D02*
X306156Y-119158D01*
G54D11*
X300183Y-113158D02*
X300183Y-123825D01*
X297516Y-117158D01*
X294849Y-123825D01*
X294849Y-113158D01*
G54D11*
X291917Y-123825D02*
X291917Y-113158D01*
X289250Y-113158D01*
X288183Y-113825D01*
X287650Y-115158D01*
X287650Y-116492D01*
X288183Y-117825D01*
X289250Y-118492D01*
X288183Y-119158D01*
X287650Y-120492D01*
X287650Y-121825D01*
X288183Y-123158D01*
X289250Y-123825D01*
X291917Y-123825D01*
G54D11*
X291917Y-118492D02*
X289250Y-118492D01*
G54D11*
X284717Y-123825D02*
X284717Y-113158D01*
G54D11*
X278744Y-119158D02*
X274477Y-119158D01*
G54D11*
X268504Y-123825D02*
X268504Y-113158D01*
X265837Y-113158D01*
X264770Y-113825D01*
X264237Y-115158D01*
X264237Y-121825D01*
X264770Y-123158D01*
X265837Y-123825D01*
X268504Y-123825D01*
G54D11*
X261304Y-121825D02*
X260770Y-123158D01*
X259704Y-123825D01*
X258637Y-123825D01*
X257570Y-123158D01*
X257037Y-121825D01*
X257037Y-120492D01*
X257570Y-119158D01*
X258637Y-118492D01*
X259704Y-118492D01*
X260770Y-117825D01*
X261304Y-116492D01*
X261304Y-115158D01*
X260770Y-113825D01*
X259704Y-113158D01*
X258637Y-113158D01*
X257570Y-113825D01*
X257037Y-115158D01*
G54D11*
X254104Y-117158D02*
X251437Y-113158D01*
X251437Y-123825D01*
G54D11*
X245837Y-118492D02*
X246904Y-118492D01*
X247970Y-117825D01*
X248504Y-116492D01*
X248504Y-115158D01*
X247970Y-113825D01*
X246904Y-113158D01*
X245837Y-113158D01*
X244770Y-113825D01*
X244237Y-115158D01*
X244237Y-116492D01*
X244770Y-117825D01*
X245837Y-118492D01*
X244770Y-119158D01*
X244237Y-120492D01*
X244237Y-121825D01*
X244770Y-123158D01*
X245837Y-123825D01*
X246904Y-123825D01*
X247970Y-123158D01*
X248504Y-121825D01*
X248504Y-120492D01*
X247970Y-119158D01*
X246904Y-118492D01*
G54D11*
X241304Y-123825D02*
X241304Y-113158D01*
X238637Y-113158D01*
X237570Y-113825D01*
X237037Y-115158D01*
X237037Y-116492D01*
X237570Y-117825D01*
X238637Y-118492D01*
X237570Y-119158D01*
X237037Y-120492D01*
X237037Y-121825D01*
X237570Y-123158D01*
X238637Y-123825D01*
X241304Y-123825D01*
G54D11*
X241304Y-118492D02*
X238637Y-118492D01*
G54D11*
X229837Y-123825D02*
X234104Y-123825D01*
X234104Y-123158D01*
X233570Y-121825D01*
X230370Y-117825D01*
X229837Y-116492D01*
X229837Y-115158D01*
X230370Y-113825D01*
X231437Y-113158D01*
X232504Y-113158D01*
X233570Y-113825D01*
X234104Y-115158D01*
G54D11*
X222637Y-115158D02*
X222637Y-121825D01*
X223170Y-123158D01*
X224237Y-123825D01*
X225304Y-123825D01*
X226370Y-123158D01*
X226904Y-121825D01*
X226904Y-115158D01*
X226370Y-113825D01*
X225304Y-113158D01*
X224237Y-113158D01*
X223170Y-113825D01*
X222637Y-115158D01*
G54D11*
X316421Y-131021D02*
X316954Y-129688D01*
X318021Y-129021D01*
X319088Y-129021D01*
X320154Y-129688D01*
X320688Y-131021D01*
X320688Y-134354D01*
X320688Y-135021D01*
X319088Y-133688D01*
X318021Y-133688D01*
X316954Y-134354D01*
X316421Y-135688D01*
X316421Y-137688D01*
X316954Y-139021D01*
X318021Y-139688D01*
X319088Y-139688D01*
X320154Y-139021D01*
X320688Y-137688D01*
X320688Y-134354D01*
G54D11*
X310448Y-135021D02*
X306181Y-135021D01*
G54D11*
X298074Y-134354D02*
X295941Y-134354D01*
X295941Y-137688D01*
X296474Y-139021D01*
X297541Y-139688D01*
X298608Y-139688D01*
X299674Y-139021D01*
X300208Y-137688D01*
X300208Y-131021D01*
X299674Y-129688D01*
X298608Y-129021D01*
X297541Y-129021D01*
X296474Y-129688D01*
X295941Y-131021D01*
G54D11*
X293008Y-139688D02*
X293008Y-133688D01*
G54D11*
X293008Y-135021D02*
X291941Y-133688D01*
X290874Y-133688D01*
G54D11*
X284902Y-135021D02*
X280635Y-135021D01*
G54D11*
X274662Y-135021D02*
X270395Y-135021D01*
G54D11*
X272528Y-132354D02*
X272528Y-137688D01*
G54D11*
X267462Y-131021D02*
X266928Y-129688D01*
X265862Y-129021D01*
X264795Y-129021D01*
X263728Y-129688D01*
X263195Y-131021D01*
X263195Y-132354D01*
X263728Y-133688D01*
X264795Y-134354D01*
X263728Y-135021D01*
X263195Y-136354D01*
X263195Y-137688D01*
X263728Y-139021D01*
X264795Y-139688D01*
X265862Y-139688D01*
X266928Y-139021D01*
X267462Y-137688D01*
G54D11*
X259835Y-139688D02*
X260262Y-139688D01*
X260262Y-139154D01*
X259835Y-139154D01*
X259835Y-139688D01*
X260262Y-139688D01*
G54D11*
X256902Y-131021D02*
X256368Y-129688D01*
X255302Y-129021D01*
X254235Y-129021D01*
X253168Y-129688D01*
X252635Y-131021D01*
X252635Y-132354D01*
X253168Y-133688D01*
X254235Y-134354D01*
X253168Y-135021D01*
X252635Y-136354D01*
X252635Y-137688D01*
X253168Y-139021D01*
X254235Y-139688D01*
X255302Y-139688D01*
X256368Y-139021D01*
X256902Y-137688D01*
G54D11*
X249702Y-129021D02*
X247035Y-139688D01*
X244368Y-129021D01*
G54D11*
X320663Y-144908D02*
X316396Y-144908D01*
X316929Y-146242D01*
X317996Y-148242D01*
X319063Y-150908D01*
X319596Y-152908D01*
X319596Y-155575D01*
G54D11*
X310423Y-150908D02*
X306156Y-150908D01*
G54D11*
X300183Y-144908D02*
X300183Y-155575D01*
X297516Y-148908D01*
X294849Y-155575D01*
X294849Y-144908D01*
G54D11*
X291917Y-155575D02*
X291917Y-144908D01*
X289250Y-144908D01*
X288183Y-145575D01*
X287650Y-146908D01*
X287650Y-148242D01*
X288183Y-149575D01*
X289250Y-150242D01*
X288183Y-150908D01*
X287650Y-152242D01*
X287650Y-153575D01*
X288183Y-154908D01*
X289250Y-155575D01*
X291917Y-155575D01*
G54D11*
X291917Y-150242D02*
X289250Y-150242D01*
G54D11*
X284717Y-155575D02*
X284717Y-149575D01*
G54D11*
X284717Y-150908D02*
X283650Y-149575D01*
X282583Y-149575D01*
G54D11*
X276611Y-150908D02*
X272344Y-150908D01*
G54D11*
X266371Y-155575D02*
X266371Y-144908D01*
X263704Y-144908D01*
X262637Y-145575D01*
X262104Y-146908D01*
X262104Y-148242D01*
X262637Y-149575D01*
X263704Y-150242D01*
X262637Y-150908D01*
X262104Y-152242D01*
X262104Y-153575D01*
X262637Y-154908D01*
X263704Y-155575D01*
X266371Y-155575D01*
G54D11*
X266371Y-150242D02*
X263704Y-150242D01*
G54D11*
X255970Y-149575D02*
X255970Y-155575D01*
G54D11*
X255970Y-154242D02*
X256504Y-155308D01*
X257570Y-155575D01*
X258637Y-155308D01*
X259170Y-154242D01*
X259170Y-149575D01*
G54D11*
X251971Y-144908D02*
X251971Y-154908D01*
X251438Y-155575D01*
X250904Y-155308D01*
G54D11*
X253038Y-149575D02*
X250904Y-149575D01*
G54D11*
X246905Y-144908D02*
X246905Y-154908D01*
X246372Y-155575D01*
X245838Y-155308D01*
G54D11*
X247972Y-149575D02*
X245838Y-149575D01*
G54D11*
X239706Y-153975D02*
X239706Y-151308D01*
X240239Y-149975D01*
X241306Y-149575D01*
X242372Y-149975D01*
X242906Y-151308D01*
X242906Y-153975D01*
X242372Y-155308D01*
X241306Y-155575D01*
X240239Y-155308D01*
X239706Y-153975D01*
G54D11*
X236773Y-155575D02*
X236773Y-149575D01*
G54D11*
X236773Y-150908D02*
X236239Y-149975D01*
X235173Y-149575D01*
X234106Y-149975D01*
X233573Y-150908D01*
X233573Y-155575D01*
G54D11*
X317996Y-166117D02*
X319063Y-166117D01*
X320129Y-165450D01*
X320663Y-164117D01*
X320663Y-162783D01*
X320129Y-161450D01*
X319063Y-160783D01*
X317996Y-160783D01*
X316929Y-161450D01*
X316396Y-162783D01*
X316396Y-164117D01*
X316929Y-165450D01*
X317996Y-166117D01*
X316929Y-166783D01*
X316396Y-168117D01*
X316396Y-169450D01*
X316929Y-170783D01*
X317996Y-171450D01*
X319063Y-171450D01*
X320129Y-170783D01*
X320663Y-169450D01*
X320663Y-168117D01*
X320129Y-166783D01*
X319063Y-166117D01*
G54D11*
X310423Y-166783D02*
X306156Y-166783D01*
G54D11*
X300183Y-171450D02*
X300183Y-160783D01*
X297516Y-160783D01*
X296449Y-161450D01*
X295916Y-162783D01*
X295916Y-164117D01*
X296449Y-165450D01*
X297516Y-166117D01*
X296449Y-166783D01*
X295916Y-168117D01*
X295916Y-169450D01*
X296449Y-170783D01*
X297516Y-171450D01*
X300183Y-171450D01*
G54D11*
X300183Y-166117D02*
X297516Y-166117D01*
G54D11*
X292983Y-171450D02*
X292983Y-165450D01*
G54D11*
X292983Y-166783D02*
X291916Y-165450D01*
X290849Y-165450D01*
G54D11*
X284877Y-166783D02*
X280610Y-166783D01*
G54D11*
X272503Y-166117D02*
X270370Y-166117D01*
X270370Y-169450D01*
X270903Y-170783D01*
X271970Y-171450D01*
X273037Y-171450D01*
X274103Y-170783D01*
X274637Y-169450D01*
X274637Y-162783D01*
X274103Y-161450D01*
X273037Y-160783D01*
X271970Y-160783D01*
X270903Y-161450D01*
X270370Y-162783D01*
G54D11*
X267437Y-171450D02*
X267437Y-160783D01*
X263170Y-171450D01*
X263170Y-160783D01*
G54D11*
X260236Y-171450D02*
X260236Y-160783D01*
X257570Y-160783D01*
X256503Y-161450D01*
X255970Y-162783D01*
X255970Y-169450D01*
X256503Y-170783D01*
X257570Y-171450D01*
X260236Y-171450D01*
G54D10*
X323825Y-49200D02*
X328588Y-49200D01*
X328588Y-173025D01*
X323825Y-173025D01*
G54D12*
X346943Y-167192D02*
X345054Y-163792D01*
X343165Y-162658D01*
X339388Y-162658D01*
G54D12*
X339388Y-171725D02*
X354499Y-171725D01*
X354499Y-166058D01*
X353554Y-163792D01*
X351665Y-162658D01*
X349776Y-162658D01*
X347888Y-163792D01*
X346943Y-166058D01*
X346943Y-171725D01*
G54D12*
X354499Y-149435D02*
X342221Y-149435D01*
X340332Y-150569D01*
X339388Y-152835D01*
X339388Y-155102D01*
X340332Y-157369D01*
X342221Y-158502D01*
G54D12*
X345999Y-145279D02*
X345999Y-136212D01*
G54D12*
X339388Y-125256D02*
X354499Y-125256D01*
X345054Y-132056D01*
X343165Y-132056D01*
X343165Y-122989D01*
G54D12*
X354499Y-109766D02*
X354499Y-118833D01*
X347888Y-118833D01*
X347888Y-117700D01*
X348832Y-115433D01*
X348832Y-113166D01*
X347888Y-110900D01*
X345999Y-109766D01*
X342221Y-109766D01*
X340332Y-110900D01*
X339388Y-113166D01*
X339388Y-115433D01*
X340332Y-117700D01*
X342221Y-118833D01*
G54D12*
X354499Y-101227D02*
X339388Y-101227D01*
X348832Y-95560D01*
X339388Y-89894D01*
X354499Y-89894D01*
G54D12*
X339388Y-85738D02*
X347888Y-85738D01*
G54D12*
X350721Y-85738D02*
X350721Y-85738D01*
G54D12*
X339388Y-81582D02*
X347888Y-81582D01*
G54D12*
X345999Y-81582D02*
X347888Y-79315D01*
X347888Y-77049D01*
G54D12*
X339388Y-72893D02*
X347888Y-72893D01*
G54D12*
X350721Y-72893D02*
X350721Y-72893D01*
G54D12*
X339388Y-68737D02*
X347888Y-68737D01*
G54D12*
X345999Y-68737D02*
X347321Y-67604D01*
X347888Y-65337D01*
X347321Y-63070D01*
X345999Y-61937D01*
X339388Y-61937D01*
G54D12*
X336554Y-57781D02*
X335610Y-55514D01*
X335610Y-53928D01*
X336554Y-51661D01*
X338443Y-50981D01*
X347888Y-50981D01*
G54D12*
X345432Y-50981D02*
X347321Y-52114D01*
X347888Y-54381D01*
X347321Y-56648D01*
X345432Y-57781D01*
X341654Y-57781D01*
X339765Y-56648D01*
X339388Y-54381D01*
X339765Y-52114D01*
X341654Y-50981D01*
G54D13*
X196863Y-97833D02*
X196285Y-99278D01*
X195129Y-100000D01*
X193974Y-100000D01*
X192818Y-99278D01*
X192240Y-97833D01*
X192240Y-96389D01*
X192818Y-94944D01*
X193974Y-94222D01*
X195129Y-94222D01*
X196285Y-93500D01*
X196863Y-92056D01*
X196863Y-90611D01*
X196285Y-89167D01*
X195129Y-88444D01*
X193974Y-88444D01*
X192818Y-89167D01*
X192240Y-90611D01*
G54D13*
X184730Y-99278D02*
X185654Y-100000D01*
X186810Y-100000D01*
X187965Y-99278D01*
X188197Y-97833D01*
X188197Y-95378D01*
X187619Y-93933D01*
X186463Y-93500D01*
X185308Y-93933D01*
X184730Y-94944D01*
X184730Y-96389D01*
X188197Y-96389D01*
G54D13*
X180686Y-100000D02*
X180686Y-88444D01*
G54D13*
X173175Y-99278D02*
X174099Y-100000D01*
X175255Y-100000D01*
X176410Y-99278D01*
X176642Y-97833D01*
X176642Y-95378D01*
X176064Y-93933D01*
X174908Y-93500D01*
X173753Y-93933D01*
X173175Y-94944D01*
X173175Y-96389D01*
X176642Y-96389D01*
G54D13*
X166242Y-93933D02*
X167397Y-93500D01*
X168553Y-93933D01*
X169131Y-95378D01*
X169131Y-98267D01*
X168553Y-99711D01*
X167397Y-100000D01*
X166242Y-99711D01*
G54D13*
X161042Y-88444D02*
X161042Y-99278D01*
X160464Y-100000D01*
X159886Y-99711D01*
G54D13*
X162198Y-93500D02*
X159886Y-93500D01*
G54D13*
X151683Y-100000D02*
X151683Y-88444D01*
X148794Y-88444D01*
X147638Y-89167D01*
X147060Y-90611D01*
X147060Y-92056D01*
X147638Y-93500D01*
X148794Y-94222D01*
X151683Y-94222D01*
G54D13*
X139550Y-98267D02*
X139550Y-95378D01*
X140128Y-93933D01*
X141283Y-93500D01*
X142439Y-93933D01*
X143017Y-95378D01*
X143017Y-98267D01*
X142439Y-99711D01*
X141283Y-100000D01*
X140128Y-99711D01*
X139550Y-98267D01*
G54D13*
X135506Y-93500D02*
X133772Y-100000D01*
X132039Y-93500D01*
X130306Y-100000D01*
X129150Y-93500D01*
G54D13*
X121639Y-99278D02*
X122563Y-100000D01*
X123719Y-100000D01*
X124874Y-99278D01*
X125106Y-97833D01*
X125106Y-95378D01*
X124528Y-93933D01*
X123372Y-93500D01*
X122217Y-93933D01*
X121639Y-94944D01*
X121639Y-96389D01*
X125106Y-96389D01*
G54D13*
X117595Y-100000D02*
X117595Y-93500D01*
G54D13*
X117595Y-94944D02*
X116439Y-93500D01*
X115283Y-93500D01*
G54D11*
X165113Y-71870D02*
X162446Y-82537D01*
X159780Y-71870D01*
G54D11*
X154180Y-76937D02*
X155247Y-76537D01*
X156314Y-76937D01*
X156847Y-78270D01*
X156847Y-80937D01*
X156314Y-82270D01*
X155247Y-82537D01*
X154180Y-82270D01*
G54D11*
X148580Y-76937D02*
X149647Y-76537D01*
X150714Y-76937D01*
X151247Y-78270D01*
X151247Y-80937D01*
X150714Y-82270D01*
X149647Y-82537D01*
X148580Y-82270D01*
G54D11*
X189967Y-77204D02*
X187834Y-77204D01*
X187834Y-80537D01*
X188367Y-81870D01*
X189434Y-82537D01*
X190501Y-82537D01*
X191567Y-81870D01*
X192101Y-80537D01*
X192101Y-73870D01*
X191567Y-72537D01*
X190501Y-71870D01*
X189434Y-71870D01*
X188367Y-72537D01*
X187834Y-73870D01*
G54D11*
X184901Y-82537D02*
X184901Y-76537D01*
G54D11*
X184901Y-77870D02*
X184367Y-76937D01*
X183301Y-76537D01*
X182234Y-76937D01*
X181701Y-77870D01*
X181701Y-82537D01*
G54D11*
X175568Y-82537D02*
X175568Y-71870D01*
G54D11*
X175568Y-78270D02*
X176101Y-76937D01*
X177168Y-76537D01*
X178234Y-76937D01*
X178768Y-78270D01*
X178768Y-80937D01*
X178234Y-82270D01*
X177168Y-82537D01*
X176101Y-82270D01*
X175568Y-80937D01*
G54D11*
X137580Y-77204D02*
X135446Y-77204D01*
X135446Y-80537D01*
X135980Y-81870D01*
X137046Y-82537D01*
X138113Y-82537D01*
X139180Y-81870D01*
X139713Y-80537D01*
X139713Y-73870D01*
X139180Y-72537D01*
X138113Y-71870D01*
X137046Y-71870D01*
X135980Y-72537D01*
X135446Y-73870D01*
G54D11*
X132513Y-82537D02*
X132513Y-76537D01*
G54D11*
X132513Y-77870D02*
X131980Y-76937D01*
X130913Y-76537D01*
X129846Y-76937D01*
X129313Y-77870D01*
X129313Y-82537D01*
G54D11*
X123180Y-82537D02*
X123180Y-71870D01*
G54D11*
X123180Y-78270D02*
X123713Y-76937D01*
X124780Y-76537D01*
X125847Y-76937D01*
X126380Y-78270D01*
X126380Y-80937D01*
X125847Y-82270D01*
X124780Y-82537D01*
X123713Y-82270D01*
X123180Y-80937D01*
G54D11*
X138871Y-413558D02*
X138871Y-420225D01*
X139404Y-421558D01*
X140471Y-422225D01*
X141538Y-422225D01*
X142604Y-421558D01*
X143138Y-420225D01*
X143138Y-413558D01*
X142604Y-412225D01*
X141538Y-411558D01*
X140471Y-411558D01*
X139404Y-412225D01*
X138871Y-413558D01*
G54D11*
X135938Y-411558D02*
X135938Y-422225D01*
X132204Y-422225D01*
G54D11*
X125538Y-422225D02*
X129272Y-422225D01*
X129272Y-411558D01*
X125538Y-411558D01*
G54D11*
X129272Y-416892D02*
X125538Y-416892D01*
G54D11*
X122606Y-422225D02*
X122606Y-411558D01*
X119939Y-411558D01*
X118872Y-412225D01*
X118339Y-413558D01*
X118339Y-420225D01*
X118872Y-421558D01*
X119939Y-422225D01*
X122606Y-422225D01*
G54D11*
X115406Y-422225D02*
X110072Y-422225D01*
G54D11*
X107140Y-422225D02*
X107140Y-411558D01*
X104473Y-411558D01*
X103406Y-412225D01*
X102873Y-413558D01*
X102873Y-420225D01*
X103406Y-421558D01*
X104473Y-422225D01*
X107140Y-422225D01*
G54D11*
X99940Y-420225D02*
X99406Y-421558D01*
X98340Y-422225D01*
X97273Y-422225D01*
X96206Y-421558D01*
X95673Y-420225D01*
X95673Y-418892D01*
X96206Y-417558D01*
X97273Y-416892D01*
X98340Y-416892D01*
X99406Y-416225D01*
X99940Y-414892D01*
X99940Y-413558D01*
X99406Y-412225D01*
X98340Y-411558D01*
X97273Y-411558D01*
X96206Y-412225D01*
X95673Y-413558D01*
G54D11*
X92740Y-422225D02*
X87406Y-422225D01*
G54D11*
X84474Y-422225D02*
X84474Y-411558D01*
G54D11*
X80207Y-422225D02*
X80207Y-411558D01*
G54D11*
X84474Y-416892D02*
X80207Y-416892D01*
G54D11*
X75140Y-422225D02*
X75140Y-411558D01*
G54D11*
X77274Y-411558D02*
X73007Y-411558D01*
G54D11*
X70074Y-411558D02*
X70074Y-420225D01*
X69540Y-421558D01*
X68474Y-422225D01*
X67407Y-422225D01*
X66340Y-421558D01*
X65807Y-420225D01*
X65807Y-411558D01*
G54D11*
X62874Y-422225D02*
X57540Y-422225D01*
G54D11*
X54608Y-411558D02*
X51941Y-422225D01*
X49274Y-411558D01*
G54D11*
X43142Y-421558D02*
X43995Y-422225D01*
X45062Y-422225D01*
X46128Y-421558D01*
X46342Y-420225D01*
X46342Y-417958D01*
X45808Y-416625D01*
X44742Y-416225D01*
X43675Y-416625D01*
X43142Y-417558D01*
X43142Y-418892D01*
X46342Y-418892D01*
G54D11*
X40209Y-422225D02*
X40209Y-416225D01*
G54D11*
X40209Y-417558D02*
X39142Y-416225D01*
X38075Y-416225D01*
G54D11*
X34716Y-422225D02*
X35143Y-422225D01*
X35143Y-421692D01*
X34716Y-421692D01*
X34716Y-422225D01*
X35143Y-422225D01*
G54D11*
X27516Y-422225D02*
X31783Y-422225D01*
X31783Y-421558D01*
X31249Y-420225D01*
X28049Y-416225D01*
X27516Y-414892D01*
X27516Y-413558D01*
X28049Y-412225D01*
X29116Y-411558D01*
X30183Y-411558D01*
X31249Y-412225D01*
X31783Y-413558D01*
G54D11*
X24583Y-417558D02*
X20316Y-417558D01*
G54D11*
X14183Y-422225D02*
X14183Y-411558D01*
X17383Y-418225D01*
X17383Y-419558D01*
X13116Y-419558D01*
G54D14*
X353188Y-421250D02*
X349410Y-406139D01*
X345632Y-421250D01*
G54D14*
X351676Y-415584D02*
X347143Y-415584D01*
G54D14*
X340343Y-421250D02*
X340343Y-406139D01*
G54D14*
X330520Y-420306D02*
X331729Y-421250D01*
X333240Y-421250D01*
X334751Y-420306D01*
X335054Y-418417D01*
X335054Y-415206D01*
X334298Y-413317D01*
X332787Y-412750D01*
X331276Y-413317D01*
X330520Y-414639D01*
X330520Y-416528D01*
X335054Y-416528D01*
G54D14*
X325232Y-412750D02*
X319187Y-421250D01*
G54D14*
X325232Y-421250D02*
X319187Y-412750D01*
G54D14*
X313899Y-421250D02*
X306343Y-421250D01*
G54D14*
X295009Y-406139D02*
X295009Y-418417D01*
X295765Y-420306D01*
X297276Y-421250D01*
X298787Y-421250D01*
X300298Y-420306D01*
X301054Y-418417D01*
G54D14*
X285187Y-420306D02*
X286396Y-421250D01*
X287907Y-421250D01*
X289418Y-420306D01*
X289721Y-418417D01*
X289721Y-415206D01*
X288965Y-413317D01*
X287454Y-412750D01*
X285943Y-413317D01*
X285187Y-414639D01*
X285187Y-416528D01*
X289721Y-416528D01*
G54D14*
X278387Y-406139D02*
X278387Y-420306D01*
X277632Y-421250D01*
X276876Y-420872D01*
G54D14*
X279899Y-412750D02*
X276876Y-412750D01*
G54D11*
X147377Y-365374D02*
X146843Y-366707D01*
X145777Y-367374D01*
X144710Y-367374D01*
X143643Y-366707D01*
X143110Y-365374D01*
X143110Y-364040D01*
X143643Y-362707D01*
X144710Y-362040D01*
X145777Y-362040D01*
X146843Y-361374D01*
X147377Y-360040D01*
X147377Y-358707D01*
X146843Y-357374D01*
X145777Y-356707D01*
X144710Y-356707D01*
X143643Y-357374D01*
X143110Y-358707D01*
G54D11*
X136977Y-366707D02*
X137830Y-367374D01*
X138897Y-367374D01*
X139963Y-366707D01*
X140177Y-365374D01*
X140177Y-363107D01*
X139643Y-361774D01*
X138577Y-361374D01*
X137510Y-361774D01*
X136977Y-362707D01*
X136977Y-364040D01*
X140177Y-364040D01*
G54D11*
X134044Y-367374D02*
X134044Y-356707D01*
G54D11*
X127911Y-366707D02*
X128764Y-367374D01*
X129831Y-367374D01*
X130897Y-366707D01*
X131111Y-365374D01*
X131111Y-363107D01*
X130577Y-361774D01*
X129511Y-361374D01*
X128444Y-361774D01*
X127911Y-362707D01*
X127911Y-364040D01*
X131111Y-364040D01*
G54D11*
X122311Y-361774D02*
X123378Y-361374D01*
X124444Y-361774D01*
X124978Y-363107D01*
X124978Y-365774D01*
X124444Y-367107D01*
X123378Y-367374D01*
X122311Y-367107D01*
G54D11*
X118311Y-356707D02*
X118311Y-366707D01*
X117778Y-367374D01*
X117244Y-367107D01*
G54D11*
X119378Y-361374D02*
X117244Y-361374D01*
G54D10*
X61951Y-402100D02*
X61951Y-382100D01*
X99951Y-382100D01*
X99951Y-402100D01*
X61951Y-402100D01*
G54D15*
X53771Y-391830D02*
X51771Y-392941D01*
X51105Y-394052D01*
X51105Y-396275D01*
G54D15*
X56438Y-396275D02*
X56438Y-387386D01*
X53105Y-387386D01*
X51771Y-387941D01*
X51105Y-389052D01*
X51105Y-390164D01*
X51771Y-391275D01*
X53105Y-391830D01*
X56438Y-391830D01*
G54D15*
X48661Y-390719D02*
X45328Y-387386D01*
X45328Y-396275D01*
G54D10*
X36476Y-370662D02*
X36476Y-346762D01*
X67476Y-346762D01*
X67476Y-370662D01*
X36476Y-370662D01*
G54D10*
X42876Y-358662D02*
X50776Y-358662D01*
G54D10*
X53176Y-358662D02*
X61076Y-358662D01*
G54D10*
X50776Y-351562D02*
X50776Y-366662D01*
G54D10*
X53176Y-351562D02*
X53176Y-366662D01*
G54D15*
X19379Y-361558D02*
X20046Y-362669D01*
X21379Y-363225D01*
X22713Y-363225D01*
X24046Y-362669D01*
X24713Y-361558D01*
X24713Y-356002D01*
X24046Y-354891D01*
X22713Y-354336D01*
X21379Y-354336D01*
X20046Y-354891D01*
X19379Y-356002D01*
G54D15*
X16936Y-357669D02*
X13602Y-354336D01*
X13602Y-363225D01*
G54D11*
X148964Y-381502D02*
X148964Y-370836D01*
X146297Y-370836D01*
X145231Y-371502D01*
X144697Y-372836D01*
X144697Y-374169D01*
X145231Y-375502D01*
X146297Y-376169D01*
X148964Y-376169D01*
G54D11*
X138564Y-375502D02*
X138564Y-381502D01*
G54D11*
X138564Y-380169D02*
X139097Y-381236D01*
X140164Y-381502D01*
X141231Y-381236D01*
X141764Y-380169D01*
X141764Y-375502D01*
G54D11*
X135631Y-381502D02*
X135631Y-370836D01*
G54D11*
X132698Y-381502D02*
X132698Y-370836D01*
G54D11*
X129765Y-376836D02*
X125498Y-376836D01*
G54D11*
X122565Y-370836D02*
X122565Y-379502D01*
X122032Y-380836D01*
X120965Y-381502D01*
X119898Y-381502D01*
X118832Y-380836D01*
X118298Y-379502D01*
X118298Y-370836D01*
G54D11*
X115365Y-375502D02*
X115365Y-384169D01*
G54D11*
X115365Y-379502D02*
X114832Y-381236D01*
X113765Y-381502D01*
X112698Y-381236D01*
X112165Y-379902D01*
X112165Y-377236D01*
X112698Y-375902D01*
X113765Y-375502D01*
X114832Y-375902D01*
X115365Y-377502D01*
G54D10*
X661988Y-174625D02*
X503188Y-174625D01*
X503188Y-338188D01*
X661988Y-338188D01*
X661988Y-174625D01*
G54D10*
X520700Y-196850D02*
X520700Y-271438D01*
X644425Y-271438D01*
X644425Y-196850D01*
G54D10*
X520700Y-196850D02*
X541338Y-196850D01*
X541338Y-187325D01*
X550862Y-187325D01*
X550862Y-177800D01*
X582612Y-177800D01*
G54D10*
X644362Y-196850D02*
X623725Y-196850D01*
X623725Y-187325D01*
X614200Y-187325D01*
X614200Y-177800D01*
X582450Y-177800D01*
G54D11*
X708012Y-53658D02*
X705346Y-49658D01*
X705346Y-60325D01*
G54D11*
X699372Y-55658D02*
X695106Y-55658D01*
G54D11*
X689132Y-49658D02*
X689132Y-60325D01*
X686466Y-53658D01*
X683799Y-60325D01*
X683799Y-49658D01*
G54D11*
X676600Y-51658D02*
X676600Y-58325D01*
X677133Y-59658D01*
X678200Y-60325D01*
X679266Y-60325D01*
X680333Y-59658D01*
X680866Y-58325D01*
X680866Y-51658D01*
X680333Y-50325D01*
X679266Y-49658D01*
X678200Y-49658D01*
X677133Y-50325D01*
X676600Y-51658D01*
G54D11*
X673666Y-60325D02*
X673666Y-54325D01*
G54D11*
X673666Y-55658D02*
X672600Y-54325D01*
X671533Y-54325D01*
G54D11*
X665560Y-55658D02*
X661294Y-55658D01*
G54D11*
X655320Y-58325D02*
X654787Y-59658D01*
X653720Y-60325D01*
X652654Y-60325D01*
X651587Y-59658D01*
X651054Y-58325D01*
X651054Y-56992D01*
X651587Y-55658D01*
X652654Y-54992D01*
X653720Y-54992D01*
X654787Y-54325D01*
X655320Y-52992D01*
X655320Y-51658D01*
X654787Y-50325D01*
X653720Y-49658D01*
X652654Y-49658D01*
X651587Y-50325D01*
X651054Y-51658D01*
G54D11*
X648120Y-60325D02*
X648120Y-49658D01*
X645454Y-49658D01*
X644387Y-50325D01*
X643854Y-51658D01*
X643854Y-58325D01*
X644387Y-59658D01*
X645454Y-60325D01*
X648120Y-60325D01*
G54D11*
X640920Y-60325D02*
X638254Y-49658D01*
X635587Y-60325D01*
G54D11*
X639854Y-56325D02*
X636654Y-56325D01*
G54D11*
X703746Y-76200D02*
X708012Y-76200D01*
X708012Y-75533D01*
X707479Y-74200D01*
X704279Y-70200D01*
X703746Y-68867D01*
X703746Y-67533D01*
X704279Y-66200D01*
X705346Y-65533D01*
X706412Y-65533D01*
X707479Y-66200D01*
X708012Y-67533D01*
G54D11*
X697772Y-71533D02*
X693506Y-71533D01*
G54D11*
X683266Y-67533D02*
X683266Y-74200D01*
X683799Y-75533D01*
X684866Y-76200D01*
X685932Y-76200D01*
X686999Y-75533D01*
X687532Y-74200D01*
X687532Y-67533D01*
X686999Y-66200D01*
X685932Y-65533D01*
X684866Y-65533D01*
X683799Y-66200D01*
X683266Y-67533D01*
G54D11*
X680332Y-76200D02*
X680332Y-70200D01*
G54D11*
X680332Y-71533D02*
X679266Y-70200D01*
X678199Y-70200D01*
G54D11*
X672226Y-71533D02*
X667960Y-71533D01*
G54D11*
X659853Y-70867D02*
X657720Y-70867D01*
X657720Y-74200D01*
X658253Y-75533D01*
X659320Y-76200D01*
X660386Y-76200D01*
X661453Y-75533D01*
X661986Y-74200D01*
X661986Y-67533D01*
X661453Y-66200D01*
X660386Y-65533D01*
X659320Y-65533D01*
X658253Y-66200D01*
X657720Y-67533D01*
G54D11*
X654786Y-76200D02*
X654786Y-65533D01*
X650520Y-76200D01*
X650520Y-65533D01*
G54D11*
X647586Y-76200D02*
X647586Y-65533D01*
X644920Y-65533D01*
X643853Y-66200D01*
X643320Y-67533D01*
X643320Y-74200D01*
X643853Y-75533D01*
X644920Y-76200D01*
X647586Y-76200D01*
G54D11*
X708012Y-83408D02*
X707479Y-82075D01*
X706412Y-81408D01*
X705346Y-81408D01*
X704279Y-82075D01*
X703746Y-83408D01*
X703746Y-84742D01*
X704279Y-86075D01*
X705346Y-86742D01*
X704279Y-87408D01*
X703746Y-88742D01*
X703746Y-90075D01*
X704279Y-91408D01*
X705346Y-92075D01*
X706412Y-92075D01*
X707479Y-91408D01*
X708012Y-90075D01*
G54D11*
X697772Y-87408D02*
X693506Y-87408D01*
G54D11*
X687532Y-81408D02*
X687532Y-92075D01*
X684866Y-85408D01*
X682199Y-92075D01*
X682199Y-81408D01*
G54D11*
X677133Y-86742D02*
X675000Y-86742D01*
X675000Y-90075D01*
X675533Y-91408D01*
X676600Y-92075D01*
X677666Y-92075D01*
X678733Y-91408D01*
X679266Y-90075D01*
X679266Y-83408D01*
X678733Y-82075D01*
X677666Y-81408D01*
X676600Y-81408D01*
X675533Y-82075D01*
X675000Y-83408D01*
G54D11*
X672066Y-92075D02*
X672066Y-86075D01*
G54D11*
X672066Y-87408D02*
X671000Y-86075D01*
X669933Y-86075D01*
G54D11*
X663960Y-87408D02*
X659694Y-87408D01*
G54D11*
X653720Y-90075D02*
X653187Y-91408D01*
X652120Y-92075D01*
X651054Y-92075D01*
X649987Y-91408D01*
X649454Y-90075D01*
X649454Y-88742D01*
X649987Y-87408D01*
X651054Y-86742D01*
X652120Y-86742D01*
X653187Y-86075D01*
X653720Y-84742D01*
X653720Y-83408D01*
X653187Y-82075D01*
X652120Y-81408D01*
X651054Y-81408D01*
X649987Y-82075D01*
X649454Y-83408D01*
G54D11*
X642254Y-90075D02*
X642787Y-91408D01*
X643854Y-92075D01*
X644920Y-92075D01*
X645987Y-91408D01*
X646520Y-90075D01*
X646520Y-83408D01*
X645987Y-82075D01*
X644920Y-81408D01*
X643854Y-81408D01*
X642787Y-82075D01*
X642254Y-83408D01*
G54D11*
X639320Y-81408D02*
X639320Y-92075D01*
X635587Y-92075D01*
G54D11*
X704812Y-107950D02*
X704812Y-97283D01*
X708012Y-103950D01*
X708012Y-105283D01*
X703746Y-105283D01*
G54D11*
X697772Y-103283D02*
X693506Y-103283D01*
G54D11*
X687532Y-107950D02*
X687532Y-97283D01*
X684866Y-97283D01*
X683799Y-97950D01*
X683266Y-99283D01*
X683266Y-100617D01*
X683799Y-101950D01*
X684866Y-102617D01*
X683799Y-103283D01*
X683266Y-104617D01*
X683266Y-105950D01*
X683799Y-107283D01*
X684866Y-107950D01*
X687532Y-107950D01*
G54D11*
X687532Y-102617D02*
X684866Y-102617D01*
G54D11*
X680332Y-107950D02*
X680332Y-97283D01*
G54D11*
X674360Y-103283D02*
X670093Y-103283D01*
G54D11*
X661986Y-102617D02*
X659853Y-102617D01*
X659853Y-105950D01*
X660386Y-107283D01*
X661453Y-107950D01*
X662520Y-107950D01*
X663586Y-107283D01*
X664120Y-105950D01*
X664120Y-99283D01*
X663586Y-97950D01*
X662520Y-97283D01*
X661453Y-97283D01*
X660386Y-97950D01*
X659853Y-99283D01*
G54D11*
X656920Y-107950D02*
X656920Y-97283D01*
X652653Y-107950D01*
X652653Y-97283D01*
G54D11*
X649720Y-107950D02*
X649720Y-97283D01*
X647053Y-97283D01*
X645986Y-97950D01*
X645453Y-99283D01*
X645453Y-105950D01*
X645986Y-107283D01*
X647053Y-107950D01*
X649720Y-107950D01*
G54D11*
X703746Y-113158D02*
X708012Y-113158D01*
X708012Y-117825D01*
X707479Y-117825D01*
X706412Y-117158D01*
X705346Y-117158D01*
X704279Y-117825D01*
X703746Y-119158D01*
X703746Y-121825D01*
X704279Y-123158D01*
X705346Y-123825D01*
X706412Y-123825D01*
X707479Y-123158D01*
X708012Y-121825D01*
G54D11*
X697772Y-119158D02*
X693506Y-119158D01*
G54D11*
X687532Y-113158D02*
X687532Y-123825D01*
X684866Y-117158D01*
X682199Y-123825D01*
X682199Y-113158D01*
G54D11*
X679266Y-123825D02*
X679266Y-113158D01*
X676600Y-113158D01*
X675533Y-113825D01*
X675000Y-115158D01*
X675000Y-116492D01*
X675533Y-117825D01*
X676600Y-118492D01*
X675533Y-119158D01*
X675000Y-120492D01*
X675000Y-121825D01*
X675533Y-123158D01*
X676600Y-123825D01*
X679266Y-123825D01*
G54D11*
X679266Y-118492D02*
X676600Y-118492D01*
G54D11*
X672066Y-123825D02*
X672066Y-113158D01*
G54D11*
X666094Y-119158D02*
X661827Y-119158D01*
G54D11*
X655854Y-123825D02*
X655854Y-113158D01*
X653187Y-113158D01*
X652120Y-113825D01*
X651587Y-115158D01*
X651587Y-121825D01*
X652120Y-123158D01*
X653187Y-123825D01*
X655854Y-123825D01*
G54D11*
X648654Y-121825D02*
X648120Y-123158D01*
X647054Y-123825D01*
X645987Y-123825D01*
X644920Y-123158D01*
X644387Y-121825D01*
X644387Y-120492D01*
X644920Y-119158D01*
X645987Y-118492D01*
X647054Y-118492D01*
X648120Y-117825D01*
X648654Y-116492D01*
X648654Y-115158D01*
X648120Y-113825D01*
X647054Y-113158D01*
X645987Y-113158D01*
X644920Y-113825D01*
X644387Y-115158D01*
G54D11*
X641454Y-117158D02*
X638787Y-113158D01*
X638787Y-123825D01*
G54D11*
X633187Y-118492D02*
X634254Y-118492D01*
X635320Y-117825D01*
X635854Y-116492D01*
X635854Y-115158D01*
X635320Y-113825D01*
X634254Y-113158D01*
X633187Y-113158D01*
X632120Y-113825D01*
X631587Y-115158D01*
X631587Y-116492D01*
X632120Y-117825D01*
X633187Y-118492D01*
X632120Y-119158D01*
X631587Y-120492D01*
X631587Y-121825D01*
X632120Y-123158D01*
X633187Y-123825D01*
X634254Y-123825D01*
X635320Y-123158D01*
X635854Y-121825D01*
X635854Y-120492D01*
X635320Y-119158D01*
X634254Y-118492D01*
G54D11*
X628654Y-123825D02*
X628654Y-113158D01*
X625987Y-113158D01*
X624920Y-113825D01*
X624387Y-115158D01*
X624387Y-116492D01*
X624920Y-117825D01*
X625987Y-118492D01*
X624920Y-119158D01*
X624387Y-120492D01*
X624387Y-121825D01*
X624920Y-123158D01*
X625987Y-123825D01*
X628654Y-123825D01*
G54D11*
X628654Y-118492D02*
X625987Y-118492D01*
G54D11*
X617187Y-123825D02*
X621454Y-123825D01*
X621454Y-123158D01*
X620920Y-121825D01*
X617720Y-117825D01*
X617187Y-116492D01*
X617187Y-115158D01*
X617720Y-113825D01*
X618787Y-113158D01*
X619854Y-113158D01*
X620920Y-113825D01*
X621454Y-115158D01*
G54D11*
X609987Y-115158D02*
X609987Y-121825D01*
X610520Y-123158D01*
X611587Y-123825D01*
X612654Y-123825D01*
X613720Y-123158D01*
X614254Y-121825D01*
X614254Y-115158D01*
X613720Y-113825D01*
X612654Y-113158D01*
X611587Y-113158D01*
X610520Y-113825D01*
X609987Y-115158D01*
G54D11*
X703771Y-131021D02*
X704304Y-129688D01*
X705371Y-129021D01*
X706438Y-129021D01*
X707504Y-129688D01*
X708038Y-131021D01*
X708038Y-134354D01*
X708038Y-135021D01*
X706438Y-133688D01*
X705371Y-133688D01*
X704304Y-134354D01*
X703771Y-135688D01*
X703771Y-137688D01*
X704304Y-139021D01*
X705371Y-139688D01*
X706438Y-139688D01*
X707504Y-139021D01*
X708038Y-137688D01*
X708038Y-134354D01*
G54D11*
X697798Y-135021D02*
X693531Y-135021D01*
G54D11*
X685424Y-134354D02*
X683291Y-134354D01*
X683291Y-137688D01*
X683824Y-139021D01*
X684891Y-139688D01*
X685958Y-139688D01*
X687024Y-139021D01*
X687558Y-137688D01*
X687558Y-131021D01*
X687024Y-129688D01*
X685958Y-129021D01*
X684891Y-129021D01*
X683824Y-129688D01*
X683291Y-131021D01*
G54D11*
X680358Y-139688D02*
X680358Y-133688D01*
G54D11*
X680358Y-135021D02*
X679291Y-133688D01*
X678224Y-133688D01*
G54D11*
X672252Y-135021D02*
X667985Y-135021D01*
G54D11*
X662012Y-135021D02*
X657745Y-135021D01*
G54D11*
X659878Y-132354D02*
X659878Y-137688D01*
G54D11*
X654812Y-131021D02*
X654278Y-129688D01*
X653212Y-129021D01*
X652145Y-129021D01*
X651078Y-129688D01*
X650545Y-131021D01*
X650545Y-132354D01*
X651078Y-133688D01*
X652145Y-134354D01*
X651078Y-135021D01*
X650545Y-136354D01*
X650545Y-137688D01*
X651078Y-139021D01*
X652145Y-139688D01*
X653212Y-139688D01*
X654278Y-139021D01*
X654812Y-137688D01*
G54D11*
X647185Y-139688D02*
X647612Y-139688D01*
X647612Y-139154D01*
X647185Y-139154D01*
X647185Y-139688D01*
X647612Y-139688D01*
G54D11*
X644252Y-131021D02*
X643718Y-129688D01*
X642652Y-129021D01*
X641585Y-129021D01*
X640518Y-129688D01*
X639985Y-131021D01*
X639985Y-132354D01*
X640518Y-133688D01*
X641585Y-134354D01*
X640518Y-135021D01*
X639985Y-136354D01*
X639985Y-137688D01*
X640518Y-139021D01*
X641585Y-139688D01*
X642652Y-139688D01*
X643718Y-139021D01*
X644252Y-137688D01*
G54D11*
X637052Y-129021D02*
X634385Y-139688D01*
X631718Y-129021D01*
G54D11*
X708012Y-144908D02*
X703746Y-144908D01*
X704279Y-146242D01*
X705346Y-148242D01*
X706412Y-150908D01*
X706946Y-152908D01*
X706946Y-155575D01*
G54D11*
X697772Y-150908D02*
X693506Y-150908D01*
G54D11*
X687532Y-144908D02*
X687532Y-155575D01*
X684866Y-148908D01*
X682199Y-155575D01*
X682199Y-144908D01*
G54D11*
X679266Y-155575D02*
X679266Y-144908D01*
X676600Y-144908D01*
X675533Y-145575D01*
X675000Y-146908D01*
X675000Y-148242D01*
X675533Y-149575D01*
X676600Y-150242D01*
X675533Y-150908D01*
X675000Y-152242D01*
X675000Y-153575D01*
X675533Y-154908D01*
X676600Y-155575D01*
X679266Y-155575D01*
G54D11*
X679266Y-150242D02*
X676600Y-150242D01*
G54D11*
X672066Y-155575D02*
X672066Y-149575D01*
G54D11*
X672066Y-150908D02*
X671000Y-149575D01*
X669933Y-149575D01*
G54D11*
X663960Y-150908D02*
X659694Y-150908D01*
G54D11*
X653720Y-155575D02*
X653720Y-144908D01*
X651054Y-144908D01*
X649987Y-145575D01*
X649454Y-146908D01*
X649454Y-148242D01*
X649987Y-149575D01*
X651054Y-150242D01*
X649987Y-150908D01*
X649454Y-152242D01*
X649454Y-153575D01*
X649987Y-154908D01*
X651054Y-155575D01*
X653720Y-155575D01*
G54D11*
X653720Y-150242D02*
X651054Y-150242D01*
G54D11*
X643320Y-149575D02*
X643320Y-155575D01*
G54D11*
X643320Y-154242D02*
X643854Y-155308D01*
X644920Y-155575D01*
X645987Y-155308D01*
X646520Y-154242D01*
X646520Y-149575D01*
G54D11*
X639321Y-144908D02*
X639321Y-154908D01*
X638788Y-155575D01*
X638254Y-155308D01*
G54D11*
X640388Y-149575D02*
X638254Y-149575D01*
G54D11*
X634255Y-144908D02*
X634255Y-154908D01*
X633722Y-155575D01*
X633188Y-155308D01*
G54D11*
X635322Y-149575D02*
X633188Y-149575D01*
G54D11*
X627056Y-153975D02*
X627056Y-151308D01*
X627589Y-149975D01*
X628656Y-149575D01*
X629722Y-149975D01*
X630256Y-151308D01*
X630256Y-153975D01*
X629722Y-155308D01*
X628656Y-155575D01*
X627589Y-155308D01*
X627056Y-153975D01*
G54D11*
X624122Y-155575D02*
X624122Y-149575D01*
G54D11*
X624122Y-150908D02*
X623589Y-149975D01*
X622522Y-149575D01*
X621456Y-149975D01*
X620922Y-150908D01*
X620922Y-155575D01*
G54D11*
X705346Y-166117D02*
X706412Y-166117D01*
X707479Y-165450D01*
X708012Y-164117D01*
X708012Y-162783D01*
X707479Y-161450D01*
X706412Y-160783D01*
X705346Y-160783D01*
X704279Y-161450D01*
X703746Y-162783D01*
X703746Y-164117D01*
X704279Y-165450D01*
X705346Y-166117D01*
X704279Y-166783D01*
X703746Y-168117D01*
X703746Y-169450D01*
X704279Y-170783D01*
X705346Y-171450D01*
X706412Y-171450D01*
X707479Y-170783D01*
X708012Y-169450D01*
X708012Y-168117D01*
X707479Y-166783D01*
X706412Y-166117D01*
G54D11*
X697772Y-166783D02*
X693506Y-166783D01*
G54D11*
X687532Y-171450D02*
X687532Y-160783D01*
X684866Y-160783D01*
X683799Y-161450D01*
X683266Y-162783D01*
X683266Y-164117D01*
X683799Y-165450D01*
X684866Y-166117D01*
X683799Y-166783D01*
X683266Y-168117D01*
X683266Y-169450D01*
X683799Y-170783D01*
X684866Y-171450D01*
X687532Y-171450D01*
G54D11*
X687532Y-166117D02*
X684866Y-166117D01*
G54D11*
X680332Y-171450D02*
X680332Y-165450D01*
G54D11*
X680332Y-166783D02*
X679266Y-165450D01*
X678199Y-165450D01*
G54D11*
X672226Y-166783D02*
X667960Y-166783D01*
G54D11*
X659853Y-166117D02*
X657720Y-166117D01*
X657720Y-169450D01*
X658253Y-170783D01*
X659320Y-171450D01*
X660386Y-171450D01*
X661453Y-170783D01*
X661986Y-169450D01*
X661986Y-162783D01*
X661453Y-161450D01*
X660386Y-160783D01*
X659320Y-160783D01*
X658253Y-161450D01*
X657720Y-162783D01*
G54D11*
X654786Y-171450D02*
X654786Y-160783D01*
X650520Y-171450D01*
X650520Y-160783D01*
G54D11*
X647586Y-171450D02*
X647586Y-160783D01*
X644920Y-160783D01*
X643853Y-161450D01*
X643320Y-162783D01*
X643320Y-169450D01*
X643853Y-170783D01*
X644920Y-171450D01*
X647586Y-171450D01*
G54D10*
X711175Y-49200D02*
X715938Y-49200D01*
X715938Y-173025D01*
X711175Y-173025D01*
G54D12*
X734293Y-167192D02*
X732404Y-163792D01*
X730515Y-162658D01*
X726738Y-162658D01*
G54D12*
X726738Y-171725D02*
X741849Y-171725D01*
X741849Y-166058D01*
X740904Y-163792D01*
X739015Y-162658D01*
X737126Y-162658D01*
X735238Y-163792D01*
X734293Y-166058D01*
X734293Y-171725D01*
G54D12*
X741849Y-149435D02*
X729571Y-149435D01*
X727682Y-150569D01*
X726738Y-152835D01*
X726738Y-155102D01*
X727682Y-157369D01*
X729571Y-158502D01*
G54D12*
X733349Y-145279D02*
X733349Y-136212D01*
G54D12*
X726738Y-125256D02*
X741849Y-125256D01*
X732404Y-132056D01*
X730515Y-132056D01*
X730515Y-122989D01*
G54D12*
X741849Y-109766D02*
X741849Y-118833D01*
X735238Y-118833D01*
X735238Y-117700D01*
X736182Y-115433D01*
X736182Y-113166D01*
X735238Y-110900D01*
X733349Y-109766D01*
X729571Y-109766D01*
X727682Y-110900D01*
X726738Y-113166D01*
X726738Y-115433D01*
X727682Y-117700D01*
X729571Y-118833D01*
G54D12*
X741849Y-101227D02*
X726738Y-101227D01*
X736182Y-95560D01*
X726738Y-89894D01*
X741849Y-89894D01*
G54D12*
X726738Y-85738D02*
X735238Y-85738D01*
G54D12*
X738071Y-85738D02*
X738071Y-85738D01*
G54D12*
X726738Y-81582D02*
X735238Y-81582D01*
G54D12*
X733349Y-81582D02*
X735238Y-79315D01*
X735238Y-77049D01*
G54D12*
X726738Y-72893D02*
X735238Y-72893D01*
G54D12*
X738071Y-72893D02*
X738071Y-72893D01*
G54D12*
X726738Y-68737D02*
X735238Y-68737D01*
G54D12*
X733349Y-68737D02*
X734671Y-67604D01*
X735238Y-65337D01*
X734671Y-63070D01*
X733349Y-61937D01*
X726738Y-61937D01*
G54D12*
X723904Y-57781D02*
X722960Y-55514D01*
X722960Y-53928D01*
X723904Y-51661D01*
X725793Y-50981D01*
X735238Y-50981D01*
G54D12*
X732782Y-50981D02*
X734671Y-52114D01*
X735238Y-54381D01*
X734671Y-56648D01*
X732782Y-57781D01*
X729004Y-57781D01*
X727115Y-56648D01*
X726738Y-54381D01*
X727115Y-52114D01*
X729004Y-50981D01*
G54D13*
X584212Y-97833D02*
X583635Y-99278D01*
X582479Y-100000D01*
X581324Y-100000D01*
X580168Y-99278D01*
X579590Y-97833D01*
X579590Y-96389D01*
X580168Y-94944D01*
X581324Y-94222D01*
X582479Y-94222D01*
X583635Y-93500D01*
X584212Y-92056D01*
X584212Y-90611D01*
X583635Y-89167D01*
X582479Y-88444D01*
X581324Y-88444D01*
X580168Y-89167D01*
X579590Y-90611D01*
G54D13*
X572080Y-99278D02*
X573004Y-100000D01*
X574160Y-100000D01*
X575315Y-99278D01*
X575546Y-97833D01*
X575546Y-95378D01*
X574969Y-93933D01*
X573813Y-93500D01*
X572658Y-93933D01*
X572080Y-94944D01*
X572080Y-96389D01*
X575546Y-96389D01*
G54D13*
X568036Y-100000D02*
X568036Y-88444D01*
G54D13*
X560525Y-99278D02*
X561449Y-100000D01*
X562605Y-100000D01*
X563760Y-99278D01*
X563992Y-97833D01*
X563992Y-95378D01*
X563414Y-93933D01*
X562258Y-93500D01*
X561103Y-93933D01*
X560525Y-94944D01*
X560525Y-96389D01*
X563992Y-96389D01*
G54D13*
X553592Y-93933D02*
X554747Y-93500D01*
X555903Y-93933D01*
X556480Y-95378D01*
X556480Y-98267D01*
X555903Y-99711D01*
X554747Y-100000D01*
X553592Y-99711D01*
G54D13*
X548392Y-88444D02*
X548392Y-99278D01*
X547814Y-100000D01*
X547236Y-99711D01*
G54D13*
X549548Y-93500D02*
X547236Y-93500D01*
G54D13*
X539032Y-100000D02*
X539032Y-88444D01*
X536144Y-88444D01*
X534988Y-89167D01*
X534410Y-90611D01*
X534410Y-92056D01*
X534988Y-93500D01*
X536144Y-94222D01*
X539032Y-94222D01*
G54D13*
X526900Y-98267D02*
X526900Y-95378D01*
X527478Y-93933D01*
X528633Y-93500D01*
X529789Y-93933D01*
X530366Y-95378D01*
X530366Y-98267D01*
X529789Y-99711D01*
X528633Y-100000D01*
X527478Y-99711D01*
X526900Y-98267D01*
G54D13*
X522856Y-93500D02*
X521122Y-100000D01*
X519389Y-93500D01*
X517656Y-100000D01*
X516500Y-93500D01*
G54D13*
X508989Y-99278D02*
X509913Y-100000D01*
X511069Y-100000D01*
X512224Y-99278D01*
X512456Y-97833D01*
X512456Y-95378D01*
X511878Y-93933D01*
X510722Y-93500D01*
X509567Y-93933D01*
X508989Y-94944D01*
X508989Y-96389D01*
X512456Y-96389D01*
G54D13*
X504944Y-100000D02*
X504944Y-93500D01*
G54D13*
X504944Y-94944D02*
X503789Y-93500D01*
X502633Y-93500D01*
G54D11*
X552463Y-71870D02*
X549796Y-82537D01*
X547130Y-71870D01*
G54D11*
X541530Y-76937D02*
X542597Y-76537D01*
X543664Y-76937D01*
X544197Y-78270D01*
X544197Y-80937D01*
X543664Y-82270D01*
X542597Y-82537D01*
X541530Y-82270D01*
G54D11*
X535930Y-76937D02*
X536997Y-76537D01*
X538064Y-76937D01*
X538597Y-78270D01*
X538597Y-80937D01*
X538064Y-82270D01*
X536997Y-82537D01*
X535930Y-82270D01*
G54D11*
X577317Y-77204D02*
X575184Y-77204D01*
X575184Y-80537D01*
X575717Y-81870D01*
X576784Y-82537D01*
X577850Y-82537D01*
X578917Y-81870D01*
X579450Y-80537D01*
X579450Y-73870D01*
X578917Y-72537D01*
X577850Y-71870D01*
X576784Y-71870D01*
X575717Y-72537D01*
X575184Y-73870D01*
G54D11*
X572250Y-82537D02*
X572250Y-76537D01*
G54D11*
X572250Y-77870D02*
X571717Y-76937D01*
X570650Y-76537D01*
X569584Y-76937D01*
X569050Y-77870D01*
X569050Y-82537D01*
G54D11*
X562918Y-82537D02*
X562918Y-71870D01*
G54D11*
X562918Y-78270D02*
X563451Y-76937D01*
X564518Y-76537D01*
X565584Y-76937D01*
X566118Y-78270D01*
X566118Y-80937D01*
X565584Y-82270D01*
X564518Y-82537D01*
X563451Y-82270D01*
X562918Y-80937D01*
G54D11*
X524930Y-77204D02*
X522796Y-77204D01*
X522796Y-80537D01*
X523330Y-81870D01*
X524396Y-82537D01*
X525463Y-82537D01*
X526530Y-81870D01*
X527063Y-80537D01*
X527063Y-73870D01*
X526530Y-72537D01*
X525463Y-71870D01*
X524396Y-71870D01*
X523330Y-72537D01*
X522796Y-73870D01*
G54D11*
X519863Y-82537D02*
X519863Y-76537D01*
G54D11*
X519863Y-77870D02*
X519330Y-76937D01*
X518263Y-76537D01*
X517196Y-76937D01*
X516663Y-77870D01*
X516663Y-82537D01*
G54D11*
X510530Y-82537D02*
X510530Y-71870D01*
G54D11*
X510530Y-78270D02*
X511063Y-76937D01*
X512130Y-76537D01*
X513197Y-76937D01*
X513730Y-78270D01*
X513730Y-80937D01*
X513197Y-82270D01*
X512130Y-82537D01*
X511063Y-82270D01*
X510530Y-80937D01*
G54D11*
X526221Y-413558D02*
X526221Y-420225D01*
X526754Y-421558D01*
X527821Y-422225D01*
X528888Y-422225D01*
X529954Y-421558D01*
X530488Y-420225D01*
X530488Y-413558D01*
X529954Y-412225D01*
X528888Y-411558D01*
X527821Y-411558D01*
X526754Y-412225D01*
X526221Y-413558D01*
G54D11*
X523288Y-411558D02*
X523288Y-422225D01*
X519554Y-422225D01*
G54D11*
X512888Y-422225D02*
X516622Y-422225D01*
X516622Y-411558D01*
X512888Y-411558D01*
G54D11*
X516622Y-416892D02*
X512888Y-416892D01*
G54D11*
X509956Y-422225D02*
X509956Y-411558D01*
X507289Y-411558D01*
X506222Y-412225D01*
X505689Y-413558D01*
X505689Y-420225D01*
X506222Y-421558D01*
X507289Y-422225D01*
X509956Y-422225D01*
G54D11*
X502756Y-422225D02*
X497422Y-422225D01*
G54D11*
X494490Y-422225D02*
X494490Y-411558D01*
X491823Y-411558D01*
X490756Y-412225D01*
X490223Y-413558D01*
X490223Y-420225D01*
X490756Y-421558D01*
X491823Y-422225D01*
X494490Y-422225D01*
G54D11*
X487290Y-420225D02*
X486756Y-421558D01*
X485690Y-422225D01*
X484623Y-422225D01*
X483556Y-421558D01*
X483023Y-420225D01*
X483023Y-418892D01*
X483556Y-417558D01*
X484623Y-416892D01*
X485690Y-416892D01*
X486756Y-416225D01*
X487290Y-414892D01*
X487290Y-413558D01*
X486756Y-412225D01*
X485690Y-411558D01*
X484623Y-411558D01*
X483556Y-412225D01*
X483023Y-413558D01*
G54D11*
X480090Y-422225D02*
X474756Y-422225D01*
G54D11*
X471824Y-422225D02*
X471824Y-411558D01*
G54D11*
X467557Y-422225D02*
X467557Y-411558D01*
G54D11*
X471824Y-416892D02*
X467557Y-416892D01*
G54D11*
X462490Y-422225D02*
X462490Y-411558D01*
G54D11*
X464624Y-411558D02*
X460357Y-411558D01*
G54D11*
X457424Y-411558D02*
X457424Y-420225D01*
X456890Y-421558D01*
X455824Y-422225D01*
X454757Y-422225D01*
X453690Y-421558D01*
X453157Y-420225D01*
X453157Y-411558D01*
G54D11*
X450224Y-422225D02*
X444890Y-422225D01*
G54D11*
X441958Y-411558D02*
X439291Y-422225D01*
X436624Y-411558D01*
G54D11*
X430492Y-421558D02*
X431345Y-422225D01*
X432412Y-422225D01*
X433478Y-421558D01*
X433692Y-420225D01*
X433692Y-417958D01*
X433158Y-416625D01*
X432092Y-416225D01*
X431025Y-416625D01*
X430492Y-417558D01*
X430492Y-418892D01*
X433692Y-418892D01*
G54D11*
X427558Y-422225D02*
X427558Y-416225D01*
G54D11*
X427558Y-417558D02*
X426492Y-416225D01*
X425425Y-416225D01*
G54D11*
X422066Y-422225D02*
X422492Y-422225D01*
X422492Y-421692D01*
X422066Y-421692D01*
X422066Y-422225D01*
X422492Y-422225D01*
G54D11*
X414866Y-422225D02*
X419132Y-422225D01*
X419132Y-421558D01*
X418599Y-420225D01*
X415399Y-416225D01*
X414866Y-414892D01*
X414866Y-413558D01*
X415399Y-412225D01*
X416466Y-411558D01*
X417532Y-411558D01*
X418599Y-412225D01*
X419132Y-413558D01*
G54D11*
X411932Y-417558D02*
X407666Y-417558D01*
G54D11*
X401532Y-422225D02*
X401532Y-411558D01*
X404732Y-418225D01*
X404732Y-419558D01*
X400466Y-419558D01*
G54D14*
X740538Y-421250D02*
X736760Y-406139D01*
X732982Y-421250D01*
G54D14*
X739026Y-415584D02*
X734493Y-415584D01*
G54D14*
X727692Y-421250D02*
X727692Y-406139D01*
G54D14*
X717870Y-420306D02*
X719079Y-421250D01*
X720590Y-421250D01*
X722101Y-420306D01*
X722404Y-418417D01*
X722404Y-415206D01*
X721648Y-413317D01*
X720137Y-412750D01*
X718626Y-413317D01*
X717870Y-414639D01*
X717870Y-416528D01*
X722404Y-416528D01*
G54D14*
X712582Y-412750D02*
X706537Y-421250D01*
G54D14*
X712582Y-421250D02*
X706537Y-412750D01*
G54D14*
X701248Y-421250D02*
X693693Y-421250D01*
G54D14*
X682359Y-406139D02*
X682359Y-418417D01*
X683115Y-420306D01*
X684626Y-421250D01*
X686137Y-421250D01*
X687648Y-420306D01*
X688404Y-418417D01*
G54D14*
X672537Y-420306D02*
X673746Y-421250D01*
X675257Y-421250D01*
X676768Y-420306D01*
X677070Y-418417D01*
X677070Y-415206D01*
X676315Y-413317D01*
X674804Y-412750D01*
X673293Y-413317D01*
X672537Y-414639D01*
X672537Y-416528D01*
X677070Y-416528D01*
G54D14*
X665737Y-406139D02*
X665737Y-420306D01*
X664982Y-421250D01*
X664226Y-420872D01*
G54D14*
X667248Y-412750D02*
X664226Y-412750D01*
G54D11*
X534726Y-365374D02*
X534193Y-366707D01*
X533126Y-367374D01*
X532060Y-367374D01*
X530993Y-366707D01*
X530460Y-365374D01*
X530460Y-364040D01*
X530993Y-362707D01*
X532060Y-362040D01*
X533126Y-362040D01*
X534193Y-361374D01*
X534726Y-360040D01*
X534726Y-358707D01*
X534193Y-357374D01*
X533126Y-356707D01*
X532060Y-356707D01*
X530993Y-357374D01*
X530460Y-358707D01*
G54D11*
X524326Y-366707D02*
X525180Y-367374D01*
X526246Y-367374D01*
X527313Y-366707D01*
X527526Y-365374D01*
X527526Y-363107D01*
X526993Y-361774D01*
X525926Y-361374D01*
X524860Y-361774D01*
X524326Y-362707D01*
X524326Y-364040D01*
X527526Y-364040D01*
G54D11*
X521394Y-367374D02*
X521394Y-356707D01*
G54D11*
X515260Y-366707D02*
X516114Y-367374D01*
X517180Y-367374D01*
X518247Y-366707D01*
X518460Y-365374D01*
X518460Y-363107D01*
X517927Y-361774D01*
X516860Y-361374D01*
X515794Y-361774D01*
X515260Y-362707D01*
X515260Y-364040D01*
X518460Y-364040D01*
G54D11*
X509661Y-361774D02*
X510728Y-361374D01*
X511794Y-361774D01*
X512328Y-363107D01*
X512328Y-365774D01*
X511794Y-367107D01*
X510728Y-367374D01*
X509661Y-367107D01*
G54D11*
X505661Y-356707D02*
X505661Y-366707D01*
X505128Y-367374D01*
X504594Y-367107D01*
G54D11*
X506728Y-361374D02*
X504594Y-361374D01*
G54D10*
X449300Y-402100D02*
X449300Y-382100D01*
X487300Y-382100D01*
X487300Y-402100D01*
X449300Y-402100D01*
G54D15*
X441121Y-391830D02*
X439121Y-392941D01*
X438455Y-394052D01*
X438455Y-396275D01*
G54D15*
X443788Y-396275D02*
X443788Y-387386D01*
X440455Y-387386D01*
X439121Y-387941D01*
X438455Y-389052D01*
X438455Y-390164D01*
X439121Y-391275D01*
X440455Y-391830D01*
X443788Y-391830D01*
G54D15*
X436011Y-390719D02*
X432678Y-387386D01*
X432678Y-396275D01*
G54D10*
X423826Y-370662D02*
X423826Y-346762D01*
X454826Y-346762D01*
X454826Y-370662D01*
X423826Y-370662D01*
G54D10*
X430226Y-358662D02*
X438126Y-358662D01*
G54D10*
X440526Y-358662D02*
X448426Y-358662D01*
G54D10*
X438126Y-351562D02*
X438126Y-366662D01*
G54D10*
X440526Y-351562D02*
X440526Y-366662D01*
G54D15*
X406729Y-361558D02*
X407396Y-362669D01*
X408729Y-363225D01*
X410062Y-363225D01*
X411396Y-362669D01*
X412062Y-361558D01*
X412062Y-356002D01*
X411396Y-354891D01*
X410062Y-354336D01*
X408729Y-354336D01*
X407396Y-354891D01*
X406729Y-356002D01*
G54D15*
X404286Y-357669D02*
X400952Y-354336D01*
X400952Y-363225D01*
G54D11*
X536314Y-381502D02*
X536314Y-370836D01*
X533647Y-370836D01*
X532581Y-371502D01*
X532047Y-372836D01*
X532047Y-374169D01*
X532581Y-375502D01*
X533647Y-376169D01*
X536314Y-376169D01*
G54D11*
X525914Y-375502D02*
X525914Y-381502D01*
G54D11*
X525914Y-380169D02*
X526447Y-381236D01*
X527514Y-381502D01*
X528581Y-381236D01*
X529114Y-380169D01*
X529114Y-375502D01*
G54D11*
X522981Y-381502D02*
X522981Y-370836D01*
G54D11*
X520048Y-381502D02*
X520048Y-370836D01*
G54D11*
X517115Y-376836D02*
X512848Y-376836D01*
G54D11*
X509915Y-370836D02*
X509915Y-379502D01*
X509382Y-380836D01*
X508315Y-381502D01*
X507248Y-381502D01*
X506182Y-380836D01*
X505648Y-379502D01*
X505648Y-370836D01*
G54D11*
X502715Y-375502D02*
X502715Y-384169D01*
G54D11*
X502715Y-379502D02*
X502182Y-381236D01*
X501115Y-381502D01*
X500048Y-381236D01*
X499515Y-379902D01*
X499515Y-377236D01*
X500048Y-375902D01*
X501115Y-375502D01*
X502182Y-375902D01*
X502715Y-377502D01*
G54D10*
X274638Y-611188D02*
X115838Y-611188D01*
X115838Y-774750D01*
X274638Y-774750D01*
X274638Y-611188D01*
G54D10*
X133350Y-633412D02*
X133350Y-708000D01*
X257075Y-708000D01*
X257075Y-633412D01*
G54D10*
X133350Y-633412D02*
X153988Y-633412D01*
X153988Y-623888D01*
X163513Y-623888D01*
X163513Y-614362D01*
X195263Y-614362D01*
G54D10*
X257012Y-633412D02*
X236375Y-633412D01*
X236375Y-623888D01*
X226850Y-623888D01*
X226850Y-614362D01*
X195100Y-614362D01*
G54D11*
X320663Y-490221D02*
X317996Y-486221D01*
X317996Y-496888D01*
G54D11*
X312023Y-492221D02*
X307756Y-492221D01*
G54D11*
X301783Y-486221D02*
X301783Y-496888D01*
X299116Y-490221D01*
X296449Y-496888D01*
X296449Y-486221D01*
G54D11*
X289250Y-488221D02*
X289250Y-494888D01*
X289783Y-496221D01*
X290850Y-496888D01*
X291917Y-496888D01*
X292983Y-496221D01*
X293517Y-494888D01*
X293517Y-488221D01*
X292983Y-486888D01*
X291917Y-486221D01*
X290850Y-486221D01*
X289783Y-486888D01*
X289250Y-488221D01*
G54D11*
X286317Y-496888D02*
X286317Y-490888D01*
G54D11*
X286317Y-492221D02*
X285250Y-490888D01*
X284183Y-490888D01*
G54D11*
X278211Y-492221D02*
X273944Y-492221D01*
G54D11*
X267971Y-494888D02*
X267437Y-496221D01*
X266371Y-496888D01*
X265304Y-496888D01*
X264237Y-496221D01*
X263704Y-494888D01*
X263704Y-493554D01*
X264237Y-492221D01*
X265304Y-491554D01*
X266371Y-491554D01*
X267437Y-490888D01*
X267971Y-489554D01*
X267971Y-488221D01*
X267437Y-486888D01*
X266371Y-486221D01*
X265304Y-486221D01*
X264237Y-486888D01*
X263704Y-488221D01*
G54D11*
X260770Y-496888D02*
X260770Y-486221D01*
X258104Y-486221D01*
X257037Y-486888D01*
X256504Y-488221D01*
X256504Y-494888D01*
X257037Y-496221D01*
X258104Y-496888D01*
X260770Y-496888D01*
G54D11*
X253570Y-496888D02*
X250904Y-486221D01*
X248237Y-496888D01*
G54D11*
X252504Y-492888D02*
X249304Y-492888D01*
G54D11*
X316396Y-512762D02*
X320663Y-512762D01*
X320663Y-512096D01*
X320129Y-510762D01*
X316929Y-506762D01*
X316396Y-505429D01*
X316396Y-504096D01*
X316929Y-502762D01*
X317996Y-502096D01*
X319063Y-502096D01*
X320129Y-502762D01*
X320663Y-504096D01*
G54D11*
X310423Y-508096D02*
X306156Y-508096D01*
G54D11*
X295916Y-504096D02*
X295916Y-510762D01*
X296449Y-512096D01*
X297516Y-512762D01*
X298583Y-512762D01*
X299649Y-512096D01*
X300183Y-510762D01*
X300183Y-504096D01*
X299649Y-502762D01*
X298583Y-502096D01*
X297516Y-502096D01*
X296449Y-502762D01*
X295916Y-504096D01*
G54D11*
X292983Y-512762D02*
X292983Y-506762D01*
G54D11*
X292983Y-508096D02*
X291916Y-506762D01*
X290849Y-506762D01*
G54D11*
X284877Y-508096D02*
X280610Y-508096D01*
G54D11*
X272503Y-507429D02*
X270370Y-507429D01*
X270370Y-510762D01*
X270903Y-512096D01*
X271970Y-512762D01*
X273037Y-512762D01*
X274103Y-512096D01*
X274637Y-510762D01*
X274637Y-504096D01*
X274103Y-502762D01*
X273037Y-502096D01*
X271970Y-502096D01*
X270903Y-502762D01*
X270370Y-504096D01*
G54D11*
X267437Y-512762D02*
X267437Y-502096D01*
X263170Y-512762D01*
X263170Y-502096D01*
G54D11*
X260236Y-512762D02*
X260236Y-502096D01*
X257570Y-502096D01*
X256503Y-502762D01*
X255970Y-504096D01*
X255970Y-510762D01*
X256503Y-512096D01*
X257570Y-512762D01*
X260236Y-512762D01*
G54D11*
X320663Y-519971D02*
X320129Y-518638D01*
X319063Y-517971D01*
X317996Y-517971D01*
X316929Y-518638D01*
X316396Y-519971D01*
X316396Y-521304D01*
X316929Y-522638D01*
X317996Y-523304D01*
X316929Y-523971D01*
X316396Y-525304D01*
X316396Y-526638D01*
X316929Y-527971D01*
X317996Y-528638D01*
X319063Y-528638D01*
X320129Y-527971D01*
X320663Y-526638D01*
G54D11*
X310423Y-523971D02*
X306156Y-523971D01*
G54D11*
X300183Y-517971D02*
X300183Y-528638D01*
X297516Y-521971D01*
X294849Y-528638D01*
X294849Y-517971D01*
G54D11*
X289783Y-523304D02*
X287650Y-523304D01*
X287650Y-526638D01*
X288183Y-527971D01*
X289250Y-528638D01*
X290317Y-528638D01*
X291383Y-527971D01*
X291917Y-526638D01*
X291917Y-519971D01*
X291383Y-518638D01*
X290317Y-517971D01*
X289250Y-517971D01*
X288183Y-518638D01*
X287650Y-519971D01*
G54D11*
X284717Y-528638D02*
X284717Y-522638D01*
G54D11*
X284717Y-523971D02*
X283650Y-522638D01*
X282583Y-522638D01*
G54D11*
X276611Y-523971D02*
X272344Y-523971D01*
G54D11*
X266371Y-526638D02*
X265837Y-527971D01*
X264771Y-528638D01*
X263704Y-528638D01*
X262637Y-527971D01*
X262104Y-526638D01*
X262104Y-525304D01*
X262637Y-523971D01*
X263704Y-523304D01*
X264771Y-523304D01*
X265837Y-522638D01*
X266371Y-521304D01*
X266371Y-519971D01*
X265837Y-518638D01*
X264771Y-517971D01*
X263704Y-517971D01*
X262637Y-518638D01*
X262104Y-519971D01*
G54D11*
X254904Y-526638D02*
X255437Y-527971D01*
X256504Y-528638D01*
X257570Y-528638D01*
X258637Y-527971D01*
X259170Y-526638D01*
X259170Y-519971D01*
X258637Y-518638D01*
X257570Y-517971D01*
X256504Y-517971D01*
X255437Y-518638D01*
X254904Y-519971D01*
G54D11*
X251970Y-517971D02*
X251970Y-528638D01*
X248237Y-528638D01*
G54D11*
X317463Y-544512D02*
X317463Y-533846D01*
X320663Y-540512D01*
X320663Y-541846D01*
X316396Y-541846D01*
G54D11*
X310423Y-539846D02*
X306156Y-539846D01*
G54D11*
X300183Y-544512D02*
X300183Y-533846D01*
X297516Y-533846D01*
X296449Y-534512D01*
X295916Y-535846D01*
X295916Y-537179D01*
X296449Y-538512D01*
X297516Y-539179D01*
X296449Y-539846D01*
X295916Y-541179D01*
X295916Y-542512D01*
X296449Y-543846D01*
X297516Y-544512D01*
X300183Y-544512D01*
G54D11*
X300183Y-539179D02*
X297516Y-539179D01*
G54D11*
X292983Y-544512D02*
X292983Y-533846D01*
G54D11*
X287010Y-539846D02*
X282743Y-539846D01*
G54D11*
X274636Y-539179D02*
X272503Y-539179D01*
X272503Y-542512D01*
X273036Y-543846D01*
X274103Y-544512D01*
X275170Y-544512D01*
X276236Y-543846D01*
X276770Y-542512D01*
X276770Y-535846D01*
X276236Y-534512D01*
X275170Y-533846D01*
X274103Y-533846D01*
X273036Y-534512D01*
X272503Y-535846D01*
G54D11*
X269570Y-544512D02*
X269570Y-533846D01*
X265303Y-544512D01*
X265303Y-533846D01*
G54D11*
X262370Y-544512D02*
X262370Y-533846D01*
X259703Y-533846D01*
X258636Y-534512D01*
X258103Y-535846D01*
X258103Y-542512D01*
X258636Y-543846D01*
X259703Y-544512D01*
X262370Y-544512D01*
G54D11*
X316396Y-549721D02*
X320663Y-549721D01*
X320663Y-554388D01*
X320129Y-554388D01*
X319063Y-553721D01*
X317996Y-553721D01*
X316929Y-554388D01*
X316396Y-555721D01*
X316396Y-558388D01*
X316929Y-559721D01*
X317996Y-560388D01*
X319063Y-560388D01*
X320129Y-559721D01*
X320663Y-558388D01*
G54D11*
X310423Y-555721D02*
X306156Y-555721D01*
G54D11*
X300183Y-549721D02*
X300183Y-560388D01*
X297516Y-553721D01*
X294849Y-560388D01*
X294849Y-549721D01*
G54D11*
X291917Y-560388D02*
X291917Y-549721D01*
X289250Y-549721D01*
X288183Y-550388D01*
X287650Y-551721D01*
X287650Y-553054D01*
X288183Y-554388D01*
X289250Y-555054D01*
X288183Y-555721D01*
X287650Y-557054D01*
X287650Y-558388D01*
X288183Y-559721D01*
X289250Y-560388D01*
X291917Y-560388D01*
G54D11*
X291917Y-555054D02*
X289250Y-555054D01*
G54D11*
X284717Y-560388D02*
X284717Y-549721D01*
G54D11*
X278744Y-555721D02*
X274477Y-555721D01*
G54D11*
X268504Y-560388D02*
X268504Y-549721D01*
X265837Y-549721D01*
X264770Y-550388D01*
X264237Y-551721D01*
X264237Y-558388D01*
X264770Y-559721D01*
X265837Y-560388D01*
X268504Y-560388D01*
G54D11*
X261304Y-558388D02*
X260770Y-559721D01*
X259704Y-560388D01*
X258637Y-560388D01*
X257570Y-559721D01*
X257037Y-558388D01*
X257037Y-557054D01*
X257570Y-555721D01*
X258637Y-555054D01*
X259704Y-555054D01*
X260770Y-554388D01*
X261304Y-553054D01*
X261304Y-551721D01*
X260770Y-550388D01*
X259704Y-549721D01*
X258637Y-549721D01*
X257570Y-550388D01*
X257037Y-551721D01*
G54D11*
X254104Y-553721D02*
X251437Y-549721D01*
X251437Y-560388D01*
G54D11*
X245837Y-555054D02*
X246904Y-555054D01*
X247970Y-554388D01*
X248504Y-553054D01*
X248504Y-551721D01*
X247970Y-550388D01*
X246904Y-549721D01*
X245837Y-549721D01*
X244770Y-550388D01*
X244237Y-551721D01*
X244237Y-553054D01*
X244770Y-554388D01*
X245837Y-555054D01*
X244770Y-555721D01*
X244237Y-557054D01*
X244237Y-558388D01*
X244770Y-559721D01*
X245837Y-560388D01*
X246904Y-560388D01*
X247970Y-559721D01*
X248504Y-558388D01*
X248504Y-557054D01*
X247970Y-555721D01*
X246904Y-555054D01*
G54D11*
X241304Y-560388D02*
X241304Y-549721D01*
X238637Y-549721D01*
X237570Y-550388D01*
X237037Y-551721D01*
X237037Y-553054D01*
X237570Y-554388D01*
X238637Y-555054D01*
X237570Y-555721D01*
X237037Y-557054D01*
X237037Y-558388D01*
X237570Y-559721D01*
X238637Y-560388D01*
X241304Y-560388D01*
G54D11*
X241304Y-555054D02*
X238637Y-555054D01*
G54D11*
X229837Y-560388D02*
X234104Y-560388D01*
X234104Y-559721D01*
X233570Y-558388D01*
X230370Y-554388D01*
X229837Y-553054D01*
X229837Y-551721D01*
X230370Y-550388D01*
X231437Y-549721D01*
X232504Y-549721D01*
X233570Y-550388D01*
X234104Y-551721D01*
G54D11*
X222637Y-551721D02*
X222637Y-558388D01*
X223170Y-559721D01*
X224237Y-560388D01*
X225304Y-560388D01*
X226370Y-559721D01*
X226904Y-558388D01*
X226904Y-551721D01*
X226370Y-550388D01*
X225304Y-549721D01*
X224237Y-549721D01*
X223170Y-550388D01*
X222637Y-551721D01*
G54D11*
X316421Y-567583D02*
X316954Y-566250D01*
X318021Y-565583D01*
X319088Y-565583D01*
X320154Y-566250D01*
X320688Y-567583D01*
X320688Y-570917D01*
X320688Y-571583D01*
X319088Y-570250D01*
X318021Y-570250D01*
X316954Y-570917D01*
X316421Y-572250D01*
X316421Y-574250D01*
X316954Y-575583D01*
X318021Y-576250D01*
X319088Y-576250D01*
X320154Y-575583D01*
X320688Y-574250D01*
X320688Y-570917D01*
G54D11*
X310448Y-571583D02*
X306181Y-571583D01*
G54D11*
X298074Y-570917D02*
X295941Y-570917D01*
X295941Y-574250D01*
X296474Y-575583D01*
X297541Y-576250D01*
X298608Y-576250D01*
X299674Y-575583D01*
X300208Y-574250D01*
X300208Y-567583D01*
X299674Y-566250D01*
X298608Y-565583D01*
X297541Y-565583D01*
X296474Y-566250D01*
X295941Y-567583D01*
G54D11*
X293008Y-576250D02*
X293008Y-570250D01*
G54D11*
X293008Y-571583D02*
X291941Y-570250D01*
X290874Y-570250D01*
G54D11*
X284902Y-571583D02*
X280635Y-571583D01*
G54D11*
X274662Y-571583D02*
X270395Y-571583D01*
G54D11*
X272528Y-568917D02*
X272528Y-574250D01*
G54D11*
X267462Y-567583D02*
X266928Y-566250D01*
X265862Y-565583D01*
X264795Y-565583D01*
X263728Y-566250D01*
X263195Y-567583D01*
X263195Y-568917D01*
X263728Y-570250D01*
X264795Y-570917D01*
X263728Y-571583D01*
X263195Y-572917D01*
X263195Y-574250D01*
X263728Y-575583D01*
X264795Y-576250D01*
X265862Y-576250D01*
X266928Y-575583D01*
X267462Y-574250D01*
G54D11*
X259835Y-576250D02*
X260262Y-576250D01*
X260262Y-575717D01*
X259835Y-575717D01*
X259835Y-576250D01*
X260262Y-576250D01*
G54D11*
X256902Y-567583D02*
X256368Y-566250D01*
X255302Y-565583D01*
X254235Y-565583D01*
X253168Y-566250D01*
X252635Y-567583D01*
X252635Y-568917D01*
X253168Y-570250D01*
X254235Y-570917D01*
X253168Y-571583D01*
X252635Y-572917D01*
X252635Y-574250D01*
X253168Y-575583D01*
X254235Y-576250D01*
X255302Y-576250D01*
X256368Y-575583D01*
X256902Y-574250D01*
G54D11*
X249702Y-565583D02*
X247035Y-576250D01*
X244368Y-565583D01*
G54D11*
X320663Y-581471D02*
X316396Y-581471D01*
X316929Y-582804D01*
X317996Y-584804D01*
X319063Y-587471D01*
X319596Y-589471D01*
X319596Y-592138D01*
G54D11*
X310423Y-587471D02*
X306156Y-587471D01*
G54D11*
X300183Y-581471D02*
X300183Y-592138D01*
X297516Y-585471D01*
X294849Y-592138D01*
X294849Y-581471D01*
G54D11*
X291917Y-592138D02*
X291917Y-581471D01*
X289250Y-581471D01*
X288183Y-582138D01*
X287650Y-583471D01*
X287650Y-584804D01*
X288183Y-586138D01*
X289250Y-586804D01*
X288183Y-587471D01*
X287650Y-588804D01*
X287650Y-590138D01*
X288183Y-591471D01*
X289250Y-592138D01*
X291917Y-592138D01*
G54D11*
X291917Y-586804D02*
X289250Y-586804D01*
G54D11*
X284717Y-592138D02*
X284717Y-586138D01*
G54D11*
X284717Y-587471D02*
X283650Y-586138D01*
X282583Y-586138D01*
G54D11*
X276611Y-587471D02*
X272344Y-587471D01*
G54D11*
X266371Y-592138D02*
X266371Y-581471D01*
X263704Y-581471D01*
X262637Y-582138D01*
X262104Y-583471D01*
X262104Y-584804D01*
X262637Y-586138D01*
X263704Y-586804D01*
X262637Y-587471D01*
X262104Y-588804D01*
X262104Y-590138D01*
X262637Y-591471D01*
X263704Y-592138D01*
X266371Y-592138D01*
G54D11*
X266371Y-586804D02*
X263704Y-586804D01*
G54D11*
X255970Y-586138D02*
X255970Y-592138D01*
G54D11*
X255970Y-590804D02*
X256504Y-591871D01*
X257570Y-592138D01*
X258637Y-591871D01*
X259170Y-590804D01*
X259170Y-586138D01*
G54D11*
X251971Y-581471D02*
X251971Y-591471D01*
X251438Y-592138D01*
X250904Y-591871D01*
G54D11*
X253038Y-586138D02*
X250904Y-586138D01*
G54D11*
X246905Y-581471D02*
X246905Y-591471D01*
X246372Y-592138D01*
X245838Y-591871D01*
G54D11*
X247972Y-586138D02*
X245838Y-586138D01*
G54D11*
X239706Y-590538D02*
X239706Y-587871D01*
X240239Y-586538D01*
X241306Y-586138D01*
X242372Y-586538D01*
X242906Y-587871D01*
X242906Y-590538D01*
X242372Y-591871D01*
X241306Y-592138D01*
X240239Y-591871D01*
X239706Y-590538D01*
G54D11*
X236773Y-592138D02*
X236773Y-586138D01*
G54D11*
X236773Y-587471D02*
X236239Y-586538D01*
X235173Y-586138D01*
X234106Y-586538D01*
X233573Y-587471D01*
X233573Y-592138D01*
G54D11*
X317996Y-602679D02*
X319063Y-602679D01*
X320129Y-602012D01*
X320663Y-600679D01*
X320663Y-599346D01*
X320129Y-598012D01*
X319063Y-597346D01*
X317996Y-597346D01*
X316929Y-598012D01*
X316396Y-599346D01*
X316396Y-600679D01*
X316929Y-602012D01*
X317996Y-602679D01*
X316929Y-603346D01*
X316396Y-604679D01*
X316396Y-606012D01*
X316929Y-607346D01*
X317996Y-608012D01*
X319063Y-608012D01*
X320129Y-607346D01*
X320663Y-606012D01*
X320663Y-604679D01*
X320129Y-603346D01*
X319063Y-602679D01*
G54D11*
X310423Y-603346D02*
X306156Y-603346D01*
G54D11*
X300183Y-608012D02*
X300183Y-597346D01*
X297516Y-597346D01*
X296449Y-598012D01*
X295916Y-599346D01*
X295916Y-600679D01*
X296449Y-602012D01*
X297516Y-602679D01*
X296449Y-603346D01*
X295916Y-604679D01*
X295916Y-606012D01*
X296449Y-607346D01*
X297516Y-608012D01*
X300183Y-608012D01*
G54D11*
X300183Y-602679D02*
X297516Y-602679D01*
G54D11*
X292983Y-608012D02*
X292983Y-602012D01*
G54D11*
X292983Y-603346D02*
X291916Y-602012D01*
X290849Y-602012D01*
G54D11*
X284877Y-603346D02*
X280610Y-603346D01*
G54D11*
X272503Y-602679D02*
X270370Y-602679D01*
X270370Y-606012D01*
X270903Y-607346D01*
X271970Y-608012D01*
X273037Y-608012D01*
X274103Y-607346D01*
X274637Y-606012D01*
X274637Y-599346D01*
X274103Y-598012D01*
X273037Y-597346D01*
X271970Y-597346D01*
X270903Y-598012D01*
X270370Y-599346D01*
G54D11*
X267437Y-608012D02*
X267437Y-597346D01*
X263170Y-608012D01*
X263170Y-597346D01*
G54D11*
X260236Y-608012D02*
X260236Y-597346D01*
X257570Y-597346D01*
X256503Y-598012D01*
X255970Y-599346D01*
X255970Y-606012D01*
X256503Y-607346D01*
X257570Y-608012D01*
X260236Y-608012D01*
G54D10*
X323825Y-485762D02*
X328588Y-485762D01*
X328588Y-609588D01*
X323825Y-609588D01*
G54D12*
X346943Y-603754D02*
X345054Y-600354D01*
X343165Y-599221D01*
X339388Y-599221D01*
G54D12*
X339388Y-608288D02*
X354499Y-608288D01*
X354499Y-602621D01*
X353554Y-600354D01*
X351665Y-599221D01*
X349776Y-599221D01*
X347888Y-600354D01*
X346943Y-602621D01*
X346943Y-608288D01*
G54D12*
X354499Y-585998D02*
X342221Y-585998D01*
X340332Y-587131D01*
X339388Y-589398D01*
X339388Y-591664D01*
X340332Y-593931D01*
X342221Y-595064D01*
G54D12*
X345999Y-581842D02*
X345999Y-572775D01*
G54D12*
X339388Y-561818D02*
X354499Y-561818D01*
X345054Y-568618D01*
X343165Y-568618D01*
X343165Y-559552D01*
G54D12*
X354499Y-546329D02*
X354499Y-555396D01*
X347888Y-555396D01*
X347888Y-554262D01*
X348832Y-551996D01*
X348832Y-549729D01*
X347888Y-547462D01*
X345999Y-546329D01*
X342221Y-546329D01*
X340332Y-547462D01*
X339388Y-549729D01*
X339388Y-551996D01*
X340332Y-554262D01*
X342221Y-555396D01*
G54D12*
X354499Y-537790D02*
X339388Y-537790D01*
X348832Y-532123D01*
X339388Y-526456D01*
X354499Y-526456D01*
G54D12*
X339388Y-522300D02*
X347888Y-522300D01*
G54D12*
X350721Y-522300D02*
X350721Y-522300D01*
G54D12*
X339388Y-518144D02*
X347888Y-518144D01*
G54D12*
X345999Y-518144D02*
X347888Y-515878D01*
X347888Y-513611D01*
G54D12*
X339388Y-509456D02*
X347888Y-509456D01*
G54D12*
X350721Y-509456D02*
X350721Y-509456D01*
G54D12*
X339388Y-505300D02*
X347888Y-505300D01*
G54D12*
X345999Y-505300D02*
X347321Y-504166D01*
X347888Y-501900D01*
X347321Y-499633D01*
X345999Y-498500D01*
X339388Y-498500D01*
G54D12*
X336554Y-494344D02*
X335610Y-492077D01*
X335610Y-490490D01*
X336554Y-488224D01*
X338443Y-487544D01*
X347888Y-487544D01*
G54D12*
X345432Y-487544D02*
X347321Y-488677D01*
X347888Y-490944D01*
X347321Y-493210D01*
X345432Y-494344D01*
X341654Y-494344D01*
X339765Y-493210D01*
X339388Y-490944D01*
X339765Y-488677D01*
X341654Y-487544D01*
G54D13*
X196863Y-534396D02*
X196285Y-535840D01*
X195129Y-536562D01*
X193974Y-536562D01*
X192818Y-535840D01*
X192240Y-534396D01*
X192240Y-532951D01*
X192818Y-531507D01*
X193974Y-530785D01*
X195129Y-530785D01*
X196285Y-530062D01*
X196863Y-528618D01*
X196863Y-527174D01*
X196285Y-525729D01*
X195129Y-525007D01*
X193974Y-525007D01*
X192818Y-525729D01*
X192240Y-527174D01*
G54D13*
X184730Y-535840D02*
X185654Y-536562D01*
X186810Y-536562D01*
X187965Y-535840D01*
X188197Y-534396D01*
X188197Y-531940D01*
X187619Y-530496D01*
X186463Y-530062D01*
X185308Y-530496D01*
X184730Y-531507D01*
X184730Y-532951D01*
X188197Y-532951D01*
G54D13*
X180686Y-536562D02*
X180686Y-525007D01*
G54D13*
X173175Y-535840D02*
X174099Y-536562D01*
X175255Y-536562D01*
X176410Y-535840D01*
X176642Y-534396D01*
X176642Y-531940D01*
X176064Y-530496D01*
X174908Y-530062D01*
X173753Y-530496D01*
X173175Y-531507D01*
X173175Y-532951D01*
X176642Y-532951D01*
G54D13*
X166242Y-530496D02*
X167397Y-530062D01*
X168553Y-530496D01*
X169131Y-531940D01*
X169131Y-534829D01*
X168553Y-536274D01*
X167397Y-536562D01*
X166242Y-536274D01*
G54D13*
X161042Y-525007D02*
X161042Y-535840D01*
X160464Y-536562D01*
X159886Y-536274D01*
G54D13*
X162198Y-530062D02*
X159886Y-530062D01*
G54D13*
X151683Y-536562D02*
X151683Y-525007D01*
X148794Y-525007D01*
X147638Y-525729D01*
X147060Y-527174D01*
X147060Y-528618D01*
X147638Y-530062D01*
X148794Y-530785D01*
X151683Y-530785D01*
G54D13*
X139550Y-534829D02*
X139550Y-531940D01*
X140128Y-530496D01*
X141283Y-530062D01*
X142439Y-530496D01*
X143017Y-531940D01*
X143017Y-534829D01*
X142439Y-536274D01*
X141283Y-536562D01*
X140128Y-536274D01*
X139550Y-534829D01*
G54D13*
X135506Y-530062D02*
X133772Y-536562D01*
X132039Y-530062D01*
X130306Y-536562D01*
X129150Y-530062D01*
G54D13*
X121639Y-535840D02*
X122563Y-536562D01*
X123719Y-536562D01*
X124874Y-535840D01*
X125106Y-534396D01*
X125106Y-531940D01*
X124528Y-530496D01*
X123372Y-530062D01*
X122217Y-530496D01*
X121639Y-531507D01*
X121639Y-532951D01*
X125106Y-532951D01*
G54D13*
X117595Y-536562D02*
X117595Y-530062D01*
G54D13*
X117595Y-531507D02*
X116439Y-530062D01*
X115283Y-530062D01*
G54D11*
X165113Y-508433D02*
X162446Y-519100D01*
X159780Y-508433D01*
G54D11*
X154180Y-513500D02*
X155247Y-513100D01*
X156314Y-513500D01*
X156847Y-514833D01*
X156847Y-517500D01*
X156314Y-518833D01*
X155247Y-519100D01*
X154180Y-518833D01*
G54D11*
X148580Y-513500D02*
X149647Y-513100D01*
X150714Y-513500D01*
X151247Y-514833D01*
X151247Y-517500D01*
X150714Y-518833D01*
X149647Y-519100D01*
X148580Y-518833D01*
G54D11*
X189967Y-513766D02*
X187834Y-513766D01*
X187834Y-517100D01*
X188367Y-518433D01*
X189434Y-519100D01*
X190501Y-519100D01*
X191567Y-518433D01*
X192101Y-517100D01*
X192101Y-510433D01*
X191567Y-509100D01*
X190501Y-508433D01*
X189434Y-508433D01*
X188367Y-509100D01*
X187834Y-510433D01*
G54D11*
X184901Y-519100D02*
X184901Y-513100D01*
G54D11*
X184901Y-514433D02*
X184367Y-513500D01*
X183301Y-513100D01*
X182234Y-513500D01*
X181701Y-514433D01*
X181701Y-519100D01*
G54D11*
X175568Y-519100D02*
X175568Y-508433D01*
G54D11*
X175568Y-514833D02*
X176101Y-513500D01*
X177168Y-513100D01*
X178234Y-513500D01*
X178768Y-514833D01*
X178768Y-517500D01*
X178234Y-518833D01*
X177168Y-519100D01*
X176101Y-518833D01*
X175568Y-517500D01*
G54D11*
X137580Y-513766D02*
X135446Y-513766D01*
X135446Y-517100D01*
X135980Y-518433D01*
X137046Y-519100D01*
X138113Y-519100D01*
X139180Y-518433D01*
X139713Y-517100D01*
X139713Y-510433D01*
X139180Y-509100D01*
X138113Y-508433D01*
X137046Y-508433D01*
X135980Y-509100D01*
X135446Y-510433D01*
G54D11*
X132513Y-519100D02*
X132513Y-513100D01*
G54D11*
X132513Y-514433D02*
X131980Y-513500D01*
X130913Y-513100D01*
X129846Y-513500D01*
X129313Y-514433D01*
X129313Y-519100D01*
G54D11*
X123180Y-519100D02*
X123180Y-508433D01*
G54D11*
X123180Y-514833D02*
X123713Y-513500D01*
X124780Y-513100D01*
X125847Y-513500D01*
X126380Y-514833D01*
X126380Y-517500D01*
X125847Y-518833D01*
X124780Y-519100D01*
X123713Y-518833D01*
X123180Y-517500D01*
G54D11*
X138871Y-850121D02*
X138871Y-856788D01*
X139404Y-858121D01*
X140471Y-858788D01*
X141538Y-858788D01*
X142604Y-858121D01*
X143138Y-856788D01*
X143138Y-850121D01*
X142604Y-848788D01*
X141538Y-848121D01*
X140471Y-848121D01*
X139404Y-848788D01*
X138871Y-850121D01*
G54D11*
X135938Y-848121D02*
X135938Y-858788D01*
X132204Y-858788D01*
G54D11*
X125538Y-858788D02*
X129272Y-858788D01*
X129272Y-848121D01*
X125538Y-848121D01*
G54D11*
X129272Y-853454D02*
X125538Y-853454D01*
G54D11*
X122606Y-858788D02*
X122606Y-848121D01*
X119939Y-848121D01*
X118872Y-848788D01*
X118339Y-850121D01*
X118339Y-856788D01*
X118872Y-858121D01*
X119939Y-858788D01*
X122606Y-858788D01*
G54D11*
X115406Y-858788D02*
X110072Y-858788D01*
G54D11*
X107140Y-858788D02*
X107140Y-848121D01*
X104473Y-848121D01*
X103406Y-848788D01*
X102873Y-850121D01*
X102873Y-856788D01*
X103406Y-858121D01*
X104473Y-858788D01*
X107140Y-858788D01*
G54D11*
X99940Y-856788D02*
X99406Y-858121D01*
X98340Y-858788D01*
X97273Y-858788D01*
X96206Y-858121D01*
X95673Y-856788D01*
X95673Y-855454D01*
X96206Y-854121D01*
X97273Y-853454D01*
X98340Y-853454D01*
X99406Y-852788D01*
X99940Y-851454D01*
X99940Y-850121D01*
X99406Y-848788D01*
X98340Y-848121D01*
X97273Y-848121D01*
X96206Y-848788D01*
X95673Y-850121D01*
G54D11*
X92740Y-858788D02*
X87406Y-858788D01*
G54D11*
X84474Y-858788D02*
X84474Y-848121D01*
G54D11*
X80207Y-858788D02*
X80207Y-848121D01*
G54D11*
X84474Y-853454D02*
X80207Y-853454D01*
G54D11*
X75140Y-858788D02*
X75140Y-848121D01*
G54D11*
X77274Y-848121D02*
X73007Y-848121D01*
G54D11*
X70074Y-848121D02*
X70074Y-856788D01*
X69540Y-858121D01*
X68474Y-858788D01*
X67407Y-858788D01*
X66340Y-858121D01*
X65807Y-856788D01*
X65807Y-848121D01*
G54D11*
X62874Y-858788D02*
X57540Y-858788D01*
G54D11*
X54608Y-848121D02*
X51941Y-858788D01*
X49274Y-848121D01*
G54D11*
X43142Y-858121D02*
X43995Y-858788D01*
X45062Y-858788D01*
X46128Y-858121D01*
X46342Y-856788D01*
X46342Y-854521D01*
X45808Y-853188D01*
X44742Y-852788D01*
X43675Y-853188D01*
X43142Y-854121D01*
X43142Y-855454D01*
X46342Y-855454D01*
G54D11*
X40209Y-858788D02*
X40209Y-852788D01*
G54D11*
X40209Y-854121D02*
X39142Y-852788D01*
X38075Y-852788D01*
G54D11*
X34716Y-858788D02*
X35143Y-858788D01*
X35143Y-858254D01*
X34716Y-858254D01*
X34716Y-858788D01*
X35143Y-858788D01*
G54D11*
X27516Y-858788D02*
X31783Y-858788D01*
X31783Y-858121D01*
X31249Y-856788D01*
X28049Y-852788D01*
X27516Y-851454D01*
X27516Y-850121D01*
X28049Y-848788D01*
X29116Y-848121D01*
X30183Y-848121D01*
X31249Y-848788D01*
X31783Y-850121D01*
G54D11*
X24583Y-854121D02*
X20316Y-854121D01*
G54D11*
X14183Y-858788D02*
X14183Y-848121D01*
X17383Y-854788D01*
X17383Y-856121D01*
X13116Y-856121D01*
G54D14*
X353188Y-857813D02*
X349410Y-842702D01*
X345632Y-857813D01*
G54D14*
X351676Y-852146D02*
X347143Y-852146D01*
G54D14*
X340343Y-857813D02*
X340343Y-842702D01*
G54D14*
X330520Y-856868D02*
X331729Y-857813D01*
X333240Y-857813D01*
X334751Y-856868D01*
X335054Y-854979D01*
X335054Y-851768D01*
X334298Y-849879D01*
X332787Y-849313D01*
X331276Y-849879D01*
X330520Y-851202D01*
X330520Y-853090D01*
X335054Y-853090D01*
G54D14*
X325232Y-849313D02*
X319187Y-857813D01*
G54D14*
X325232Y-857813D02*
X319187Y-849313D01*
G54D14*
X313899Y-857813D02*
X306343Y-857813D01*
G54D14*
X295009Y-842702D02*
X295009Y-854979D01*
X295765Y-856868D01*
X297276Y-857813D01*
X298787Y-857813D01*
X300298Y-856868D01*
X301054Y-854979D01*
G54D14*
X285187Y-856868D02*
X286396Y-857813D01*
X287907Y-857813D01*
X289418Y-856868D01*
X289721Y-854979D01*
X289721Y-851768D01*
X288965Y-849879D01*
X287454Y-849313D01*
X285943Y-849879D01*
X285187Y-851202D01*
X285187Y-853090D01*
X289721Y-853090D01*
G54D14*
X278387Y-842702D02*
X278387Y-856868D01*
X277632Y-857813D01*
X276876Y-857435D01*
G54D14*
X279899Y-849313D02*
X276876Y-849313D01*
G54D11*
X147377Y-801936D02*
X146843Y-803270D01*
X145777Y-803936D01*
X144710Y-803936D01*
X143643Y-803270D01*
X143110Y-801936D01*
X143110Y-800603D01*
X143643Y-799270D01*
X144710Y-798603D01*
X145777Y-798603D01*
X146843Y-797936D01*
X147377Y-796603D01*
X147377Y-795270D01*
X146843Y-793936D01*
X145777Y-793270D01*
X144710Y-793270D01*
X143643Y-793936D01*
X143110Y-795270D01*
G54D11*
X136977Y-803270D02*
X137830Y-803936D01*
X138897Y-803936D01*
X139963Y-803270D01*
X140177Y-801936D01*
X140177Y-799670D01*
X139643Y-798336D01*
X138577Y-797936D01*
X137510Y-798336D01*
X136977Y-799270D01*
X136977Y-800603D01*
X140177Y-800603D01*
G54D11*
X134044Y-803936D02*
X134044Y-793270D01*
G54D11*
X127911Y-803270D02*
X128764Y-803936D01*
X129831Y-803936D01*
X130897Y-803270D01*
X131111Y-801936D01*
X131111Y-799670D01*
X130577Y-798336D01*
X129511Y-797936D01*
X128444Y-798336D01*
X127911Y-799270D01*
X127911Y-800603D01*
X131111Y-800603D01*
G54D11*
X122311Y-798336D02*
X123378Y-797936D01*
X124444Y-798336D01*
X124978Y-799670D01*
X124978Y-802336D01*
X124444Y-803670D01*
X123378Y-803936D01*
X122311Y-803670D01*
G54D11*
X118311Y-793270D02*
X118311Y-803270D01*
X117778Y-803936D01*
X117244Y-803670D01*
G54D11*
X119378Y-797936D02*
X117244Y-797936D01*
G54D10*
X61951Y-838662D02*
X61951Y-818662D01*
X99951Y-818662D01*
X99951Y-838662D01*
X61951Y-838662D01*
G54D15*
X53771Y-828393D02*
X51771Y-829504D01*
X51105Y-830615D01*
X51105Y-832837D01*
G54D15*
X56438Y-832837D02*
X56438Y-823948D01*
X53105Y-823948D01*
X51771Y-824504D01*
X51105Y-825615D01*
X51105Y-826726D01*
X51771Y-827837D01*
X53105Y-828393D01*
X56438Y-828393D01*
G54D15*
X48661Y-827282D02*
X45328Y-823948D01*
X45328Y-832837D01*
G54D10*
X36476Y-807225D02*
X36476Y-783325D01*
X67476Y-783325D01*
X67476Y-807225D01*
X36476Y-807225D01*
G54D10*
X42876Y-795225D02*
X50776Y-795225D01*
G54D10*
X53176Y-795225D02*
X61076Y-795225D01*
G54D10*
X50776Y-788125D02*
X50776Y-803225D01*
G54D10*
X53176Y-788125D02*
X53176Y-803225D01*
G54D15*
X19379Y-798120D02*
X20046Y-799232D01*
X21379Y-799787D01*
X22713Y-799787D01*
X24046Y-799232D01*
X24713Y-798120D01*
X24713Y-792565D01*
X24046Y-791454D01*
X22713Y-790898D01*
X21379Y-790898D01*
X20046Y-791454D01*
X19379Y-792565D01*
G54D15*
X16936Y-794232D02*
X13602Y-790898D01*
X13602Y-799787D01*
G54D11*
X148964Y-818065D02*
X148964Y-807398D01*
X146297Y-807398D01*
X145231Y-808065D01*
X144697Y-809398D01*
X144697Y-810732D01*
X145231Y-812065D01*
X146297Y-812732D01*
X148964Y-812732D01*
G54D11*
X138564Y-812065D02*
X138564Y-818065D01*
G54D11*
X138564Y-816732D02*
X139097Y-817798D01*
X140164Y-818065D01*
X141231Y-817798D01*
X141764Y-816732D01*
X141764Y-812065D01*
G54D11*
X135631Y-818065D02*
X135631Y-807398D01*
G54D11*
X132698Y-818065D02*
X132698Y-807398D01*
G54D11*
X129765Y-813398D02*
X125498Y-813398D01*
G54D11*
X122565Y-807398D02*
X122565Y-816065D01*
X122032Y-817398D01*
X120965Y-818065D01*
X119898Y-818065D01*
X118832Y-817398D01*
X118298Y-816065D01*
X118298Y-807398D01*
G54D11*
X115365Y-812065D02*
X115365Y-820732D01*
G54D11*
X115365Y-816065D02*
X114832Y-817798D01*
X113765Y-818065D01*
X112698Y-817798D01*
X112165Y-816465D01*
X112165Y-813798D01*
X112698Y-812465D01*
X113765Y-812065D01*
X114832Y-812465D01*
X115365Y-814065D01*
G54D10*
X661988Y-611188D02*
X503188Y-611188D01*
X503188Y-774750D01*
X661988Y-774750D01*
X661988Y-611188D01*
G54D10*
X520700Y-633412D02*
X520700Y-708000D01*
X644425Y-708000D01*
X644425Y-633412D01*
G54D10*
X520700Y-633412D02*
X541338Y-633412D01*
X541338Y-623888D01*
X550862Y-623888D01*
X550862Y-614363D01*
X582612Y-614363D01*
G54D10*
X644362Y-633412D02*
X623725Y-633412D01*
X623725Y-623888D01*
X614200Y-623888D01*
X614200Y-614363D01*
X582450Y-614363D01*
G54D11*
X708012Y-490221D02*
X705346Y-486221D01*
X705346Y-496888D01*
G54D11*
X699372Y-492221D02*
X695106Y-492221D01*
G54D11*
X689132Y-486221D02*
X689132Y-496888D01*
X686466Y-490221D01*
X683799Y-496888D01*
X683799Y-486221D01*
G54D11*
X676600Y-488221D02*
X676600Y-494888D01*
X677133Y-496221D01*
X678200Y-496888D01*
X679266Y-496888D01*
X680333Y-496221D01*
X680866Y-494888D01*
X680866Y-488221D01*
X680333Y-486888D01*
X679266Y-486221D01*
X678200Y-486221D01*
X677133Y-486888D01*
X676600Y-488221D01*
G54D11*
X673666Y-496888D02*
X673666Y-490888D01*
G54D11*
X673666Y-492221D02*
X672600Y-490888D01*
X671533Y-490888D01*
G54D11*
X665560Y-492221D02*
X661294Y-492221D01*
G54D11*
X655320Y-494888D02*
X654787Y-496221D01*
X653720Y-496888D01*
X652654Y-496888D01*
X651587Y-496221D01*
X651054Y-494888D01*
X651054Y-493554D01*
X651587Y-492221D01*
X652654Y-491554D01*
X653720Y-491554D01*
X654787Y-490888D01*
X655320Y-489554D01*
X655320Y-488221D01*
X654787Y-486888D01*
X653720Y-486221D01*
X652654Y-486221D01*
X651587Y-486888D01*
X651054Y-488221D01*
G54D11*
X648120Y-496888D02*
X648120Y-486221D01*
X645454Y-486221D01*
X644387Y-486888D01*
X643854Y-488221D01*
X643854Y-494888D01*
X644387Y-496221D01*
X645454Y-496888D01*
X648120Y-496888D01*
G54D11*
X640920Y-496888D02*
X638254Y-486221D01*
X635587Y-496888D01*
G54D11*
X639854Y-492888D02*
X636654Y-492888D01*
G54D11*
X703746Y-512762D02*
X708012Y-512762D01*
X708012Y-512096D01*
X707479Y-510762D01*
X704279Y-506762D01*
X703746Y-505429D01*
X703746Y-504096D01*
X704279Y-502762D01*
X705346Y-502096D01*
X706412Y-502096D01*
X707479Y-502762D01*
X708012Y-504096D01*
G54D11*
X697772Y-508096D02*
X693506Y-508096D01*
G54D11*
X683266Y-504096D02*
X683266Y-510762D01*
X683799Y-512096D01*
X684866Y-512762D01*
X685932Y-512762D01*
X686999Y-512096D01*
X687532Y-510762D01*
X687532Y-504096D01*
X686999Y-502762D01*
X685932Y-502096D01*
X684866Y-502096D01*
X683799Y-502762D01*
X683266Y-504096D01*
G54D11*
X680332Y-512762D02*
X680332Y-506762D01*
G54D11*
X680332Y-508096D02*
X679266Y-506762D01*
X678199Y-506762D01*
G54D11*
X672226Y-508096D02*
X667960Y-508096D01*
G54D11*
X659853Y-507429D02*
X657720Y-507429D01*
X657720Y-510762D01*
X658253Y-512096D01*
X659320Y-512762D01*
X660386Y-512762D01*
X661453Y-512096D01*
X661986Y-510762D01*
X661986Y-504096D01*
X661453Y-502762D01*
X660386Y-502096D01*
X659320Y-502096D01*
X658253Y-502762D01*
X657720Y-504096D01*
G54D11*
X654786Y-512762D02*
X654786Y-502096D01*
X650520Y-512762D01*
X650520Y-502096D01*
G54D11*
X647586Y-512762D02*
X647586Y-502096D01*
X644920Y-502096D01*
X643853Y-502762D01*
X643320Y-504096D01*
X643320Y-510762D01*
X643853Y-512096D01*
X644920Y-512762D01*
X647586Y-512762D01*
G54D11*
X708012Y-519971D02*
X707479Y-518638D01*
X706412Y-517971D01*
X705346Y-517971D01*
X704279Y-518638D01*
X703746Y-519971D01*
X703746Y-521304D01*
X704279Y-522638D01*
X705346Y-523304D01*
X704279Y-523971D01*
X703746Y-525304D01*
X703746Y-526638D01*
X704279Y-527971D01*
X705346Y-528638D01*
X706412Y-528638D01*
X707479Y-527971D01*
X708012Y-526638D01*
G54D11*
X697772Y-523971D02*
X693506Y-523971D01*
G54D11*
X687532Y-517971D02*
X687532Y-528638D01*
X684866Y-521971D01*
X682199Y-528638D01*
X682199Y-517971D01*
G54D11*
X677133Y-523304D02*
X675000Y-523304D01*
X675000Y-526638D01*
X675533Y-527971D01*
X676600Y-528638D01*
X677666Y-528638D01*
X678733Y-527971D01*
X679266Y-526638D01*
X679266Y-519971D01*
X678733Y-518638D01*
X677666Y-517971D01*
X676600Y-517971D01*
X675533Y-518638D01*
X675000Y-519971D01*
G54D11*
X672066Y-528638D02*
X672066Y-522638D01*
G54D11*
X672066Y-523971D02*
X671000Y-522638D01*
X669933Y-522638D01*
G54D11*
X663960Y-523971D02*
X659694Y-523971D01*
G54D11*
X653720Y-526638D02*
X653187Y-527971D01*
X652120Y-528638D01*
X651054Y-528638D01*
X649987Y-527971D01*
X649454Y-526638D01*
X649454Y-525304D01*
X649987Y-523971D01*
X651054Y-523304D01*
X652120Y-523304D01*
X653187Y-522638D01*
X653720Y-521304D01*
X653720Y-519971D01*
X653187Y-518638D01*
X652120Y-517971D01*
X651054Y-517971D01*
X649987Y-518638D01*
X649454Y-519971D01*
G54D11*
X642254Y-526638D02*
X642787Y-527971D01*
X643854Y-528638D01*
X644920Y-528638D01*
X645987Y-527971D01*
X646520Y-526638D01*
X646520Y-519971D01*
X645987Y-518638D01*
X644920Y-517971D01*
X643854Y-517971D01*
X642787Y-518638D01*
X642254Y-519971D01*
G54D11*
X639320Y-517971D02*
X639320Y-528638D01*
X635587Y-528638D01*
G54D11*
X704812Y-544512D02*
X704812Y-533846D01*
X708012Y-540512D01*
X708012Y-541846D01*
X703746Y-541846D01*
G54D11*
X697772Y-539846D02*
X693506Y-539846D01*
G54D11*
X687532Y-544512D02*
X687532Y-533846D01*
X684866Y-533846D01*
X683799Y-534512D01*
X683266Y-535846D01*
X683266Y-537179D01*
X683799Y-538512D01*
X684866Y-539179D01*
X683799Y-539846D01*
X683266Y-541179D01*
X683266Y-542512D01*
X683799Y-543846D01*
X684866Y-544512D01*
X687532Y-544512D01*
G54D11*
X687532Y-539179D02*
X684866Y-539179D01*
G54D11*
X680332Y-544512D02*
X680332Y-533846D01*
G54D11*
X674360Y-539846D02*
X670093Y-539846D01*
G54D11*
X661986Y-539179D02*
X659853Y-539179D01*
X659853Y-542512D01*
X660386Y-543846D01*
X661453Y-544512D01*
X662520Y-544512D01*
X663586Y-543846D01*
X664120Y-542512D01*
X664120Y-535846D01*
X663586Y-534512D01*
X662520Y-533846D01*
X661453Y-533846D01*
X660386Y-534512D01*
X659853Y-535846D01*
G54D11*
X656920Y-544512D02*
X656920Y-533846D01*
X652653Y-544512D01*
X652653Y-533846D01*
G54D11*
X649720Y-544512D02*
X649720Y-533846D01*
X647053Y-533846D01*
X645986Y-534512D01*
X645453Y-535846D01*
X645453Y-542512D01*
X645986Y-543846D01*
X647053Y-544512D01*
X649720Y-544512D01*
G54D11*
X703746Y-549721D02*
X708012Y-549721D01*
X708012Y-554388D01*
X707479Y-554388D01*
X706412Y-553721D01*
X705346Y-553721D01*
X704279Y-554388D01*
X703746Y-555721D01*
X703746Y-558388D01*
X704279Y-559721D01*
X705346Y-560388D01*
X706412Y-560388D01*
X707479Y-559721D01*
X708012Y-558388D01*
G54D11*
X697772Y-555721D02*
X693506Y-555721D01*
G54D11*
X687532Y-549721D02*
X687532Y-560388D01*
X684866Y-553721D01*
X682199Y-560388D01*
X682199Y-549721D01*
G54D11*
X679266Y-560388D02*
X679266Y-549721D01*
X676600Y-549721D01*
X675533Y-550388D01*
X675000Y-551721D01*
X675000Y-553054D01*
X675533Y-554388D01*
X676600Y-555054D01*
X675533Y-555721D01*
X675000Y-557054D01*
X675000Y-558388D01*
X675533Y-559721D01*
X676600Y-560388D01*
X679266Y-560388D01*
G54D11*
X679266Y-555054D02*
X676600Y-555054D01*
G54D11*
X672066Y-560388D02*
X672066Y-549721D01*
G54D11*
X666094Y-555721D02*
X661827Y-555721D01*
G54D11*
X655854Y-560388D02*
X655854Y-549721D01*
X653187Y-549721D01*
X652120Y-550388D01*
X651587Y-551721D01*
X651587Y-558388D01*
X652120Y-559721D01*
X653187Y-560388D01*
X655854Y-560388D01*
G54D11*
X648654Y-558388D02*
X648120Y-559721D01*
X647054Y-560388D01*
X645987Y-560388D01*
X644920Y-559721D01*
X644387Y-558388D01*
X644387Y-557054D01*
X644920Y-555721D01*
X645987Y-555054D01*
X647054Y-555054D01*
X648120Y-554388D01*
X648654Y-553054D01*
X648654Y-551721D01*
X648120Y-550388D01*
X647054Y-549721D01*
X645987Y-549721D01*
X644920Y-550388D01*
X644387Y-551721D01*
G54D11*
X641454Y-553721D02*
X638787Y-549721D01*
X638787Y-560388D01*
G54D11*
X633187Y-555054D02*
X634254Y-555054D01*
X635320Y-554388D01*
X635854Y-553054D01*
X635854Y-551721D01*
X635320Y-550388D01*
X634254Y-549721D01*
X633187Y-549721D01*
X632120Y-550388D01*
X631587Y-551721D01*
X631587Y-553054D01*
X632120Y-554388D01*
X633187Y-555054D01*
X632120Y-555721D01*
X631587Y-557054D01*
X631587Y-558388D01*
X632120Y-559721D01*
X633187Y-560388D01*
X634254Y-560388D01*
X635320Y-559721D01*
X635854Y-558388D01*
X635854Y-557054D01*
X635320Y-555721D01*
X634254Y-555054D01*
G54D11*
X628654Y-560388D02*
X628654Y-549721D01*
X625987Y-549721D01*
X624920Y-550388D01*
X624387Y-551721D01*
X624387Y-553054D01*
X624920Y-554388D01*
X625987Y-555054D01*
X624920Y-555721D01*
X624387Y-557054D01*
X624387Y-558388D01*
X624920Y-559721D01*
X625987Y-560388D01*
X628654Y-560388D01*
G54D11*
X628654Y-555054D02*
X625987Y-555054D01*
G54D11*
X617187Y-560388D02*
X621454Y-560388D01*
X621454Y-559721D01*
X620920Y-558388D01*
X617720Y-554388D01*
X617187Y-553054D01*
X617187Y-551721D01*
X617720Y-550388D01*
X618787Y-549721D01*
X619854Y-549721D01*
X620920Y-550388D01*
X621454Y-551721D01*
G54D11*
X609987Y-551721D02*
X609987Y-558388D01*
X610520Y-559721D01*
X611587Y-560388D01*
X612654Y-560388D01*
X613720Y-559721D01*
X614254Y-558388D01*
X614254Y-551721D01*
X613720Y-550388D01*
X612654Y-549721D01*
X611587Y-549721D01*
X610520Y-550388D01*
X609987Y-551721D01*
G54D11*
X703771Y-567584D02*
X704304Y-566250D01*
X705371Y-565584D01*
X706438Y-565584D01*
X707504Y-566250D01*
X708038Y-567584D01*
X708038Y-570917D01*
X708038Y-571583D01*
X706438Y-570250D01*
X705371Y-570250D01*
X704304Y-570917D01*
X703771Y-572250D01*
X703771Y-574250D01*
X704304Y-575583D01*
X705371Y-576250D01*
X706438Y-576250D01*
X707504Y-575583D01*
X708038Y-574250D01*
X708038Y-570917D01*
G54D11*
X697798Y-571583D02*
X693531Y-571583D01*
G54D11*
X685424Y-570917D02*
X683291Y-570917D01*
X683291Y-574250D01*
X683824Y-575583D01*
X684891Y-576250D01*
X685958Y-576250D01*
X687024Y-575583D01*
X687558Y-574250D01*
X687558Y-567584D01*
X687024Y-566250D01*
X685958Y-565584D01*
X684891Y-565584D01*
X683824Y-566250D01*
X683291Y-567584D01*
G54D11*
X680358Y-576250D02*
X680358Y-570250D01*
G54D11*
X680358Y-571583D02*
X679291Y-570250D01*
X678224Y-570250D01*
G54D11*
X672252Y-571583D02*
X667985Y-571583D01*
G54D11*
X662012Y-571583D02*
X657745Y-571583D01*
G54D11*
X659878Y-568917D02*
X659878Y-574250D01*
G54D11*
X654812Y-567584D02*
X654278Y-566250D01*
X653212Y-565584D01*
X652145Y-565584D01*
X651078Y-566250D01*
X650545Y-567584D01*
X650545Y-568917D01*
X651078Y-570250D01*
X652145Y-570917D01*
X651078Y-571583D01*
X650545Y-572917D01*
X650545Y-574250D01*
X651078Y-575583D01*
X652145Y-576250D01*
X653212Y-576250D01*
X654278Y-575583D01*
X654812Y-574250D01*
G54D11*
X647185Y-576250D02*
X647612Y-576250D01*
X647612Y-575717D01*
X647185Y-575717D01*
X647185Y-576250D01*
X647612Y-576250D01*
G54D11*
X644252Y-567584D02*
X643718Y-566250D01*
X642652Y-565584D01*
X641585Y-565584D01*
X640518Y-566250D01*
X639985Y-567584D01*
X639985Y-568917D01*
X640518Y-570250D01*
X641585Y-570917D01*
X640518Y-571583D01*
X639985Y-572917D01*
X639985Y-574250D01*
X640518Y-575583D01*
X641585Y-576250D01*
X642652Y-576250D01*
X643718Y-575583D01*
X644252Y-574250D01*
G54D11*
X637052Y-565584D02*
X634385Y-576250D01*
X631718Y-565584D01*
G54D11*
X708012Y-581471D02*
X703746Y-581471D01*
X704279Y-582804D01*
X705346Y-584804D01*
X706412Y-587471D01*
X706946Y-589471D01*
X706946Y-592138D01*
G54D11*
X697772Y-587471D02*
X693506Y-587471D01*
G54D11*
X687532Y-581471D02*
X687532Y-592138D01*
X684866Y-585471D01*
X682199Y-592138D01*
X682199Y-581471D01*
G54D11*
X679266Y-592138D02*
X679266Y-581471D01*
X676600Y-581471D01*
X675533Y-582138D01*
X675000Y-583471D01*
X675000Y-584804D01*
X675533Y-586138D01*
X676600Y-586804D01*
X675533Y-587471D01*
X675000Y-588804D01*
X675000Y-590138D01*
X675533Y-591471D01*
X676600Y-592138D01*
X679266Y-592138D01*
G54D11*
X679266Y-586804D02*
X676600Y-586804D01*
G54D11*
X672066Y-592138D02*
X672066Y-586138D01*
G54D11*
X672066Y-587471D02*
X671000Y-586138D01*
X669933Y-586138D01*
G54D11*
X663960Y-587471D02*
X659694Y-587471D01*
G54D11*
X653720Y-592138D02*
X653720Y-581471D01*
X651054Y-581471D01*
X649987Y-582138D01*
X649454Y-583471D01*
X649454Y-584804D01*
X649987Y-586138D01*
X651054Y-586804D01*
X649987Y-587471D01*
X649454Y-588804D01*
X649454Y-590138D01*
X649987Y-591471D01*
X651054Y-592138D01*
X653720Y-592138D01*
G54D11*
X653720Y-586804D02*
X651054Y-586804D01*
G54D11*
X643320Y-586138D02*
X643320Y-592138D01*
G54D11*
X643320Y-590804D02*
X643854Y-591871D01*
X644920Y-592138D01*
X645987Y-591871D01*
X646520Y-590804D01*
X646520Y-586138D01*
G54D11*
X639321Y-581471D02*
X639321Y-591471D01*
X638788Y-592138D01*
X638254Y-591871D01*
G54D11*
X640388Y-586138D02*
X638254Y-586138D01*
G54D11*
X634255Y-581471D02*
X634255Y-591471D01*
X633722Y-592138D01*
X633188Y-591871D01*
G54D11*
X635322Y-586138D02*
X633188Y-586138D01*
G54D11*
X627056Y-590538D02*
X627056Y-587871D01*
X627589Y-586538D01*
X628656Y-586138D01*
X629722Y-586538D01*
X630256Y-587871D01*
X630256Y-590538D01*
X629722Y-591871D01*
X628656Y-592138D01*
X627589Y-591871D01*
X627056Y-590538D01*
G54D11*
X624122Y-592138D02*
X624122Y-586138D01*
G54D11*
X624122Y-587471D02*
X623589Y-586538D01*
X622522Y-586138D01*
X621456Y-586538D01*
X620922Y-587471D01*
X620922Y-592138D01*
G54D11*
X705346Y-602679D02*
X706412Y-602679D01*
X707479Y-602012D01*
X708012Y-600679D01*
X708012Y-599346D01*
X707479Y-598012D01*
X706412Y-597346D01*
X705346Y-597346D01*
X704279Y-598012D01*
X703746Y-599346D01*
X703746Y-600679D01*
X704279Y-602012D01*
X705346Y-602679D01*
X704279Y-603346D01*
X703746Y-604679D01*
X703746Y-606012D01*
X704279Y-607346D01*
X705346Y-608012D01*
X706412Y-608012D01*
X707479Y-607346D01*
X708012Y-606012D01*
X708012Y-604679D01*
X707479Y-603346D01*
X706412Y-602679D01*
G54D11*
X697772Y-603346D02*
X693506Y-603346D01*
G54D11*
X687532Y-608012D02*
X687532Y-597346D01*
X684866Y-597346D01*
X683799Y-598012D01*
X683266Y-599346D01*
X683266Y-600679D01*
X683799Y-602012D01*
X684866Y-602679D01*
X683799Y-603346D01*
X683266Y-604679D01*
X683266Y-606012D01*
X683799Y-607346D01*
X684866Y-608012D01*
X687532Y-608012D01*
G54D11*
X687532Y-602679D02*
X684866Y-602679D01*
G54D11*
X680332Y-608012D02*
X680332Y-602012D01*
G54D11*
X680332Y-603346D02*
X679266Y-602012D01*
X678199Y-602012D01*
G54D11*
X672226Y-603346D02*
X667960Y-603346D01*
G54D11*
X659853Y-602679D02*
X657720Y-602679D01*
X657720Y-606012D01*
X658253Y-607346D01*
X659320Y-608012D01*
X660386Y-608012D01*
X661453Y-607346D01*
X661986Y-606012D01*
X661986Y-599346D01*
X661453Y-598012D01*
X660386Y-597346D01*
X659320Y-597346D01*
X658253Y-598012D01*
X657720Y-599346D01*
G54D11*
X654786Y-608012D02*
X654786Y-597346D01*
X650520Y-608012D01*
X650520Y-597346D01*
G54D11*
X647586Y-608012D02*
X647586Y-597346D01*
X644920Y-597346D01*
X643853Y-598012D01*
X643320Y-599346D01*
X643320Y-606012D01*
X643853Y-607346D01*
X644920Y-608012D01*
X647586Y-608012D01*
G54D10*
X711175Y-485762D02*
X715938Y-485762D01*
X715938Y-609588D01*
X711175Y-609588D01*
G54D12*
X734293Y-603754D02*
X732404Y-600354D01*
X730515Y-599221D01*
X726738Y-599221D01*
G54D12*
X726738Y-608288D02*
X741849Y-608288D01*
X741849Y-602621D01*
X740904Y-600354D01*
X739015Y-599221D01*
X737126Y-599221D01*
X735238Y-600354D01*
X734293Y-602621D01*
X734293Y-608288D01*
G54D12*
X741849Y-585998D02*
X729571Y-585998D01*
X727682Y-587131D01*
X726738Y-589398D01*
X726738Y-591664D01*
X727682Y-593931D01*
X729571Y-595064D01*
G54D12*
X733349Y-581842D02*
X733349Y-572775D01*
G54D12*
X726738Y-561818D02*
X741849Y-561818D01*
X732404Y-568618D01*
X730515Y-568618D01*
X730515Y-559552D01*
G54D12*
X741849Y-546329D02*
X741849Y-555396D01*
X735238Y-555396D01*
X735238Y-554262D01*
X736182Y-551996D01*
X736182Y-549729D01*
X735238Y-547462D01*
X733349Y-546329D01*
X729571Y-546329D01*
X727682Y-547462D01*
X726738Y-549729D01*
X726738Y-551996D01*
X727682Y-554262D01*
X729571Y-555396D01*
G54D12*
X741849Y-537790D02*
X726738Y-537790D01*
X736182Y-532123D01*
X726738Y-526456D01*
X741849Y-526456D01*
G54D12*
X726738Y-522300D02*
X735238Y-522300D01*
G54D12*
X738071Y-522300D02*
X738071Y-522300D01*
G54D12*
X726738Y-518144D02*
X735238Y-518144D01*
G54D12*
X733349Y-518144D02*
X735238Y-515878D01*
X735238Y-513611D01*
G54D12*
X726738Y-509456D02*
X735238Y-509456D01*
G54D12*
X738071Y-509456D02*
X738071Y-509456D01*
G54D12*
X726738Y-505300D02*
X735238Y-505300D01*
G54D12*
X733349Y-505300D02*
X734671Y-504166D01*
X735238Y-501900D01*
X734671Y-499633D01*
X733349Y-498500D01*
X726738Y-498500D01*
G54D12*
X723904Y-494344D02*
X722960Y-492077D01*
X722960Y-490490D01*
X723904Y-488224D01*
X725793Y-487544D01*
X735238Y-487544D01*
G54D12*
X732782Y-487544D02*
X734671Y-488677D01*
X735238Y-490944D01*
X734671Y-493210D01*
X732782Y-494344D01*
X729004Y-494344D01*
X727115Y-493210D01*
X726738Y-490944D01*
X727115Y-488677D01*
X729004Y-487544D01*
G54D13*
X584212Y-534396D02*
X583635Y-535840D01*
X582479Y-536562D01*
X581324Y-536562D01*
X580168Y-535840D01*
X579590Y-534396D01*
X579590Y-532952D01*
X580168Y-531507D01*
X581324Y-530785D01*
X582479Y-530785D01*
X583635Y-530062D01*
X584212Y-528618D01*
X584212Y-527174D01*
X583635Y-525729D01*
X582479Y-525007D01*
X581324Y-525007D01*
X580168Y-525729D01*
X579590Y-527174D01*
G54D13*
X572080Y-535840D02*
X573004Y-536562D01*
X574160Y-536562D01*
X575315Y-535840D01*
X575546Y-534396D01*
X575546Y-531940D01*
X574969Y-530496D01*
X573813Y-530062D01*
X572658Y-530496D01*
X572080Y-531507D01*
X572080Y-532952D01*
X575546Y-532952D01*
G54D13*
X568036Y-536562D02*
X568036Y-525007D01*
G54D13*
X560525Y-535840D02*
X561449Y-536562D01*
X562605Y-536562D01*
X563760Y-535840D01*
X563992Y-534396D01*
X563992Y-531940D01*
X563414Y-530496D01*
X562258Y-530062D01*
X561103Y-530496D01*
X560525Y-531507D01*
X560525Y-532952D01*
X563992Y-532952D01*
G54D13*
X553592Y-530496D02*
X554747Y-530062D01*
X555903Y-530496D01*
X556480Y-531940D01*
X556480Y-534829D01*
X555903Y-536274D01*
X554747Y-536562D01*
X553592Y-536274D01*
G54D13*
X548392Y-525007D02*
X548392Y-535840D01*
X547814Y-536562D01*
X547236Y-536274D01*
G54D13*
X549548Y-530062D02*
X547236Y-530062D01*
G54D13*
X539032Y-536562D02*
X539032Y-525007D01*
X536144Y-525007D01*
X534988Y-525729D01*
X534410Y-527174D01*
X534410Y-528618D01*
X534988Y-530062D01*
X536144Y-530785D01*
X539032Y-530785D01*
G54D13*
X526900Y-534829D02*
X526900Y-531940D01*
X527478Y-530496D01*
X528633Y-530062D01*
X529789Y-530496D01*
X530366Y-531940D01*
X530366Y-534829D01*
X529789Y-536274D01*
X528633Y-536562D01*
X527478Y-536274D01*
X526900Y-534829D01*
G54D13*
X522856Y-530062D02*
X521122Y-536562D01*
X519389Y-530062D01*
X517656Y-536562D01*
X516500Y-530062D01*
G54D13*
X508989Y-535840D02*
X509913Y-536562D01*
X511069Y-536562D01*
X512224Y-535840D01*
X512456Y-534396D01*
X512456Y-531940D01*
X511878Y-530496D01*
X510722Y-530062D01*
X509567Y-530496D01*
X508989Y-531507D01*
X508989Y-532952D01*
X512456Y-532952D01*
G54D13*
X504944Y-536562D02*
X504944Y-530062D01*
G54D13*
X504944Y-531507D02*
X503789Y-530062D01*
X502633Y-530062D01*
G54D11*
X552463Y-508433D02*
X549796Y-519100D01*
X547130Y-508433D01*
G54D11*
X541530Y-513500D02*
X542597Y-513100D01*
X543664Y-513500D01*
X544197Y-514833D01*
X544197Y-517500D01*
X543664Y-518833D01*
X542597Y-519100D01*
X541530Y-518833D01*
G54D11*
X535930Y-513500D02*
X536997Y-513100D01*
X538064Y-513500D01*
X538597Y-514833D01*
X538597Y-517500D01*
X538064Y-518833D01*
X536997Y-519100D01*
X535930Y-518833D01*
G54D11*
X577317Y-513766D02*
X575184Y-513766D01*
X575184Y-517100D01*
X575717Y-518433D01*
X576784Y-519100D01*
X577850Y-519100D01*
X578917Y-518433D01*
X579450Y-517100D01*
X579450Y-510433D01*
X578917Y-509100D01*
X577850Y-508433D01*
X576784Y-508433D01*
X575717Y-509100D01*
X575184Y-510433D01*
G54D11*
X572250Y-519100D02*
X572250Y-513100D01*
G54D11*
X572250Y-514433D02*
X571717Y-513500D01*
X570650Y-513100D01*
X569584Y-513500D01*
X569050Y-514433D01*
X569050Y-519100D01*
G54D11*
X562918Y-519100D02*
X562918Y-508433D01*
G54D11*
X562918Y-514833D02*
X563451Y-513500D01*
X564518Y-513100D01*
X565584Y-513500D01*
X566118Y-514833D01*
X566118Y-517500D01*
X565584Y-518833D01*
X564518Y-519100D01*
X563451Y-518833D01*
X562918Y-517500D01*
G54D11*
X524930Y-513766D02*
X522796Y-513766D01*
X522796Y-517100D01*
X523330Y-518433D01*
X524396Y-519100D01*
X525463Y-519100D01*
X526530Y-518433D01*
X527063Y-517100D01*
X527063Y-510433D01*
X526530Y-509100D01*
X525463Y-508433D01*
X524396Y-508433D01*
X523330Y-509100D01*
X522796Y-510433D01*
G54D11*
X519863Y-519100D02*
X519863Y-513100D01*
G54D11*
X519863Y-514433D02*
X519330Y-513500D01*
X518263Y-513100D01*
X517196Y-513500D01*
X516663Y-514433D01*
X516663Y-519100D01*
G54D11*
X510530Y-519100D02*
X510530Y-508433D01*
G54D11*
X510530Y-514833D02*
X511063Y-513500D01*
X512130Y-513100D01*
X513197Y-513500D01*
X513730Y-514833D01*
X513730Y-517500D01*
X513197Y-518833D01*
X512130Y-519100D01*
X511063Y-518833D01*
X510530Y-517500D01*
G54D11*
X526221Y-850121D02*
X526221Y-856788D01*
X526754Y-858121D01*
X527821Y-858788D01*
X528888Y-858788D01*
X529954Y-858121D01*
X530488Y-856788D01*
X530488Y-850121D01*
X529954Y-848788D01*
X528888Y-848121D01*
X527821Y-848121D01*
X526754Y-848788D01*
X526221Y-850121D01*
G54D11*
X523288Y-848121D02*
X523288Y-858788D01*
X519554Y-858788D01*
G54D11*
X512888Y-858788D02*
X516622Y-858788D01*
X516622Y-848121D01*
X512888Y-848121D01*
G54D11*
X516622Y-853454D02*
X512888Y-853454D01*
G54D11*
X509956Y-858788D02*
X509956Y-848121D01*
X507289Y-848121D01*
X506222Y-848788D01*
X505689Y-850121D01*
X505689Y-856788D01*
X506222Y-858121D01*
X507289Y-858788D01*
X509956Y-858788D01*
G54D11*
X502756Y-858788D02*
X497422Y-858788D01*
G54D11*
X494490Y-858788D02*
X494490Y-848121D01*
X491823Y-848121D01*
X490756Y-848788D01*
X490223Y-850121D01*
X490223Y-856788D01*
X490756Y-858121D01*
X491823Y-858788D01*
X494490Y-858788D01*
G54D11*
X487290Y-856788D02*
X486756Y-858121D01*
X485690Y-858788D01*
X484623Y-858788D01*
X483556Y-858121D01*
X483023Y-856788D01*
X483023Y-855454D01*
X483556Y-854121D01*
X484623Y-853454D01*
X485690Y-853454D01*
X486756Y-852788D01*
X487290Y-851454D01*
X487290Y-850121D01*
X486756Y-848788D01*
X485690Y-848121D01*
X484623Y-848121D01*
X483556Y-848788D01*
X483023Y-850121D01*
G54D11*
X480090Y-858788D02*
X474756Y-858788D01*
G54D11*
X471824Y-858788D02*
X471824Y-848121D01*
G54D11*
X467557Y-858788D02*
X467557Y-848121D01*
G54D11*
X471824Y-853454D02*
X467557Y-853454D01*
G54D11*
X462490Y-858788D02*
X462490Y-848121D01*
G54D11*
X464624Y-848121D02*
X460357Y-848121D01*
G54D11*
X457424Y-848121D02*
X457424Y-856788D01*
X456890Y-858121D01*
X455824Y-858788D01*
X454757Y-858788D01*
X453690Y-858121D01*
X453157Y-856788D01*
X453157Y-848121D01*
G54D11*
X450224Y-858788D02*
X444890Y-858788D01*
G54D11*
X441958Y-848121D02*
X439291Y-858788D01*
X436624Y-848121D01*
G54D11*
X430492Y-858121D02*
X431345Y-858788D01*
X432412Y-858788D01*
X433478Y-858121D01*
X433692Y-856788D01*
X433692Y-854521D01*
X433158Y-853188D01*
X432092Y-852788D01*
X431025Y-853188D01*
X430492Y-854121D01*
X430492Y-855454D01*
X433692Y-855454D01*
G54D11*
X427558Y-858788D02*
X427558Y-852788D01*
G54D11*
X427558Y-854121D02*
X426492Y-852788D01*
X425425Y-852788D01*
G54D11*
X422066Y-858788D02*
X422492Y-858788D01*
X422492Y-858254D01*
X422066Y-858254D01*
X422066Y-858788D01*
X422492Y-858788D01*
G54D11*
X414866Y-858788D02*
X419132Y-858788D01*
X419132Y-858121D01*
X418599Y-856788D01*
X415399Y-852788D01*
X414866Y-851454D01*
X414866Y-850121D01*
X415399Y-848788D01*
X416466Y-848121D01*
X417532Y-848121D01*
X418599Y-848788D01*
X419132Y-850121D01*
G54D11*
X411932Y-854121D02*
X407666Y-854121D01*
G54D11*
X401532Y-858788D02*
X401532Y-848121D01*
X404732Y-854788D01*
X404732Y-856121D01*
X400466Y-856121D01*
G54D14*
X740538Y-857813D02*
X736760Y-842702D01*
X732982Y-857813D01*
G54D14*
X739026Y-852146D02*
X734493Y-852146D01*
G54D14*
X727692Y-857813D02*
X727692Y-842702D01*
G54D14*
X717870Y-856868D02*
X719079Y-857813D01*
X720590Y-857813D01*
X722101Y-856868D01*
X722404Y-854979D01*
X722404Y-851768D01*
X721648Y-849879D01*
X720137Y-849313D01*
X718626Y-849879D01*
X717870Y-851202D01*
X717870Y-853090D01*
X722404Y-853090D01*
G54D14*
X712582Y-849313D02*
X706537Y-857813D01*
G54D14*
X712582Y-857813D02*
X706537Y-849313D01*
G54D14*
X701248Y-857813D02*
X693693Y-857813D01*
G54D14*
X682359Y-842702D02*
X682359Y-854979D01*
X683115Y-856868D01*
X684626Y-857813D01*
X686137Y-857813D01*
X687648Y-856868D01*
X688404Y-854979D01*
G54D14*
X672537Y-856868D02*
X673746Y-857813D01*
X675257Y-857813D01*
X676768Y-856868D01*
X677070Y-854979D01*
X677070Y-851768D01*
X676315Y-849879D01*
X674804Y-849313D01*
X673293Y-849879D01*
X672537Y-851202D01*
X672537Y-853090D01*
X677070Y-853090D01*
G54D14*
X665737Y-842702D02*
X665737Y-856868D01*
X664982Y-857813D01*
X664226Y-857435D01*
G54D14*
X667248Y-849313D02*
X664226Y-849313D01*
G54D11*
X534726Y-801936D02*
X534193Y-803270D01*
X533126Y-803936D01*
X532060Y-803936D01*
X530993Y-803270D01*
X530460Y-801936D01*
X530460Y-800603D01*
X530993Y-799270D01*
X532060Y-798603D01*
X533126Y-798603D01*
X534193Y-797936D01*
X534726Y-796603D01*
X534726Y-795270D01*
X534193Y-793936D01*
X533126Y-793270D01*
X532060Y-793270D01*
X530993Y-793936D01*
X530460Y-795270D01*
G54D11*
X524326Y-803270D02*
X525180Y-803936D01*
X526246Y-803936D01*
X527313Y-803270D01*
X527526Y-801936D01*
X527526Y-799670D01*
X526993Y-798336D01*
X525926Y-797936D01*
X524860Y-798336D01*
X524326Y-799270D01*
X524326Y-800603D01*
X527526Y-800603D01*
G54D11*
X521394Y-803936D02*
X521394Y-793270D01*
G54D11*
X515260Y-803270D02*
X516114Y-803936D01*
X517180Y-803936D01*
X518247Y-803270D01*
X518460Y-801936D01*
X518460Y-799670D01*
X517927Y-798336D01*
X516860Y-797936D01*
X515794Y-798336D01*
X515260Y-799270D01*
X515260Y-800603D01*
X518460Y-800603D01*
G54D11*
X509661Y-798336D02*
X510728Y-797936D01*
X511794Y-798336D01*
X512328Y-799670D01*
X512328Y-802336D01*
X511794Y-803670D01*
X510728Y-803936D01*
X509661Y-803670D01*
G54D11*
X505661Y-793270D02*
X505661Y-803270D01*
X505128Y-803936D01*
X504594Y-803670D01*
G54D11*
X506728Y-797936D02*
X504594Y-797936D01*
G54D10*
X449300Y-838662D02*
X449300Y-818662D01*
X487300Y-818662D01*
X487300Y-838662D01*
X449300Y-838662D01*
G54D15*
X441121Y-828393D02*
X439121Y-829504D01*
X438455Y-830615D01*
X438455Y-832837D01*
G54D15*
X443788Y-832837D02*
X443788Y-823948D01*
X440455Y-823948D01*
X439121Y-824504D01*
X438455Y-825615D01*
X438455Y-826726D01*
X439121Y-827837D01*
X440455Y-828393D01*
X443788Y-828393D01*
G54D15*
X436011Y-827282D02*
X432678Y-823948D01*
X432678Y-832837D01*
G54D10*
X423826Y-807225D02*
X423826Y-783325D01*
X454826Y-783325D01*
X454826Y-807225D01*
X423826Y-807225D01*
G54D10*
X430226Y-795225D02*
X438126Y-795225D01*
G54D10*
X440526Y-795225D02*
X448426Y-795225D01*
G54D10*
X438126Y-788125D02*
X438126Y-803225D01*
G54D10*
X440526Y-788125D02*
X440526Y-803225D01*
G54D15*
X406729Y-798120D02*
X407396Y-799232D01*
X408729Y-799787D01*
X410062Y-799787D01*
X411396Y-799232D01*
X412062Y-798120D01*
X412062Y-792565D01*
X411396Y-791454D01*
X410062Y-790898D01*
X408729Y-790898D01*
X407396Y-791454D01*
X406729Y-792565D01*
G54D15*
X404286Y-794232D02*
X400952Y-790898D01*
X400952Y-799787D01*
G54D11*
X536314Y-818065D02*
X536314Y-807398D01*
X533647Y-807398D01*
X532581Y-808065D01*
X532047Y-809398D01*
X532047Y-810732D01*
X532581Y-812065D01*
X533647Y-812732D01*
X536314Y-812732D01*
G54D11*
X525914Y-812065D02*
X525914Y-818065D01*
G54D11*
X525914Y-816732D02*
X526447Y-817798D01*
X527514Y-818065D01*
X528581Y-817798D01*
X529114Y-816732D01*
X529114Y-812065D01*
G54D11*
X522981Y-818065D02*
X522981Y-807398D01*
G54D11*
X520048Y-818065D02*
X520048Y-807398D01*
G54D11*
X517115Y-813398D02*
X512848Y-813398D01*
G54D11*
X509915Y-807398D02*
X509915Y-816065D01*
X509382Y-817398D01*
X508315Y-818065D01*
X507248Y-818065D01*
X506182Y-817398D01*
X505648Y-816065D01*
X505648Y-807398D01*
G54D11*
X502715Y-812065D02*
X502715Y-820732D01*
G54D11*
X502715Y-816065D02*
X502182Y-817798D01*
X501115Y-818065D01*
X500048Y-817798D01*
X499515Y-816465D01*
X499515Y-813798D01*
X500048Y-812465D01*
X501115Y-812065D01*
X502182Y-812465D01*
X502715Y-814065D01*
M02*
