%FSLAX34Y34*%
%MOMM*%
%LNSMDMASK_BOTTOM*%
G71*
G01*
%ADD10R, 1.000X1.500*%
%ADD11R, 1.300X1.400*%
%LPD*%
X169875Y-60312D02*
G54D10*
D03*
X144475Y-60312D02*
G54D10*
D03*
X182575Y-60312D02*
G54D10*
D03*
X157175Y-60312D02*
G54D10*
D03*
X131775Y-60312D02*
G54D10*
D03*
X125425Y-392100D02*
G54D10*
D03*
X138125Y-392100D02*
G54D10*
D03*
X71451Y-392100D02*
G54D11*
D03*
X90451Y-392100D02*
G54D11*
D03*
X557225Y-60313D02*
G54D10*
D03*
X531825Y-60313D02*
G54D10*
D03*
X569925Y-60313D02*
G54D10*
D03*
X544525Y-60313D02*
G54D10*
D03*
X519125Y-60313D02*
G54D10*
D03*
X512775Y-392100D02*
G54D10*
D03*
X525475Y-392100D02*
G54D10*
D03*
X458800Y-392100D02*
G54D11*
D03*
X477800Y-392100D02*
G54D11*
D03*
X169875Y-496875D02*
G54D10*
D03*
X144475Y-496875D02*
G54D10*
D03*
X182575Y-496875D02*
G54D10*
D03*
X157175Y-496875D02*
G54D10*
D03*
X131775Y-496875D02*
G54D10*
D03*
X125425Y-828663D02*
G54D10*
D03*
X138125Y-828663D02*
G54D10*
D03*
X71451Y-828662D02*
G54D11*
D03*
X90451Y-828662D02*
G54D11*
D03*
X557225Y-496875D02*
G54D10*
D03*
X531825Y-496875D02*
G54D10*
D03*
X569925Y-496875D02*
G54D10*
D03*
X544525Y-496875D02*
G54D10*
D03*
X519125Y-496875D02*
G54D10*
D03*
X512775Y-828663D02*
G54D10*
D03*
X525475Y-828663D02*
G54D10*
D03*
X458800Y-828662D02*
G54D11*
D03*
X477800Y-828662D02*
G54D11*
D03*
M02*
