; Drill file
; Format: 2.4 (00.0000)
M48
INCH
T01C0.0118
T02C0.0197
T03C0.0394
%
G05
G90
T01
X004000Y-031440
X004000Y-027810
X006870Y-027810
X008870Y-027810
X009560Y-029000
X011250Y-027810
X011940Y-029810
X019250Y-031440
X019250Y-027810
X022120Y-027810
X024120Y-027810
X024810Y-029000
X026500Y-027810
X027190Y-029810
X027190Y-012630
X026500Y-010630
X024810Y-011810
X024120Y-010630
X022120Y-010630
X019250Y-010630
X019250Y-014250
X011940Y-012630
X011250Y-010630
X009560Y-011810
X008870Y-010630
X006870Y-010630
X004000Y-010630
X004000Y-014250
T02
X006370Y-030000
X007370Y-030000
X008370Y-030000
X009370Y-030000
X008870Y-029000
X007870Y-029000
X006870Y-029000
X005870Y-029000
X021120Y-029000
X022120Y-029000
X023120Y-029000
X024120Y-029000
X024620Y-030000
X023620Y-030000
X022620Y-030000
X021620Y-030000
X021620Y-012810
X022620Y-012810
X023620Y-012810
X024620Y-012810
X024120Y-011810
X023120Y-011810
X022120Y-011810
X021120Y-011810
X009370Y-012810
X008370Y-012810
X007370Y-012810
X006370Y-012810
X005870Y-011810
X006870Y-011810
X007870Y-011810
X008870Y-011810
T03
X004500Y-025310
X010750Y-025310
X019750Y-025310
X026000Y-025310
X026000Y-008130
X019750Y-008130
X010750Y-008130
X004500Y-008130
M30
