%FSLAX34Y34*%
%MOMM*%
%LNSOLDERMASK_BOTTOM*%
G71*
G01*
%ADD10C, 1.900*%
%ADD11C, 1.500*%
%ADD12C, 2.400*%
%ADD13C, 1.100*%
%ADD14R, 1.400X1.900*%
%ADD15R, 2.000X2.400*%
%ADD16R, 1.700X1.800*%
%LPD*%
X200012Y-300050D02*
G54D10*
D03*
X187212Y-325450D02*
G54D10*
D03*
X161812Y-325450D02*
G54D10*
D03*
X225412Y-300050D02*
G54D10*
D03*
G36*
X158712Y-309550D02*
X139712Y-309550D01*
X139712Y-290550D01*
X158712Y-290550D01*
X158712Y-309550D01*
G37*
X212612Y-325450D02*
G54D10*
D03*
X238012Y-325450D02*
G54D10*
D03*
X174612Y-300050D02*
G54D10*
D03*
G36*
X102312Y-191408D02*
X109332Y-184388D01*
X119292Y-184388D01*
X126312Y-191408D01*
X126312Y-221368D01*
X119292Y-228388D01*
X109332Y-228388D01*
X102312Y-221368D01*
X102312Y-191408D01*
G37*
G36*
X261012Y-191408D02*
X268032Y-184388D01*
X277992Y-184388D01*
X285012Y-191408D01*
X285012Y-221368D01*
X277992Y-228388D01*
X268032Y-228388D01*
X261012Y-221368D01*
X261012Y-191408D01*
G37*
X38112Y-317488D02*
G54D11*
D03*
X50787Y-317513D02*
G54D11*
D03*
X63487Y-317513D02*
G54D11*
D03*
X368312Y-342888D02*
G54D10*
D03*
X368287Y-296876D02*
G54D10*
D03*
X303212Y-342888D02*
G54D10*
D03*
X303200Y-297000D02*
G54D10*
D03*
X231762Y-412763D02*
G54D12*
D03*
X206362Y-412763D02*
G54D12*
D03*
X180962Y-412763D02*
G54D12*
D03*
X155562Y-412763D02*
G54D12*
D03*
X155562Y-34938D02*
G54D12*
D03*
X180912Y-34988D02*
G54D12*
D03*
X206362Y-34938D02*
G54D12*
D03*
X231762Y-34938D02*
G54D12*
D03*
X285750Y-269876D02*
G54D13*
D03*
X225412Y-269888D02*
G54D13*
D03*
X101587Y-361963D02*
G54D13*
D03*
X303200Y-320688D02*
G54D13*
D03*
X101600Y-269876D02*
G54D13*
D03*
X174612Y-269888D02*
G54D13*
D03*
X242874Y-300050D02*
G54D13*
D03*
X168274Y-58738D02*
G54D14*
D03*
X142874Y-58738D02*
G54D14*
D03*
X180974Y-58738D02*
G54D14*
D03*
X155574Y-58738D02*
G54D14*
D03*
X130174Y-58738D02*
G54D14*
D03*
X95250Y-390526D02*
G54D14*
D03*
X107950Y-390526D02*
G54D14*
D03*
X36512Y-355600D02*
G54D15*
D03*
X64512Y-355600D02*
G54D15*
D03*
X41275Y-390525D02*
G54D16*
D03*
X60275Y-390525D02*
G54D16*
D03*
X587362Y-300050D02*
G54D10*
D03*
X574562Y-325450D02*
G54D10*
D03*
X549162Y-325450D02*
G54D10*
D03*
X612762Y-300050D02*
G54D10*
D03*
G36*
X546062Y-309550D02*
X527062Y-309550D01*
X527062Y-290550D01*
X546062Y-290550D01*
X546062Y-309550D01*
G37*
X599962Y-325450D02*
G54D10*
D03*
X625362Y-325450D02*
G54D10*
D03*
X561962Y-300050D02*
G54D10*
D03*
G36*
X489662Y-191408D02*
X496682Y-184388D01*
X506642Y-184388D01*
X513662Y-191408D01*
X513662Y-221368D01*
X506642Y-228388D01*
X496682Y-228388D01*
X489662Y-221368D01*
X489662Y-191408D01*
G37*
G36*
X648362Y-191408D02*
X655382Y-184388D01*
X665342Y-184388D01*
X672362Y-191408D01*
X672362Y-221368D01*
X665342Y-228388D01*
X655382Y-228388D01*
X648362Y-221368D01*
X648362Y-191408D01*
G37*
X425462Y-317488D02*
G54D11*
D03*
X438137Y-317513D02*
G54D11*
D03*
X450837Y-317513D02*
G54D11*
D03*
X755662Y-342888D02*
G54D10*
D03*
X755637Y-296876D02*
G54D10*
D03*
X690562Y-342888D02*
G54D10*
D03*
X690550Y-297000D02*
G54D10*
D03*
X619112Y-412763D02*
G54D12*
D03*
X593712Y-412763D02*
G54D12*
D03*
X568312Y-412763D02*
G54D12*
D03*
X542912Y-412763D02*
G54D12*
D03*
X542912Y-34938D02*
G54D12*
D03*
X568262Y-34988D02*
G54D12*
D03*
X593712Y-34938D02*
G54D12*
D03*
X619112Y-34938D02*
G54D12*
D03*
X673100Y-269876D02*
G54D13*
D03*
X612762Y-269888D02*
G54D13*
D03*
X488937Y-361963D02*
G54D13*
D03*
X690550Y-320688D02*
G54D13*
D03*
X488950Y-269876D02*
G54D13*
D03*
X561962Y-269888D02*
G54D13*
D03*
X630224Y-300050D02*
G54D13*
D03*
X555624Y-58738D02*
G54D14*
D03*
X530224Y-58738D02*
G54D14*
D03*
X568324Y-58738D02*
G54D14*
D03*
X542924Y-58738D02*
G54D14*
D03*
X517524Y-58738D02*
G54D14*
D03*
X482600Y-390526D02*
G54D14*
D03*
X495300Y-390526D02*
G54D14*
D03*
X423862Y-355600D02*
G54D15*
D03*
X451862Y-355600D02*
G54D15*
D03*
X428625Y-390525D02*
G54D16*
D03*
X447625Y-390525D02*
G54D16*
D03*
X200012Y-736613D02*
G54D10*
D03*
X187212Y-762013D02*
G54D10*
D03*
X161812Y-762013D02*
G54D10*
D03*
X225412Y-736613D02*
G54D10*
D03*
G36*
X158712Y-746113D02*
X139712Y-746113D01*
X139712Y-727113D01*
X158712Y-727113D01*
X158712Y-746113D01*
G37*
X212612Y-762013D02*
G54D10*
D03*
X238012Y-762013D02*
G54D10*
D03*
X174612Y-736613D02*
G54D10*
D03*
G36*
X102312Y-627970D02*
X109332Y-620950D01*
X119292Y-620950D01*
X126312Y-627970D01*
X126312Y-657930D01*
X119292Y-664950D01*
X109332Y-664950D01*
X102312Y-657930D01*
X102312Y-627970D01*
G37*
G36*
X261012Y-627970D02*
X268032Y-620950D01*
X277992Y-620950D01*
X285012Y-627970D01*
X285012Y-657930D01*
X277992Y-664950D01*
X268032Y-664950D01*
X261012Y-657930D01*
X261012Y-627970D01*
G37*
X38112Y-754050D02*
G54D11*
D03*
X50787Y-754076D02*
G54D11*
D03*
X63487Y-754076D02*
G54D11*
D03*
X368312Y-779450D02*
G54D10*
D03*
X368287Y-733438D02*
G54D10*
D03*
X303212Y-779450D02*
G54D10*
D03*
X303200Y-733563D02*
G54D10*
D03*
X231762Y-849326D02*
G54D12*
D03*
X206362Y-849326D02*
G54D12*
D03*
X180962Y-849326D02*
G54D12*
D03*
X155562Y-849326D02*
G54D12*
D03*
X155562Y-471500D02*
G54D12*
D03*
X180912Y-471550D02*
G54D12*
D03*
X206362Y-471500D02*
G54D12*
D03*
X231762Y-471500D02*
G54D12*
D03*
X285750Y-706438D02*
G54D13*
D03*
X225412Y-706450D02*
G54D13*
D03*
X101587Y-798526D02*
G54D13*
D03*
X303200Y-757250D02*
G54D13*
D03*
X101600Y-706438D02*
G54D13*
D03*
X174612Y-706450D02*
G54D13*
D03*
X242874Y-736613D02*
G54D13*
D03*
X168274Y-495300D02*
G54D14*
D03*
X142874Y-495300D02*
G54D14*
D03*
X180974Y-495300D02*
G54D14*
D03*
X155574Y-495300D02*
G54D14*
D03*
X130174Y-495300D02*
G54D14*
D03*
X95250Y-827088D02*
G54D14*
D03*
X107950Y-827088D02*
G54D14*
D03*
X36512Y-792162D02*
G54D15*
D03*
X64512Y-792162D02*
G54D15*
D03*
X41275Y-827088D02*
G54D16*
D03*
X60275Y-827088D02*
G54D16*
D03*
X587362Y-736613D02*
G54D10*
D03*
X574562Y-762013D02*
G54D10*
D03*
X549162Y-762013D02*
G54D10*
D03*
X612762Y-736613D02*
G54D10*
D03*
G36*
X546062Y-746113D02*
X527062Y-746113D01*
X527062Y-727113D01*
X546062Y-727113D01*
X546062Y-746113D01*
G37*
X599962Y-762013D02*
G54D10*
D03*
X625362Y-762013D02*
G54D10*
D03*
X561962Y-736613D02*
G54D10*
D03*
G36*
X489662Y-627970D02*
X496682Y-620950D01*
X506642Y-620950D01*
X513662Y-627970D01*
X513662Y-657930D01*
X506642Y-664950D01*
X496682Y-664950D01*
X489662Y-657930D01*
X489662Y-627970D01*
G37*
G36*
X648362Y-627970D02*
X655382Y-620950D01*
X665342Y-620950D01*
X672362Y-627970D01*
X672362Y-657930D01*
X665342Y-664950D01*
X655382Y-664950D01*
X648362Y-657930D01*
X648362Y-627970D01*
G37*
X425462Y-754050D02*
G54D11*
D03*
X438137Y-754076D02*
G54D11*
D03*
X450837Y-754076D02*
G54D11*
D03*
X755662Y-779450D02*
G54D10*
D03*
X755637Y-733438D02*
G54D10*
D03*
X690562Y-779450D02*
G54D10*
D03*
X690550Y-733563D02*
G54D10*
D03*
X619112Y-849326D02*
G54D12*
D03*
X593712Y-849326D02*
G54D12*
D03*
X568312Y-849326D02*
G54D12*
D03*
X542912Y-849326D02*
G54D12*
D03*
X542912Y-471500D02*
G54D12*
D03*
X568262Y-471550D02*
G54D12*
D03*
X593712Y-471500D02*
G54D12*
D03*
X619112Y-471500D02*
G54D12*
D03*
X673100Y-706438D02*
G54D13*
D03*
X612762Y-706450D02*
G54D13*
D03*
X488937Y-798526D02*
G54D13*
D03*
X690550Y-757250D02*
G54D13*
D03*
X488950Y-706438D02*
G54D13*
D03*
X561962Y-706450D02*
G54D13*
D03*
X630224Y-736613D02*
G54D13*
D03*
X555624Y-495300D02*
G54D14*
D03*
X530224Y-495300D02*
G54D14*
D03*
X568324Y-495300D02*
G54D14*
D03*
X542924Y-495300D02*
G54D14*
D03*
X517524Y-495300D02*
G54D14*
D03*
X482600Y-827088D02*
G54D14*
D03*
X495300Y-827088D02*
G54D14*
D03*
X423862Y-792162D02*
G54D15*
D03*
X451862Y-792162D02*
G54D15*
D03*
X428625Y-827088D02*
G54D16*
D03*
X447625Y-827088D02*
G54D16*
D03*
M02*
