; Drill file
; Format: 2.4 (00.0000)
M48
INCH
T01C0.0079
T02C0.0118
T03C0.0157
T04C0.0197
T05C0.0315
T06C0.0394
T07C0.0787
T08C0.1102
%
G05
G90
T01
X007250Y-034380
X007250Y-034310
X007250Y-034250
X007250Y-034190
X007250Y-034130
X007250Y-034060
X007250Y-034000
X007250Y-033940
X007310Y-033940
X007380Y-033940
X007440Y-033940
X007500Y-033940
X007560Y-033940
X007630Y-033940
X007690Y-033940
X007750Y-033940
X007810Y-033940
X007880Y-033940
X007940Y-033940
X008000Y-033940
X008000Y-034000
X008000Y-034060
X008000Y-034130
X008000Y-034190
X008000Y-034250
X008000Y-034310
X008000Y-034380
X022500Y-034380
X022500Y-034310
X022500Y-034250
X022500Y-034190
X022500Y-034130
X022500Y-034060
X022500Y-034000
X022500Y-033940
X022560Y-033940
X022630Y-033940
X022690Y-033940
X022750Y-033940
X022810Y-033940
X022880Y-033940
X022940Y-033940
X023000Y-033940
X023060Y-033940
X023130Y-033940
X023190Y-033940
X023250Y-033940
X023250Y-034000
X023250Y-034060
X023250Y-034130
X023250Y-034190
X023250Y-034250
X023250Y-034310
X023250Y-034380
X023250Y-017630
X023190Y-017630
X023130Y-017630
X023060Y-017630
X023000Y-017630
X022940Y-017630
X022880Y-017630
X022810Y-017630
X022750Y-017630
X022690Y-017630
X022630Y-017630
X022560Y-017630
X022500Y-017630
X022500Y-017560
X022500Y-017500
X022500Y-017440
X022500Y-017380
X022500Y-017310
X022500Y-017250
X022500Y-017190
X022500Y-017130
X022500Y-017060
X022500Y-017000
X022500Y-016940
X022500Y-016880
X022500Y-016810
X022500Y-016750
X022560Y-016750
X022630Y-016750
X022690Y-016750
X022750Y-016750
X022810Y-016750
X022880Y-016750
X022940Y-016750
X023000Y-016750
X023060Y-016750
X023130Y-016750
X023190Y-016750
X023250Y-016750
X023250Y-016810
X023250Y-016880
X023250Y-016940
X023250Y-017000
X023250Y-017060
X023250Y-017130
X023250Y-017190
X023250Y-017250
X023250Y-017310
X023250Y-017380
X023250Y-017440
X023250Y-017500
X023250Y-017560
X008000Y-017560
X008000Y-017630
X007940Y-017630
X007880Y-017630
X007810Y-017630
X007750Y-017630
X007690Y-017630
X007630Y-017630
X007560Y-017630
X007500Y-017630
X007440Y-017630
X007380Y-017630
X007310Y-017630
X007250Y-017630
X007250Y-017560
X007250Y-017500
X007250Y-017440
X007250Y-017380
X007250Y-017310
X007250Y-017250
X007250Y-017190
X007250Y-017130
X007250Y-017060
X007250Y-017000
X007250Y-016940
X007250Y-016880
X007250Y-016810
X007250Y-016750
X007310Y-016750
X007380Y-016750
X007440Y-016750
X007500Y-016750
X007560Y-016750
X007630Y-016750
X007690Y-016750
X007750Y-016750
X007810Y-016750
X007880Y-016750
X007940Y-016750
X008000Y-016750
X008000Y-016810
X008000Y-016880
X008000Y-016940
X008000Y-017000
X008000Y-017060
X008000Y-017130
X008000Y-017190
X008000Y-017250
X008000Y-017310
X008000Y-017380
X008000Y-017440
X008000Y-017500
X008000Y-000440
X007940Y-000440
X007880Y-000440
X007810Y-000440
X007750Y-000440
X007690Y-000440
X007630Y-000440
X007560Y-000440
X007500Y-000440
X007440Y-000440
X007380Y-000440
X007310Y-000440
X007250Y-000440
X007250Y-000380
X007250Y-000310
X007250Y-000250
X007250Y-000190
X007250Y-000130
X007250Y-000060
X007250Y000000
X008000Y000000
X008000Y-000060
X008000Y-000130
X008000Y-000190
X008000Y-000250
X008000Y-000310
X008000Y-000380
X022500Y-000380
X022500Y-000310
X022500Y-000250
X022500Y-000190
X022500Y-000130
X022500Y-000060
X022500Y000000
X022500Y-000440
X022560Y-000440
X022630Y-000440
X022690Y-000440
X022750Y-000440
X022810Y-000440
X022880Y-000440
X022940Y-000440
X023000Y-000440
X023060Y-000440
X023130Y-000440
X023190Y-000440
X023250Y-000440
X023250Y-000380
X023250Y-000310
X023250Y-000250
X023250Y-000190
X023250Y-000130
X023250Y-000060
X023250Y000000
T02
X004000Y-031440
X004000Y-027810
X006870Y-027810
X008870Y-027810
X009560Y-029000
X011250Y-027810
X011940Y-029810
X019250Y-031440
X019250Y-027810
X022120Y-027810
X024120Y-027810
X024810Y-029000
X026500Y-027810
X027190Y-029810
X027190Y-012630
X026500Y-010630
X024810Y-011810
X024120Y-010630
X022120Y-010630
X019250Y-010630
X019250Y-014250
X011940Y-012630
X011250Y-010630
X009560Y-011810
X008870Y-010630
X006870Y-010630
X004000Y-010630
X004000Y-014250
T03
X001500Y-029690
X002000Y-029690
X002500Y-029690
X016750Y-029690
X017250Y-029690
X017750Y-029690
X017750Y-012500
X017250Y-012500
X016750Y-012500
X002500Y-012500
X002000Y-012500
X001500Y-012500
T04
X006370Y-030000
X007370Y-030000
X008370Y-030000
X009370Y-030000
X008870Y-029000
X007870Y-029000
X006870Y-029000
X005870Y-029000
X011940Y-028880
X011940Y-030690
X014500Y-030690
X014500Y-028880
X021120Y-029000
X022120Y-029000
X023120Y-029000
X024120Y-029000
X024620Y-030000
X023620Y-030000
X022620Y-030000
X021620Y-030000
X027190Y-030690
X027190Y-028880
X029750Y-028880
X029750Y-030690
X029750Y-013500
X029750Y-011690
X027190Y-011690
X027190Y-013500
X024620Y-012810
X023620Y-012810
X022620Y-012810
X021620Y-012810
X021120Y-011810
X022120Y-011810
X023120Y-011810
X024120Y-011810
X014500Y-011690
X014500Y-013500
X011940Y-013500
X011940Y-011690
X009370Y-012810
X008370Y-012810
X007370Y-012810
X006370Y-012810
X005870Y-011810
X006870Y-011810
X007870Y-011810
X008870Y-011810
T05
X006120Y-033440
X007120Y-033440
X008120Y-033440
X009120Y-033440
X021370Y-033440
X022370Y-033440
X023370Y-033440
X024370Y-033440
X024370Y-018560
X023370Y-018560
X022370Y-018560
X021370Y-018560
X021370Y-016250
X022370Y-016250
X023370Y-016250
X024370Y-016250
X024370Y-001380
X023370Y-001380
X022370Y-001380
X021370Y-001380
X009120Y-001380
X008120Y-001380
X007120Y-001380
X006120Y-001380
X006120Y-016250
X007120Y-016250
X008120Y-016250
X009120Y-016250
X009120Y-018560
X008120Y-018560
X007120Y-018560
X006120Y-018560
T06
X004500Y-025310
X010750Y-025310
X019750Y-025310
X026000Y-025310
X026000Y-008130
X019750Y-008130
X010750Y-008130
X004500Y-008130
T07
X003000Y-027810
X003000Y-018560
X003000Y-010620
X003000Y-001370
X012250Y-001370
X018250Y-001370
X027500Y-001370
X027500Y-010620
X027500Y-018560
X018250Y-018560
X012250Y-018560
X012250Y-010620
X018250Y-010620
X018250Y-027810
X012250Y-027810
X027500Y-027810
T08
X005440Y-026500
X009810Y-026500
X020690Y-026500
X025060Y-026500
X025060Y-009310
X020690Y-009310
X009810Y-009310
X005440Y-009310
M30
