%FSLAX34Y34*%
%MOMM*%
%LNCOPPER_TOP*%
G71*
G01*
%ADD10C, 3.000*%
%ADD11C, 2.000*%
%ADD12C, 1.500*%
%ADD13C, 0.700*%
%ADD14C, 0.700*%
%LPD*%
X76212Y-34913D02*
G54D10*
D03*
X311162Y-34913D02*
G54D10*
D03*
X311162Y-269863D02*
G54D10*
D03*
X76212Y-269863D02*
G54D10*
D03*
X231762Y-34938D02*
G54D11*
D03*
X206362Y-34938D02*
G54D11*
D03*
X180962Y-34938D02*
G54D11*
D03*
X155562Y-34938D02*
G54D11*
D03*
X200012Y-300050D02*
G54D12*
D03*
X187212Y-325450D02*
G54D12*
D03*
X161812Y-325450D02*
G54D12*
D03*
X225412Y-300050D02*
G54D12*
D03*
G36*
X156712Y-307550D02*
X141712Y-307550D01*
X141712Y-292550D01*
X156712Y-292550D01*
X156712Y-307550D01*
G37*
X212612Y-325450D02*
G54D12*
D03*
X238012Y-325450D02*
G54D12*
D03*
X174612Y-300050D02*
G54D12*
D03*
G36*
X104312Y-192238D02*
X110162Y-186388D01*
X118462Y-186388D01*
X124312Y-192238D01*
X124312Y-220538D01*
X118462Y-226388D01*
X110162Y-226388D01*
X104312Y-220538D01*
X104312Y-192238D01*
G37*
G36*
X263012Y-192238D02*
X268862Y-186388D01*
X277162Y-186388D01*
X283012Y-192238D01*
X283012Y-220538D01*
X277162Y-226388D01*
X268862Y-226388D01*
X263012Y-220538D01*
X263012Y-192238D01*
G37*
X285750Y-269876D02*
G54D13*
D03*
X225412Y-269888D02*
G54D13*
D03*
X101587Y-361963D02*
G54D13*
D03*
X303200Y-320688D02*
G54D13*
D03*
G54D14*
X101587Y-269888D02*
X101587Y-361963D01*
G54D14*
X225412Y-269888D02*
X174612Y-269888D01*
G54D14*
X225412Y-269888D02*
X285737Y-269888D01*
G54D14*
X242874Y-300050D02*
X269862Y-300050D01*
X101600Y-269876D02*
G54D13*
D03*
X174612Y-269888D02*
G54D13*
D03*
X242874Y-300050D02*
G54D13*
D03*
G54D14*
X303212Y-320676D02*
X290512Y-320676D01*
X269874Y-300038D01*
X463562Y-34913D02*
G54D10*
D03*
X698512Y-34913D02*
G54D10*
D03*
X698512Y-269863D02*
G54D10*
D03*
X463562Y-269863D02*
G54D10*
D03*
X619112Y-34938D02*
G54D11*
D03*
X593712Y-34938D02*
G54D11*
D03*
X568312Y-34938D02*
G54D11*
D03*
X542912Y-34938D02*
G54D11*
D03*
X587362Y-300050D02*
G54D12*
D03*
X574562Y-325450D02*
G54D12*
D03*
X549162Y-325450D02*
G54D12*
D03*
X612762Y-300050D02*
G54D12*
D03*
G36*
X544062Y-307550D02*
X529062Y-307550D01*
X529062Y-292550D01*
X544062Y-292550D01*
X544062Y-307550D01*
G37*
X599962Y-325450D02*
G54D12*
D03*
X625362Y-325450D02*
G54D12*
D03*
X561962Y-300050D02*
G54D12*
D03*
G36*
X491662Y-192238D02*
X497512Y-186388D01*
X505812Y-186388D01*
X511662Y-192238D01*
X511662Y-220538D01*
X505812Y-226388D01*
X497512Y-226388D01*
X491662Y-220538D01*
X491662Y-192238D01*
G37*
G36*
X650362Y-192238D02*
X656212Y-186388D01*
X664512Y-186388D01*
X670362Y-192238D01*
X670362Y-220538D01*
X664512Y-226388D01*
X656212Y-226388D01*
X650362Y-220538D01*
X650362Y-192238D01*
G37*
X673100Y-269876D02*
G54D13*
D03*
X612762Y-269888D02*
G54D13*
D03*
X488937Y-361963D02*
G54D13*
D03*
X690550Y-320688D02*
G54D13*
D03*
G54D14*
X488937Y-269888D02*
X488937Y-361963D01*
G54D14*
X612762Y-269888D02*
X561962Y-269888D01*
G54D14*
X612762Y-269888D02*
X673087Y-269888D01*
G54D14*
X630224Y-300050D02*
X657212Y-300050D01*
X488950Y-269876D02*
G54D13*
D03*
X561962Y-269888D02*
G54D13*
D03*
X630224Y-300050D02*
G54D13*
D03*
G54D14*
X690562Y-320676D02*
X677862Y-320676D01*
X657224Y-300038D01*
X76212Y-471476D02*
G54D10*
D03*
X311162Y-471476D02*
G54D10*
D03*
X311162Y-706426D02*
G54D10*
D03*
X76212Y-706426D02*
G54D10*
D03*
X231762Y-471500D02*
G54D11*
D03*
X206362Y-471500D02*
G54D11*
D03*
X180962Y-471500D02*
G54D11*
D03*
X155562Y-471500D02*
G54D11*
D03*
X200012Y-736613D02*
G54D12*
D03*
X187212Y-762013D02*
G54D12*
D03*
X161812Y-762013D02*
G54D12*
D03*
X225412Y-736613D02*
G54D12*
D03*
G36*
X156712Y-744113D02*
X141712Y-744113D01*
X141712Y-729113D01*
X156712Y-729113D01*
X156712Y-744113D01*
G37*
X212612Y-762013D02*
G54D12*
D03*
X238012Y-762013D02*
G54D12*
D03*
X174612Y-736613D02*
G54D12*
D03*
G36*
X104312Y-628800D02*
X110162Y-622950D01*
X118462Y-622950D01*
X124312Y-628800D01*
X124312Y-657100D01*
X118462Y-662950D01*
X110162Y-662950D01*
X104312Y-657100D01*
X104312Y-628800D01*
G37*
G36*
X263012Y-628800D02*
X268862Y-622950D01*
X277162Y-622950D01*
X283012Y-628800D01*
X283012Y-657100D01*
X277162Y-662950D01*
X268862Y-662950D01*
X263012Y-657100D01*
X263012Y-628800D01*
G37*
X285750Y-706438D02*
G54D13*
D03*
X225412Y-706450D02*
G54D13*
D03*
X101587Y-798526D02*
G54D13*
D03*
X303200Y-757250D02*
G54D13*
D03*
G54D14*
X101587Y-706450D02*
X101587Y-798526D01*
G54D14*
X225412Y-706450D02*
X174612Y-706450D01*
G54D14*
X225412Y-706450D02*
X285737Y-706450D01*
G54D14*
X242874Y-736613D02*
X269862Y-736613D01*
X101600Y-706438D02*
G54D13*
D03*
X174612Y-706450D02*
G54D13*
D03*
X242874Y-736613D02*
G54D13*
D03*
G54D14*
X303212Y-757238D02*
X290512Y-757238D01*
X269874Y-736600D01*
X463562Y-471476D02*
G54D10*
D03*
X698512Y-471476D02*
G54D10*
D03*
X698512Y-706426D02*
G54D10*
D03*
X463562Y-706426D02*
G54D10*
D03*
X619112Y-471500D02*
G54D11*
D03*
X593712Y-471500D02*
G54D11*
D03*
X568312Y-471500D02*
G54D11*
D03*
X542912Y-471500D02*
G54D11*
D03*
X587362Y-736613D02*
G54D12*
D03*
X574562Y-762013D02*
G54D12*
D03*
X549162Y-762013D02*
G54D12*
D03*
X612762Y-736613D02*
G54D12*
D03*
G36*
X544062Y-744113D02*
X529062Y-744113D01*
X529062Y-729113D01*
X544062Y-729113D01*
X544062Y-744113D01*
G37*
X599962Y-762013D02*
G54D12*
D03*
X625362Y-762013D02*
G54D12*
D03*
X561962Y-736613D02*
G54D12*
D03*
G36*
X491662Y-628800D02*
X497512Y-622950D01*
X505812Y-622950D01*
X511662Y-628800D01*
X511662Y-657100D01*
X505812Y-662950D01*
X497512Y-662950D01*
X491662Y-657100D01*
X491662Y-628800D01*
G37*
G36*
X650362Y-628800D02*
X656212Y-622950D01*
X664512Y-622950D01*
X670362Y-628800D01*
X670362Y-657100D01*
X664512Y-662950D01*
X656212Y-662950D01*
X650362Y-657100D01*
X650362Y-628800D01*
G37*
X673100Y-706438D02*
G54D13*
D03*
X612762Y-706450D02*
G54D13*
D03*
X488937Y-798526D02*
G54D13*
D03*
X690550Y-757250D02*
G54D13*
D03*
G54D14*
X488937Y-706450D02*
X488937Y-798526D01*
G54D14*
X612762Y-706450D02*
X561962Y-706450D01*
G54D14*
X612762Y-706450D02*
X673087Y-706450D01*
G54D14*
X630224Y-736613D02*
X657212Y-736613D01*
X488950Y-706438D02*
G54D13*
D03*
X561962Y-706450D02*
G54D13*
D03*
X630224Y-736613D02*
G54D13*
D03*
G54D14*
X690562Y-757238D02*
X677862Y-757238D01*
X657224Y-736600D01*
M02*
