%FSLAX34Y34*%
%MOMM*%
%LNSMDMASK_BOTTOM*%
G71*
G01*
%ADD10R, 1.000X1.500*%
%ADD11R, 1.600X2.000*%
%ADD12R, 1.300X1.400*%
%LPD*%
X168274Y-58738D02*
G54D10*
D03*
X142874Y-58738D02*
G54D10*
D03*
X180974Y-58738D02*
G54D10*
D03*
X155574Y-58738D02*
G54D10*
D03*
X130174Y-58738D02*
G54D10*
D03*
X95250Y-390526D02*
G54D10*
D03*
X107950Y-390526D02*
G54D10*
D03*
X36512Y-355600D02*
G54D11*
D03*
X64512Y-355600D02*
G54D11*
D03*
X41275Y-390525D02*
G54D12*
D03*
X60275Y-390525D02*
G54D12*
D03*
X555624Y-58738D02*
G54D10*
D03*
X530224Y-58738D02*
G54D10*
D03*
X568324Y-58738D02*
G54D10*
D03*
X542924Y-58738D02*
G54D10*
D03*
X517524Y-58738D02*
G54D10*
D03*
X482600Y-390526D02*
G54D10*
D03*
X495300Y-390526D02*
G54D10*
D03*
X423862Y-355600D02*
G54D11*
D03*
X451862Y-355600D02*
G54D11*
D03*
X428625Y-390525D02*
G54D12*
D03*
X447625Y-390525D02*
G54D12*
D03*
X168274Y-495300D02*
G54D10*
D03*
X142874Y-495300D02*
G54D10*
D03*
X180974Y-495300D02*
G54D10*
D03*
X155574Y-495300D02*
G54D10*
D03*
X130174Y-495300D02*
G54D10*
D03*
X95250Y-827088D02*
G54D10*
D03*
X107950Y-827088D02*
G54D10*
D03*
X36512Y-792162D02*
G54D11*
D03*
X64512Y-792162D02*
G54D11*
D03*
X41275Y-827088D02*
G54D12*
D03*
X60275Y-827088D02*
G54D12*
D03*
X555624Y-495300D02*
G54D10*
D03*
X530224Y-495300D02*
G54D10*
D03*
X568324Y-495300D02*
G54D10*
D03*
X542924Y-495300D02*
G54D10*
D03*
X517524Y-495300D02*
G54D10*
D03*
X482600Y-827088D02*
G54D10*
D03*
X495300Y-827088D02*
G54D10*
D03*
X423862Y-792162D02*
G54D11*
D03*
X451862Y-792162D02*
G54D11*
D03*
X428625Y-827088D02*
G54D12*
D03*
X447625Y-827088D02*
G54D12*
D03*
M02*
