%FSLAX34Y34*%
%MOMM*%
%LNSILK_BOTTOM*%
G71*
G01*
%ADD10C, 0.100*%
%ADD11C, 0.110*%
%ADD12C, 0.170*%
%ADD13C, 0.160*%
%ADD14C, 0.240*%
%ADD15C, 0.150*%
%ADD16C, 0.111*%
%LPD*%
G54D10*
X273037Y-173050D02*
X114237Y-173050D01*
X114237Y-336613D01*
X273037Y-336613D01*
X273037Y-173050D01*
G54D10*
X131750Y-195276D02*
X131750Y-269863D01*
X255474Y-269863D01*
X255474Y-195276D01*
G54D10*
X131750Y-195276D02*
X152387Y-195276D01*
X152387Y-185750D01*
X161912Y-185750D01*
X161912Y-176226D01*
X193662Y-176226D01*
G54D10*
X255412Y-195276D02*
X234774Y-195276D01*
X234774Y-185750D01*
X225250Y-185750D01*
X225250Y-176226D01*
X193500Y-176226D01*
G54D11*
X341287Y-53195D02*
X339065Y-49862D01*
X339065Y-58750D01*
G54D11*
X334187Y-54862D02*
X330631Y-54862D01*
G54D11*
X325687Y-49862D02*
X325687Y-58750D01*
X323465Y-53195D01*
X321243Y-58750D01*
X321243Y-49862D01*
G54D11*
X315331Y-51528D02*
X315331Y-57084D01*
X315776Y-58195D01*
X316665Y-58750D01*
X317554Y-58750D01*
X318443Y-58195D01*
X318887Y-57084D01*
X318887Y-51528D01*
X318443Y-50417D01*
X317554Y-49862D01*
X316665Y-49862D01*
X315776Y-50417D01*
X315331Y-51528D01*
G54D11*
X312887Y-58750D02*
X312887Y-53750D01*
G54D11*
X312887Y-54862D02*
X311998Y-53750D01*
X311109Y-53750D01*
G54D11*
X306187Y-54862D02*
X302631Y-54862D01*
G54D11*
X297687Y-57084D02*
X297243Y-58195D01*
X296354Y-58750D01*
X295465Y-58750D01*
X294576Y-58195D01*
X294131Y-57084D01*
X294131Y-55973D01*
X294576Y-54862D01*
X295465Y-54306D01*
X296354Y-54306D01*
X297243Y-53750D01*
X297687Y-52639D01*
X297687Y-51528D01*
X297243Y-50417D01*
X296354Y-49862D01*
X295465Y-49862D01*
X294576Y-50417D01*
X294131Y-51528D01*
G54D11*
X291687Y-58750D02*
X291687Y-49862D01*
X289465Y-49862D01*
X288576Y-50417D01*
X288131Y-51528D01*
X288131Y-57084D01*
X288576Y-58195D01*
X289465Y-58750D01*
X291687Y-58750D01*
G54D11*
X285687Y-58750D02*
X283465Y-49862D01*
X281243Y-58750D01*
G54D11*
X284798Y-55417D02*
X282131Y-55417D01*
G54D11*
X337731Y-74626D02*
X341287Y-74626D01*
X341287Y-74070D01*
X340843Y-72959D01*
X338176Y-69626D01*
X337731Y-68514D01*
X337731Y-67403D01*
X338176Y-66292D01*
X339065Y-65737D01*
X339954Y-65737D01*
X340843Y-66292D01*
X341287Y-67403D01*
G54D11*
X332787Y-70737D02*
X329231Y-70737D01*
G54D11*
X320731Y-67403D02*
X320731Y-72959D01*
X321176Y-74070D01*
X322065Y-74626D01*
X322954Y-74626D01*
X323843Y-74070D01*
X324287Y-72959D01*
X324287Y-67403D01*
X323843Y-66292D01*
X322954Y-65737D01*
X322065Y-65737D01*
X321176Y-66292D01*
X320731Y-67403D01*
G54D11*
X318287Y-74626D02*
X318287Y-69626D01*
G54D11*
X318287Y-70737D02*
X317398Y-69626D01*
X316509Y-69626D01*
G54D11*
X311587Y-70737D02*
X308031Y-70737D01*
G54D11*
X301309Y-70181D02*
X299531Y-70181D01*
X299531Y-72959D01*
X299976Y-74070D01*
X300865Y-74626D01*
X301754Y-74626D01*
X302643Y-74070D01*
X303087Y-72959D01*
X303087Y-67403D01*
X302643Y-66292D01*
X301754Y-65737D01*
X300865Y-65737D01*
X299976Y-66292D01*
X299531Y-67403D01*
G54D11*
X297087Y-74626D02*
X297087Y-65737D01*
X293531Y-74626D01*
X293531Y-65737D01*
G54D11*
X291087Y-74626D02*
X291087Y-65737D01*
X288865Y-65737D01*
X287976Y-66292D01*
X287531Y-67403D01*
X287531Y-72959D01*
X287976Y-74070D01*
X288865Y-74626D01*
X291087Y-74626D01*
G54D11*
X341287Y-83278D02*
X340843Y-82167D01*
X339954Y-81612D01*
X339065Y-81612D01*
X338176Y-82167D01*
X337731Y-83278D01*
X337731Y-84389D01*
X338176Y-85500D01*
X339065Y-86056D01*
X338176Y-86612D01*
X337731Y-87723D01*
X337731Y-88834D01*
X338176Y-89945D01*
X339065Y-90500D01*
X339954Y-90500D01*
X340843Y-89945D01*
X341287Y-88834D01*
G54D11*
X332787Y-86612D02*
X329231Y-86612D01*
G54D11*
X324287Y-81612D02*
X324287Y-90500D01*
X322065Y-84945D01*
X319843Y-90500D01*
X319843Y-81612D01*
G54D11*
X315709Y-86056D02*
X313931Y-86056D01*
X313931Y-88834D01*
X314376Y-89945D01*
X315265Y-90500D01*
X316154Y-90500D01*
X317043Y-89945D01*
X317487Y-88834D01*
X317487Y-83278D01*
X317043Y-82167D01*
X316154Y-81612D01*
X315265Y-81612D01*
X314376Y-82167D01*
X313931Y-83278D01*
G54D11*
X311487Y-90500D02*
X311487Y-85500D01*
G54D11*
X311487Y-86612D02*
X310598Y-85500D01*
X309709Y-85500D01*
G54D11*
X304787Y-86612D02*
X301231Y-86612D01*
G54D11*
X296287Y-88834D02*
X295843Y-89945D01*
X294954Y-90500D01*
X294065Y-90500D01*
X293176Y-89945D01*
X292731Y-88834D01*
X292731Y-87723D01*
X293176Y-86612D01*
X294065Y-86056D01*
X294954Y-86056D01*
X295843Y-85500D01*
X296287Y-84389D01*
X296287Y-83278D01*
X295843Y-82167D01*
X294954Y-81612D01*
X294065Y-81612D01*
X293176Y-82167D01*
X292731Y-83278D01*
G54D11*
X286731Y-88834D02*
X287176Y-89945D01*
X288065Y-90500D01*
X288954Y-90500D01*
X289843Y-89945D01*
X290287Y-88834D01*
X290287Y-83278D01*
X289843Y-82167D01*
X288954Y-81612D01*
X288065Y-81612D01*
X287176Y-82167D01*
X286731Y-83278D01*
G54D11*
X284287Y-81612D02*
X284287Y-90500D01*
X281176Y-90500D01*
G54D11*
X338620Y-106376D02*
X338620Y-97487D01*
X341287Y-103042D01*
X341287Y-104153D01*
X337731Y-104153D01*
G54D11*
X332787Y-102487D02*
X329231Y-102487D01*
G54D11*
X324287Y-106376D02*
X324287Y-97487D01*
X322065Y-97487D01*
X321176Y-98042D01*
X320731Y-99153D01*
X320731Y-100264D01*
X321176Y-101376D01*
X322065Y-101931D01*
X321176Y-102487D01*
X320731Y-103598D01*
X320731Y-104709D01*
X321176Y-105820D01*
X322065Y-106376D01*
X324287Y-106376D01*
G54D11*
X324287Y-101931D02*
X322065Y-101931D01*
G54D11*
X318287Y-106376D02*
X318287Y-97487D01*
G54D11*
X313387Y-102487D02*
X309831Y-102487D01*
G54D11*
X303109Y-101931D02*
X301331Y-101931D01*
X301331Y-104709D01*
X301776Y-105820D01*
X302665Y-106376D01*
X303554Y-106376D01*
X304443Y-105820D01*
X304887Y-104709D01*
X304887Y-99153D01*
X304443Y-98042D01*
X303554Y-97487D01*
X302665Y-97487D01*
X301776Y-98042D01*
X301331Y-99153D01*
G54D11*
X298887Y-106376D02*
X298887Y-97487D01*
X295331Y-106376D01*
X295331Y-97487D01*
G54D11*
X292887Y-106376D02*
X292887Y-97487D01*
X290665Y-97487D01*
X289776Y-98042D01*
X289331Y-99153D01*
X289331Y-104709D01*
X289776Y-105820D01*
X290665Y-106376D01*
X292887Y-106376D01*
G54D11*
X337731Y-113362D02*
X341287Y-113362D01*
X341287Y-117250D01*
X340843Y-117250D01*
X339954Y-116695D01*
X339065Y-116695D01*
X338176Y-117250D01*
X337731Y-118362D01*
X337731Y-120584D01*
X338176Y-121695D01*
X339065Y-122250D01*
X339954Y-122250D01*
X340843Y-121695D01*
X341287Y-120584D01*
G54D11*
X332787Y-118362D02*
X329231Y-118362D01*
G54D11*
X324287Y-113362D02*
X324287Y-122250D01*
X322065Y-116695D01*
X319843Y-122250D01*
X319843Y-113362D01*
G54D11*
X317487Y-122250D02*
X317487Y-113362D01*
X315265Y-113362D01*
X314376Y-113917D01*
X313931Y-115028D01*
X313931Y-116139D01*
X314376Y-117250D01*
X315265Y-117806D01*
X314376Y-118362D01*
X313931Y-119473D01*
X313931Y-120584D01*
X314376Y-121695D01*
X315265Y-122250D01*
X317487Y-122250D01*
G54D11*
X317487Y-117806D02*
X315265Y-117806D01*
G54D11*
X311487Y-122250D02*
X311487Y-113362D01*
G54D11*
X306587Y-118362D02*
X303031Y-118362D01*
G54D11*
X298087Y-122250D02*
X298087Y-113362D01*
X295865Y-113362D01*
X294976Y-113917D01*
X294531Y-115028D01*
X294531Y-120584D01*
X294976Y-121695D01*
X295865Y-122250D01*
X298087Y-122250D01*
G54D11*
X292087Y-120584D02*
X291643Y-121695D01*
X290754Y-122250D01*
X289865Y-122250D01*
X288976Y-121695D01*
X288531Y-120584D01*
X288531Y-119473D01*
X288976Y-118362D01*
X289865Y-117806D01*
X290754Y-117806D01*
X291643Y-117250D01*
X292087Y-116139D01*
X292087Y-115028D01*
X291643Y-113917D01*
X290754Y-113362D01*
X289865Y-113362D01*
X288976Y-113917D01*
X288531Y-115028D01*
G54D11*
X286087Y-116695D02*
X283865Y-113362D01*
X283865Y-122250D01*
G54D11*
X279265Y-117806D02*
X280154Y-117806D01*
X281043Y-117250D01*
X281487Y-116139D01*
X281487Y-115028D01*
X281043Y-113917D01*
X280154Y-113362D01*
X279265Y-113362D01*
X278376Y-113917D01*
X277931Y-115028D01*
X277931Y-116139D01*
X278376Y-117250D01*
X279265Y-117806D01*
X278376Y-118362D01*
X277931Y-119473D01*
X277931Y-120584D01*
X278376Y-121695D01*
X279265Y-122250D01*
X280154Y-122250D01*
X281043Y-121695D01*
X281487Y-120584D01*
X281487Y-119473D01*
X281043Y-118362D01*
X280154Y-117806D01*
G54D11*
X275487Y-122250D02*
X275487Y-113362D01*
X273265Y-113362D01*
X272376Y-113917D01*
X271931Y-115028D01*
X271931Y-116139D01*
X272376Y-117250D01*
X273265Y-117806D01*
X272376Y-118362D01*
X271931Y-119473D01*
X271931Y-120584D01*
X272376Y-121695D01*
X273265Y-122250D01*
X275487Y-122250D01*
G54D11*
X275487Y-117806D02*
X273265Y-117806D01*
G54D11*
X265931Y-122250D02*
X269487Y-122250D01*
X269487Y-121695D01*
X269043Y-120584D01*
X266376Y-117250D01*
X265931Y-116139D01*
X265931Y-115028D01*
X266376Y-113917D01*
X267265Y-113362D01*
X268154Y-113362D01*
X269043Y-113917D01*
X269487Y-115028D01*
G54D11*
X259931Y-115028D02*
X259931Y-120584D01*
X260376Y-121695D01*
X261265Y-122250D01*
X262154Y-122250D01*
X263043Y-121695D01*
X263487Y-120584D01*
X263487Y-115028D01*
X263043Y-113917D01*
X262154Y-113362D01*
X261265Y-113362D01*
X260376Y-113917D01*
X259931Y-115028D01*
G54D11*
X337756Y-130891D02*
X338201Y-129780D01*
X339090Y-129224D01*
X339979Y-129224D01*
X340868Y-129780D01*
X341312Y-130891D01*
X341312Y-133669D01*
X341312Y-134224D01*
X339979Y-133113D01*
X339090Y-133113D01*
X338201Y-133669D01*
X337756Y-134780D01*
X337756Y-136446D01*
X338201Y-137558D01*
X339090Y-138113D01*
X339979Y-138113D01*
X340868Y-137558D01*
X341312Y-136446D01*
X341312Y-133669D01*
G54D11*
X332812Y-134224D02*
X329256Y-134224D01*
G54D11*
X322534Y-133669D02*
X320756Y-133669D01*
X320756Y-136446D01*
X321201Y-137558D01*
X322090Y-138113D01*
X322979Y-138113D01*
X323868Y-137558D01*
X324312Y-136446D01*
X324312Y-130891D01*
X323868Y-129780D01*
X322979Y-129224D01*
X322090Y-129224D01*
X321201Y-129780D01*
X320756Y-130891D01*
G54D11*
X318312Y-138113D02*
X318312Y-133113D01*
G54D11*
X318312Y-134224D02*
X317423Y-133113D01*
X316534Y-133113D01*
G54D11*
X311612Y-134224D02*
X308056Y-134224D01*
G54D11*
X303112Y-134224D02*
X299556Y-134224D01*
G54D11*
X301334Y-132002D02*
X301334Y-136446D01*
G54D11*
X297112Y-130891D02*
X296668Y-129780D01*
X295779Y-129224D01*
X294890Y-129224D01*
X294001Y-129780D01*
X293556Y-130891D01*
X293556Y-132002D01*
X294001Y-133113D01*
X294890Y-133669D01*
X294001Y-134224D01*
X293556Y-135335D01*
X293556Y-136446D01*
X294001Y-137558D01*
X294890Y-138113D01*
X295779Y-138113D01*
X296668Y-137558D01*
X297112Y-136446D01*
G54D11*
X291112Y-138113D02*
X291112Y-138113D01*
G54D11*
X288712Y-130891D02*
X288268Y-129780D01*
X287379Y-129224D01*
X286490Y-129224D01*
X285601Y-129780D01*
X285156Y-130891D01*
X285156Y-132002D01*
X285601Y-133113D01*
X286490Y-133669D01*
X285601Y-134224D01*
X285156Y-135335D01*
X285156Y-136446D01*
X285601Y-137558D01*
X286490Y-138113D01*
X287379Y-138113D01*
X288268Y-137558D01*
X288712Y-136446D01*
G54D11*
X282712Y-129224D02*
X280490Y-138113D01*
X278268Y-129224D01*
G54D11*
X341287Y-145112D02*
X337731Y-145112D01*
X338176Y-146223D01*
X339065Y-147889D01*
X339954Y-150112D01*
X340398Y-151778D01*
X340398Y-154000D01*
G54D11*
X332787Y-150112D02*
X329231Y-150112D01*
G54D11*
X324287Y-145112D02*
X324287Y-154000D01*
X322065Y-148445D01*
X319843Y-154000D01*
X319843Y-145112D01*
G54D11*
X317487Y-154000D02*
X317487Y-145112D01*
X315265Y-145112D01*
X314376Y-145667D01*
X313931Y-146778D01*
X313931Y-147889D01*
X314376Y-149000D01*
X315265Y-149556D01*
X314376Y-150112D01*
X313931Y-151223D01*
X313931Y-152334D01*
X314376Y-153445D01*
X315265Y-154000D01*
X317487Y-154000D01*
G54D11*
X317487Y-149556D02*
X315265Y-149556D01*
G54D11*
X311487Y-154000D02*
X311487Y-149000D01*
G54D11*
X311487Y-150112D02*
X310598Y-149000D01*
X309709Y-149000D01*
G54D11*
X304787Y-150112D02*
X301231Y-150112D01*
G54D11*
X296287Y-154000D02*
X296287Y-145112D01*
X294065Y-145112D01*
X293176Y-145667D01*
X292731Y-146778D01*
X292731Y-147889D01*
X293176Y-149000D01*
X294065Y-149556D01*
X293176Y-150112D01*
X292731Y-151223D01*
X292731Y-152334D01*
X293176Y-153445D01*
X294065Y-154000D01*
X296287Y-154000D01*
G54D11*
X296287Y-149556D02*
X294065Y-149556D01*
G54D11*
X287620Y-149000D02*
X287620Y-154000D01*
G54D11*
X287620Y-152889D02*
X288065Y-153778D01*
X288954Y-154000D01*
X289843Y-153778D01*
X290287Y-152889D01*
X290287Y-149000D01*
G54D11*
X284298Y-145112D02*
X284298Y-153445D01*
X283854Y-154000D01*
X283409Y-153778D01*
G54D11*
X285187Y-149000D02*
X283409Y-149000D01*
G54D11*
X280098Y-145112D02*
X280098Y-153445D01*
X279654Y-154000D01*
X279209Y-153778D01*
G54D11*
X280987Y-149000D02*
X279209Y-149000D01*
G54D11*
X274120Y-152667D02*
X274120Y-150445D01*
X274565Y-149334D01*
X275454Y-149000D01*
X276343Y-149334D01*
X276787Y-150445D01*
X276787Y-152667D01*
X276343Y-153778D01*
X275454Y-154000D01*
X274565Y-153778D01*
X274120Y-152667D01*
G54D11*
X271687Y-154000D02*
X271687Y-149000D01*
G54D11*
X271687Y-150112D02*
X271243Y-149334D01*
X270354Y-149000D01*
X269465Y-149334D01*
X269020Y-150112D01*
X269020Y-154000D01*
G54D11*
X339065Y-165431D02*
X339954Y-165431D01*
X340843Y-164876D01*
X341287Y-163764D01*
X341287Y-162653D01*
X340843Y-161542D01*
X339954Y-160987D01*
X339065Y-160987D01*
X338176Y-161542D01*
X337731Y-162653D01*
X337731Y-163764D01*
X338176Y-164876D01*
X339065Y-165431D01*
X338176Y-165987D01*
X337731Y-167098D01*
X337731Y-168209D01*
X338176Y-169320D01*
X339065Y-169876D01*
X339954Y-169876D01*
X340843Y-169320D01*
X341287Y-168209D01*
X341287Y-167098D01*
X340843Y-165987D01*
X339954Y-165431D01*
G54D11*
X332787Y-165987D02*
X329231Y-165987D01*
G54D11*
X324287Y-169876D02*
X324287Y-160987D01*
X322065Y-160987D01*
X321176Y-161542D01*
X320731Y-162653D01*
X320731Y-163764D01*
X321176Y-164876D01*
X322065Y-165431D01*
X321176Y-165987D01*
X320731Y-167098D01*
X320731Y-168209D01*
X321176Y-169320D01*
X322065Y-169876D01*
X324287Y-169876D01*
G54D11*
X324287Y-165431D02*
X322065Y-165431D01*
G54D11*
X318287Y-169876D02*
X318287Y-164876D01*
G54D11*
X318287Y-165987D02*
X317398Y-164876D01*
X316509Y-164876D01*
G54D11*
X311587Y-165987D02*
X308031Y-165987D01*
G54D11*
X301309Y-165431D02*
X299531Y-165431D01*
X299531Y-168209D01*
X299976Y-169320D01*
X300865Y-169876D01*
X301754Y-169876D01*
X302643Y-169320D01*
X303087Y-168209D01*
X303087Y-162653D01*
X302643Y-161542D01*
X301754Y-160987D01*
X300865Y-160987D01*
X299976Y-161542D01*
X299531Y-162653D01*
G54D11*
X297087Y-169876D02*
X297087Y-160987D01*
X293531Y-169876D01*
X293531Y-160987D01*
G54D11*
X291087Y-169876D02*
X291087Y-160987D01*
X288865Y-160987D01*
X287976Y-161542D01*
X287531Y-162653D01*
X287531Y-168209D01*
X287976Y-169320D01*
X288865Y-169876D01*
X291087Y-169876D01*
G54D10*
X344450Y-47626D02*
X349212Y-47626D01*
X349212Y-171450D01*
X344450Y-171450D01*
G54D12*
X366679Y-156626D02*
X365012Y-153626D01*
X363345Y-152626D01*
X360012Y-152626D01*
G54D12*
X360012Y-160626D02*
X373345Y-160626D01*
X373345Y-155626D01*
X372512Y-153626D01*
X370845Y-152626D01*
X369179Y-152626D01*
X367512Y-153626D01*
X366679Y-155626D01*
X366679Y-160626D01*
G54D12*
X373345Y-140926D02*
X362512Y-140926D01*
X360845Y-141926D01*
X360012Y-143926D01*
X360012Y-145926D01*
X360845Y-147926D01*
X362512Y-148926D01*
G54D12*
X365845Y-137226D02*
X365845Y-129226D01*
G54D12*
X360012Y-119526D02*
X373345Y-119526D01*
X365012Y-125526D01*
X363345Y-125526D01*
X363345Y-117526D01*
G54D12*
X373345Y-105826D02*
X373345Y-113826D01*
X367512Y-113826D01*
X367512Y-112826D01*
X368345Y-110826D01*
X368345Y-108826D01*
X367512Y-106826D01*
X365845Y-105826D01*
X362512Y-105826D01*
X360845Y-106826D01*
X360012Y-108826D01*
X360012Y-110826D01*
X360845Y-112826D01*
X362512Y-113826D01*
G54D12*
X373345Y-98226D02*
X360012Y-98226D01*
X368345Y-93226D01*
X360012Y-88226D01*
X373345Y-88226D01*
G54D12*
X360012Y-84526D02*
X367512Y-84526D01*
G54D12*
X370012Y-84526D02*
X370012Y-84526D01*
G54D12*
X360012Y-80826D02*
X367512Y-80826D01*
G54D12*
X365845Y-80826D02*
X367512Y-78826D01*
X367512Y-76826D01*
G54D12*
X360012Y-73126D02*
X367512Y-73126D01*
G54D12*
X370012Y-73126D02*
X370012Y-73126D01*
G54D12*
X360012Y-69426D02*
X367512Y-69426D01*
G54D12*
X365845Y-69426D02*
X367012Y-68426D01*
X367512Y-66426D01*
X367012Y-64426D01*
X365845Y-63426D01*
X360012Y-63426D01*
G54D12*
X357512Y-59726D02*
X356679Y-57726D01*
X356679Y-56326D01*
X357512Y-54326D01*
X359179Y-53726D01*
X367512Y-53726D01*
G54D12*
X365345Y-53726D02*
X367012Y-54726D01*
X367512Y-56726D01*
X367012Y-58726D01*
X365345Y-59726D01*
X362012Y-59726D01*
X360345Y-58726D01*
X360012Y-56726D01*
X360345Y-54726D01*
X362012Y-53726D01*
G54D13*
X187324Y-91996D02*
X186880Y-93107D01*
X185991Y-93663D01*
X185102Y-93663D01*
X184213Y-93107D01*
X183769Y-91996D01*
X183769Y-90885D01*
X184213Y-89774D01*
X185102Y-89219D01*
X185991Y-89219D01*
X186880Y-88663D01*
X187324Y-87552D01*
X187324Y-86441D01*
X186880Y-85330D01*
X185991Y-84774D01*
X185102Y-84774D01*
X184213Y-85330D01*
X183769Y-86441D01*
G54D13*
X177958Y-93107D02*
X178669Y-93663D01*
X179558Y-93663D01*
X180447Y-93107D01*
X180624Y-91996D01*
X180624Y-90107D01*
X180180Y-88996D01*
X179291Y-88663D01*
X178402Y-88996D01*
X177958Y-89774D01*
X177958Y-90885D01*
X180624Y-90885D01*
G54D13*
X174824Y-93663D02*
X174824Y-84774D01*
G54D13*
X169058Y-93107D02*
X169769Y-93663D01*
X170658Y-93663D01*
X171547Y-93107D01*
X171724Y-91996D01*
X171724Y-90107D01*
X171280Y-88996D01*
X170391Y-88663D01*
X169502Y-88996D01*
X169058Y-89774D01*
X169058Y-90885D01*
X171724Y-90885D01*
G54D13*
X163702Y-88996D02*
X164591Y-88663D01*
X165480Y-88996D01*
X165924Y-90107D01*
X165924Y-92330D01*
X165480Y-93441D01*
X164591Y-93663D01*
X163702Y-93441D01*
G54D13*
X159736Y-84774D02*
X159736Y-93107D01*
X159291Y-93663D01*
X158847Y-93441D01*
G54D13*
X160624Y-88663D02*
X158847Y-88663D01*
G54D13*
X152524Y-93663D02*
X152524Y-84774D01*
X150302Y-84774D01*
X149413Y-85330D01*
X148969Y-86441D01*
X148969Y-87552D01*
X149413Y-88663D01*
X150302Y-89219D01*
X152524Y-89219D01*
G54D13*
X143158Y-92330D02*
X143158Y-90107D01*
X143602Y-88996D01*
X144491Y-88663D01*
X145380Y-88996D01*
X145824Y-90107D01*
X145824Y-92330D01*
X145380Y-93441D01*
X144491Y-93663D01*
X143602Y-93441D01*
X143158Y-92330D01*
G54D13*
X140024Y-88663D02*
X138691Y-93663D01*
X137358Y-88663D01*
X136024Y-93663D01*
X135136Y-88663D01*
G54D13*
X129358Y-93107D02*
X130069Y-93663D01*
X130958Y-93663D01*
X131847Y-93107D01*
X132024Y-91996D01*
X132024Y-90107D01*
X131580Y-88996D01*
X130691Y-88663D01*
X129802Y-88996D01*
X129358Y-89774D01*
X129358Y-90885D01*
X132024Y-90885D01*
G54D13*
X126224Y-93663D02*
X126224Y-88663D01*
G54D13*
X126224Y-89774D02*
X125336Y-88663D01*
X124447Y-88663D01*
G54D11*
X163012Y-70487D02*
X160790Y-79376D01*
X158568Y-70487D01*
G54D11*
X153990Y-74709D02*
X154879Y-74376D01*
X155768Y-74709D01*
X156212Y-75820D01*
X156212Y-78042D01*
X155768Y-79153D01*
X154879Y-79376D01*
X153990Y-79153D01*
G54D11*
X149390Y-74709D02*
X150279Y-74376D01*
X151168Y-74709D01*
X151612Y-75820D01*
X151612Y-78042D01*
X151168Y-79153D01*
X150279Y-79376D01*
X149390Y-79153D01*
G54D11*
X185547Y-74931D02*
X183769Y-74931D01*
X183769Y-77709D01*
X184213Y-78820D01*
X185102Y-79376D01*
X185991Y-79376D01*
X186880Y-78820D01*
X187324Y-77709D01*
X187324Y-72153D01*
X186880Y-71042D01*
X185991Y-70487D01*
X185102Y-70487D01*
X184213Y-71042D01*
X183769Y-72153D01*
G54D11*
X181324Y-79376D02*
X181324Y-74376D01*
G54D11*
X181324Y-75487D02*
X180880Y-74709D01*
X179991Y-74376D01*
X179102Y-74709D01*
X178658Y-75487D01*
X178658Y-79376D01*
G54D11*
X173558Y-79376D02*
X173558Y-70487D01*
G54D11*
X173558Y-75820D02*
X174002Y-74709D01*
X174891Y-74376D01*
X175780Y-74709D01*
X176224Y-75820D01*
X176224Y-78042D01*
X175780Y-79153D01*
X174891Y-79376D01*
X174002Y-79153D01*
X173558Y-78042D01*
G54D11*
X136334Y-74931D02*
X134556Y-74931D01*
X134556Y-77709D01*
X135001Y-78820D01*
X135890Y-79376D01*
X136779Y-79376D01*
X137668Y-78820D01*
X138112Y-77709D01*
X138112Y-72153D01*
X137668Y-71042D01*
X136779Y-70487D01*
X135890Y-70487D01*
X135001Y-71042D01*
X134556Y-72153D01*
G54D11*
X132112Y-79376D02*
X132112Y-74376D01*
G54D11*
X132112Y-75487D02*
X131668Y-74709D01*
X130779Y-74376D01*
X129890Y-74709D01*
X129445Y-75487D01*
X129445Y-79376D01*
G54D11*
X124345Y-79376D02*
X124345Y-70487D01*
G54D11*
X124345Y-75820D02*
X124790Y-74709D01*
X125679Y-74376D01*
X126568Y-74709D01*
X127012Y-75820D01*
X127012Y-78042D01*
X126568Y-79153D01*
X125679Y-79376D01*
X124790Y-79153D01*
X124345Y-78042D01*
G54D11*
X115756Y-413428D02*
X115756Y-418984D01*
X116201Y-420095D01*
X117090Y-420650D01*
X117979Y-420650D01*
X118868Y-420095D01*
X119312Y-418984D01*
X119312Y-413428D01*
X118868Y-412317D01*
X117979Y-411762D01*
X117090Y-411762D01*
X116201Y-412317D01*
X115756Y-413428D01*
G54D11*
X113312Y-411762D02*
X113312Y-420650D01*
X110201Y-420650D01*
G54D11*
X104701Y-420650D02*
X107812Y-420650D01*
X107812Y-411762D01*
X104701Y-411762D01*
G54D11*
X107812Y-416206D02*
X104701Y-416206D01*
G54D11*
X102312Y-420650D02*
X102312Y-411762D01*
X100090Y-411762D01*
X99201Y-412317D01*
X98756Y-413428D01*
X98756Y-418984D01*
X99201Y-420095D01*
X100090Y-420650D01*
X102312Y-420650D01*
G54D11*
X96312Y-420650D02*
X91868Y-420650D01*
G54D11*
X89512Y-420650D02*
X89512Y-411762D01*
X87290Y-411762D01*
X86401Y-412317D01*
X85956Y-413428D01*
X85956Y-418984D01*
X86401Y-420095D01*
X87290Y-420650D01*
X89512Y-420650D01*
G54D11*
X83512Y-418984D02*
X83068Y-420095D01*
X82179Y-420650D01*
X81290Y-420650D01*
X80401Y-420095D01*
X79956Y-418984D01*
X79956Y-417873D01*
X80401Y-416762D01*
X81290Y-416206D01*
X82179Y-416206D01*
X83068Y-415650D01*
X83512Y-414539D01*
X83512Y-413428D01*
X83068Y-412317D01*
X82179Y-411762D01*
X81290Y-411762D01*
X80401Y-412317D01*
X79956Y-413428D01*
G54D11*
X77512Y-420650D02*
X73068Y-420650D01*
G54D11*
X70712Y-420650D02*
X70712Y-411762D01*
G54D11*
X67156Y-420650D02*
X67156Y-411762D01*
G54D11*
X70712Y-416206D02*
X67156Y-416206D01*
G54D11*
X62934Y-420650D02*
X62934Y-411762D01*
G54D11*
X64712Y-411762D02*
X61156Y-411762D01*
G54D11*
X58712Y-411762D02*
X58712Y-418984D01*
X58268Y-420095D01*
X57379Y-420650D01*
X56490Y-420650D01*
X55601Y-420095D01*
X55156Y-418984D01*
X55156Y-411762D01*
G54D11*
X52712Y-420650D02*
X48268Y-420650D01*
G54D11*
X45912Y-411762D02*
X43690Y-420650D01*
X41468Y-411762D01*
G54D11*
X36445Y-420095D02*
X37156Y-420650D01*
X38045Y-420650D01*
X38934Y-420095D01*
X39112Y-418984D01*
X39112Y-417095D01*
X38668Y-415984D01*
X37779Y-415650D01*
X36890Y-415984D01*
X36445Y-416762D01*
X36445Y-417873D01*
X39112Y-417873D01*
G54D11*
X34012Y-420650D02*
X34012Y-415650D01*
G54D11*
X34012Y-416762D02*
X33123Y-415650D01*
X32234Y-415650D01*
G54D11*
X29812Y-420650D02*
X29812Y-420650D01*
G54D11*
X23856Y-420650D02*
X27412Y-420650D01*
X27412Y-420095D01*
X26968Y-418984D01*
X24301Y-415650D01*
X23856Y-414539D01*
X23856Y-413428D01*
X24301Y-412317D01*
X25190Y-411762D01*
X26079Y-411762D01*
X26968Y-412317D01*
X27412Y-413428D01*
G54D11*
X21412Y-416762D02*
X17856Y-416762D01*
G54D11*
X11856Y-420650D02*
X15412Y-420650D01*
X15412Y-420095D01*
X14968Y-418984D01*
X12301Y-415650D01*
X11856Y-414539D01*
X11856Y-413428D01*
X12301Y-412317D01*
X13190Y-411762D01*
X14079Y-411762D01*
X14968Y-412317D01*
X15412Y-413428D01*
G54D14*
X369050Y-419676D02*
X365716Y-406342D01*
X362383Y-419676D01*
G54D14*
X367716Y-414676D02*
X363716Y-414676D01*
G54D14*
X357650Y-419676D02*
X357650Y-406342D01*
G54D14*
X348950Y-418842D02*
X350016Y-419676D01*
X351350Y-419676D01*
X352683Y-418842D01*
X352950Y-417176D01*
X352950Y-414342D01*
X352283Y-412676D01*
X350950Y-412176D01*
X349616Y-412676D01*
X348950Y-413842D01*
X348950Y-415509D01*
X352950Y-415509D01*
G54D14*
X344250Y-412176D02*
X338916Y-419676D01*
G54D14*
X344250Y-419676D02*
X338916Y-412176D01*
G54D14*
X334250Y-419676D02*
X327583Y-419676D01*
G54D14*
X317516Y-406342D02*
X317516Y-417176D01*
X318183Y-418842D01*
X319516Y-419676D01*
X320850Y-419676D01*
X322183Y-418842D01*
X322850Y-417176D01*
G54D14*
X308850Y-418842D02*
X309916Y-419676D01*
X311250Y-419676D01*
X312583Y-418842D01*
X312850Y-417176D01*
X312850Y-414342D01*
X312183Y-412676D01*
X310850Y-412176D01*
X309516Y-412676D01*
X308850Y-413842D01*
X308850Y-415509D01*
X312850Y-415509D01*
G54D14*
X302816Y-406342D02*
X302816Y-418842D01*
X302150Y-419676D01*
X301483Y-419342D01*
G54D14*
X304150Y-412176D02*
X301483Y-412176D01*
G54D15*
X25512Y-368600D02*
X25512Y-342600D01*
X75512Y-342600D01*
X75512Y-368600D01*
X25512Y-368600D01*
G54D16*
X16254Y-358283D02*
X16921Y-359394D01*
X18254Y-359950D01*
X19588Y-359950D01*
X20921Y-359394D01*
X21588Y-358283D01*
X21588Y-352728D01*
X20921Y-351617D01*
X19588Y-351061D01*
X18254Y-351061D01*
X16921Y-351617D01*
X16254Y-352728D01*
G54D16*
X13810Y-354394D02*
X10477Y-351061D01*
X10477Y-359950D01*
G54D15*
X31775Y-400525D02*
X31775Y-380525D01*
X69775Y-380525D01*
X69775Y-400525D01*
X31775Y-400525D01*
G54D16*
X25184Y-390256D02*
X23184Y-391367D01*
X22517Y-392478D01*
X22517Y-394700D01*
G54D16*
X27850Y-394700D02*
X27850Y-385812D01*
X24517Y-385812D01*
X23184Y-386367D01*
X22517Y-387478D01*
X22517Y-388589D01*
X23184Y-389700D01*
X24517Y-390256D01*
X27850Y-390256D01*
G54D16*
X20074Y-389145D02*
X16740Y-385812D01*
X16740Y-394700D01*
G54D16*
X131762Y-377746D02*
X131318Y-378857D01*
X130429Y-379412D01*
X129540Y-379412D01*
X128651Y-378857D01*
X128207Y-377746D01*
X128207Y-376635D01*
X128651Y-375524D01*
X129540Y-374968D01*
X130429Y-374968D01*
X131318Y-374412D01*
X131762Y-373301D01*
X131762Y-372190D01*
X131318Y-371079D01*
X130429Y-370524D01*
X129540Y-370524D01*
X128651Y-371079D01*
X128207Y-372190D01*
G54D16*
X123096Y-378857D02*
X123807Y-379412D01*
X124696Y-379412D01*
X125585Y-378857D01*
X125762Y-377746D01*
X125762Y-375857D01*
X125318Y-374746D01*
X124429Y-374412D01*
X123540Y-374746D01*
X123096Y-375524D01*
X123096Y-376635D01*
X125762Y-376635D01*
G54D16*
X120652Y-379412D02*
X120652Y-370524D01*
G54D16*
X115541Y-378857D02*
X116252Y-379412D01*
X117141Y-379412D01*
X118030Y-378857D01*
X118208Y-377746D01*
X118208Y-375857D01*
X117763Y-374746D01*
X116874Y-374412D01*
X115985Y-374746D01*
X115541Y-375524D01*
X115541Y-376635D01*
X118208Y-376635D01*
G54D16*
X110874Y-374746D02*
X111763Y-374412D01*
X112652Y-374746D01*
X113096Y-375857D01*
X113096Y-378079D01*
X112652Y-379190D01*
X111763Y-379412D01*
X110874Y-379190D01*
G54D16*
X107542Y-370524D02*
X107542Y-378857D01*
X107097Y-379412D01*
X106653Y-379190D01*
G54D16*
X108430Y-374412D02*
X106653Y-374412D01*
G54D16*
X101676Y-379412D02*
X101676Y-370524D01*
X99453Y-370524D01*
X98564Y-371079D01*
X98120Y-372190D01*
X98120Y-373301D01*
X98564Y-374412D01*
X99453Y-374968D01*
X101676Y-374968D01*
G54D16*
X93009Y-374412D02*
X93009Y-379412D01*
G54D16*
X93009Y-378301D02*
X93453Y-379190D01*
X94342Y-379412D01*
X95231Y-379190D01*
X95676Y-378301D01*
X95676Y-374412D01*
G54D16*
X90564Y-379412D02*
X90564Y-370524D01*
G54D16*
X88120Y-379412D02*
X88120Y-370524D01*
G54D16*
X85676Y-375524D02*
X82121Y-375524D01*
G54D16*
X79676Y-370524D02*
X79676Y-377746D01*
X79232Y-378857D01*
X78343Y-379412D01*
X77454Y-379412D01*
X76565Y-378857D01*
X76121Y-377746D01*
X76121Y-370524D01*
G54D16*
X73676Y-374412D02*
X73676Y-381635D01*
G54D16*
X73676Y-377746D02*
X73232Y-379190D01*
X72343Y-379412D01*
X71454Y-379190D01*
X71010Y-378079D01*
X71010Y-375857D01*
X71454Y-374746D01*
X72343Y-374412D01*
X73232Y-374746D01*
X73676Y-376079D01*
G54D10*
X660387Y-173050D02*
X501587Y-173050D01*
X501587Y-336613D01*
X660387Y-336613D01*
X660387Y-173050D01*
G54D10*
X519100Y-195276D02*
X519100Y-269863D01*
X642824Y-269863D01*
X642824Y-195276D01*
G54D10*
X519100Y-195276D02*
X539737Y-195276D01*
X539737Y-185750D01*
X549262Y-185750D01*
X549262Y-176226D01*
X581012Y-176226D01*
G54D10*
X642762Y-195276D02*
X622124Y-195276D01*
X622124Y-185750D01*
X612600Y-185750D01*
X612600Y-176226D01*
X580850Y-176226D01*
G54D11*
X728637Y-53195D02*
X726415Y-49862D01*
X726415Y-58750D01*
G54D11*
X721537Y-54862D02*
X717981Y-54862D01*
G54D11*
X713037Y-49862D02*
X713037Y-58750D01*
X710815Y-53195D01*
X708593Y-58750D01*
X708593Y-49862D01*
G54D11*
X702681Y-51528D02*
X702681Y-57084D01*
X703126Y-58195D01*
X704015Y-58750D01*
X704904Y-58750D01*
X705793Y-58195D01*
X706237Y-57084D01*
X706237Y-51528D01*
X705793Y-50417D01*
X704904Y-49862D01*
X704015Y-49862D01*
X703126Y-50417D01*
X702681Y-51528D01*
G54D11*
X700237Y-58750D02*
X700237Y-53750D01*
G54D11*
X700237Y-54862D02*
X699348Y-53750D01*
X698459Y-53750D01*
G54D11*
X693537Y-54862D02*
X689981Y-54862D01*
G54D11*
X685037Y-57084D02*
X684593Y-58195D01*
X683704Y-58750D01*
X682815Y-58750D01*
X681926Y-58195D01*
X681481Y-57084D01*
X681481Y-55973D01*
X681926Y-54862D01*
X682815Y-54306D01*
X683704Y-54306D01*
X684593Y-53750D01*
X685037Y-52639D01*
X685037Y-51528D01*
X684593Y-50417D01*
X683704Y-49862D01*
X682815Y-49862D01*
X681926Y-50417D01*
X681481Y-51528D01*
G54D11*
X679037Y-58750D02*
X679037Y-49862D01*
X676815Y-49862D01*
X675926Y-50417D01*
X675481Y-51528D01*
X675481Y-57084D01*
X675926Y-58195D01*
X676815Y-58750D01*
X679037Y-58750D01*
G54D11*
X673037Y-58750D02*
X670815Y-49862D01*
X668593Y-58750D01*
G54D11*
X672148Y-55417D02*
X669481Y-55417D01*
G54D11*
X725081Y-74626D02*
X728637Y-74626D01*
X728637Y-74070D01*
X728193Y-72959D01*
X725526Y-69626D01*
X725081Y-68514D01*
X725081Y-67403D01*
X725526Y-66292D01*
X726415Y-65737D01*
X727304Y-65737D01*
X728193Y-66292D01*
X728637Y-67403D01*
G54D11*
X720137Y-70737D02*
X716581Y-70737D01*
G54D11*
X708081Y-67403D02*
X708081Y-72959D01*
X708526Y-74070D01*
X709415Y-74626D01*
X710304Y-74626D01*
X711193Y-74070D01*
X711637Y-72959D01*
X711637Y-67403D01*
X711193Y-66292D01*
X710304Y-65737D01*
X709415Y-65737D01*
X708526Y-66292D01*
X708081Y-67403D01*
G54D11*
X705637Y-74626D02*
X705637Y-69626D01*
G54D11*
X705637Y-70737D02*
X704748Y-69626D01*
X703859Y-69626D01*
G54D11*
X698937Y-70737D02*
X695381Y-70737D01*
G54D11*
X688659Y-70181D02*
X686881Y-70181D01*
X686881Y-72959D01*
X687326Y-74070D01*
X688215Y-74626D01*
X689104Y-74626D01*
X689993Y-74070D01*
X690437Y-72959D01*
X690437Y-67403D01*
X689993Y-66292D01*
X689104Y-65737D01*
X688215Y-65737D01*
X687326Y-66292D01*
X686881Y-67403D01*
G54D11*
X684437Y-74626D02*
X684437Y-65737D01*
X680881Y-74626D01*
X680881Y-65737D01*
G54D11*
X678437Y-74626D02*
X678437Y-65737D01*
X676215Y-65737D01*
X675326Y-66292D01*
X674881Y-67403D01*
X674881Y-72959D01*
X675326Y-74070D01*
X676215Y-74626D01*
X678437Y-74626D01*
G54D11*
X728637Y-83278D02*
X728193Y-82167D01*
X727304Y-81612D01*
X726415Y-81612D01*
X725526Y-82167D01*
X725081Y-83278D01*
X725081Y-84389D01*
X725526Y-85500D01*
X726415Y-86056D01*
X725526Y-86612D01*
X725081Y-87723D01*
X725081Y-88834D01*
X725526Y-89945D01*
X726415Y-90500D01*
X727304Y-90500D01*
X728193Y-89945D01*
X728637Y-88834D01*
G54D11*
X720137Y-86612D02*
X716581Y-86612D01*
G54D11*
X711637Y-81612D02*
X711637Y-90500D01*
X709415Y-84945D01*
X707193Y-90500D01*
X707193Y-81612D01*
G54D11*
X703059Y-86056D02*
X701281Y-86056D01*
X701281Y-88834D01*
X701726Y-89945D01*
X702615Y-90500D01*
X703504Y-90500D01*
X704393Y-89945D01*
X704837Y-88834D01*
X704837Y-83278D01*
X704393Y-82167D01*
X703504Y-81612D01*
X702615Y-81612D01*
X701726Y-82167D01*
X701281Y-83278D01*
G54D11*
X698837Y-90500D02*
X698837Y-85500D01*
G54D11*
X698837Y-86612D02*
X697948Y-85500D01*
X697059Y-85500D01*
G54D11*
X692137Y-86612D02*
X688581Y-86612D01*
G54D11*
X683637Y-88834D02*
X683193Y-89945D01*
X682304Y-90500D01*
X681415Y-90500D01*
X680526Y-89945D01*
X680081Y-88834D01*
X680081Y-87723D01*
X680526Y-86612D01*
X681415Y-86056D01*
X682304Y-86056D01*
X683193Y-85500D01*
X683637Y-84389D01*
X683637Y-83278D01*
X683193Y-82167D01*
X682304Y-81612D01*
X681415Y-81612D01*
X680526Y-82167D01*
X680081Y-83278D01*
G54D11*
X674081Y-88834D02*
X674526Y-89945D01*
X675415Y-90500D01*
X676304Y-90500D01*
X677193Y-89945D01*
X677637Y-88834D01*
X677637Y-83278D01*
X677193Y-82167D01*
X676304Y-81612D01*
X675415Y-81612D01*
X674526Y-82167D01*
X674081Y-83278D01*
G54D11*
X671637Y-81612D02*
X671637Y-90500D01*
X668526Y-90500D01*
G54D11*
X725970Y-106376D02*
X725970Y-97487D01*
X728637Y-103042D01*
X728637Y-104153D01*
X725081Y-104153D01*
G54D11*
X720137Y-102487D02*
X716581Y-102487D01*
G54D11*
X711637Y-106376D02*
X711637Y-97487D01*
X709415Y-97487D01*
X708526Y-98042D01*
X708081Y-99153D01*
X708081Y-100264D01*
X708526Y-101376D01*
X709415Y-101931D01*
X708526Y-102487D01*
X708081Y-103598D01*
X708081Y-104709D01*
X708526Y-105820D01*
X709415Y-106376D01*
X711637Y-106376D01*
G54D11*
X711637Y-101931D02*
X709415Y-101931D01*
G54D11*
X705637Y-106376D02*
X705637Y-97487D01*
G54D11*
X700737Y-102487D02*
X697181Y-102487D01*
G54D11*
X690459Y-101931D02*
X688681Y-101931D01*
X688681Y-104709D01*
X689126Y-105820D01*
X690015Y-106376D01*
X690904Y-106376D01*
X691793Y-105820D01*
X692237Y-104709D01*
X692237Y-99153D01*
X691793Y-98042D01*
X690904Y-97487D01*
X690015Y-97487D01*
X689126Y-98042D01*
X688681Y-99153D01*
G54D11*
X686237Y-106376D02*
X686237Y-97487D01*
X682681Y-106376D01*
X682681Y-97487D01*
G54D11*
X680237Y-106376D02*
X680237Y-97487D01*
X678015Y-97487D01*
X677126Y-98042D01*
X676681Y-99153D01*
X676681Y-104709D01*
X677126Y-105820D01*
X678015Y-106376D01*
X680237Y-106376D01*
G54D11*
X725081Y-113362D02*
X728637Y-113362D01*
X728637Y-117250D01*
X728193Y-117250D01*
X727304Y-116695D01*
X726415Y-116695D01*
X725526Y-117250D01*
X725081Y-118362D01*
X725081Y-120584D01*
X725526Y-121695D01*
X726415Y-122250D01*
X727304Y-122250D01*
X728193Y-121695D01*
X728637Y-120584D01*
G54D11*
X720137Y-118362D02*
X716581Y-118362D01*
G54D11*
X711637Y-113362D02*
X711637Y-122250D01*
X709415Y-116695D01*
X707193Y-122250D01*
X707193Y-113362D01*
G54D11*
X704837Y-122250D02*
X704837Y-113362D01*
X702615Y-113362D01*
X701726Y-113917D01*
X701281Y-115028D01*
X701281Y-116139D01*
X701726Y-117250D01*
X702615Y-117806D01*
X701726Y-118362D01*
X701281Y-119473D01*
X701281Y-120584D01*
X701726Y-121695D01*
X702615Y-122250D01*
X704837Y-122250D01*
G54D11*
X704837Y-117806D02*
X702615Y-117806D01*
G54D11*
X698837Y-122250D02*
X698837Y-113362D01*
G54D11*
X693937Y-118362D02*
X690381Y-118362D01*
G54D11*
X685437Y-122250D02*
X685437Y-113362D01*
X683215Y-113362D01*
X682326Y-113917D01*
X681881Y-115028D01*
X681881Y-120584D01*
X682326Y-121695D01*
X683215Y-122250D01*
X685437Y-122250D01*
G54D11*
X679437Y-120584D02*
X678993Y-121695D01*
X678104Y-122250D01*
X677215Y-122250D01*
X676326Y-121695D01*
X675881Y-120584D01*
X675881Y-119473D01*
X676326Y-118362D01*
X677215Y-117806D01*
X678104Y-117806D01*
X678993Y-117250D01*
X679437Y-116139D01*
X679437Y-115028D01*
X678993Y-113917D01*
X678104Y-113362D01*
X677215Y-113362D01*
X676326Y-113917D01*
X675881Y-115028D01*
G54D11*
X673437Y-116695D02*
X671215Y-113362D01*
X671215Y-122250D01*
G54D11*
X666615Y-117806D02*
X667504Y-117806D01*
X668393Y-117250D01*
X668837Y-116139D01*
X668837Y-115028D01*
X668393Y-113917D01*
X667504Y-113362D01*
X666615Y-113362D01*
X665726Y-113917D01*
X665281Y-115028D01*
X665281Y-116139D01*
X665726Y-117250D01*
X666615Y-117806D01*
X665726Y-118362D01*
X665281Y-119473D01*
X665281Y-120584D01*
X665726Y-121695D01*
X666615Y-122250D01*
X667504Y-122250D01*
X668393Y-121695D01*
X668837Y-120584D01*
X668837Y-119473D01*
X668393Y-118362D01*
X667504Y-117806D01*
G54D11*
X662837Y-122250D02*
X662837Y-113362D01*
X660615Y-113362D01*
X659726Y-113917D01*
X659281Y-115028D01*
X659281Y-116139D01*
X659726Y-117250D01*
X660615Y-117806D01*
X659726Y-118362D01*
X659281Y-119473D01*
X659281Y-120584D01*
X659726Y-121695D01*
X660615Y-122250D01*
X662837Y-122250D01*
G54D11*
X662837Y-117806D02*
X660615Y-117806D01*
G54D11*
X653281Y-122250D02*
X656837Y-122250D01*
X656837Y-121695D01*
X656393Y-120584D01*
X653726Y-117250D01*
X653281Y-116139D01*
X653281Y-115028D01*
X653726Y-113917D01*
X654615Y-113362D01*
X655504Y-113362D01*
X656393Y-113917D01*
X656837Y-115028D01*
G54D11*
X647281Y-115028D02*
X647281Y-120584D01*
X647726Y-121695D01*
X648615Y-122250D01*
X649504Y-122250D01*
X650393Y-121695D01*
X650837Y-120584D01*
X650837Y-115028D01*
X650393Y-113917D01*
X649504Y-113362D01*
X648615Y-113362D01*
X647726Y-113917D01*
X647281Y-115028D01*
G54D11*
X725106Y-130891D02*
X725551Y-129780D01*
X726440Y-129224D01*
X727329Y-129224D01*
X728218Y-129780D01*
X728662Y-130891D01*
X728662Y-133669D01*
X728662Y-134224D01*
X727329Y-133113D01*
X726440Y-133113D01*
X725551Y-133669D01*
X725106Y-134780D01*
X725106Y-136446D01*
X725551Y-137558D01*
X726440Y-138113D01*
X727329Y-138113D01*
X728218Y-137558D01*
X728662Y-136446D01*
X728662Y-133669D01*
G54D11*
X720162Y-134224D02*
X716606Y-134224D01*
G54D11*
X709884Y-133669D02*
X708106Y-133669D01*
X708106Y-136446D01*
X708551Y-137558D01*
X709440Y-138113D01*
X710329Y-138113D01*
X711218Y-137558D01*
X711662Y-136446D01*
X711662Y-130891D01*
X711218Y-129780D01*
X710329Y-129224D01*
X709440Y-129224D01*
X708551Y-129780D01*
X708106Y-130891D01*
G54D11*
X705662Y-138113D02*
X705662Y-133113D01*
G54D11*
X705662Y-134224D02*
X704773Y-133113D01*
X703884Y-133113D01*
G54D11*
X698962Y-134224D02*
X695406Y-134224D01*
G54D11*
X690462Y-134224D02*
X686906Y-134224D01*
G54D11*
X688684Y-132002D02*
X688684Y-136446D01*
G54D11*
X684462Y-130891D02*
X684018Y-129780D01*
X683129Y-129224D01*
X682240Y-129224D01*
X681351Y-129780D01*
X680906Y-130891D01*
X680906Y-132002D01*
X681351Y-133113D01*
X682240Y-133669D01*
X681351Y-134224D01*
X680906Y-135335D01*
X680906Y-136446D01*
X681351Y-137558D01*
X682240Y-138113D01*
X683129Y-138113D01*
X684018Y-137558D01*
X684462Y-136446D01*
G54D11*
X678462Y-138113D02*
X678462Y-138113D01*
G54D11*
X676062Y-130891D02*
X675618Y-129780D01*
X674729Y-129224D01*
X673840Y-129224D01*
X672951Y-129780D01*
X672506Y-130891D01*
X672506Y-132002D01*
X672951Y-133113D01*
X673840Y-133669D01*
X672951Y-134224D01*
X672506Y-135335D01*
X672506Y-136446D01*
X672951Y-137558D01*
X673840Y-138113D01*
X674729Y-138113D01*
X675618Y-137558D01*
X676062Y-136446D01*
G54D11*
X670062Y-129224D02*
X667840Y-138113D01*
X665618Y-129224D01*
G54D11*
X728637Y-145112D02*
X725081Y-145112D01*
X725526Y-146223D01*
X726415Y-147889D01*
X727304Y-150112D01*
X727748Y-151778D01*
X727748Y-154000D01*
G54D11*
X720137Y-150112D02*
X716581Y-150112D01*
G54D11*
X711637Y-145112D02*
X711637Y-154000D01*
X709415Y-148445D01*
X707193Y-154000D01*
X707193Y-145112D01*
G54D11*
X704837Y-154000D02*
X704837Y-145112D01*
X702615Y-145112D01*
X701726Y-145667D01*
X701281Y-146778D01*
X701281Y-147889D01*
X701726Y-149000D01*
X702615Y-149556D01*
X701726Y-150112D01*
X701281Y-151223D01*
X701281Y-152334D01*
X701726Y-153445D01*
X702615Y-154000D01*
X704837Y-154000D01*
G54D11*
X704837Y-149556D02*
X702615Y-149556D01*
G54D11*
X698837Y-154000D02*
X698837Y-149000D01*
G54D11*
X698837Y-150112D02*
X697948Y-149000D01*
X697059Y-149000D01*
G54D11*
X692137Y-150112D02*
X688581Y-150112D01*
G54D11*
X683637Y-154000D02*
X683637Y-145112D01*
X681415Y-145112D01*
X680526Y-145667D01*
X680081Y-146778D01*
X680081Y-147889D01*
X680526Y-149000D01*
X681415Y-149556D01*
X680526Y-150112D01*
X680081Y-151223D01*
X680081Y-152334D01*
X680526Y-153445D01*
X681415Y-154000D01*
X683637Y-154000D01*
G54D11*
X683637Y-149556D02*
X681415Y-149556D01*
G54D11*
X674970Y-149000D02*
X674970Y-154000D01*
G54D11*
X674970Y-152889D02*
X675415Y-153778D01*
X676304Y-154000D01*
X677193Y-153778D01*
X677637Y-152889D01*
X677637Y-149000D01*
G54D11*
X671648Y-145112D02*
X671648Y-153445D01*
X671204Y-154000D01*
X670759Y-153778D01*
G54D11*
X672537Y-149000D02*
X670759Y-149000D01*
G54D11*
X667448Y-145112D02*
X667448Y-153445D01*
X667004Y-154000D01*
X666559Y-153778D01*
G54D11*
X668337Y-149000D02*
X666559Y-149000D01*
G54D11*
X661470Y-152667D02*
X661470Y-150445D01*
X661915Y-149334D01*
X662804Y-149000D01*
X663693Y-149334D01*
X664137Y-150445D01*
X664137Y-152667D01*
X663693Y-153778D01*
X662804Y-154000D01*
X661915Y-153778D01*
X661470Y-152667D01*
G54D11*
X659037Y-154000D02*
X659037Y-149000D01*
G54D11*
X659037Y-150112D02*
X658593Y-149334D01*
X657704Y-149000D01*
X656815Y-149334D01*
X656370Y-150112D01*
X656370Y-154000D01*
G54D11*
X726415Y-165431D02*
X727304Y-165431D01*
X728193Y-164876D01*
X728637Y-163764D01*
X728637Y-162653D01*
X728193Y-161542D01*
X727304Y-160987D01*
X726415Y-160987D01*
X725526Y-161542D01*
X725081Y-162653D01*
X725081Y-163764D01*
X725526Y-164876D01*
X726415Y-165431D01*
X725526Y-165987D01*
X725081Y-167098D01*
X725081Y-168209D01*
X725526Y-169320D01*
X726415Y-169876D01*
X727304Y-169876D01*
X728193Y-169320D01*
X728637Y-168209D01*
X728637Y-167098D01*
X728193Y-165987D01*
X727304Y-165431D01*
G54D11*
X720137Y-165987D02*
X716581Y-165987D01*
G54D11*
X711637Y-169876D02*
X711637Y-160987D01*
X709415Y-160987D01*
X708526Y-161542D01*
X708081Y-162653D01*
X708081Y-163764D01*
X708526Y-164876D01*
X709415Y-165431D01*
X708526Y-165987D01*
X708081Y-167098D01*
X708081Y-168209D01*
X708526Y-169320D01*
X709415Y-169876D01*
X711637Y-169876D01*
G54D11*
X711637Y-165431D02*
X709415Y-165431D01*
G54D11*
X705637Y-169876D02*
X705637Y-164876D01*
G54D11*
X705637Y-165987D02*
X704748Y-164876D01*
X703859Y-164876D01*
G54D11*
X698937Y-165987D02*
X695381Y-165987D01*
G54D11*
X688659Y-165431D02*
X686881Y-165431D01*
X686881Y-168209D01*
X687326Y-169320D01*
X688215Y-169876D01*
X689104Y-169876D01*
X689993Y-169320D01*
X690437Y-168209D01*
X690437Y-162653D01*
X689993Y-161542D01*
X689104Y-160987D01*
X688215Y-160987D01*
X687326Y-161542D01*
X686881Y-162653D01*
G54D11*
X684437Y-169876D02*
X684437Y-160987D01*
X680881Y-169876D01*
X680881Y-160987D01*
G54D11*
X678437Y-169876D02*
X678437Y-160987D01*
X676215Y-160987D01*
X675326Y-161542D01*
X674881Y-162653D01*
X674881Y-168209D01*
X675326Y-169320D01*
X676215Y-169876D01*
X678437Y-169876D01*
G54D10*
X731800Y-47626D02*
X736562Y-47626D01*
X736562Y-171450D01*
X731800Y-171450D01*
G54D12*
X754029Y-156626D02*
X752362Y-153626D01*
X750695Y-152626D01*
X747362Y-152626D01*
G54D12*
X747362Y-160626D02*
X760695Y-160626D01*
X760695Y-155626D01*
X759862Y-153626D01*
X758195Y-152626D01*
X756529Y-152626D01*
X754862Y-153626D01*
X754029Y-155626D01*
X754029Y-160626D01*
G54D12*
X760695Y-140926D02*
X749862Y-140926D01*
X748195Y-141926D01*
X747362Y-143926D01*
X747362Y-145926D01*
X748195Y-147926D01*
X749862Y-148926D01*
G54D12*
X753195Y-137226D02*
X753195Y-129226D01*
G54D12*
X747362Y-119526D02*
X760695Y-119526D01*
X752362Y-125526D01*
X750695Y-125526D01*
X750695Y-117526D01*
G54D12*
X760695Y-105826D02*
X760695Y-113826D01*
X754862Y-113826D01*
X754862Y-112826D01*
X755695Y-110826D01*
X755695Y-108826D01*
X754862Y-106826D01*
X753195Y-105826D01*
X749862Y-105826D01*
X748195Y-106826D01*
X747362Y-108826D01*
X747362Y-110826D01*
X748195Y-112826D01*
X749862Y-113826D01*
G54D12*
X760695Y-98226D02*
X747362Y-98226D01*
X755695Y-93226D01*
X747362Y-88226D01*
X760695Y-88226D01*
G54D12*
X747362Y-84526D02*
X754862Y-84526D01*
G54D12*
X757362Y-84526D02*
X757362Y-84526D01*
G54D12*
X747362Y-80826D02*
X754862Y-80826D01*
G54D12*
X753195Y-80826D02*
X754862Y-78826D01*
X754862Y-76826D01*
G54D12*
X747362Y-73126D02*
X754862Y-73126D01*
G54D12*
X757362Y-73126D02*
X757362Y-73126D01*
G54D12*
X747362Y-69426D02*
X754862Y-69426D01*
G54D12*
X753195Y-69426D02*
X754362Y-68426D01*
X754862Y-66426D01*
X754362Y-64426D01*
X753195Y-63426D01*
X747362Y-63426D01*
G54D12*
X744862Y-59726D02*
X744029Y-57726D01*
X744029Y-56326D01*
X744862Y-54326D01*
X746529Y-53726D01*
X754862Y-53726D01*
G54D12*
X752695Y-53726D02*
X754362Y-54726D01*
X754862Y-56726D01*
X754362Y-58726D01*
X752695Y-59726D01*
X749362Y-59726D01*
X747695Y-58726D01*
X747362Y-56726D01*
X747695Y-54726D01*
X749362Y-53726D01*
G54D13*
X574674Y-91996D02*
X574230Y-93107D01*
X573341Y-93663D01*
X572452Y-93663D01*
X571563Y-93107D01*
X571119Y-91996D01*
X571119Y-90885D01*
X571563Y-89774D01*
X572452Y-89219D01*
X573341Y-89219D01*
X574230Y-88663D01*
X574674Y-87552D01*
X574674Y-86441D01*
X574230Y-85330D01*
X573341Y-84774D01*
X572452Y-84774D01*
X571563Y-85330D01*
X571119Y-86441D01*
G54D13*
X565308Y-93107D02*
X566019Y-93663D01*
X566908Y-93663D01*
X567797Y-93107D01*
X567974Y-91996D01*
X567974Y-90107D01*
X567530Y-88996D01*
X566641Y-88663D01*
X565752Y-88996D01*
X565308Y-89774D01*
X565308Y-90885D01*
X567974Y-90885D01*
G54D13*
X562174Y-93663D02*
X562174Y-84774D01*
G54D13*
X556408Y-93107D02*
X557119Y-93663D01*
X558008Y-93663D01*
X558897Y-93107D01*
X559074Y-91996D01*
X559074Y-90107D01*
X558630Y-88996D01*
X557741Y-88663D01*
X556852Y-88996D01*
X556408Y-89774D01*
X556408Y-90885D01*
X559074Y-90885D01*
G54D13*
X551052Y-88996D02*
X551941Y-88663D01*
X552830Y-88996D01*
X553274Y-90107D01*
X553274Y-92330D01*
X552830Y-93441D01*
X551941Y-93663D01*
X551052Y-93441D01*
G54D13*
X547086Y-84774D02*
X547086Y-93107D01*
X546641Y-93663D01*
X546197Y-93441D01*
G54D13*
X547974Y-88663D02*
X546197Y-88663D01*
G54D13*
X539874Y-93663D02*
X539874Y-84774D01*
X537652Y-84774D01*
X536763Y-85330D01*
X536319Y-86441D01*
X536319Y-87552D01*
X536763Y-88663D01*
X537652Y-89219D01*
X539874Y-89219D01*
G54D13*
X530508Y-92330D02*
X530508Y-90107D01*
X530952Y-88996D01*
X531841Y-88663D01*
X532730Y-88996D01*
X533174Y-90107D01*
X533174Y-92330D01*
X532730Y-93441D01*
X531841Y-93663D01*
X530952Y-93441D01*
X530508Y-92330D01*
G54D13*
X527374Y-88663D02*
X526041Y-93663D01*
X524708Y-88663D01*
X523374Y-93663D01*
X522486Y-88663D01*
G54D13*
X516708Y-93107D02*
X517419Y-93663D01*
X518308Y-93663D01*
X519197Y-93107D01*
X519374Y-91996D01*
X519374Y-90107D01*
X518930Y-88996D01*
X518041Y-88663D01*
X517152Y-88996D01*
X516708Y-89774D01*
X516708Y-90885D01*
X519374Y-90885D01*
G54D13*
X513574Y-93663D02*
X513574Y-88663D01*
G54D13*
X513574Y-89774D02*
X512686Y-88663D01*
X511797Y-88663D01*
G54D11*
X550362Y-70487D02*
X548140Y-79376D01*
X545918Y-70487D01*
G54D11*
X541340Y-74709D02*
X542229Y-74376D01*
X543118Y-74709D01*
X543562Y-75820D01*
X543562Y-78042D01*
X543118Y-79153D01*
X542229Y-79376D01*
X541340Y-79153D01*
G54D11*
X536740Y-74709D02*
X537629Y-74376D01*
X538518Y-74709D01*
X538962Y-75820D01*
X538962Y-78042D01*
X538518Y-79153D01*
X537629Y-79376D01*
X536740Y-79153D01*
G54D11*
X572897Y-74931D02*
X571119Y-74931D01*
X571119Y-77709D01*
X571563Y-78820D01*
X572452Y-79376D01*
X573341Y-79376D01*
X574230Y-78820D01*
X574674Y-77709D01*
X574674Y-72153D01*
X574230Y-71042D01*
X573341Y-70487D01*
X572452Y-70487D01*
X571563Y-71042D01*
X571119Y-72153D01*
G54D11*
X568674Y-79376D02*
X568674Y-74376D01*
G54D11*
X568674Y-75487D02*
X568230Y-74709D01*
X567341Y-74376D01*
X566452Y-74709D01*
X566008Y-75487D01*
X566008Y-79376D01*
G54D11*
X560908Y-79376D02*
X560908Y-70487D01*
G54D11*
X560908Y-75820D02*
X561352Y-74709D01*
X562241Y-74376D01*
X563130Y-74709D01*
X563574Y-75820D01*
X563574Y-78042D01*
X563130Y-79153D01*
X562241Y-79376D01*
X561352Y-79153D01*
X560908Y-78042D01*
G54D11*
X523684Y-74931D02*
X521906Y-74931D01*
X521906Y-77709D01*
X522351Y-78820D01*
X523240Y-79376D01*
X524129Y-79376D01*
X525018Y-78820D01*
X525462Y-77709D01*
X525462Y-72153D01*
X525018Y-71042D01*
X524129Y-70487D01*
X523240Y-70487D01*
X522351Y-71042D01*
X521906Y-72153D01*
G54D11*
X519462Y-79376D02*
X519462Y-74376D01*
G54D11*
X519462Y-75487D02*
X519018Y-74709D01*
X518129Y-74376D01*
X517240Y-74709D01*
X516795Y-75487D01*
X516795Y-79376D01*
G54D11*
X511695Y-79376D02*
X511695Y-70487D01*
G54D11*
X511695Y-75820D02*
X512140Y-74709D01*
X513029Y-74376D01*
X513918Y-74709D01*
X514362Y-75820D01*
X514362Y-78042D01*
X513918Y-79153D01*
X513029Y-79376D01*
X512140Y-79153D01*
X511695Y-78042D01*
G54D11*
X503106Y-413428D02*
X503106Y-418984D01*
X503551Y-420095D01*
X504440Y-420650D01*
X505329Y-420650D01*
X506218Y-420095D01*
X506662Y-418984D01*
X506662Y-413428D01*
X506218Y-412317D01*
X505329Y-411762D01*
X504440Y-411762D01*
X503551Y-412317D01*
X503106Y-413428D01*
G54D11*
X500662Y-411762D02*
X500662Y-420650D01*
X497551Y-420650D01*
G54D11*
X492051Y-420650D02*
X495162Y-420650D01*
X495162Y-411762D01*
X492051Y-411762D01*
G54D11*
X495162Y-416206D02*
X492051Y-416206D01*
G54D11*
X489662Y-420650D02*
X489662Y-411762D01*
X487440Y-411762D01*
X486551Y-412317D01*
X486106Y-413428D01*
X486106Y-418984D01*
X486551Y-420095D01*
X487440Y-420650D01*
X489662Y-420650D01*
G54D11*
X483662Y-420650D02*
X479218Y-420650D01*
G54D11*
X476862Y-420650D02*
X476862Y-411762D01*
X474640Y-411762D01*
X473751Y-412317D01*
X473306Y-413428D01*
X473306Y-418984D01*
X473751Y-420095D01*
X474640Y-420650D01*
X476862Y-420650D01*
G54D11*
X470862Y-418984D02*
X470418Y-420095D01*
X469529Y-420650D01*
X468640Y-420650D01*
X467751Y-420095D01*
X467306Y-418984D01*
X467306Y-417873D01*
X467751Y-416762D01*
X468640Y-416206D01*
X469529Y-416206D01*
X470418Y-415650D01*
X470862Y-414539D01*
X470862Y-413428D01*
X470418Y-412317D01*
X469529Y-411762D01*
X468640Y-411762D01*
X467751Y-412317D01*
X467306Y-413428D01*
G54D11*
X464862Y-420650D02*
X460418Y-420650D01*
G54D11*
X458062Y-420650D02*
X458062Y-411762D01*
G54D11*
X454506Y-420650D02*
X454506Y-411762D01*
G54D11*
X458062Y-416206D02*
X454506Y-416206D01*
G54D11*
X450284Y-420650D02*
X450284Y-411762D01*
G54D11*
X452062Y-411762D02*
X448506Y-411762D01*
G54D11*
X446062Y-411762D02*
X446062Y-418984D01*
X445618Y-420095D01*
X444729Y-420650D01*
X443840Y-420650D01*
X442951Y-420095D01*
X442506Y-418984D01*
X442506Y-411762D01*
G54D11*
X440062Y-420650D02*
X435618Y-420650D01*
G54D11*
X433262Y-411762D02*
X431040Y-420650D01*
X428818Y-411762D01*
G54D11*
X423795Y-420095D02*
X424506Y-420650D01*
X425395Y-420650D01*
X426284Y-420095D01*
X426462Y-418984D01*
X426462Y-417095D01*
X426018Y-415984D01*
X425129Y-415650D01*
X424240Y-415984D01*
X423795Y-416762D01*
X423795Y-417873D01*
X426462Y-417873D01*
G54D11*
X421362Y-420650D02*
X421362Y-415650D01*
G54D11*
X421362Y-416762D02*
X420473Y-415650D01*
X419584Y-415650D01*
G54D11*
X417162Y-420650D02*
X417162Y-420650D01*
G54D11*
X411206Y-420650D02*
X414762Y-420650D01*
X414762Y-420095D01*
X414318Y-418984D01*
X411651Y-415650D01*
X411206Y-414539D01*
X411206Y-413428D01*
X411651Y-412317D01*
X412540Y-411762D01*
X413429Y-411762D01*
X414318Y-412317D01*
X414762Y-413428D01*
G54D11*
X408762Y-416762D02*
X405206Y-416762D01*
G54D11*
X399206Y-420650D02*
X402762Y-420650D01*
X402762Y-420095D01*
X402318Y-418984D01*
X399651Y-415650D01*
X399206Y-414539D01*
X399206Y-413428D01*
X399651Y-412317D01*
X400540Y-411762D01*
X401429Y-411762D01*
X402318Y-412317D01*
X402762Y-413428D01*
G54D14*
X756400Y-419676D02*
X753066Y-406342D01*
X749733Y-419676D01*
G54D14*
X755066Y-414676D02*
X751066Y-414676D01*
G54D14*
X745000Y-419676D02*
X745000Y-406342D01*
G54D14*
X736300Y-418842D02*
X737366Y-419676D01*
X738700Y-419676D01*
X740033Y-418842D01*
X740300Y-417176D01*
X740300Y-414342D01*
X739633Y-412676D01*
X738300Y-412176D01*
X736966Y-412676D01*
X736300Y-413842D01*
X736300Y-415509D01*
X740300Y-415509D01*
G54D14*
X731600Y-412176D02*
X726266Y-419676D01*
G54D14*
X731600Y-419676D02*
X726266Y-412176D01*
G54D14*
X721600Y-419676D02*
X714933Y-419676D01*
G54D14*
X704866Y-406342D02*
X704866Y-417176D01*
X705533Y-418842D01*
X706866Y-419676D01*
X708200Y-419676D01*
X709533Y-418842D01*
X710200Y-417176D01*
G54D14*
X696200Y-418842D02*
X697266Y-419676D01*
X698600Y-419676D01*
X699933Y-418842D01*
X700200Y-417176D01*
X700200Y-414342D01*
X699533Y-412676D01*
X698200Y-412176D01*
X696866Y-412676D01*
X696200Y-413842D01*
X696200Y-415509D01*
X700200Y-415509D01*
G54D14*
X690166Y-406342D02*
X690166Y-418842D01*
X689500Y-419676D01*
X688833Y-419342D01*
G54D14*
X691500Y-412176D02*
X688833Y-412176D01*
G54D15*
X412862Y-368600D02*
X412862Y-342600D01*
X462862Y-342600D01*
X462862Y-368600D01*
X412862Y-368600D01*
G54D16*
X403604Y-358283D02*
X404271Y-359394D01*
X405604Y-359950D01*
X406938Y-359950D01*
X408271Y-359394D01*
X408938Y-358283D01*
X408938Y-352728D01*
X408271Y-351617D01*
X406938Y-351061D01*
X405604Y-351061D01*
X404271Y-351617D01*
X403604Y-352728D01*
G54D16*
X401160Y-354394D02*
X397827Y-351061D01*
X397827Y-359950D01*
G54D15*
X419125Y-400525D02*
X419125Y-380525D01*
X457125Y-380525D01*
X457125Y-400525D01*
X419125Y-400525D01*
G54D16*
X412534Y-390256D02*
X410534Y-391367D01*
X409867Y-392478D01*
X409867Y-394700D01*
G54D16*
X415200Y-394700D02*
X415200Y-385812D01*
X411867Y-385812D01*
X410534Y-386367D01*
X409867Y-387478D01*
X409867Y-388589D01*
X410534Y-389700D01*
X411867Y-390256D01*
X415200Y-390256D01*
G54D16*
X407424Y-389145D02*
X404090Y-385812D01*
X404090Y-394700D01*
G54D16*
X519112Y-377746D02*
X518668Y-378857D01*
X517779Y-379412D01*
X516890Y-379412D01*
X516001Y-378857D01*
X515557Y-377746D01*
X515557Y-376635D01*
X516001Y-375524D01*
X516890Y-374968D01*
X517779Y-374968D01*
X518668Y-374412D01*
X519112Y-373301D01*
X519112Y-372190D01*
X518668Y-371079D01*
X517779Y-370524D01*
X516890Y-370524D01*
X516001Y-371079D01*
X515557Y-372190D01*
G54D16*
X510446Y-378857D02*
X511157Y-379412D01*
X512046Y-379412D01*
X512935Y-378857D01*
X513112Y-377746D01*
X513112Y-375857D01*
X512668Y-374746D01*
X511779Y-374412D01*
X510890Y-374746D01*
X510446Y-375524D01*
X510446Y-376635D01*
X513112Y-376635D01*
G54D16*
X508002Y-379412D02*
X508002Y-370524D01*
G54D16*
X502891Y-378857D02*
X503602Y-379412D01*
X504491Y-379412D01*
X505380Y-378857D01*
X505558Y-377746D01*
X505558Y-375857D01*
X505113Y-374746D01*
X504224Y-374412D01*
X503335Y-374746D01*
X502891Y-375524D01*
X502891Y-376635D01*
X505558Y-376635D01*
G54D16*
X498224Y-374746D02*
X499113Y-374412D01*
X500002Y-374746D01*
X500446Y-375857D01*
X500446Y-378079D01*
X500002Y-379190D01*
X499113Y-379412D01*
X498224Y-379190D01*
G54D16*
X494892Y-370524D02*
X494892Y-378857D01*
X494447Y-379412D01*
X494003Y-379190D01*
G54D16*
X495780Y-374412D02*
X494003Y-374412D01*
G54D16*
X489026Y-379412D02*
X489026Y-370524D01*
X486803Y-370524D01*
X485914Y-371079D01*
X485470Y-372190D01*
X485470Y-373301D01*
X485914Y-374412D01*
X486803Y-374968D01*
X489026Y-374968D01*
G54D16*
X480359Y-374412D02*
X480359Y-379412D01*
G54D16*
X480359Y-378301D02*
X480803Y-379190D01*
X481692Y-379412D01*
X482581Y-379190D01*
X483026Y-378301D01*
X483026Y-374412D01*
G54D16*
X477914Y-379412D02*
X477914Y-370524D01*
G54D16*
X475470Y-379412D02*
X475470Y-370524D01*
G54D16*
X473026Y-375524D02*
X469471Y-375524D01*
G54D16*
X467026Y-370524D02*
X467026Y-377746D01*
X466582Y-378857D01*
X465693Y-379412D01*
X464804Y-379412D01*
X463915Y-378857D01*
X463471Y-377746D01*
X463471Y-370524D01*
G54D16*
X461026Y-374412D02*
X461026Y-381635D01*
G54D16*
X461026Y-377746D02*
X460582Y-379190D01*
X459693Y-379412D01*
X458804Y-379190D01*
X458360Y-378079D01*
X458360Y-375857D01*
X458804Y-374746D01*
X459693Y-374412D01*
X460582Y-374746D01*
X461026Y-376079D01*
G54D10*
X273037Y-609613D02*
X114237Y-609613D01*
X114237Y-773176D01*
X273037Y-773176D01*
X273037Y-609613D01*
G54D10*
X131750Y-631838D02*
X131750Y-706426D01*
X255474Y-706426D01*
X255474Y-631838D01*
G54D10*
X131750Y-631838D02*
X152387Y-631838D01*
X152387Y-622313D01*
X161912Y-622313D01*
X161912Y-612788D01*
X193662Y-612788D01*
G54D10*
X255412Y-631838D02*
X234774Y-631838D01*
X234774Y-622313D01*
X225250Y-622313D01*
X225250Y-612788D01*
X193500Y-612788D01*
G54D11*
X341287Y-489758D02*
X339065Y-486424D01*
X339065Y-495313D01*
G54D11*
X334187Y-491424D02*
X330631Y-491424D01*
G54D11*
X325687Y-486424D02*
X325687Y-495313D01*
X323465Y-489758D01*
X321243Y-495313D01*
X321243Y-486424D01*
G54D11*
X315331Y-488091D02*
X315331Y-493646D01*
X315776Y-494758D01*
X316665Y-495313D01*
X317554Y-495313D01*
X318443Y-494758D01*
X318887Y-493646D01*
X318887Y-488091D01*
X318443Y-486980D01*
X317554Y-486424D01*
X316665Y-486424D01*
X315776Y-486980D01*
X315331Y-488091D01*
G54D11*
X312887Y-495313D02*
X312887Y-490313D01*
G54D11*
X312887Y-491424D02*
X311998Y-490313D01*
X311109Y-490313D01*
G54D11*
X306187Y-491424D02*
X302631Y-491424D01*
G54D11*
X297687Y-493646D02*
X297243Y-494758D01*
X296354Y-495313D01*
X295465Y-495313D01*
X294576Y-494758D01*
X294131Y-493646D01*
X294131Y-492535D01*
X294576Y-491424D01*
X295465Y-490868D01*
X296354Y-490868D01*
X297243Y-490313D01*
X297687Y-489202D01*
X297687Y-488091D01*
X297243Y-486980D01*
X296354Y-486424D01*
X295465Y-486424D01*
X294576Y-486980D01*
X294131Y-488091D01*
G54D11*
X291687Y-495313D02*
X291687Y-486424D01*
X289465Y-486424D01*
X288576Y-486980D01*
X288131Y-488091D01*
X288131Y-493646D01*
X288576Y-494758D01*
X289465Y-495313D01*
X291687Y-495313D01*
G54D11*
X285687Y-495313D02*
X283465Y-486424D01*
X281243Y-495313D01*
G54D11*
X284798Y-491980D02*
X282131Y-491980D01*
G54D11*
X337731Y-511188D02*
X341287Y-511188D01*
X341287Y-510632D01*
X340843Y-509521D01*
X338176Y-506188D01*
X337731Y-505077D01*
X337731Y-503966D01*
X338176Y-502855D01*
X339065Y-502299D01*
X339954Y-502299D01*
X340843Y-502855D01*
X341287Y-503966D01*
G54D11*
X332787Y-507299D02*
X329231Y-507299D01*
G54D11*
X320731Y-503966D02*
X320731Y-509521D01*
X321176Y-510632D01*
X322065Y-511188D01*
X322954Y-511188D01*
X323843Y-510632D01*
X324287Y-509521D01*
X324287Y-503966D01*
X323843Y-502855D01*
X322954Y-502299D01*
X322065Y-502299D01*
X321176Y-502855D01*
X320731Y-503966D01*
G54D11*
X318287Y-511188D02*
X318287Y-506188D01*
G54D11*
X318287Y-507299D02*
X317398Y-506188D01*
X316509Y-506188D01*
G54D11*
X311587Y-507299D02*
X308031Y-507299D01*
G54D11*
X301309Y-506744D02*
X299531Y-506744D01*
X299531Y-509521D01*
X299976Y-510632D01*
X300865Y-511188D01*
X301754Y-511188D01*
X302643Y-510632D01*
X303087Y-509521D01*
X303087Y-503966D01*
X302643Y-502855D01*
X301754Y-502299D01*
X300865Y-502299D01*
X299976Y-502855D01*
X299531Y-503966D01*
G54D11*
X297087Y-511188D02*
X297087Y-502299D01*
X293531Y-511188D01*
X293531Y-502299D01*
G54D11*
X291087Y-511188D02*
X291087Y-502299D01*
X288865Y-502299D01*
X287976Y-502855D01*
X287531Y-503966D01*
X287531Y-509521D01*
X287976Y-510632D01*
X288865Y-511188D01*
X291087Y-511188D01*
G54D11*
X341287Y-519841D02*
X340843Y-518730D01*
X339954Y-518174D01*
X339065Y-518174D01*
X338176Y-518730D01*
X337731Y-519841D01*
X337731Y-520952D01*
X338176Y-522063D01*
X339065Y-522618D01*
X338176Y-523174D01*
X337731Y-524285D01*
X337731Y-525396D01*
X338176Y-526508D01*
X339065Y-527063D01*
X339954Y-527063D01*
X340843Y-526508D01*
X341287Y-525396D01*
G54D11*
X332787Y-523174D02*
X329231Y-523174D01*
G54D11*
X324287Y-518174D02*
X324287Y-527063D01*
X322065Y-521508D01*
X319843Y-527063D01*
X319843Y-518174D01*
G54D11*
X315709Y-522618D02*
X313931Y-522618D01*
X313931Y-525396D01*
X314376Y-526508D01*
X315265Y-527063D01*
X316154Y-527063D01*
X317043Y-526508D01*
X317487Y-525396D01*
X317487Y-519841D01*
X317043Y-518730D01*
X316154Y-518174D01*
X315265Y-518174D01*
X314376Y-518730D01*
X313931Y-519841D01*
G54D11*
X311487Y-527063D02*
X311487Y-522063D01*
G54D11*
X311487Y-523174D02*
X310598Y-522063D01*
X309709Y-522063D01*
G54D11*
X304787Y-523174D02*
X301231Y-523174D01*
G54D11*
X296287Y-525396D02*
X295843Y-526508D01*
X294954Y-527063D01*
X294065Y-527063D01*
X293176Y-526508D01*
X292731Y-525396D01*
X292731Y-524285D01*
X293176Y-523174D01*
X294065Y-522618D01*
X294954Y-522618D01*
X295843Y-522063D01*
X296287Y-520952D01*
X296287Y-519841D01*
X295843Y-518730D01*
X294954Y-518174D01*
X294065Y-518174D01*
X293176Y-518730D01*
X292731Y-519841D01*
G54D11*
X286731Y-525396D02*
X287176Y-526508D01*
X288065Y-527063D01*
X288954Y-527063D01*
X289843Y-526508D01*
X290287Y-525396D01*
X290287Y-519841D01*
X289843Y-518730D01*
X288954Y-518174D01*
X288065Y-518174D01*
X287176Y-518730D01*
X286731Y-519841D01*
G54D11*
X284287Y-518174D02*
X284287Y-527063D01*
X281176Y-527063D01*
G54D11*
X338620Y-542938D02*
X338620Y-534049D01*
X341287Y-539605D01*
X341287Y-540716D01*
X337731Y-540716D01*
G54D11*
X332787Y-539049D02*
X329231Y-539049D01*
G54D11*
X324287Y-542938D02*
X324287Y-534049D01*
X322065Y-534049D01*
X321176Y-534605D01*
X320731Y-535716D01*
X320731Y-536827D01*
X321176Y-537938D01*
X322065Y-538494D01*
X321176Y-539049D01*
X320731Y-540160D01*
X320731Y-541271D01*
X321176Y-542382D01*
X322065Y-542938D01*
X324287Y-542938D01*
G54D11*
X324287Y-538494D02*
X322065Y-538494D01*
G54D11*
X318287Y-542938D02*
X318287Y-534049D01*
G54D11*
X313387Y-539049D02*
X309831Y-539049D01*
G54D11*
X303109Y-538494D02*
X301331Y-538494D01*
X301331Y-541271D01*
X301776Y-542382D01*
X302665Y-542938D01*
X303554Y-542938D01*
X304443Y-542382D01*
X304887Y-541271D01*
X304887Y-535716D01*
X304443Y-534605D01*
X303554Y-534049D01*
X302665Y-534049D01*
X301776Y-534605D01*
X301331Y-535716D01*
G54D11*
X298887Y-542938D02*
X298887Y-534049D01*
X295331Y-542938D01*
X295331Y-534049D01*
G54D11*
X292887Y-542938D02*
X292887Y-534049D01*
X290665Y-534049D01*
X289776Y-534605D01*
X289331Y-535716D01*
X289331Y-541271D01*
X289776Y-542382D01*
X290665Y-542938D01*
X292887Y-542938D01*
G54D11*
X337731Y-549924D02*
X341287Y-549924D01*
X341287Y-553813D01*
X340843Y-553813D01*
X339954Y-553258D01*
X339065Y-553258D01*
X338176Y-553813D01*
X337731Y-554924D01*
X337731Y-557146D01*
X338176Y-558258D01*
X339065Y-558813D01*
X339954Y-558813D01*
X340843Y-558258D01*
X341287Y-557146D01*
G54D11*
X332787Y-554924D02*
X329231Y-554924D01*
G54D11*
X324287Y-549924D02*
X324287Y-558813D01*
X322065Y-553258D01*
X319843Y-558813D01*
X319843Y-549924D01*
G54D11*
X317487Y-558813D02*
X317487Y-549924D01*
X315265Y-549924D01*
X314376Y-550480D01*
X313931Y-551591D01*
X313931Y-552702D01*
X314376Y-553813D01*
X315265Y-554368D01*
X314376Y-554924D01*
X313931Y-556035D01*
X313931Y-557146D01*
X314376Y-558258D01*
X315265Y-558813D01*
X317487Y-558813D01*
G54D11*
X317487Y-554368D02*
X315265Y-554368D01*
G54D11*
X311487Y-558813D02*
X311487Y-549924D01*
G54D11*
X306587Y-554924D02*
X303031Y-554924D01*
G54D11*
X298087Y-558813D02*
X298087Y-549924D01*
X295865Y-549924D01*
X294976Y-550480D01*
X294531Y-551591D01*
X294531Y-557146D01*
X294976Y-558258D01*
X295865Y-558813D01*
X298087Y-558813D01*
G54D11*
X292087Y-557146D02*
X291643Y-558258D01*
X290754Y-558813D01*
X289865Y-558813D01*
X288976Y-558258D01*
X288531Y-557146D01*
X288531Y-556035D01*
X288976Y-554924D01*
X289865Y-554368D01*
X290754Y-554368D01*
X291643Y-553813D01*
X292087Y-552702D01*
X292087Y-551591D01*
X291643Y-550480D01*
X290754Y-549924D01*
X289865Y-549924D01*
X288976Y-550480D01*
X288531Y-551591D01*
G54D11*
X286087Y-553258D02*
X283865Y-549924D01*
X283865Y-558813D01*
G54D11*
X279265Y-554368D02*
X280154Y-554368D01*
X281043Y-553813D01*
X281487Y-552702D01*
X281487Y-551591D01*
X281043Y-550480D01*
X280154Y-549924D01*
X279265Y-549924D01*
X278376Y-550480D01*
X277931Y-551591D01*
X277931Y-552702D01*
X278376Y-553813D01*
X279265Y-554368D01*
X278376Y-554924D01*
X277931Y-556035D01*
X277931Y-557146D01*
X278376Y-558258D01*
X279265Y-558813D01*
X280154Y-558813D01*
X281043Y-558258D01*
X281487Y-557146D01*
X281487Y-556035D01*
X281043Y-554924D01*
X280154Y-554368D01*
G54D11*
X275487Y-558813D02*
X275487Y-549924D01*
X273265Y-549924D01*
X272376Y-550480D01*
X271931Y-551591D01*
X271931Y-552702D01*
X272376Y-553813D01*
X273265Y-554368D01*
X272376Y-554924D01*
X271931Y-556035D01*
X271931Y-557146D01*
X272376Y-558258D01*
X273265Y-558813D01*
X275487Y-558813D01*
G54D11*
X275487Y-554368D02*
X273265Y-554368D01*
G54D11*
X265931Y-558813D02*
X269487Y-558813D01*
X269487Y-558258D01*
X269043Y-557146D01*
X266376Y-553813D01*
X265931Y-552702D01*
X265931Y-551591D01*
X266376Y-550480D01*
X267265Y-549924D01*
X268154Y-549924D01*
X269043Y-550480D01*
X269487Y-551591D01*
G54D11*
X259931Y-551591D02*
X259931Y-557146D01*
X260376Y-558258D01*
X261265Y-558813D01*
X262154Y-558813D01*
X263043Y-558258D01*
X263487Y-557146D01*
X263487Y-551591D01*
X263043Y-550480D01*
X262154Y-549924D01*
X261265Y-549924D01*
X260376Y-550480D01*
X259931Y-551591D01*
G54D11*
X337756Y-567453D02*
X338201Y-566342D01*
X339090Y-565787D01*
X339979Y-565787D01*
X340868Y-566342D01*
X341312Y-567453D01*
X341312Y-570231D01*
X341312Y-570787D01*
X339979Y-569676D01*
X339090Y-569676D01*
X338201Y-570231D01*
X337756Y-571342D01*
X337756Y-573009D01*
X338201Y-574120D01*
X339090Y-574676D01*
X339979Y-574676D01*
X340868Y-574120D01*
X341312Y-573009D01*
X341312Y-570231D01*
G54D11*
X332812Y-570787D02*
X329256Y-570787D01*
G54D11*
X322534Y-570231D02*
X320756Y-570231D01*
X320756Y-573009D01*
X321201Y-574120D01*
X322090Y-574676D01*
X322979Y-574676D01*
X323868Y-574120D01*
X324312Y-573009D01*
X324312Y-567453D01*
X323868Y-566342D01*
X322979Y-565787D01*
X322090Y-565787D01*
X321201Y-566342D01*
X320756Y-567453D01*
G54D11*
X318312Y-574676D02*
X318312Y-569676D01*
G54D11*
X318312Y-570787D02*
X317423Y-569676D01*
X316534Y-569676D01*
G54D11*
X311612Y-570787D02*
X308056Y-570787D01*
G54D11*
X303112Y-570787D02*
X299556Y-570787D01*
G54D11*
X301334Y-568564D02*
X301334Y-573009D01*
G54D11*
X297112Y-567453D02*
X296668Y-566342D01*
X295779Y-565787D01*
X294890Y-565787D01*
X294001Y-566342D01*
X293556Y-567453D01*
X293556Y-568564D01*
X294001Y-569676D01*
X294890Y-570231D01*
X294001Y-570787D01*
X293556Y-571898D01*
X293556Y-573009D01*
X294001Y-574120D01*
X294890Y-574676D01*
X295779Y-574676D01*
X296668Y-574120D01*
X297112Y-573009D01*
G54D11*
X291112Y-574676D02*
X291112Y-574676D01*
G54D11*
X288712Y-567453D02*
X288268Y-566342D01*
X287379Y-565787D01*
X286490Y-565787D01*
X285601Y-566342D01*
X285156Y-567453D01*
X285156Y-568564D01*
X285601Y-569676D01*
X286490Y-570231D01*
X285601Y-570787D01*
X285156Y-571898D01*
X285156Y-573009D01*
X285601Y-574120D01*
X286490Y-574676D01*
X287379Y-574676D01*
X288268Y-574120D01*
X288712Y-573009D01*
G54D11*
X282712Y-565787D02*
X280490Y-574676D01*
X278268Y-565787D01*
G54D11*
X341287Y-581674D02*
X337731Y-581674D01*
X338176Y-582785D01*
X339065Y-584452D01*
X339954Y-586674D01*
X340398Y-588341D01*
X340398Y-590563D01*
G54D11*
X332787Y-586674D02*
X329231Y-586674D01*
G54D11*
X324287Y-581674D02*
X324287Y-590563D01*
X322065Y-585008D01*
X319843Y-590563D01*
X319843Y-581674D01*
G54D11*
X317487Y-590563D02*
X317487Y-581674D01*
X315265Y-581674D01*
X314376Y-582230D01*
X313931Y-583341D01*
X313931Y-584452D01*
X314376Y-585563D01*
X315265Y-586118D01*
X314376Y-586674D01*
X313931Y-587785D01*
X313931Y-588896D01*
X314376Y-590008D01*
X315265Y-590563D01*
X317487Y-590563D01*
G54D11*
X317487Y-586118D02*
X315265Y-586118D01*
G54D11*
X311487Y-590563D02*
X311487Y-585563D01*
G54D11*
X311487Y-586674D02*
X310598Y-585563D01*
X309709Y-585563D01*
G54D11*
X304787Y-586674D02*
X301231Y-586674D01*
G54D11*
X296287Y-590563D02*
X296287Y-581674D01*
X294065Y-581674D01*
X293176Y-582230D01*
X292731Y-583341D01*
X292731Y-584452D01*
X293176Y-585563D01*
X294065Y-586118D01*
X293176Y-586674D01*
X292731Y-587785D01*
X292731Y-588896D01*
X293176Y-590008D01*
X294065Y-590563D01*
X296287Y-590563D01*
G54D11*
X296287Y-586118D02*
X294065Y-586118D01*
G54D11*
X287620Y-585563D02*
X287620Y-590563D01*
G54D11*
X287620Y-589452D02*
X288065Y-590341D01*
X288954Y-590563D01*
X289843Y-590341D01*
X290287Y-589452D01*
X290287Y-585563D01*
G54D11*
X284298Y-581674D02*
X284298Y-590008D01*
X283854Y-590563D01*
X283409Y-590341D01*
G54D11*
X285187Y-585563D02*
X283409Y-585563D01*
G54D11*
X280098Y-581674D02*
X280098Y-590008D01*
X279654Y-590563D01*
X279209Y-590341D01*
G54D11*
X280987Y-585563D02*
X279209Y-585563D01*
G54D11*
X274120Y-589230D02*
X274120Y-587008D01*
X274565Y-585896D01*
X275454Y-585563D01*
X276343Y-585896D01*
X276787Y-587008D01*
X276787Y-589230D01*
X276343Y-590341D01*
X275454Y-590563D01*
X274565Y-590341D01*
X274120Y-589230D01*
G54D11*
X271687Y-590563D02*
X271687Y-585563D01*
G54D11*
X271687Y-586674D02*
X271243Y-585896D01*
X270354Y-585563D01*
X269465Y-585896D01*
X269020Y-586674D01*
X269020Y-590563D01*
G54D11*
X339065Y-601994D02*
X339954Y-601994D01*
X340843Y-601438D01*
X341287Y-600327D01*
X341287Y-599216D01*
X340843Y-598105D01*
X339954Y-597549D01*
X339065Y-597549D01*
X338176Y-598105D01*
X337731Y-599216D01*
X337731Y-600327D01*
X338176Y-601438D01*
X339065Y-601994D01*
X338176Y-602549D01*
X337731Y-603660D01*
X337731Y-604771D01*
X338176Y-605882D01*
X339065Y-606438D01*
X339954Y-606438D01*
X340843Y-605882D01*
X341287Y-604771D01*
X341287Y-603660D01*
X340843Y-602549D01*
X339954Y-601994D01*
G54D11*
X332787Y-602549D02*
X329231Y-602549D01*
G54D11*
X324287Y-606438D02*
X324287Y-597549D01*
X322065Y-597549D01*
X321176Y-598105D01*
X320731Y-599216D01*
X320731Y-600327D01*
X321176Y-601438D01*
X322065Y-601994D01*
X321176Y-602549D01*
X320731Y-603660D01*
X320731Y-604771D01*
X321176Y-605882D01*
X322065Y-606438D01*
X324287Y-606438D01*
G54D11*
X324287Y-601994D02*
X322065Y-601994D01*
G54D11*
X318287Y-606438D02*
X318287Y-601438D01*
G54D11*
X318287Y-602549D02*
X317398Y-601438D01*
X316509Y-601438D01*
G54D11*
X311587Y-602549D02*
X308031Y-602549D01*
G54D11*
X301309Y-601994D02*
X299531Y-601994D01*
X299531Y-604771D01*
X299976Y-605882D01*
X300865Y-606438D01*
X301754Y-606438D01*
X302643Y-605882D01*
X303087Y-604771D01*
X303087Y-599216D01*
X302643Y-598105D01*
X301754Y-597549D01*
X300865Y-597549D01*
X299976Y-598105D01*
X299531Y-599216D01*
G54D11*
X297087Y-606438D02*
X297087Y-597549D01*
X293531Y-606438D01*
X293531Y-597549D01*
G54D11*
X291087Y-606438D02*
X291087Y-597549D01*
X288865Y-597549D01*
X287976Y-598105D01*
X287531Y-599216D01*
X287531Y-604771D01*
X287976Y-605882D01*
X288865Y-606438D01*
X291087Y-606438D01*
G54D10*
X344450Y-484188D02*
X349212Y-484188D01*
X349212Y-608013D01*
X344450Y-608013D01*
G54D12*
X366679Y-593188D02*
X365012Y-590188D01*
X363345Y-589188D01*
X360012Y-589188D01*
G54D12*
X360012Y-597188D02*
X373345Y-597188D01*
X373345Y-592188D01*
X372512Y-590188D01*
X370845Y-589188D01*
X369179Y-589188D01*
X367512Y-590188D01*
X366679Y-592188D01*
X366679Y-597188D01*
G54D12*
X373345Y-577488D02*
X362512Y-577488D01*
X360845Y-578488D01*
X360012Y-580488D01*
X360012Y-582488D01*
X360845Y-584488D01*
X362512Y-585488D01*
G54D12*
X365845Y-573788D02*
X365845Y-565788D01*
G54D12*
X360012Y-556088D02*
X373345Y-556088D01*
X365012Y-562088D01*
X363345Y-562088D01*
X363345Y-554088D01*
G54D12*
X373345Y-542388D02*
X373345Y-550388D01*
X367512Y-550388D01*
X367512Y-549388D01*
X368345Y-547388D01*
X368345Y-545388D01*
X367512Y-543388D01*
X365845Y-542388D01*
X362512Y-542388D01*
X360845Y-543388D01*
X360012Y-545388D01*
X360012Y-547388D01*
X360845Y-549388D01*
X362512Y-550388D01*
G54D12*
X373345Y-534788D02*
X360012Y-534788D01*
X368345Y-529788D01*
X360012Y-524788D01*
X373345Y-524788D01*
G54D12*
X360012Y-521088D02*
X367512Y-521088D01*
G54D12*
X370012Y-521088D02*
X370012Y-521088D01*
G54D12*
X360012Y-517388D02*
X367512Y-517388D01*
G54D12*
X365845Y-517388D02*
X367512Y-515388D01*
X367512Y-513388D01*
G54D12*
X360012Y-509688D02*
X367512Y-509688D01*
G54D12*
X370012Y-509688D02*
X370012Y-509688D01*
G54D12*
X360012Y-505988D02*
X367512Y-505988D01*
G54D12*
X365845Y-505988D02*
X367012Y-504988D01*
X367512Y-502988D01*
X367012Y-500988D01*
X365845Y-499988D01*
X360012Y-499988D01*
G54D12*
X357512Y-496288D02*
X356679Y-494288D01*
X356679Y-492888D01*
X357512Y-490888D01*
X359179Y-490288D01*
X367512Y-490288D01*
G54D12*
X365345Y-490288D02*
X367012Y-491288D01*
X367512Y-493288D01*
X367012Y-495288D01*
X365345Y-496288D01*
X362012Y-496288D01*
X360345Y-495288D01*
X360012Y-493288D01*
X360345Y-491288D01*
X362012Y-490288D01*
G54D13*
X187324Y-528559D02*
X186880Y-529670D01*
X185991Y-530226D01*
X185102Y-530226D01*
X184213Y-529670D01*
X183769Y-528559D01*
X183769Y-527448D01*
X184213Y-526337D01*
X185102Y-525781D01*
X185991Y-525781D01*
X186880Y-525226D01*
X187324Y-524114D01*
X187324Y-523003D01*
X186880Y-521892D01*
X185991Y-521337D01*
X185102Y-521337D01*
X184213Y-521892D01*
X183769Y-523003D01*
G54D13*
X177958Y-529670D02*
X178669Y-530226D01*
X179558Y-530226D01*
X180447Y-529670D01*
X180624Y-528559D01*
X180624Y-526670D01*
X180180Y-525559D01*
X179291Y-525226D01*
X178402Y-525559D01*
X177958Y-526337D01*
X177958Y-527448D01*
X180624Y-527448D01*
G54D13*
X174824Y-530226D02*
X174824Y-521337D01*
G54D13*
X169058Y-529670D02*
X169769Y-530226D01*
X170658Y-530226D01*
X171547Y-529670D01*
X171724Y-528559D01*
X171724Y-526670D01*
X171280Y-525559D01*
X170391Y-525226D01*
X169502Y-525559D01*
X169058Y-526337D01*
X169058Y-527448D01*
X171724Y-527448D01*
G54D13*
X163702Y-525559D02*
X164591Y-525226D01*
X165480Y-525559D01*
X165924Y-526670D01*
X165924Y-528892D01*
X165480Y-530003D01*
X164591Y-530226D01*
X163702Y-530003D01*
G54D13*
X159736Y-521337D02*
X159736Y-529670D01*
X159291Y-530226D01*
X158847Y-530003D01*
G54D13*
X160624Y-525226D02*
X158847Y-525226D01*
G54D13*
X152524Y-530226D02*
X152524Y-521337D01*
X150302Y-521337D01*
X149413Y-521892D01*
X148969Y-523003D01*
X148969Y-524114D01*
X149413Y-525226D01*
X150302Y-525781D01*
X152524Y-525781D01*
G54D13*
X143158Y-528892D02*
X143158Y-526670D01*
X143602Y-525559D01*
X144491Y-525226D01*
X145380Y-525559D01*
X145824Y-526670D01*
X145824Y-528892D01*
X145380Y-530003D01*
X144491Y-530226D01*
X143602Y-530003D01*
X143158Y-528892D01*
G54D13*
X140024Y-525226D02*
X138691Y-530226D01*
X137358Y-525226D01*
X136024Y-530226D01*
X135136Y-525226D01*
G54D13*
X129358Y-529670D02*
X130069Y-530226D01*
X130958Y-530226D01*
X131847Y-529670D01*
X132024Y-528559D01*
X132024Y-526670D01*
X131580Y-525559D01*
X130691Y-525226D01*
X129802Y-525559D01*
X129358Y-526337D01*
X129358Y-527448D01*
X132024Y-527448D01*
G54D13*
X126224Y-530226D02*
X126224Y-525226D01*
G54D13*
X126224Y-526337D02*
X125336Y-525226D01*
X124447Y-525226D01*
G54D11*
X163012Y-507049D02*
X160790Y-515938D01*
X158568Y-507049D01*
G54D11*
X153990Y-511271D02*
X154879Y-510938D01*
X155768Y-511271D01*
X156212Y-512382D01*
X156212Y-514605D01*
X155768Y-515716D01*
X154879Y-515938D01*
X153990Y-515716D01*
G54D11*
X149390Y-511271D02*
X150279Y-510938D01*
X151168Y-511271D01*
X151612Y-512382D01*
X151612Y-514605D01*
X151168Y-515716D01*
X150279Y-515938D01*
X149390Y-515716D01*
G54D11*
X185547Y-511494D02*
X183769Y-511494D01*
X183769Y-514271D01*
X184213Y-515382D01*
X185102Y-515938D01*
X185991Y-515938D01*
X186880Y-515382D01*
X187324Y-514271D01*
X187324Y-508716D01*
X186880Y-507605D01*
X185991Y-507049D01*
X185102Y-507049D01*
X184213Y-507605D01*
X183769Y-508716D01*
G54D11*
X181324Y-515938D02*
X181324Y-510938D01*
G54D11*
X181324Y-512049D02*
X180880Y-511271D01*
X179991Y-510938D01*
X179102Y-511271D01*
X178658Y-512049D01*
X178658Y-515938D01*
G54D11*
X173558Y-515938D02*
X173558Y-507049D01*
G54D11*
X173558Y-512382D02*
X174002Y-511271D01*
X174891Y-510938D01*
X175780Y-511271D01*
X176224Y-512382D01*
X176224Y-514605D01*
X175780Y-515716D01*
X174891Y-515938D01*
X174002Y-515716D01*
X173558Y-514605D01*
G54D11*
X136334Y-511494D02*
X134556Y-511494D01*
X134556Y-514271D01*
X135001Y-515382D01*
X135890Y-515938D01*
X136779Y-515938D01*
X137668Y-515382D01*
X138112Y-514271D01*
X138112Y-508716D01*
X137668Y-507605D01*
X136779Y-507049D01*
X135890Y-507049D01*
X135001Y-507605D01*
X134556Y-508716D01*
G54D11*
X132112Y-515938D02*
X132112Y-510938D01*
G54D11*
X132112Y-512049D02*
X131668Y-511271D01*
X130779Y-510938D01*
X129890Y-511271D01*
X129445Y-512049D01*
X129445Y-515938D01*
G54D11*
X124345Y-515938D02*
X124345Y-507049D01*
G54D11*
X124345Y-512382D02*
X124790Y-511271D01*
X125679Y-510938D01*
X126568Y-511271D01*
X127012Y-512382D01*
X127012Y-514605D01*
X126568Y-515716D01*
X125679Y-515938D01*
X124790Y-515716D01*
X124345Y-514605D01*
G54D11*
X115756Y-849991D02*
X115756Y-855546D01*
X116201Y-856657D01*
X117090Y-857213D01*
X117979Y-857213D01*
X118868Y-856657D01*
X119312Y-855546D01*
X119312Y-849991D01*
X118868Y-848880D01*
X117979Y-848324D01*
X117090Y-848324D01*
X116201Y-848880D01*
X115756Y-849991D01*
G54D11*
X113312Y-848324D02*
X113312Y-857213D01*
X110201Y-857213D01*
G54D11*
X104701Y-857213D02*
X107812Y-857213D01*
X107812Y-848324D01*
X104701Y-848324D01*
G54D11*
X107812Y-852768D02*
X104701Y-852768D01*
G54D11*
X102312Y-857213D02*
X102312Y-848324D01*
X100090Y-848324D01*
X99201Y-848880D01*
X98756Y-849991D01*
X98756Y-855546D01*
X99201Y-856657D01*
X100090Y-857213D01*
X102312Y-857213D01*
G54D11*
X96312Y-857213D02*
X91868Y-857213D01*
G54D11*
X89512Y-857213D02*
X89512Y-848324D01*
X87290Y-848324D01*
X86401Y-848880D01*
X85956Y-849991D01*
X85956Y-855546D01*
X86401Y-856657D01*
X87290Y-857213D01*
X89512Y-857213D01*
G54D11*
X83512Y-855546D02*
X83068Y-856657D01*
X82179Y-857213D01*
X81290Y-857213D01*
X80401Y-856657D01*
X79956Y-855546D01*
X79956Y-854435D01*
X80401Y-853324D01*
X81290Y-852768D01*
X82179Y-852768D01*
X83068Y-852213D01*
X83512Y-851102D01*
X83512Y-849991D01*
X83068Y-848880D01*
X82179Y-848324D01*
X81290Y-848324D01*
X80401Y-848880D01*
X79956Y-849991D01*
G54D11*
X77512Y-857213D02*
X73068Y-857213D01*
G54D11*
X70712Y-857213D02*
X70712Y-848324D01*
G54D11*
X67156Y-857213D02*
X67156Y-848324D01*
G54D11*
X70712Y-852768D02*
X67156Y-852768D01*
G54D11*
X62934Y-857213D02*
X62934Y-848324D01*
G54D11*
X64712Y-848324D02*
X61156Y-848324D01*
G54D11*
X58712Y-848324D02*
X58712Y-855546D01*
X58268Y-856657D01*
X57379Y-857213D01*
X56490Y-857213D01*
X55601Y-856657D01*
X55156Y-855546D01*
X55156Y-848324D01*
G54D11*
X52712Y-857213D02*
X48268Y-857213D01*
G54D11*
X45912Y-848324D02*
X43690Y-857213D01*
X41468Y-848324D01*
G54D11*
X36445Y-856657D02*
X37156Y-857213D01*
X38045Y-857213D01*
X38934Y-856657D01*
X39112Y-855546D01*
X39112Y-853657D01*
X38668Y-852546D01*
X37779Y-852213D01*
X36890Y-852546D01*
X36445Y-853324D01*
X36445Y-854435D01*
X39112Y-854435D01*
G54D11*
X34012Y-857213D02*
X34012Y-852213D01*
G54D11*
X34012Y-853324D02*
X33123Y-852213D01*
X32234Y-852213D01*
G54D11*
X29812Y-857213D02*
X29812Y-857213D01*
G54D11*
X23856Y-857213D02*
X27412Y-857213D01*
X27412Y-856657D01*
X26968Y-855546D01*
X24301Y-852213D01*
X23856Y-851102D01*
X23856Y-849991D01*
X24301Y-848880D01*
X25190Y-848324D01*
X26079Y-848324D01*
X26968Y-848880D01*
X27412Y-849991D01*
G54D11*
X21412Y-853324D02*
X17856Y-853324D01*
G54D11*
X11856Y-857213D02*
X15412Y-857213D01*
X15412Y-856657D01*
X14968Y-855546D01*
X12301Y-852213D01*
X11856Y-851102D01*
X11856Y-849991D01*
X12301Y-848880D01*
X13190Y-848324D01*
X14079Y-848324D01*
X14968Y-848880D01*
X15412Y-849991D01*
G54D14*
X369050Y-856238D02*
X365716Y-842905D01*
X362383Y-856238D01*
G54D14*
X367716Y-851238D02*
X363716Y-851238D01*
G54D14*
X357650Y-856238D02*
X357650Y-842905D01*
G54D14*
X348950Y-855405D02*
X350016Y-856238D01*
X351350Y-856238D01*
X352683Y-855405D01*
X352950Y-853738D01*
X352950Y-850905D01*
X352283Y-849238D01*
X350950Y-848738D01*
X349616Y-849238D01*
X348950Y-850405D01*
X348950Y-852071D01*
X352950Y-852071D01*
G54D14*
X344250Y-848738D02*
X338916Y-856238D01*
G54D14*
X344250Y-856238D02*
X338916Y-848738D01*
G54D14*
X334250Y-856238D02*
X327583Y-856238D01*
G54D14*
X317516Y-842905D02*
X317516Y-853738D01*
X318183Y-855405D01*
X319516Y-856238D01*
X320850Y-856238D01*
X322183Y-855405D01*
X322850Y-853738D01*
G54D14*
X308850Y-855405D02*
X309916Y-856238D01*
X311250Y-856238D01*
X312583Y-855405D01*
X312850Y-853738D01*
X312850Y-850905D01*
X312183Y-849238D01*
X310850Y-848738D01*
X309516Y-849238D01*
X308850Y-850405D01*
X308850Y-852071D01*
X312850Y-852071D01*
G54D14*
X302816Y-842905D02*
X302816Y-855405D01*
X302150Y-856238D01*
X301483Y-855905D01*
G54D14*
X304150Y-848738D02*
X301483Y-848738D01*
G54D15*
X25512Y-805162D02*
X25512Y-779162D01*
X75512Y-779162D01*
X75512Y-805162D01*
X25512Y-805162D01*
G54D16*
X16254Y-794846D02*
X16921Y-795957D01*
X18254Y-796512D01*
X19588Y-796512D01*
X20921Y-795957D01*
X21588Y-794846D01*
X21588Y-789290D01*
X20921Y-788179D01*
X19588Y-787624D01*
X18254Y-787624D01*
X16921Y-788179D01*
X16254Y-789290D01*
G54D16*
X13810Y-790957D02*
X10477Y-787624D01*
X10477Y-796512D01*
G54D15*
X31775Y-837088D02*
X31775Y-817088D01*
X69775Y-817088D01*
X69775Y-837088D01*
X31775Y-837088D01*
G54D16*
X25184Y-826818D02*
X23184Y-827930D01*
X22517Y-829041D01*
X22517Y-831263D01*
G54D16*
X27850Y-831263D02*
X27850Y-822374D01*
X24517Y-822374D01*
X23184Y-822930D01*
X22517Y-824041D01*
X22517Y-825152D01*
X23184Y-826263D01*
X24517Y-826818D01*
X27850Y-826818D01*
G54D16*
X20074Y-825707D02*
X16740Y-822374D01*
X16740Y-831263D01*
G54D16*
X131762Y-814308D02*
X131318Y-815419D01*
X130429Y-815975D01*
X129540Y-815975D01*
X128651Y-815419D01*
X128207Y-814308D01*
X128207Y-813197D01*
X128651Y-812086D01*
X129540Y-811530D01*
X130429Y-811530D01*
X131318Y-810975D01*
X131762Y-809864D01*
X131762Y-808753D01*
X131318Y-807642D01*
X130429Y-807086D01*
X129540Y-807086D01*
X128651Y-807642D01*
X128207Y-808753D01*
G54D16*
X123096Y-815419D02*
X123807Y-815975D01*
X124696Y-815975D01*
X125585Y-815419D01*
X125762Y-814308D01*
X125762Y-812419D01*
X125318Y-811308D01*
X124429Y-810975D01*
X123540Y-811308D01*
X123096Y-812086D01*
X123096Y-813197D01*
X125762Y-813197D01*
G54D16*
X120652Y-815975D02*
X120652Y-807086D01*
G54D16*
X115541Y-815419D02*
X116252Y-815975D01*
X117141Y-815975D01*
X118030Y-815419D01*
X118208Y-814308D01*
X118208Y-812419D01*
X117763Y-811308D01*
X116874Y-810975D01*
X115985Y-811308D01*
X115541Y-812086D01*
X115541Y-813197D01*
X118208Y-813197D01*
G54D16*
X110874Y-811308D02*
X111763Y-810975D01*
X112652Y-811308D01*
X113096Y-812419D01*
X113096Y-814642D01*
X112652Y-815753D01*
X111763Y-815975D01*
X110874Y-815753D01*
G54D16*
X107542Y-807086D02*
X107542Y-815419D01*
X107097Y-815975D01*
X106653Y-815753D01*
G54D16*
X108430Y-810975D02*
X106653Y-810975D01*
G54D16*
X101676Y-815975D02*
X101676Y-807086D01*
X99453Y-807086D01*
X98564Y-807642D01*
X98120Y-808753D01*
X98120Y-809864D01*
X98564Y-810975D01*
X99453Y-811530D01*
X101676Y-811530D01*
G54D16*
X93009Y-810975D02*
X93009Y-815975D01*
G54D16*
X93009Y-814864D02*
X93453Y-815753D01*
X94342Y-815975D01*
X95231Y-815753D01*
X95676Y-814864D01*
X95676Y-810975D01*
G54D16*
X90564Y-815975D02*
X90564Y-807086D01*
G54D16*
X88120Y-815975D02*
X88120Y-807086D01*
G54D16*
X85676Y-812086D02*
X82121Y-812086D01*
G54D16*
X79676Y-807086D02*
X79676Y-814308D01*
X79232Y-815419D01*
X78343Y-815975D01*
X77454Y-815975D01*
X76565Y-815419D01*
X76121Y-814308D01*
X76121Y-807086D01*
G54D16*
X73676Y-810975D02*
X73676Y-818197D01*
G54D16*
X73676Y-814308D02*
X73232Y-815753D01*
X72343Y-815975D01*
X71454Y-815753D01*
X71010Y-814642D01*
X71010Y-812419D01*
X71454Y-811308D01*
X72343Y-810975D01*
X73232Y-811308D01*
X73676Y-812642D01*
G54D10*
X660387Y-609613D02*
X501587Y-609613D01*
X501587Y-773176D01*
X660387Y-773176D01*
X660387Y-609613D01*
G54D10*
X519100Y-631838D02*
X519100Y-706426D01*
X642824Y-706426D01*
X642824Y-631838D01*
G54D10*
X519100Y-631838D02*
X539737Y-631838D01*
X539737Y-622313D01*
X549262Y-622313D01*
X549262Y-612788D01*
X581012Y-612788D01*
G54D10*
X642762Y-631838D02*
X622124Y-631838D01*
X622124Y-622313D01*
X612600Y-622313D01*
X612600Y-612788D01*
X580850Y-612788D01*
G54D11*
X728637Y-489758D02*
X726415Y-486424D01*
X726415Y-495313D01*
G54D11*
X721537Y-491424D02*
X717981Y-491424D01*
G54D11*
X713037Y-486424D02*
X713037Y-495313D01*
X710815Y-489758D01*
X708593Y-495313D01*
X708593Y-486424D01*
G54D11*
X702681Y-488091D02*
X702681Y-493646D01*
X703126Y-494758D01*
X704015Y-495313D01*
X704904Y-495313D01*
X705793Y-494758D01*
X706237Y-493646D01*
X706237Y-488091D01*
X705793Y-486980D01*
X704904Y-486424D01*
X704015Y-486424D01*
X703126Y-486980D01*
X702681Y-488091D01*
G54D11*
X700237Y-495313D02*
X700237Y-490313D01*
G54D11*
X700237Y-491424D02*
X699348Y-490313D01*
X698459Y-490313D01*
G54D11*
X693537Y-491424D02*
X689981Y-491424D01*
G54D11*
X685037Y-493646D02*
X684593Y-494758D01*
X683704Y-495313D01*
X682815Y-495313D01*
X681926Y-494758D01*
X681481Y-493646D01*
X681481Y-492535D01*
X681926Y-491424D01*
X682815Y-490868D01*
X683704Y-490868D01*
X684593Y-490313D01*
X685037Y-489202D01*
X685037Y-488091D01*
X684593Y-486980D01*
X683704Y-486424D01*
X682815Y-486424D01*
X681926Y-486980D01*
X681481Y-488091D01*
G54D11*
X679037Y-495313D02*
X679037Y-486424D01*
X676815Y-486424D01*
X675926Y-486980D01*
X675481Y-488091D01*
X675481Y-493646D01*
X675926Y-494758D01*
X676815Y-495313D01*
X679037Y-495313D01*
G54D11*
X673037Y-495313D02*
X670815Y-486424D01*
X668593Y-495313D01*
G54D11*
X672148Y-491980D02*
X669481Y-491980D01*
G54D11*
X725081Y-511188D02*
X728637Y-511188D01*
X728637Y-510632D01*
X728193Y-509521D01*
X725526Y-506188D01*
X725081Y-505077D01*
X725081Y-503966D01*
X725526Y-502855D01*
X726415Y-502299D01*
X727304Y-502299D01*
X728193Y-502855D01*
X728637Y-503966D01*
G54D11*
X720137Y-507299D02*
X716581Y-507299D01*
G54D11*
X708081Y-503966D02*
X708081Y-509521D01*
X708526Y-510632D01*
X709415Y-511188D01*
X710304Y-511188D01*
X711193Y-510632D01*
X711637Y-509521D01*
X711637Y-503966D01*
X711193Y-502855D01*
X710304Y-502299D01*
X709415Y-502299D01*
X708526Y-502855D01*
X708081Y-503966D01*
G54D11*
X705637Y-511188D02*
X705637Y-506188D01*
G54D11*
X705637Y-507299D02*
X704748Y-506188D01*
X703859Y-506188D01*
G54D11*
X698937Y-507299D02*
X695381Y-507299D01*
G54D11*
X688659Y-506744D02*
X686881Y-506744D01*
X686881Y-509521D01*
X687326Y-510632D01*
X688215Y-511188D01*
X689104Y-511188D01*
X689993Y-510632D01*
X690437Y-509521D01*
X690437Y-503966D01*
X689993Y-502855D01*
X689104Y-502299D01*
X688215Y-502299D01*
X687326Y-502855D01*
X686881Y-503966D01*
G54D11*
X684437Y-511188D02*
X684437Y-502299D01*
X680881Y-511188D01*
X680881Y-502299D01*
G54D11*
X678437Y-511188D02*
X678437Y-502299D01*
X676215Y-502299D01*
X675326Y-502855D01*
X674881Y-503966D01*
X674881Y-509521D01*
X675326Y-510632D01*
X676215Y-511188D01*
X678437Y-511188D01*
G54D11*
X728637Y-519841D02*
X728193Y-518730D01*
X727304Y-518174D01*
X726415Y-518174D01*
X725526Y-518730D01*
X725081Y-519841D01*
X725081Y-520952D01*
X725526Y-522063D01*
X726415Y-522618D01*
X725526Y-523174D01*
X725081Y-524285D01*
X725081Y-525396D01*
X725526Y-526508D01*
X726415Y-527063D01*
X727304Y-527063D01*
X728193Y-526508D01*
X728637Y-525396D01*
G54D11*
X720137Y-523174D02*
X716581Y-523174D01*
G54D11*
X711637Y-518174D02*
X711637Y-527063D01*
X709415Y-521508D01*
X707193Y-527063D01*
X707193Y-518174D01*
G54D11*
X703059Y-522618D02*
X701281Y-522618D01*
X701281Y-525396D01*
X701726Y-526508D01*
X702615Y-527063D01*
X703504Y-527063D01*
X704393Y-526508D01*
X704837Y-525396D01*
X704837Y-519841D01*
X704393Y-518730D01*
X703504Y-518174D01*
X702615Y-518174D01*
X701726Y-518730D01*
X701281Y-519841D01*
G54D11*
X698837Y-527063D02*
X698837Y-522063D01*
G54D11*
X698837Y-523174D02*
X697948Y-522063D01*
X697059Y-522063D01*
G54D11*
X692137Y-523174D02*
X688581Y-523174D01*
G54D11*
X683637Y-525396D02*
X683193Y-526508D01*
X682304Y-527063D01*
X681415Y-527063D01*
X680526Y-526508D01*
X680081Y-525396D01*
X680081Y-524285D01*
X680526Y-523174D01*
X681415Y-522618D01*
X682304Y-522618D01*
X683193Y-522063D01*
X683637Y-520952D01*
X683637Y-519841D01*
X683193Y-518730D01*
X682304Y-518174D01*
X681415Y-518174D01*
X680526Y-518730D01*
X680081Y-519841D01*
G54D11*
X674081Y-525396D02*
X674526Y-526508D01*
X675415Y-527063D01*
X676304Y-527063D01*
X677193Y-526508D01*
X677637Y-525396D01*
X677637Y-519841D01*
X677193Y-518730D01*
X676304Y-518174D01*
X675415Y-518174D01*
X674526Y-518730D01*
X674081Y-519841D01*
G54D11*
X671637Y-518174D02*
X671637Y-527063D01*
X668526Y-527063D01*
G54D11*
X725970Y-542938D02*
X725970Y-534049D01*
X728637Y-539605D01*
X728637Y-540716D01*
X725081Y-540716D01*
G54D11*
X720137Y-539049D02*
X716581Y-539049D01*
G54D11*
X711637Y-542938D02*
X711637Y-534049D01*
X709415Y-534049D01*
X708526Y-534605D01*
X708081Y-535716D01*
X708081Y-536827D01*
X708526Y-537938D01*
X709415Y-538494D01*
X708526Y-539049D01*
X708081Y-540160D01*
X708081Y-541271D01*
X708526Y-542382D01*
X709415Y-542938D01*
X711637Y-542938D01*
G54D11*
X711637Y-538494D02*
X709415Y-538494D01*
G54D11*
X705637Y-542938D02*
X705637Y-534049D01*
G54D11*
X700737Y-539049D02*
X697181Y-539049D01*
G54D11*
X690459Y-538494D02*
X688681Y-538494D01*
X688681Y-541271D01*
X689126Y-542382D01*
X690015Y-542938D01*
X690904Y-542938D01*
X691793Y-542382D01*
X692237Y-541271D01*
X692237Y-535716D01*
X691793Y-534605D01*
X690904Y-534049D01*
X690015Y-534049D01*
X689126Y-534605D01*
X688681Y-535716D01*
G54D11*
X686237Y-542938D02*
X686237Y-534049D01*
X682681Y-542938D01*
X682681Y-534049D01*
G54D11*
X680237Y-542938D02*
X680237Y-534049D01*
X678015Y-534049D01*
X677126Y-534605D01*
X676681Y-535716D01*
X676681Y-541271D01*
X677126Y-542382D01*
X678015Y-542938D01*
X680237Y-542938D01*
G54D11*
X725081Y-549924D02*
X728637Y-549924D01*
X728637Y-553813D01*
X728193Y-553813D01*
X727304Y-553258D01*
X726415Y-553258D01*
X725526Y-553813D01*
X725081Y-554924D01*
X725081Y-557146D01*
X725526Y-558258D01*
X726415Y-558813D01*
X727304Y-558813D01*
X728193Y-558258D01*
X728637Y-557146D01*
G54D11*
X720137Y-554924D02*
X716581Y-554924D01*
G54D11*
X711637Y-549924D02*
X711637Y-558813D01*
X709415Y-553258D01*
X707193Y-558813D01*
X707193Y-549924D01*
G54D11*
X704837Y-558813D02*
X704837Y-549924D01*
X702615Y-549924D01*
X701726Y-550480D01*
X701281Y-551591D01*
X701281Y-552702D01*
X701726Y-553813D01*
X702615Y-554368D01*
X701726Y-554924D01*
X701281Y-556035D01*
X701281Y-557146D01*
X701726Y-558258D01*
X702615Y-558813D01*
X704837Y-558813D01*
G54D11*
X704837Y-554368D02*
X702615Y-554368D01*
G54D11*
X698837Y-558813D02*
X698837Y-549924D01*
G54D11*
X693937Y-554924D02*
X690381Y-554924D01*
G54D11*
X685437Y-558813D02*
X685437Y-549924D01*
X683215Y-549924D01*
X682326Y-550480D01*
X681881Y-551591D01*
X681881Y-557146D01*
X682326Y-558258D01*
X683215Y-558813D01*
X685437Y-558813D01*
G54D11*
X679437Y-557146D02*
X678993Y-558258D01*
X678104Y-558813D01*
X677215Y-558813D01*
X676326Y-558258D01*
X675881Y-557146D01*
X675881Y-556035D01*
X676326Y-554924D01*
X677215Y-554368D01*
X678104Y-554368D01*
X678993Y-553813D01*
X679437Y-552702D01*
X679437Y-551591D01*
X678993Y-550480D01*
X678104Y-549924D01*
X677215Y-549924D01*
X676326Y-550480D01*
X675881Y-551591D01*
G54D11*
X673437Y-553258D02*
X671215Y-549924D01*
X671215Y-558813D01*
G54D11*
X666615Y-554368D02*
X667504Y-554368D01*
X668393Y-553813D01*
X668837Y-552702D01*
X668837Y-551591D01*
X668393Y-550480D01*
X667504Y-549924D01*
X666615Y-549924D01*
X665726Y-550480D01*
X665281Y-551591D01*
X665281Y-552702D01*
X665726Y-553813D01*
X666615Y-554368D01*
X665726Y-554924D01*
X665281Y-556035D01*
X665281Y-557146D01*
X665726Y-558258D01*
X666615Y-558813D01*
X667504Y-558813D01*
X668393Y-558258D01*
X668837Y-557146D01*
X668837Y-556035D01*
X668393Y-554924D01*
X667504Y-554368D01*
G54D11*
X662837Y-558813D02*
X662837Y-549924D01*
X660615Y-549924D01*
X659726Y-550480D01*
X659281Y-551591D01*
X659281Y-552702D01*
X659726Y-553813D01*
X660615Y-554368D01*
X659726Y-554924D01*
X659281Y-556035D01*
X659281Y-557146D01*
X659726Y-558258D01*
X660615Y-558813D01*
X662837Y-558813D01*
G54D11*
X662837Y-554368D02*
X660615Y-554368D01*
G54D11*
X653281Y-558813D02*
X656837Y-558813D01*
X656837Y-558258D01*
X656393Y-557146D01*
X653726Y-553813D01*
X653281Y-552702D01*
X653281Y-551591D01*
X653726Y-550480D01*
X654615Y-549924D01*
X655504Y-549924D01*
X656393Y-550480D01*
X656837Y-551591D01*
G54D11*
X647281Y-551591D02*
X647281Y-557146D01*
X647726Y-558258D01*
X648615Y-558813D01*
X649504Y-558813D01*
X650393Y-558258D01*
X650837Y-557146D01*
X650837Y-551591D01*
X650393Y-550480D01*
X649504Y-549924D01*
X648615Y-549924D01*
X647726Y-550480D01*
X647281Y-551591D01*
G54D11*
X725106Y-567453D02*
X725551Y-566342D01*
X726440Y-565787D01*
X727329Y-565787D01*
X728218Y-566342D01*
X728662Y-567453D01*
X728662Y-570231D01*
X728662Y-570787D01*
X727329Y-569676D01*
X726440Y-569676D01*
X725551Y-570231D01*
X725106Y-571342D01*
X725106Y-573009D01*
X725551Y-574120D01*
X726440Y-574676D01*
X727329Y-574676D01*
X728218Y-574120D01*
X728662Y-573009D01*
X728662Y-570231D01*
G54D11*
X720162Y-570787D02*
X716606Y-570787D01*
G54D11*
X709884Y-570231D02*
X708106Y-570231D01*
X708106Y-573009D01*
X708551Y-574120D01*
X709440Y-574676D01*
X710329Y-574676D01*
X711218Y-574120D01*
X711662Y-573009D01*
X711662Y-567453D01*
X711218Y-566342D01*
X710329Y-565787D01*
X709440Y-565787D01*
X708551Y-566342D01*
X708106Y-567453D01*
G54D11*
X705662Y-574676D02*
X705662Y-569676D01*
G54D11*
X705662Y-570787D02*
X704773Y-569676D01*
X703884Y-569676D01*
G54D11*
X698962Y-570787D02*
X695406Y-570787D01*
G54D11*
X690462Y-570787D02*
X686906Y-570787D01*
G54D11*
X688684Y-568564D02*
X688684Y-573009D01*
G54D11*
X684462Y-567453D02*
X684018Y-566342D01*
X683129Y-565787D01*
X682240Y-565787D01*
X681351Y-566342D01*
X680906Y-567453D01*
X680906Y-568564D01*
X681351Y-569676D01*
X682240Y-570231D01*
X681351Y-570787D01*
X680906Y-571898D01*
X680906Y-573009D01*
X681351Y-574120D01*
X682240Y-574676D01*
X683129Y-574676D01*
X684018Y-574120D01*
X684462Y-573009D01*
G54D11*
X678462Y-574676D02*
X678462Y-574676D01*
G54D11*
X676062Y-567453D02*
X675618Y-566342D01*
X674729Y-565787D01*
X673840Y-565787D01*
X672951Y-566342D01*
X672506Y-567453D01*
X672506Y-568564D01*
X672951Y-569676D01*
X673840Y-570231D01*
X672951Y-570787D01*
X672506Y-571898D01*
X672506Y-573009D01*
X672951Y-574120D01*
X673840Y-574676D01*
X674729Y-574676D01*
X675618Y-574120D01*
X676062Y-573009D01*
G54D11*
X670062Y-565787D02*
X667840Y-574676D01*
X665618Y-565787D01*
G54D11*
X728637Y-581674D02*
X725081Y-581674D01*
X725526Y-582785D01*
X726415Y-584452D01*
X727304Y-586674D01*
X727748Y-588341D01*
X727748Y-590563D01*
G54D11*
X720137Y-586674D02*
X716581Y-586674D01*
G54D11*
X711637Y-581674D02*
X711637Y-590563D01*
X709415Y-585008D01*
X707193Y-590563D01*
X707193Y-581674D01*
G54D11*
X704837Y-590563D02*
X704837Y-581674D01*
X702615Y-581674D01*
X701726Y-582230D01*
X701281Y-583341D01*
X701281Y-584452D01*
X701726Y-585563D01*
X702615Y-586118D01*
X701726Y-586674D01*
X701281Y-587785D01*
X701281Y-588896D01*
X701726Y-590008D01*
X702615Y-590563D01*
X704837Y-590563D01*
G54D11*
X704837Y-586118D02*
X702615Y-586118D01*
G54D11*
X698837Y-590563D02*
X698837Y-585563D01*
G54D11*
X698837Y-586674D02*
X697948Y-585563D01*
X697059Y-585563D01*
G54D11*
X692137Y-586674D02*
X688581Y-586674D01*
G54D11*
X683637Y-590563D02*
X683637Y-581674D01*
X681415Y-581674D01*
X680526Y-582230D01*
X680081Y-583341D01*
X680081Y-584452D01*
X680526Y-585563D01*
X681415Y-586118D01*
X680526Y-586674D01*
X680081Y-587785D01*
X680081Y-588896D01*
X680526Y-590008D01*
X681415Y-590563D01*
X683637Y-590563D01*
G54D11*
X683637Y-586118D02*
X681415Y-586118D01*
G54D11*
X674970Y-585563D02*
X674970Y-590563D01*
G54D11*
X674970Y-589452D02*
X675415Y-590341D01*
X676304Y-590563D01*
X677193Y-590341D01*
X677637Y-589452D01*
X677637Y-585563D01*
G54D11*
X671648Y-581674D02*
X671648Y-590008D01*
X671204Y-590563D01*
X670759Y-590341D01*
G54D11*
X672537Y-585563D02*
X670759Y-585563D01*
G54D11*
X667448Y-581674D02*
X667448Y-590008D01*
X667004Y-590563D01*
X666559Y-590341D01*
G54D11*
X668337Y-585563D02*
X666559Y-585563D01*
G54D11*
X661470Y-589230D02*
X661470Y-587008D01*
X661915Y-585896D01*
X662804Y-585563D01*
X663693Y-585896D01*
X664137Y-587008D01*
X664137Y-589230D01*
X663693Y-590341D01*
X662804Y-590563D01*
X661915Y-590341D01*
X661470Y-589230D01*
G54D11*
X659037Y-590563D02*
X659037Y-585563D01*
G54D11*
X659037Y-586674D02*
X658593Y-585896D01*
X657704Y-585563D01*
X656815Y-585896D01*
X656370Y-586674D01*
X656370Y-590563D01*
G54D11*
X726415Y-601994D02*
X727304Y-601994D01*
X728193Y-601438D01*
X728637Y-600327D01*
X728637Y-599216D01*
X728193Y-598105D01*
X727304Y-597549D01*
X726415Y-597549D01*
X725526Y-598105D01*
X725081Y-599216D01*
X725081Y-600327D01*
X725526Y-601438D01*
X726415Y-601994D01*
X725526Y-602549D01*
X725081Y-603660D01*
X725081Y-604771D01*
X725526Y-605882D01*
X726415Y-606438D01*
X727304Y-606438D01*
X728193Y-605882D01*
X728637Y-604771D01*
X728637Y-603660D01*
X728193Y-602549D01*
X727304Y-601994D01*
G54D11*
X720137Y-602549D02*
X716581Y-602549D01*
G54D11*
X711637Y-606438D02*
X711637Y-597549D01*
X709415Y-597549D01*
X708526Y-598105D01*
X708081Y-599216D01*
X708081Y-600327D01*
X708526Y-601438D01*
X709415Y-601994D01*
X708526Y-602549D01*
X708081Y-603660D01*
X708081Y-604771D01*
X708526Y-605882D01*
X709415Y-606438D01*
X711637Y-606438D01*
G54D11*
X711637Y-601994D02*
X709415Y-601994D01*
G54D11*
X705637Y-606438D02*
X705637Y-601438D01*
G54D11*
X705637Y-602549D02*
X704748Y-601438D01*
X703859Y-601438D01*
G54D11*
X698937Y-602549D02*
X695381Y-602549D01*
G54D11*
X688659Y-601994D02*
X686881Y-601994D01*
X686881Y-604771D01*
X687326Y-605882D01*
X688215Y-606438D01*
X689104Y-606438D01*
X689993Y-605882D01*
X690437Y-604771D01*
X690437Y-599216D01*
X689993Y-598105D01*
X689104Y-597549D01*
X688215Y-597549D01*
X687326Y-598105D01*
X686881Y-599216D01*
G54D11*
X684437Y-606438D02*
X684437Y-597549D01*
X680881Y-606438D01*
X680881Y-597549D01*
G54D11*
X678437Y-606438D02*
X678437Y-597549D01*
X676215Y-597549D01*
X675326Y-598105D01*
X674881Y-599216D01*
X674881Y-604771D01*
X675326Y-605882D01*
X676215Y-606438D01*
X678437Y-606438D01*
G54D10*
X731800Y-484188D02*
X736562Y-484188D01*
X736562Y-608013D01*
X731800Y-608013D01*
G54D12*
X754029Y-593188D02*
X752362Y-590188D01*
X750695Y-589188D01*
X747362Y-589188D01*
G54D12*
X747362Y-597188D02*
X760695Y-597188D01*
X760695Y-592188D01*
X759862Y-590188D01*
X758195Y-589188D01*
X756529Y-589188D01*
X754862Y-590188D01*
X754029Y-592188D01*
X754029Y-597188D01*
G54D12*
X760695Y-577488D02*
X749862Y-577488D01*
X748195Y-578488D01*
X747362Y-580488D01*
X747362Y-582488D01*
X748195Y-584488D01*
X749862Y-585488D01*
G54D12*
X753195Y-573788D02*
X753195Y-565788D01*
G54D12*
X747362Y-556088D02*
X760695Y-556088D01*
X752362Y-562088D01*
X750695Y-562088D01*
X750695Y-554088D01*
G54D12*
X760695Y-542388D02*
X760695Y-550388D01*
X754862Y-550388D01*
X754862Y-549388D01*
X755695Y-547388D01*
X755695Y-545388D01*
X754862Y-543388D01*
X753195Y-542388D01*
X749862Y-542388D01*
X748195Y-543388D01*
X747362Y-545388D01*
X747362Y-547388D01*
X748195Y-549388D01*
X749862Y-550388D01*
G54D12*
X760695Y-534788D02*
X747362Y-534788D01*
X755695Y-529788D01*
X747362Y-524788D01*
X760695Y-524788D01*
G54D12*
X747362Y-521088D02*
X754862Y-521088D01*
G54D12*
X757362Y-521088D02*
X757362Y-521088D01*
G54D12*
X747362Y-517388D02*
X754862Y-517388D01*
G54D12*
X753195Y-517388D02*
X754862Y-515388D01*
X754862Y-513388D01*
G54D12*
X747362Y-509688D02*
X754862Y-509688D01*
G54D12*
X757362Y-509688D02*
X757362Y-509688D01*
G54D12*
X747362Y-505988D02*
X754862Y-505988D01*
G54D12*
X753195Y-505988D02*
X754362Y-504988D01*
X754862Y-502988D01*
X754362Y-500988D01*
X753195Y-499988D01*
X747362Y-499988D01*
G54D12*
X744862Y-496288D02*
X744029Y-494288D01*
X744029Y-492888D01*
X744862Y-490888D01*
X746529Y-490288D01*
X754862Y-490288D01*
G54D12*
X752695Y-490288D02*
X754362Y-491288D01*
X754862Y-493288D01*
X754362Y-495288D01*
X752695Y-496288D01*
X749362Y-496288D01*
X747695Y-495288D01*
X747362Y-493288D01*
X747695Y-491288D01*
X749362Y-490288D01*
G54D13*
X574674Y-528559D02*
X574230Y-529670D01*
X573341Y-530226D01*
X572452Y-530226D01*
X571563Y-529670D01*
X571119Y-528559D01*
X571119Y-527448D01*
X571563Y-526337D01*
X572452Y-525781D01*
X573341Y-525781D01*
X574230Y-525226D01*
X574674Y-524114D01*
X574674Y-523003D01*
X574230Y-521892D01*
X573341Y-521337D01*
X572452Y-521337D01*
X571563Y-521892D01*
X571119Y-523003D01*
G54D13*
X565308Y-529670D02*
X566019Y-530226D01*
X566908Y-530226D01*
X567797Y-529670D01*
X567974Y-528559D01*
X567974Y-526670D01*
X567530Y-525559D01*
X566641Y-525226D01*
X565752Y-525559D01*
X565308Y-526337D01*
X565308Y-527448D01*
X567974Y-527448D01*
G54D13*
X562174Y-530226D02*
X562174Y-521337D01*
G54D13*
X556408Y-529670D02*
X557119Y-530226D01*
X558008Y-530226D01*
X558897Y-529670D01*
X559074Y-528559D01*
X559074Y-526670D01*
X558630Y-525559D01*
X557741Y-525226D01*
X556852Y-525559D01*
X556408Y-526337D01*
X556408Y-527448D01*
X559074Y-527448D01*
G54D13*
X551052Y-525559D02*
X551941Y-525226D01*
X552830Y-525559D01*
X553274Y-526670D01*
X553274Y-528892D01*
X552830Y-530003D01*
X551941Y-530226D01*
X551052Y-530003D01*
G54D13*
X547086Y-521337D02*
X547086Y-529670D01*
X546641Y-530226D01*
X546197Y-530003D01*
G54D13*
X547974Y-525226D02*
X546197Y-525226D01*
G54D13*
X539874Y-530226D02*
X539874Y-521337D01*
X537652Y-521337D01*
X536763Y-521892D01*
X536319Y-523003D01*
X536319Y-524114D01*
X536763Y-525226D01*
X537652Y-525781D01*
X539874Y-525781D01*
G54D13*
X530508Y-528892D02*
X530508Y-526670D01*
X530952Y-525559D01*
X531841Y-525226D01*
X532730Y-525559D01*
X533174Y-526670D01*
X533174Y-528892D01*
X532730Y-530003D01*
X531841Y-530226D01*
X530952Y-530003D01*
X530508Y-528892D01*
G54D13*
X527374Y-525226D02*
X526041Y-530226D01*
X524708Y-525226D01*
X523374Y-530226D01*
X522486Y-525226D01*
G54D13*
X516708Y-529670D02*
X517419Y-530226D01*
X518308Y-530226D01*
X519197Y-529670D01*
X519374Y-528559D01*
X519374Y-526670D01*
X518930Y-525559D01*
X518041Y-525226D01*
X517152Y-525559D01*
X516708Y-526337D01*
X516708Y-527448D01*
X519374Y-527448D01*
G54D13*
X513574Y-530226D02*
X513574Y-525226D01*
G54D13*
X513574Y-526337D02*
X512686Y-525226D01*
X511797Y-525226D01*
G54D11*
X550362Y-507049D02*
X548140Y-515938D01*
X545918Y-507049D01*
G54D11*
X541340Y-511271D02*
X542229Y-510938D01*
X543118Y-511271D01*
X543562Y-512382D01*
X543562Y-514605D01*
X543118Y-515716D01*
X542229Y-515938D01*
X541340Y-515716D01*
G54D11*
X536740Y-511271D02*
X537629Y-510938D01*
X538518Y-511271D01*
X538962Y-512382D01*
X538962Y-514605D01*
X538518Y-515716D01*
X537629Y-515938D01*
X536740Y-515716D01*
G54D11*
X572897Y-511494D02*
X571119Y-511494D01*
X571119Y-514271D01*
X571563Y-515382D01*
X572452Y-515938D01*
X573341Y-515938D01*
X574230Y-515382D01*
X574674Y-514271D01*
X574674Y-508716D01*
X574230Y-507605D01*
X573341Y-507049D01*
X572452Y-507049D01*
X571563Y-507605D01*
X571119Y-508716D01*
G54D11*
X568674Y-515938D02*
X568674Y-510938D01*
G54D11*
X568674Y-512049D02*
X568230Y-511271D01*
X567341Y-510938D01*
X566452Y-511271D01*
X566008Y-512049D01*
X566008Y-515938D01*
G54D11*
X560908Y-515938D02*
X560908Y-507049D01*
G54D11*
X560908Y-512382D02*
X561352Y-511271D01*
X562241Y-510938D01*
X563130Y-511271D01*
X563574Y-512382D01*
X563574Y-514605D01*
X563130Y-515716D01*
X562241Y-515938D01*
X561352Y-515716D01*
X560908Y-514605D01*
G54D11*
X523684Y-511494D02*
X521906Y-511494D01*
X521906Y-514271D01*
X522351Y-515382D01*
X523240Y-515938D01*
X524129Y-515938D01*
X525018Y-515382D01*
X525462Y-514271D01*
X525462Y-508716D01*
X525018Y-507605D01*
X524129Y-507049D01*
X523240Y-507049D01*
X522351Y-507605D01*
X521906Y-508716D01*
G54D11*
X519462Y-515938D02*
X519462Y-510938D01*
G54D11*
X519462Y-512049D02*
X519018Y-511271D01*
X518129Y-510938D01*
X517240Y-511271D01*
X516795Y-512049D01*
X516795Y-515938D01*
G54D11*
X511695Y-515938D02*
X511695Y-507049D01*
G54D11*
X511695Y-512382D02*
X512140Y-511271D01*
X513029Y-510938D01*
X513918Y-511271D01*
X514362Y-512382D01*
X514362Y-514605D01*
X513918Y-515716D01*
X513029Y-515938D01*
X512140Y-515716D01*
X511695Y-514605D01*
G54D11*
X503106Y-849991D02*
X503106Y-855546D01*
X503551Y-856657D01*
X504440Y-857213D01*
X505329Y-857213D01*
X506218Y-856657D01*
X506662Y-855546D01*
X506662Y-849991D01*
X506218Y-848880D01*
X505329Y-848324D01*
X504440Y-848324D01*
X503551Y-848880D01*
X503106Y-849991D01*
G54D11*
X500662Y-848324D02*
X500662Y-857213D01*
X497551Y-857213D01*
G54D11*
X492051Y-857213D02*
X495162Y-857213D01*
X495162Y-848324D01*
X492051Y-848324D01*
G54D11*
X495162Y-852768D02*
X492051Y-852768D01*
G54D11*
X489662Y-857213D02*
X489662Y-848324D01*
X487440Y-848324D01*
X486551Y-848880D01*
X486106Y-849991D01*
X486106Y-855546D01*
X486551Y-856657D01*
X487440Y-857213D01*
X489662Y-857213D01*
G54D11*
X483662Y-857213D02*
X479218Y-857213D01*
G54D11*
X476862Y-857213D02*
X476862Y-848324D01*
X474640Y-848324D01*
X473751Y-848880D01*
X473306Y-849991D01*
X473306Y-855546D01*
X473751Y-856657D01*
X474640Y-857213D01*
X476862Y-857213D01*
G54D11*
X470862Y-855546D02*
X470418Y-856657D01*
X469529Y-857213D01*
X468640Y-857213D01*
X467751Y-856657D01*
X467306Y-855546D01*
X467306Y-854435D01*
X467751Y-853324D01*
X468640Y-852768D01*
X469529Y-852768D01*
X470418Y-852213D01*
X470862Y-851102D01*
X470862Y-849991D01*
X470418Y-848880D01*
X469529Y-848324D01*
X468640Y-848324D01*
X467751Y-848880D01*
X467306Y-849991D01*
G54D11*
X464862Y-857213D02*
X460418Y-857213D01*
G54D11*
X458062Y-857213D02*
X458062Y-848324D01*
G54D11*
X454506Y-857213D02*
X454506Y-848324D01*
G54D11*
X458062Y-852768D02*
X454506Y-852768D01*
G54D11*
X450284Y-857213D02*
X450284Y-848324D01*
G54D11*
X452062Y-848324D02*
X448506Y-848324D01*
G54D11*
X446062Y-848324D02*
X446062Y-855546D01*
X445618Y-856657D01*
X444729Y-857213D01*
X443840Y-857213D01*
X442951Y-856657D01*
X442506Y-855546D01*
X442506Y-848324D01*
G54D11*
X440062Y-857213D02*
X435618Y-857213D01*
G54D11*
X433262Y-848324D02*
X431040Y-857213D01*
X428818Y-848324D01*
G54D11*
X423795Y-856657D02*
X424506Y-857213D01*
X425395Y-857213D01*
X426284Y-856657D01*
X426462Y-855546D01*
X426462Y-853657D01*
X426018Y-852546D01*
X425129Y-852213D01*
X424240Y-852546D01*
X423795Y-853324D01*
X423795Y-854435D01*
X426462Y-854435D01*
G54D11*
X421362Y-857213D02*
X421362Y-852213D01*
G54D11*
X421362Y-853324D02*
X420473Y-852213D01*
X419584Y-852213D01*
G54D11*
X417162Y-857213D02*
X417162Y-857213D01*
G54D11*
X411206Y-857213D02*
X414762Y-857213D01*
X414762Y-856657D01*
X414318Y-855546D01*
X411651Y-852213D01*
X411206Y-851102D01*
X411206Y-849991D01*
X411651Y-848880D01*
X412540Y-848324D01*
X413429Y-848324D01*
X414318Y-848880D01*
X414762Y-849991D01*
G54D11*
X408762Y-853324D02*
X405206Y-853324D01*
G54D11*
X399206Y-857213D02*
X402762Y-857213D01*
X402762Y-856657D01*
X402318Y-855546D01*
X399651Y-852213D01*
X399206Y-851102D01*
X399206Y-849991D01*
X399651Y-848880D01*
X400540Y-848324D01*
X401429Y-848324D01*
X402318Y-848880D01*
X402762Y-849991D01*
G54D14*
X756400Y-856238D02*
X753066Y-842905D01*
X749733Y-856238D01*
G54D14*
X755066Y-851238D02*
X751066Y-851238D01*
G54D14*
X745000Y-856238D02*
X745000Y-842905D01*
G54D14*
X736300Y-855405D02*
X737366Y-856238D01*
X738700Y-856238D01*
X740033Y-855405D01*
X740300Y-853738D01*
X740300Y-850905D01*
X739633Y-849238D01*
X738300Y-848738D01*
X736966Y-849238D01*
X736300Y-850405D01*
X736300Y-852071D01*
X740300Y-852071D01*
G54D14*
X731600Y-848738D02*
X726266Y-856238D01*
G54D14*
X731600Y-856238D02*
X726266Y-848738D01*
G54D14*
X721600Y-856238D02*
X714933Y-856238D01*
G54D14*
X704866Y-842905D02*
X704866Y-853738D01*
X705533Y-855405D01*
X706866Y-856238D01*
X708200Y-856238D01*
X709533Y-855405D01*
X710200Y-853738D01*
G54D14*
X696200Y-855405D02*
X697266Y-856238D01*
X698600Y-856238D01*
X699933Y-855405D01*
X700200Y-853738D01*
X700200Y-850905D01*
X699533Y-849238D01*
X698200Y-848738D01*
X696866Y-849238D01*
X696200Y-850405D01*
X696200Y-852071D01*
X700200Y-852071D01*
G54D14*
X690166Y-842905D02*
X690166Y-855405D01*
X689500Y-856238D01*
X688833Y-855905D01*
G54D14*
X691500Y-848738D02*
X688833Y-848738D01*
G54D15*
X412862Y-805162D02*
X412862Y-779162D01*
X462862Y-779162D01*
X462862Y-805162D01*
X412862Y-805162D01*
G54D16*
X403604Y-794846D02*
X404271Y-795957D01*
X405604Y-796512D01*
X406938Y-796512D01*
X408271Y-795957D01*
X408938Y-794846D01*
X408938Y-789290D01*
X408271Y-788179D01*
X406938Y-787624D01*
X405604Y-787624D01*
X404271Y-788179D01*
X403604Y-789290D01*
G54D16*
X401160Y-790957D02*
X397827Y-787624D01*
X397827Y-796512D01*
G54D15*
X419125Y-837088D02*
X419125Y-817088D01*
X457125Y-817088D01*
X457125Y-837088D01*
X419125Y-837088D01*
G54D16*
X412534Y-826818D02*
X410534Y-827930D01*
X409867Y-829041D01*
X409867Y-831263D01*
G54D16*
X415200Y-831263D02*
X415200Y-822374D01*
X411867Y-822374D01*
X410534Y-822930D01*
X409867Y-824041D01*
X409867Y-825152D01*
X410534Y-826263D01*
X411867Y-826818D01*
X415200Y-826818D01*
G54D16*
X407424Y-825707D02*
X404090Y-822374D01*
X404090Y-831263D01*
G54D16*
X519112Y-814308D02*
X518668Y-815419D01*
X517779Y-815975D01*
X516890Y-815975D01*
X516001Y-815419D01*
X515557Y-814308D01*
X515557Y-813197D01*
X516001Y-812086D01*
X516890Y-811530D01*
X517779Y-811530D01*
X518668Y-810975D01*
X519112Y-809864D01*
X519112Y-808753D01*
X518668Y-807642D01*
X517779Y-807086D01*
X516890Y-807086D01*
X516001Y-807642D01*
X515557Y-808753D01*
G54D16*
X510446Y-815419D02*
X511157Y-815975D01*
X512046Y-815975D01*
X512935Y-815419D01*
X513112Y-814308D01*
X513112Y-812419D01*
X512668Y-811308D01*
X511779Y-810975D01*
X510890Y-811308D01*
X510446Y-812086D01*
X510446Y-813197D01*
X513112Y-813197D01*
G54D16*
X508002Y-815975D02*
X508002Y-807086D01*
G54D16*
X502891Y-815419D02*
X503602Y-815975D01*
X504491Y-815975D01*
X505380Y-815419D01*
X505558Y-814308D01*
X505558Y-812419D01*
X505113Y-811308D01*
X504224Y-810975D01*
X503335Y-811308D01*
X502891Y-812086D01*
X502891Y-813197D01*
X505558Y-813197D01*
G54D16*
X498224Y-811308D02*
X499113Y-810975D01*
X500002Y-811308D01*
X500446Y-812419D01*
X500446Y-814642D01*
X500002Y-815753D01*
X499113Y-815975D01*
X498224Y-815753D01*
G54D16*
X494892Y-807086D02*
X494892Y-815419D01*
X494447Y-815975D01*
X494003Y-815753D01*
G54D16*
X495780Y-810975D02*
X494003Y-810975D01*
G54D16*
X489026Y-815975D02*
X489026Y-807086D01*
X486803Y-807086D01*
X485914Y-807642D01*
X485470Y-808753D01*
X485470Y-809864D01*
X485914Y-810975D01*
X486803Y-811530D01*
X489026Y-811530D01*
G54D16*
X480359Y-810975D02*
X480359Y-815975D01*
G54D16*
X480359Y-814864D02*
X480803Y-815753D01*
X481692Y-815975D01*
X482581Y-815753D01*
X483026Y-814864D01*
X483026Y-810975D01*
G54D16*
X477914Y-815975D02*
X477914Y-807086D01*
G54D16*
X475470Y-815975D02*
X475470Y-807086D01*
G54D16*
X473026Y-812086D02*
X469471Y-812086D01*
G54D16*
X467026Y-807086D02*
X467026Y-814308D01*
X466582Y-815419D01*
X465693Y-815975D01*
X464804Y-815975D01*
X463915Y-815419D01*
X463471Y-814308D01*
X463471Y-807086D01*
G54D16*
X461026Y-810975D02*
X461026Y-818197D01*
G54D16*
X461026Y-814308D02*
X460582Y-815753D01*
X459693Y-815975D01*
X458804Y-815753D01*
X458360Y-814642D01*
X458360Y-812419D01*
X458804Y-811308D01*
X459693Y-810975D01*
X460582Y-811308D01*
X461026Y-812642D01*
M02*
