%FSLAX34Y34*%
%MOMM*%
%LNSILK_TOP*%
G71*
G01*
%ADD10C, 0.100*%
%ADD11C, 2.000*%
%ADD12C, 3.000*%
%ADD13C, 0.110*%
%ADD14C, 0.220*%
%LPD*%
G54D10*
X50787Y-15838D02*
X336537Y-15838D01*
X336537Y-288888D01*
X50787Y-288888D01*
X50787Y-15838D01*
G54D10*
X57137Y-60288D02*
X330187Y-60288D01*
X330187Y-250788D01*
X57137Y-250788D01*
X57137Y-60288D01*
G54D10*
X69837Y-72988D02*
X317487Y-72988D01*
X317487Y-180938D01*
X69837Y-180938D01*
X69837Y-72988D01*
G54D10*
X244462Y-41338D02*
X238162Y-47638D01*
X225362Y-47638D01*
X219062Y-41338D01*
X219062Y-28538D01*
X225362Y-22238D01*
X238162Y-22238D01*
X244462Y-28538D01*
X244462Y-41338D01*
G54D10*
X219062Y-41338D02*
X212762Y-47638D01*
X199962Y-47638D01*
X193662Y-41338D01*
X193662Y-28538D01*
X199962Y-22238D01*
X212762Y-22238D01*
X219062Y-28538D01*
X219062Y-41338D01*
G54D10*
X193662Y-41338D02*
X187362Y-47638D01*
X174562Y-47638D01*
X168262Y-41338D01*
X168262Y-28538D01*
X174562Y-22238D01*
X187362Y-22238D01*
X193662Y-28538D01*
X193662Y-41338D01*
G54D10*
X168262Y-41338D02*
X161962Y-47638D01*
X149162Y-47638D01*
X142862Y-41338D01*
X142862Y-28538D01*
X149162Y-22238D01*
X161962Y-22238D01*
X168262Y-28538D01*
X168262Y-41338D01*
X155562Y-34888D02*
G54D11*
D03*
X180962Y-34888D02*
G54D11*
D03*
X206362Y-34888D02*
G54D11*
D03*
X231762Y-34888D02*
G54D11*
D03*
X76187Y-34888D02*
G54D12*
D03*
X311137Y-34888D02*
G54D12*
D03*
X311137Y-269838D02*
G54D12*
D03*
X76187Y-269838D02*
G54D12*
D03*
G54D10*
X30187Y-321388D02*
X30187Y-329388D01*
X71387Y-329388D01*
X71387Y-321388D01*
G54D10*
G75*
G01X71487Y-321488D02*
G03X30087Y-321488I-20700J0D01*
G01*
G54D13*
X31640Y-335244D02*
X33418Y-335244D01*
X33418Y-338021D01*
X32973Y-339132D01*
X32084Y-339688D01*
X31195Y-339688D01*
X30306Y-339132D01*
X29862Y-338021D01*
X29862Y-332466D01*
X30306Y-331355D01*
X31195Y-330799D01*
X32084Y-330799D01*
X32973Y-331355D01*
X33418Y-332466D01*
G54D13*
X35862Y-339688D02*
X35862Y-334688D01*
G54D13*
X35862Y-335799D02*
X36306Y-335021D01*
X37195Y-334688D01*
X38084Y-335021D01*
X38529Y-335799D01*
X38529Y-339688D01*
G54D13*
X43629Y-339688D02*
X43629Y-330799D01*
G54D13*
X43629Y-336132D02*
X43184Y-335021D01*
X42295Y-334688D01*
X41406Y-335021D01*
X40962Y-336132D01*
X40962Y-338355D01*
X41406Y-339466D01*
X42295Y-339688D01*
X43184Y-339466D01*
X43629Y-338355D01*
G54D13*
X55737Y-330799D02*
X57959Y-339688D01*
X60181Y-330799D01*
G54D13*
X65204Y-339688D02*
X65204Y-330799D01*
G54D13*
X65204Y-336132D02*
X64759Y-335021D01*
X63870Y-334688D01*
X62981Y-335021D01*
X62537Y-336132D01*
X62537Y-338355D01*
X62981Y-339466D01*
X63870Y-339688D01*
X64759Y-339466D01*
X65204Y-338355D01*
G54D13*
X70304Y-339688D02*
X70304Y-330799D01*
G54D13*
X70304Y-336132D02*
X69859Y-335021D01*
X68970Y-334688D01*
X68081Y-335021D01*
X67637Y-336132D01*
X67637Y-338355D01*
X68081Y-339466D01*
X68970Y-339688D01*
X69859Y-339466D01*
X70304Y-338355D01*
G54D13*
X46337Y-290438D02*
X46337Y-299327D01*
X48559Y-299327D01*
X49448Y-298771D01*
X49893Y-297660D01*
X49893Y-292105D01*
X49448Y-290994D01*
X48559Y-290438D01*
X46337Y-290438D01*
G54D13*
X54115Y-292105D02*
X56337Y-290438D01*
G54D13*
X55893Y-297660D02*
X55893Y-292105D01*
X55448Y-290994D01*
X54559Y-290438D01*
X53670Y-290438D01*
X52781Y-290994D01*
X52337Y-292105D01*
X52337Y-297660D01*
X52781Y-298771D01*
X53670Y-299327D01*
X54559Y-299327D01*
X55448Y-298771D01*
X55893Y-297660D01*
G54D13*
X149837Y-49187D02*
X152059Y-58076D01*
X154281Y-49187D01*
G54D13*
X158859Y-53409D02*
X157970Y-53076D01*
X157081Y-53409D01*
X156637Y-54520D01*
X156637Y-56742D01*
X157081Y-57853D01*
X157970Y-58076D01*
X158859Y-57853D01*
G54D13*
X163459Y-53409D02*
X162570Y-53076D01*
X161681Y-53409D01*
X161237Y-54520D01*
X161237Y-56742D01*
X161681Y-57853D01*
X162570Y-58076D01*
X163459Y-57853D01*
G54D13*
X165837Y-58076D02*
X169393Y-49187D01*
G54D13*
X173615Y-53631D02*
X175393Y-53631D01*
X175393Y-56409D01*
X174948Y-57520D01*
X174059Y-58076D01*
X173170Y-58076D01*
X172281Y-57520D01*
X171837Y-56409D01*
X171837Y-50853D01*
X172281Y-49742D01*
X173170Y-49187D01*
X174059Y-49187D01*
X174948Y-49742D01*
X175393Y-50853D01*
G54D13*
X177837Y-58076D02*
X177837Y-53076D01*
G54D13*
X177837Y-54187D02*
X178281Y-53409D01*
X179170Y-53076D01*
X180059Y-53409D01*
X180504Y-54187D01*
X180504Y-58076D01*
G54D13*
X185604Y-58076D02*
X185604Y-49187D01*
G54D13*
X185604Y-54520D02*
X185159Y-53409D01*
X184270Y-53076D01*
X183381Y-53409D01*
X182937Y-54520D01*
X182937Y-56742D01*
X183381Y-57853D01*
X184270Y-58076D01*
X185159Y-57853D01*
X185604Y-56742D01*
G54D13*
X199687Y-56409D02*
X200131Y-57520D01*
X201020Y-58076D01*
X201909Y-58076D01*
X202798Y-57520D01*
X203243Y-56409D01*
X203243Y-55298D01*
X202798Y-54187D01*
X201909Y-53631D01*
X201020Y-53631D01*
X200131Y-53076D01*
X199687Y-51964D01*
X199687Y-50853D01*
X200131Y-49742D01*
X201020Y-49187D01*
X201909Y-49187D01*
X202798Y-49742D01*
X203243Y-50853D01*
G54D13*
X209243Y-56409D02*
X208798Y-57520D01*
X207909Y-58076D01*
X207020Y-58076D01*
X206131Y-57520D01*
X205687Y-56409D01*
X205687Y-50853D01*
X206131Y-49742D01*
X207020Y-49187D01*
X207909Y-49187D01*
X208798Y-49742D01*
X209243Y-50853D01*
G54D13*
X211687Y-49187D02*
X211687Y-58076D01*
X214798Y-58076D01*
G54D13*
X224350Y-56409D02*
X224794Y-57520D01*
X225683Y-58076D01*
X226572Y-58076D01*
X227461Y-57520D01*
X227905Y-56409D01*
X227905Y-55298D01*
X227461Y-54187D01*
X226572Y-53631D01*
X225683Y-53631D01*
X224794Y-53076D01*
X224350Y-51964D01*
X224350Y-50853D01*
X224794Y-49742D01*
X225683Y-49187D01*
X226572Y-49187D01*
X227461Y-49742D01*
X227905Y-50853D01*
G54D13*
X230350Y-58076D02*
X230350Y-49187D01*
X232572Y-49187D01*
X233461Y-49742D01*
X233905Y-50853D01*
X233905Y-56409D01*
X233461Y-57520D01*
X232572Y-58076D01*
X230350Y-58076D01*
G54D13*
X236350Y-58076D02*
X238572Y-49187D01*
X240794Y-58076D01*
G54D13*
X237238Y-54742D02*
X239905Y-54742D01*
G54D10*
X365906Y-289732D02*
X305506Y-289732D01*
X305506Y-350132D01*
X365906Y-350132D01*
X365906Y-289732D01*
G54D10*
G75*
G01X348443Y-319894D02*
G03X348443Y-319894I-12700J0D01*
G01*
G54D10*
X117962Y-273588D02*
X270362Y-273588D01*
X270362Y-425988D01*
X117962Y-425988D01*
X117962Y-273588D01*
G54D10*
X244462Y-406363D02*
X238162Y-400063D01*
X225362Y-400063D01*
X219062Y-406363D01*
X219062Y-419163D01*
X225362Y-425463D01*
X238162Y-425463D01*
X244462Y-419163D01*
X244462Y-406363D01*
G54D10*
X219062Y-406363D02*
X212762Y-400063D01*
X199962Y-400063D01*
X193662Y-406363D01*
X193662Y-419163D01*
X199962Y-425463D01*
X212762Y-425463D01*
X219062Y-419163D01*
X219062Y-406363D01*
G54D10*
X193662Y-406363D02*
X187362Y-400063D01*
X174562Y-400063D01*
X168262Y-406363D01*
X168262Y-419163D01*
X174562Y-425463D01*
X187362Y-425463D01*
X193662Y-419163D01*
X193662Y-406363D01*
G54D10*
X168262Y-406363D02*
X161962Y-400063D01*
X149162Y-400063D01*
X142862Y-406363D01*
X142862Y-419163D01*
X149162Y-425463D01*
X161962Y-425463D01*
X168262Y-419163D01*
X168262Y-406363D01*
G54D10*
X177737Y-295288D02*
X209487Y-295288D01*
X209487Y-327038D01*
X177737Y-327038D01*
X177737Y-295288D01*
G54D14*
X161300Y-368263D02*
X161300Y-350485D01*
G54D14*
X168411Y-368263D02*
X168411Y-350485D01*
G54D14*
X161300Y-359374D02*
X168411Y-359374D01*
G54D14*
X176855Y-368263D02*
X176855Y-350485D01*
G54D14*
X173300Y-350485D02*
X180411Y-350485D01*
G54D14*
X185300Y-350485D02*
X185300Y-364930D01*
X186188Y-367152D01*
X187966Y-368263D01*
X189744Y-368263D01*
X191522Y-367152D01*
X192411Y-364930D01*
X192411Y-350485D01*
G54D14*
X204411Y-368263D02*
X197300Y-368263D01*
X197300Y-367152D01*
X198188Y-364930D01*
X203522Y-358263D01*
X204411Y-356041D01*
X204411Y-353818D01*
X203522Y-351596D01*
X201744Y-350485D01*
X199966Y-350485D01*
X198188Y-351596D01*
X197300Y-353818D01*
G54D14*
X209300Y-357152D02*
X213744Y-350485D01*
X213744Y-368263D01*
G54D14*
X218600Y-368263D02*
X218600Y-350485D01*
X223044Y-350485D01*
X224822Y-351596D01*
X225711Y-353818D01*
X225711Y-364930D01*
X224822Y-367152D01*
X223044Y-368263D01*
X218600Y-368263D01*
G54D13*
X148162Y-385762D02*
X150384Y-394650D01*
X152606Y-385762D01*
G54D13*
X157184Y-389984D02*
X156295Y-389650D01*
X155406Y-389984D01*
X154962Y-391095D01*
X154962Y-393317D01*
X155406Y-394428D01*
X156295Y-394650D01*
X157184Y-394428D01*
G54D13*
X161784Y-389984D02*
X160895Y-389650D01*
X160006Y-389984D01*
X159562Y-391095D01*
X159562Y-393317D01*
X160006Y-394428D01*
X160895Y-394650D01*
X161784Y-394428D01*
G54D13*
X175702Y-390206D02*
X177480Y-390206D01*
X177480Y-392984D01*
X177036Y-394095D01*
X176147Y-394650D01*
X175258Y-394650D01*
X174369Y-394095D01*
X173924Y-392984D01*
X173924Y-387428D01*
X174369Y-386317D01*
X175258Y-385762D01*
X176147Y-385762D01*
X177036Y-386317D01*
X177480Y-387428D01*
G54D13*
X179924Y-394650D02*
X179924Y-389650D01*
G54D13*
X179924Y-390762D02*
X180369Y-389984D01*
X181258Y-389650D01*
X182147Y-389984D01*
X182591Y-390762D01*
X182591Y-394650D01*
G54D13*
X187691Y-394650D02*
X187691Y-385762D01*
G54D13*
X187691Y-391095D02*
X187247Y-389984D01*
X186358Y-389650D01*
X185469Y-389984D01*
X185024Y-391095D01*
X185024Y-393317D01*
X185469Y-394428D01*
X186358Y-394650D01*
X187247Y-394428D01*
X187691Y-393317D01*
G54D13*
X225062Y-392984D02*
X225506Y-394095D01*
X226395Y-394650D01*
X227284Y-394650D01*
X228173Y-394095D01*
X228618Y-392984D01*
X228618Y-391873D01*
X228173Y-390762D01*
X227284Y-390206D01*
X226395Y-390206D01*
X225506Y-389650D01*
X225062Y-388539D01*
X225062Y-387428D01*
X225506Y-386317D01*
X226395Y-385762D01*
X227284Y-385762D01*
X228173Y-386317D01*
X228618Y-387428D01*
G54D13*
X234618Y-392984D02*
X234173Y-394095D01*
X233284Y-394650D01*
X232395Y-394650D01*
X231506Y-394095D01*
X231062Y-392984D01*
X231062Y-387428D01*
X231506Y-386317D01*
X232395Y-385762D01*
X233284Y-385762D01*
X234173Y-386317D01*
X234618Y-387428D01*
G54D13*
X237062Y-385762D02*
X237062Y-394650D01*
X240173Y-394650D01*
G54D13*
X198924Y-392984D02*
X199369Y-394095D01*
X200258Y-394650D01*
X201147Y-394650D01*
X202036Y-394095D01*
X202480Y-392984D01*
X202480Y-391873D01*
X202036Y-390762D01*
X201147Y-390206D01*
X200258Y-390206D01*
X199369Y-389650D01*
X198924Y-388539D01*
X198924Y-387428D01*
X199369Y-386317D01*
X200258Y-385762D01*
X201147Y-385762D01*
X202036Y-386317D01*
X202480Y-387428D01*
G54D13*
X204924Y-394650D02*
X204924Y-385762D01*
X207147Y-385762D01*
X208036Y-386317D01*
X208480Y-387428D01*
X208480Y-392984D01*
X208036Y-394095D01*
X207147Y-394650D01*
X204924Y-394650D01*
G54D13*
X210924Y-394650D02*
X213147Y-385762D01*
X215369Y-394650D01*
G54D13*
X211813Y-391317D02*
X214480Y-391317D01*
G54D10*
X184137Y1624D02*
X184137Y-11076D01*
X203187Y-11076D01*
X203187Y1624D01*
G54D10*
X184200Y-438163D02*
X184200Y-425463D01*
X203250Y-425463D01*
X203250Y-438163D01*
G54D13*
X323850Y-360284D02*
X324516Y-361395D01*
X325850Y-361950D01*
X327183Y-361950D01*
X328516Y-361395D01*
X329183Y-360284D01*
X329183Y-359173D01*
X328516Y-358062D01*
X327183Y-357506D01*
X325850Y-357506D01*
X324516Y-356950D01*
X323850Y-355839D01*
X323850Y-354728D01*
X324516Y-353617D01*
X325850Y-353062D01*
X327183Y-353062D01*
X328516Y-353617D01*
X329183Y-354728D01*
G54D13*
X331550Y-353062D02*
X331550Y-361950D01*
X334883Y-356395D01*
X338216Y-361950D01*
X338216Y-353062D01*
G54D13*
X340650Y-356395D02*
X343983Y-353062D01*
X343983Y-361950D01*
G54D10*
X438137Y-15838D02*
X723887Y-15838D01*
X723887Y-288888D01*
X438137Y-288888D01*
X438137Y-15838D01*
G54D10*
X444487Y-60288D02*
X717537Y-60288D01*
X717537Y-250788D01*
X444487Y-250788D01*
X444487Y-60288D01*
G54D10*
X457187Y-72988D02*
X704837Y-72988D01*
X704837Y-180938D01*
X457187Y-180938D01*
X457187Y-72988D01*
G54D10*
X631812Y-41338D02*
X625512Y-47638D01*
X612712Y-47638D01*
X606412Y-41338D01*
X606412Y-28538D01*
X612712Y-22238D01*
X625512Y-22238D01*
X631812Y-28538D01*
X631812Y-41338D01*
G54D10*
X606412Y-41338D02*
X600112Y-47638D01*
X587312Y-47638D01*
X581012Y-41338D01*
X581012Y-28538D01*
X587312Y-22238D01*
X600112Y-22238D01*
X606412Y-28538D01*
X606412Y-41338D01*
G54D10*
X581012Y-41338D02*
X574712Y-47638D01*
X561912Y-47638D01*
X555612Y-41338D01*
X555612Y-28538D01*
X561912Y-22238D01*
X574712Y-22238D01*
X581012Y-28538D01*
X581012Y-41338D01*
G54D10*
X555612Y-41338D02*
X549312Y-47638D01*
X536512Y-47638D01*
X530212Y-41338D01*
X530212Y-28538D01*
X536512Y-22238D01*
X549312Y-22238D01*
X555612Y-28538D01*
X555612Y-41338D01*
X542912Y-34888D02*
G54D11*
D03*
X568312Y-34888D02*
G54D11*
D03*
X593712Y-34888D02*
G54D11*
D03*
X619112Y-34888D02*
G54D11*
D03*
X463537Y-34888D02*
G54D12*
D03*
X698487Y-34888D02*
G54D12*
D03*
X698487Y-269838D02*
G54D12*
D03*
X463537Y-269838D02*
G54D12*
D03*
G54D10*
X417537Y-321388D02*
X417537Y-329388D01*
X458737Y-329388D01*
X458737Y-321388D01*
G54D10*
G75*
G01X458837Y-321488D02*
G03X417437Y-321488I-20700J0D01*
G01*
G54D13*
X418990Y-335244D02*
X420768Y-335244D01*
X420768Y-338021D01*
X420323Y-339132D01*
X419434Y-339688D01*
X418545Y-339688D01*
X417656Y-339132D01*
X417212Y-338021D01*
X417212Y-332466D01*
X417656Y-331355D01*
X418545Y-330799D01*
X419434Y-330799D01*
X420323Y-331355D01*
X420768Y-332466D01*
G54D13*
X423212Y-339688D02*
X423212Y-334688D01*
G54D13*
X423212Y-335799D02*
X423656Y-335021D01*
X424545Y-334688D01*
X425434Y-335021D01*
X425879Y-335799D01*
X425879Y-339688D01*
G54D13*
X430979Y-339688D02*
X430979Y-330799D01*
G54D13*
X430979Y-336132D02*
X430534Y-335021D01*
X429645Y-334688D01*
X428756Y-335021D01*
X428312Y-336132D01*
X428312Y-338355D01*
X428756Y-339466D01*
X429645Y-339688D01*
X430534Y-339466D01*
X430979Y-338355D01*
G54D13*
X443087Y-330799D02*
X445309Y-339688D01*
X447531Y-330799D01*
G54D13*
X452554Y-339688D02*
X452554Y-330799D01*
G54D13*
X452554Y-336132D02*
X452109Y-335021D01*
X451220Y-334688D01*
X450331Y-335021D01*
X449887Y-336132D01*
X449887Y-338355D01*
X450331Y-339466D01*
X451220Y-339688D01*
X452109Y-339466D01*
X452554Y-338355D01*
G54D13*
X457654Y-339688D02*
X457654Y-330799D01*
G54D13*
X457654Y-336132D02*
X457209Y-335021D01*
X456320Y-334688D01*
X455431Y-335021D01*
X454987Y-336132D01*
X454987Y-338355D01*
X455431Y-339466D01*
X456320Y-339688D01*
X457209Y-339466D01*
X457654Y-338355D01*
G54D13*
X433687Y-290438D02*
X433687Y-299327D01*
X435909Y-299327D01*
X436798Y-298771D01*
X437243Y-297660D01*
X437243Y-292105D01*
X436798Y-290994D01*
X435909Y-290438D01*
X433687Y-290438D01*
G54D13*
X441465Y-292105D02*
X443687Y-290438D01*
G54D13*
X443243Y-297660D02*
X443243Y-292105D01*
X442798Y-290994D01*
X441909Y-290438D01*
X441020Y-290438D01*
X440131Y-290994D01*
X439687Y-292105D01*
X439687Y-297660D01*
X440131Y-298771D01*
X441020Y-299327D01*
X441909Y-299327D01*
X442798Y-298771D01*
X443243Y-297660D01*
G54D13*
X537187Y-49187D02*
X539409Y-58076D01*
X541631Y-49187D01*
G54D13*
X546209Y-53409D02*
X545320Y-53076D01*
X544431Y-53409D01*
X543987Y-54520D01*
X543987Y-56742D01*
X544431Y-57853D01*
X545320Y-58076D01*
X546209Y-57853D01*
G54D13*
X550809Y-53409D02*
X549920Y-53076D01*
X549031Y-53409D01*
X548587Y-54520D01*
X548587Y-56742D01*
X549031Y-57853D01*
X549920Y-58076D01*
X550809Y-57853D01*
G54D13*
X553187Y-58076D02*
X556743Y-49187D01*
G54D13*
X560965Y-53631D02*
X562743Y-53631D01*
X562743Y-56409D01*
X562298Y-57520D01*
X561409Y-58076D01*
X560520Y-58076D01*
X559631Y-57520D01*
X559187Y-56409D01*
X559187Y-50853D01*
X559631Y-49742D01*
X560520Y-49187D01*
X561409Y-49187D01*
X562298Y-49742D01*
X562743Y-50853D01*
G54D13*
X565187Y-58076D02*
X565187Y-53076D01*
G54D13*
X565187Y-54187D02*
X565631Y-53409D01*
X566520Y-53076D01*
X567409Y-53409D01*
X567854Y-54187D01*
X567854Y-58076D01*
G54D13*
X572954Y-58076D02*
X572954Y-49187D01*
G54D13*
X572954Y-54520D02*
X572509Y-53409D01*
X571620Y-53076D01*
X570731Y-53409D01*
X570287Y-54520D01*
X570287Y-56742D01*
X570731Y-57853D01*
X571620Y-58076D01*
X572509Y-57853D01*
X572954Y-56742D01*
G54D13*
X587037Y-56409D02*
X587481Y-57520D01*
X588370Y-58076D01*
X589259Y-58076D01*
X590148Y-57520D01*
X590593Y-56409D01*
X590593Y-55298D01*
X590148Y-54187D01*
X589259Y-53631D01*
X588370Y-53631D01*
X587481Y-53076D01*
X587037Y-51964D01*
X587037Y-50853D01*
X587481Y-49742D01*
X588370Y-49187D01*
X589259Y-49187D01*
X590148Y-49742D01*
X590593Y-50853D01*
G54D13*
X596593Y-56409D02*
X596148Y-57520D01*
X595259Y-58076D01*
X594370Y-58076D01*
X593481Y-57520D01*
X593037Y-56409D01*
X593037Y-50853D01*
X593481Y-49742D01*
X594370Y-49187D01*
X595259Y-49187D01*
X596148Y-49742D01*
X596593Y-50853D01*
G54D13*
X599037Y-49187D02*
X599037Y-58076D01*
X602148Y-58076D01*
G54D13*
X611700Y-56409D02*
X612144Y-57520D01*
X613033Y-58076D01*
X613922Y-58076D01*
X614811Y-57520D01*
X615255Y-56409D01*
X615255Y-55298D01*
X614811Y-54187D01*
X613922Y-53631D01*
X613033Y-53631D01*
X612144Y-53076D01*
X611700Y-51964D01*
X611700Y-50853D01*
X612144Y-49742D01*
X613033Y-49187D01*
X613922Y-49187D01*
X614811Y-49742D01*
X615255Y-50853D01*
G54D13*
X617700Y-58076D02*
X617700Y-49187D01*
X619922Y-49187D01*
X620811Y-49742D01*
X621255Y-50853D01*
X621255Y-56409D01*
X620811Y-57520D01*
X619922Y-58076D01*
X617700Y-58076D01*
G54D13*
X623700Y-58076D02*
X625922Y-49187D01*
X628144Y-58076D01*
G54D13*
X624588Y-54742D02*
X627255Y-54742D01*
G54D10*
X753256Y-289732D02*
X692856Y-289732D01*
X692856Y-350132D01*
X753256Y-350132D01*
X753256Y-289732D01*
G54D10*
G75*
G01X735793Y-319894D02*
G03X735793Y-319894I-12700J0D01*
G01*
G54D10*
X505312Y-273588D02*
X657712Y-273588D01*
X657712Y-425988D01*
X505312Y-425988D01*
X505312Y-273588D01*
G54D10*
X631812Y-406363D02*
X625512Y-400063D01*
X612712Y-400063D01*
X606412Y-406363D01*
X606412Y-419163D01*
X612712Y-425463D01*
X625512Y-425463D01*
X631812Y-419163D01*
X631812Y-406363D01*
G54D10*
X606412Y-406363D02*
X600112Y-400063D01*
X587312Y-400063D01*
X581012Y-406363D01*
X581012Y-419163D01*
X587312Y-425463D01*
X600112Y-425463D01*
X606412Y-419163D01*
X606412Y-406363D01*
G54D10*
X581012Y-406363D02*
X574712Y-400063D01*
X561912Y-400063D01*
X555612Y-406363D01*
X555612Y-419163D01*
X561912Y-425463D01*
X574712Y-425463D01*
X581012Y-419163D01*
X581012Y-406363D01*
G54D10*
X555612Y-406363D02*
X549312Y-400063D01*
X536512Y-400063D01*
X530212Y-406363D01*
X530212Y-419163D01*
X536512Y-425463D01*
X549312Y-425463D01*
X555612Y-419163D01*
X555612Y-406363D01*
G54D10*
X565087Y-295288D02*
X596837Y-295288D01*
X596837Y-327038D01*
X565087Y-327038D01*
X565087Y-295288D01*
G54D14*
X548650Y-368263D02*
X548650Y-350485D01*
G54D14*
X555761Y-368263D02*
X555761Y-350485D01*
G54D14*
X548650Y-359374D02*
X555761Y-359374D01*
G54D14*
X564205Y-368263D02*
X564205Y-350485D01*
G54D14*
X560650Y-350485D02*
X567761Y-350485D01*
G54D14*
X572650Y-350485D02*
X572650Y-364930D01*
X573538Y-367152D01*
X575316Y-368263D01*
X577094Y-368263D01*
X578872Y-367152D01*
X579761Y-364930D01*
X579761Y-350485D01*
G54D14*
X591761Y-368263D02*
X584650Y-368263D01*
X584650Y-367152D01*
X585538Y-364930D01*
X590872Y-358263D01*
X591761Y-356041D01*
X591761Y-353818D01*
X590872Y-351596D01*
X589094Y-350485D01*
X587316Y-350485D01*
X585538Y-351596D01*
X584650Y-353818D01*
G54D14*
X596650Y-357152D02*
X601094Y-350485D01*
X601094Y-368263D01*
G54D14*
X605950Y-368263D02*
X605950Y-350485D01*
X610394Y-350485D01*
X612172Y-351596D01*
X613061Y-353818D01*
X613061Y-364930D01*
X612172Y-367152D01*
X610394Y-368263D01*
X605950Y-368263D01*
G54D13*
X535512Y-385762D02*
X537734Y-394650D01*
X539956Y-385762D01*
G54D13*
X544534Y-389984D02*
X543645Y-389650D01*
X542756Y-389984D01*
X542312Y-391095D01*
X542312Y-393317D01*
X542756Y-394428D01*
X543645Y-394650D01*
X544534Y-394428D01*
G54D13*
X549134Y-389984D02*
X548245Y-389650D01*
X547356Y-389984D01*
X546912Y-391095D01*
X546912Y-393317D01*
X547356Y-394428D01*
X548245Y-394650D01*
X549134Y-394428D01*
G54D13*
X563052Y-390206D02*
X564830Y-390206D01*
X564830Y-392984D01*
X564386Y-394095D01*
X563497Y-394650D01*
X562608Y-394650D01*
X561719Y-394095D01*
X561274Y-392984D01*
X561274Y-387428D01*
X561719Y-386317D01*
X562608Y-385762D01*
X563497Y-385762D01*
X564386Y-386317D01*
X564830Y-387428D01*
G54D13*
X567274Y-394650D02*
X567274Y-389650D01*
G54D13*
X567274Y-390762D02*
X567719Y-389984D01*
X568608Y-389650D01*
X569497Y-389984D01*
X569941Y-390762D01*
X569941Y-394650D01*
G54D13*
X575041Y-394650D02*
X575041Y-385762D01*
G54D13*
X575041Y-391095D02*
X574597Y-389984D01*
X573708Y-389650D01*
X572819Y-389984D01*
X572374Y-391095D01*
X572374Y-393317D01*
X572819Y-394428D01*
X573708Y-394650D01*
X574597Y-394428D01*
X575041Y-393317D01*
G54D13*
X612412Y-392984D02*
X612856Y-394095D01*
X613745Y-394650D01*
X614634Y-394650D01*
X615523Y-394095D01*
X615968Y-392984D01*
X615968Y-391873D01*
X615523Y-390762D01*
X614634Y-390206D01*
X613745Y-390206D01*
X612856Y-389650D01*
X612412Y-388539D01*
X612412Y-387428D01*
X612856Y-386317D01*
X613745Y-385762D01*
X614634Y-385762D01*
X615523Y-386317D01*
X615968Y-387428D01*
G54D13*
X621968Y-392984D02*
X621523Y-394095D01*
X620634Y-394650D01*
X619745Y-394650D01*
X618856Y-394095D01*
X618412Y-392984D01*
X618412Y-387428D01*
X618856Y-386317D01*
X619745Y-385762D01*
X620634Y-385762D01*
X621523Y-386317D01*
X621968Y-387428D01*
G54D13*
X624412Y-385762D02*
X624412Y-394650D01*
X627523Y-394650D01*
G54D13*
X586274Y-392984D02*
X586719Y-394095D01*
X587608Y-394650D01*
X588497Y-394650D01*
X589386Y-394095D01*
X589830Y-392984D01*
X589830Y-391873D01*
X589386Y-390762D01*
X588497Y-390206D01*
X587608Y-390206D01*
X586719Y-389650D01*
X586274Y-388539D01*
X586274Y-387428D01*
X586719Y-386317D01*
X587608Y-385762D01*
X588497Y-385762D01*
X589386Y-386317D01*
X589830Y-387428D01*
G54D13*
X592274Y-394650D02*
X592274Y-385762D01*
X594497Y-385762D01*
X595386Y-386317D01*
X595830Y-387428D01*
X595830Y-392984D01*
X595386Y-394095D01*
X594497Y-394650D01*
X592274Y-394650D01*
G54D13*
X598274Y-394650D02*
X600497Y-385762D01*
X602719Y-394650D01*
G54D13*
X599163Y-391317D02*
X601830Y-391317D01*
G54D10*
X571487Y1624D02*
X571487Y-11076D01*
X590537Y-11076D01*
X590537Y1624D01*
G54D10*
X571550Y-438163D02*
X571550Y-425463D01*
X590600Y-425463D01*
X590600Y-438163D01*
G54D13*
X711200Y-360284D02*
X711866Y-361395D01*
X713200Y-361950D01*
X714533Y-361950D01*
X715866Y-361395D01*
X716533Y-360284D01*
X716533Y-359173D01*
X715866Y-358062D01*
X714533Y-357506D01*
X713200Y-357506D01*
X711866Y-356950D01*
X711200Y-355839D01*
X711200Y-354728D01*
X711866Y-353617D01*
X713200Y-353062D01*
X714533Y-353062D01*
X715866Y-353617D01*
X716533Y-354728D01*
G54D13*
X718900Y-353062D02*
X718900Y-361950D01*
X722233Y-356395D01*
X725566Y-361950D01*
X725566Y-353062D01*
G54D13*
X728000Y-356395D02*
X731333Y-353062D01*
X731333Y-361950D01*
G54D10*
X50787Y-452400D02*
X336537Y-452400D01*
X336537Y-725450D01*
X50787Y-725450D01*
X50787Y-452400D01*
G54D10*
X57137Y-496850D02*
X330187Y-496850D01*
X330187Y-687350D01*
X57137Y-687350D01*
X57137Y-496850D01*
G54D10*
X69837Y-509550D02*
X317487Y-509550D01*
X317487Y-617500D01*
X69837Y-617500D01*
X69837Y-509550D01*
G54D10*
X244462Y-477900D02*
X238162Y-484200D01*
X225362Y-484200D01*
X219062Y-477900D01*
X219062Y-465100D01*
X225362Y-458800D01*
X238162Y-458800D01*
X244462Y-465100D01*
X244462Y-477900D01*
G54D10*
X219062Y-477900D02*
X212762Y-484200D01*
X199962Y-484200D01*
X193662Y-477900D01*
X193662Y-465100D01*
X199962Y-458800D01*
X212762Y-458800D01*
X219062Y-465100D01*
X219062Y-477900D01*
G54D10*
X193662Y-477900D02*
X187362Y-484200D01*
X174562Y-484200D01*
X168262Y-477900D01*
X168262Y-465100D01*
X174562Y-458800D01*
X187362Y-458800D01*
X193662Y-465100D01*
X193662Y-477900D01*
G54D10*
X168262Y-477900D02*
X161962Y-484200D01*
X149162Y-484200D01*
X142862Y-477900D01*
X142862Y-465100D01*
X149162Y-458800D01*
X161962Y-458800D01*
X168262Y-465100D01*
X168262Y-477900D01*
X155562Y-471450D02*
G54D11*
D03*
X180962Y-471450D02*
G54D11*
D03*
X206362Y-471450D02*
G54D11*
D03*
X231762Y-471450D02*
G54D11*
D03*
X76187Y-471450D02*
G54D12*
D03*
X311137Y-471450D02*
G54D12*
D03*
X311137Y-706400D02*
G54D12*
D03*
X76187Y-706400D02*
G54D12*
D03*
G54D10*
X30187Y-757950D02*
X30187Y-765950D01*
X71387Y-765950D01*
X71387Y-757950D01*
G54D10*
G75*
G01X71487Y-758050D02*
G03X30087Y-758050I-20700J0D01*
G01*
G54D13*
X31640Y-771806D02*
X33418Y-771806D01*
X33418Y-774584D01*
X32973Y-775695D01*
X32084Y-776250D01*
X31195Y-776250D01*
X30306Y-775695D01*
X29862Y-774584D01*
X29862Y-769028D01*
X30306Y-767917D01*
X31195Y-767362D01*
X32084Y-767362D01*
X32973Y-767917D01*
X33418Y-769028D01*
G54D13*
X35862Y-776250D02*
X35862Y-771250D01*
G54D13*
X35862Y-772362D02*
X36306Y-771584D01*
X37195Y-771250D01*
X38084Y-771584D01*
X38529Y-772362D01*
X38529Y-776250D01*
G54D13*
X43629Y-776250D02*
X43629Y-767362D01*
G54D13*
X43629Y-772695D02*
X43184Y-771584D01*
X42295Y-771250D01*
X41406Y-771584D01*
X40962Y-772695D01*
X40962Y-774917D01*
X41406Y-776028D01*
X42295Y-776250D01*
X43184Y-776028D01*
X43629Y-774917D01*
G54D13*
X55737Y-767362D02*
X57959Y-776250D01*
X60181Y-767362D01*
G54D13*
X65204Y-776250D02*
X65204Y-767362D01*
G54D13*
X65204Y-772695D02*
X64759Y-771584D01*
X63870Y-771250D01*
X62981Y-771584D01*
X62537Y-772695D01*
X62537Y-774917D01*
X62981Y-776028D01*
X63870Y-776250D01*
X64759Y-776028D01*
X65204Y-774917D01*
G54D13*
X70304Y-776250D02*
X70304Y-767362D01*
G54D13*
X70304Y-772695D02*
X69859Y-771584D01*
X68970Y-771250D01*
X68081Y-771584D01*
X67637Y-772695D01*
X67637Y-774917D01*
X68081Y-776028D01*
X68970Y-776250D01*
X69859Y-776028D01*
X70304Y-774917D01*
G54D13*
X46337Y-727000D02*
X46337Y-735890D01*
X48559Y-735890D01*
X49448Y-735334D01*
X49893Y-734223D01*
X49893Y-728667D01*
X49448Y-727556D01*
X48559Y-727000D01*
X46337Y-727000D01*
G54D13*
X54115Y-728667D02*
X56337Y-727000D01*
G54D13*
X55893Y-734223D02*
X55893Y-728667D01*
X55448Y-727556D01*
X54559Y-727000D01*
X53670Y-727000D01*
X52781Y-727556D01*
X52337Y-728667D01*
X52337Y-734223D01*
X52781Y-735334D01*
X53670Y-735890D01*
X54559Y-735890D01*
X55448Y-735334D01*
X55893Y-734223D01*
G54D13*
X149837Y-485749D02*
X152059Y-494638D01*
X154281Y-485749D01*
G54D13*
X158859Y-489971D02*
X157970Y-489638D01*
X157081Y-489971D01*
X156637Y-491082D01*
X156637Y-493305D01*
X157081Y-494416D01*
X157970Y-494638D01*
X158859Y-494416D01*
G54D13*
X163459Y-489971D02*
X162570Y-489638D01*
X161681Y-489971D01*
X161237Y-491082D01*
X161237Y-493305D01*
X161681Y-494416D01*
X162570Y-494638D01*
X163459Y-494416D01*
G54D13*
X165837Y-494638D02*
X169393Y-485749D01*
G54D13*
X173615Y-490194D02*
X175393Y-490194D01*
X175393Y-492971D01*
X174948Y-494082D01*
X174059Y-494638D01*
X173170Y-494638D01*
X172281Y-494082D01*
X171837Y-492971D01*
X171837Y-487416D01*
X172281Y-486305D01*
X173170Y-485749D01*
X174059Y-485749D01*
X174948Y-486305D01*
X175393Y-487416D01*
G54D13*
X177837Y-494638D02*
X177837Y-489638D01*
G54D13*
X177837Y-490749D02*
X178281Y-489971D01*
X179170Y-489638D01*
X180059Y-489971D01*
X180504Y-490749D01*
X180504Y-494638D01*
G54D13*
X185604Y-494638D02*
X185604Y-485749D01*
G54D13*
X185604Y-491082D02*
X185159Y-489971D01*
X184270Y-489638D01*
X183381Y-489971D01*
X182937Y-491082D01*
X182937Y-493305D01*
X183381Y-494416D01*
X184270Y-494638D01*
X185159Y-494416D01*
X185604Y-493305D01*
G54D13*
X199687Y-492971D02*
X200131Y-494082D01*
X201020Y-494638D01*
X201909Y-494638D01*
X202798Y-494082D01*
X203243Y-492971D01*
X203243Y-491860D01*
X202798Y-490749D01*
X201909Y-490194D01*
X201020Y-490194D01*
X200131Y-489638D01*
X199687Y-488527D01*
X199687Y-487416D01*
X200131Y-486305D01*
X201020Y-485749D01*
X201909Y-485749D01*
X202798Y-486305D01*
X203243Y-487416D01*
G54D13*
X209243Y-492971D02*
X208798Y-494082D01*
X207909Y-494638D01*
X207020Y-494638D01*
X206131Y-494082D01*
X205687Y-492971D01*
X205687Y-487416D01*
X206131Y-486305D01*
X207020Y-485749D01*
X207909Y-485749D01*
X208798Y-486305D01*
X209243Y-487416D01*
G54D13*
X211687Y-485749D02*
X211687Y-494638D01*
X214798Y-494638D01*
G54D13*
X224350Y-492971D02*
X224794Y-494082D01*
X225683Y-494638D01*
X226572Y-494638D01*
X227461Y-494082D01*
X227905Y-492971D01*
X227905Y-491860D01*
X227461Y-490749D01*
X226572Y-490194D01*
X225683Y-490194D01*
X224794Y-489638D01*
X224350Y-488527D01*
X224350Y-487416D01*
X224794Y-486305D01*
X225683Y-485749D01*
X226572Y-485749D01*
X227461Y-486305D01*
X227905Y-487416D01*
G54D13*
X230350Y-494638D02*
X230350Y-485749D01*
X232572Y-485749D01*
X233461Y-486305D01*
X233905Y-487416D01*
X233905Y-492971D01*
X233461Y-494082D01*
X232572Y-494638D01*
X230350Y-494638D01*
G54D13*
X236350Y-494638D02*
X238572Y-485749D01*
X240794Y-494638D01*
G54D13*
X237238Y-491305D02*
X239905Y-491305D01*
G54D10*
X365906Y-726294D02*
X305506Y-726294D01*
X305506Y-786694D01*
X365906Y-786694D01*
X365906Y-726294D01*
G54D10*
G75*
G01X348443Y-756457D02*
G03X348443Y-756457I-12700J0D01*
G01*
G54D10*
X117962Y-710150D02*
X270362Y-710150D01*
X270362Y-862550D01*
X117962Y-862550D01*
X117962Y-710150D01*
G54D10*
X244462Y-842926D02*
X238162Y-836626D01*
X225362Y-836626D01*
X219062Y-842926D01*
X219062Y-855726D01*
X225362Y-862026D01*
X238162Y-862026D01*
X244462Y-855726D01*
X244462Y-842926D01*
G54D10*
X219062Y-842926D02*
X212762Y-836626D01*
X199962Y-836626D01*
X193662Y-842926D01*
X193662Y-855726D01*
X199962Y-862026D01*
X212762Y-862026D01*
X219062Y-855726D01*
X219062Y-842926D01*
G54D10*
X193662Y-842926D02*
X187362Y-836626D01*
X174562Y-836626D01*
X168262Y-842926D01*
X168262Y-855726D01*
X174562Y-862026D01*
X187362Y-862026D01*
X193662Y-855726D01*
X193662Y-842926D01*
G54D10*
X168262Y-842926D02*
X161962Y-836626D01*
X149162Y-836626D01*
X142862Y-842926D01*
X142862Y-855726D01*
X149162Y-862026D01*
X161962Y-862026D01*
X168262Y-855726D01*
X168262Y-842926D01*
G54D10*
X177737Y-731850D02*
X209487Y-731850D01*
X209487Y-763600D01*
X177737Y-763600D01*
X177737Y-731850D01*
G54D14*
X161300Y-804826D02*
X161300Y-787048D01*
G54D14*
X168411Y-804826D02*
X168411Y-787048D01*
G54D14*
X161300Y-795937D02*
X168411Y-795937D01*
G54D14*
X176855Y-804826D02*
X176855Y-787048D01*
G54D14*
X173300Y-787048D02*
X180411Y-787048D01*
G54D14*
X185300Y-787048D02*
X185300Y-801492D01*
X186188Y-803714D01*
X187966Y-804826D01*
X189744Y-804826D01*
X191522Y-803714D01*
X192411Y-801492D01*
X192411Y-787048D01*
G54D14*
X204411Y-804826D02*
X197300Y-804826D01*
X197300Y-803714D01*
X198188Y-801492D01*
X203522Y-794826D01*
X204411Y-792603D01*
X204411Y-790381D01*
X203522Y-788159D01*
X201744Y-787048D01*
X199966Y-787048D01*
X198188Y-788159D01*
X197300Y-790381D01*
G54D14*
X209300Y-793714D02*
X213744Y-787048D01*
X213744Y-804826D01*
G54D14*
X218600Y-804826D02*
X218600Y-787048D01*
X223044Y-787048D01*
X224822Y-788159D01*
X225711Y-790381D01*
X225711Y-801492D01*
X224822Y-803714D01*
X223044Y-804826D01*
X218600Y-804826D01*
G54D13*
X148162Y-822324D02*
X150384Y-831213D01*
X152606Y-822324D01*
G54D13*
X157184Y-826546D02*
X156295Y-826213D01*
X155406Y-826546D01*
X154962Y-827657D01*
X154962Y-829880D01*
X155406Y-830991D01*
X156295Y-831213D01*
X157184Y-830991D01*
G54D13*
X161784Y-826546D02*
X160895Y-826213D01*
X160006Y-826546D01*
X159562Y-827657D01*
X159562Y-829880D01*
X160006Y-830991D01*
X160895Y-831213D01*
X161784Y-830991D01*
G54D13*
X175702Y-826768D02*
X177480Y-826768D01*
X177480Y-829546D01*
X177036Y-830657D01*
X176147Y-831213D01*
X175258Y-831213D01*
X174369Y-830657D01*
X173924Y-829546D01*
X173924Y-823991D01*
X174369Y-822880D01*
X175258Y-822324D01*
X176147Y-822324D01*
X177036Y-822880D01*
X177480Y-823991D01*
G54D13*
X179924Y-831213D02*
X179924Y-826213D01*
G54D13*
X179924Y-827324D02*
X180369Y-826546D01*
X181258Y-826213D01*
X182147Y-826546D01*
X182591Y-827324D01*
X182591Y-831213D01*
G54D13*
X187691Y-831213D02*
X187691Y-822324D01*
G54D13*
X187691Y-827657D02*
X187247Y-826546D01*
X186358Y-826213D01*
X185469Y-826546D01*
X185024Y-827657D01*
X185024Y-829880D01*
X185469Y-830991D01*
X186358Y-831213D01*
X187247Y-830991D01*
X187691Y-829880D01*
G54D13*
X225062Y-829546D02*
X225506Y-830657D01*
X226395Y-831213D01*
X227284Y-831213D01*
X228173Y-830657D01*
X228618Y-829546D01*
X228618Y-828435D01*
X228173Y-827324D01*
X227284Y-826768D01*
X226395Y-826768D01*
X225506Y-826213D01*
X225062Y-825102D01*
X225062Y-823991D01*
X225506Y-822880D01*
X226395Y-822324D01*
X227284Y-822324D01*
X228173Y-822880D01*
X228618Y-823991D01*
G54D13*
X234618Y-829546D02*
X234173Y-830657D01*
X233284Y-831213D01*
X232395Y-831213D01*
X231506Y-830657D01*
X231062Y-829546D01*
X231062Y-823991D01*
X231506Y-822880D01*
X232395Y-822324D01*
X233284Y-822324D01*
X234173Y-822880D01*
X234618Y-823991D01*
G54D13*
X237062Y-822324D02*
X237062Y-831213D01*
X240173Y-831213D01*
G54D13*
X198924Y-829546D02*
X199369Y-830657D01*
X200258Y-831213D01*
X201147Y-831213D01*
X202036Y-830657D01*
X202480Y-829546D01*
X202480Y-828435D01*
X202036Y-827324D01*
X201147Y-826768D01*
X200258Y-826768D01*
X199369Y-826213D01*
X198924Y-825102D01*
X198924Y-823991D01*
X199369Y-822880D01*
X200258Y-822324D01*
X201147Y-822324D01*
X202036Y-822880D01*
X202480Y-823991D01*
G54D13*
X204924Y-831213D02*
X204924Y-822324D01*
X207147Y-822324D01*
X208036Y-822880D01*
X208480Y-823991D01*
X208480Y-829546D01*
X208036Y-830657D01*
X207147Y-831213D01*
X204924Y-831213D01*
G54D13*
X210924Y-831213D02*
X213147Y-822324D01*
X215369Y-831213D01*
G54D13*
X211813Y-827880D02*
X214480Y-827880D01*
G54D10*
X184137Y-434938D02*
X184137Y-447638D01*
X203187Y-447638D01*
X203187Y-434938D01*
G54D10*
X184200Y-874726D02*
X184200Y-862026D01*
X203250Y-862026D01*
X203250Y-874726D01*
G54D13*
X323850Y-796846D02*
X324516Y-797957D01*
X325850Y-798513D01*
X327183Y-798513D01*
X328516Y-797957D01*
X329183Y-796846D01*
X329183Y-795735D01*
X328516Y-794624D01*
X327183Y-794068D01*
X325850Y-794068D01*
X324516Y-793513D01*
X323850Y-792402D01*
X323850Y-791291D01*
X324516Y-790180D01*
X325850Y-789624D01*
X327183Y-789624D01*
X328516Y-790180D01*
X329183Y-791291D01*
G54D13*
X331550Y-789624D02*
X331550Y-798513D01*
X334883Y-792957D01*
X338216Y-798513D01*
X338216Y-789624D01*
G54D13*
X340650Y-792957D02*
X343983Y-789624D01*
X343983Y-798513D01*
G54D10*
X438137Y-452400D02*
X723887Y-452400D01*
X723887Y-725450D01*
X438137Y-725450D01*
X438137Y-452400D01*
G54D10*
X444487Y-496850D02*
X717537Y-496850D01*
X717537Y-687350D01*
X444487Y-687350D01*
X444487Y-496850D01*
G54D10*
X457187Y-509550D02*
X704837Y-509550D01*
X704837Y-617500D01*
X457187Y-617500D01*
X457187Y-509550D01*
G54D10*
X631812Y-477900D02*
X625512Y-484200D01*
X612712Y-484200D01*
X606412Y-477900D01*
X606412Y-465100D01*
X612712Y-458800D01*
X625512Y-458800D01*
X631812Y-465100D01*
X631812Y-477900D01*
G54D10*
X606412Y-477900D02*
X600112Y-484200D01*
X587312Y-484200D01*
X581012Y-477900D01*
X581012Y-465100D01*
X587312Y-458800D01*
X600112Y-458800D01*
X606412Y-465100D01*
X606412Y-477900D01*
G54D10*
X581012Y-477900D02*
X574712Y-484200D01*
X561912Y-484200D01*
X555612Y-477900D01*
X555612Y-465100D01*
X561912Y-458800D01*
X574712Y-458800D01*
X581012Y-465100D01*
X581012Y-477900D01*
G54D10*
X555612Y-477900D02*
X549312Y-484200D01*
X536512Y-484200D01*
X530212Y-477900D01*
X530212Y-465100D01*
X536512Y-458800D01*
X549312Y-458800D01*
X555612Y-465100D01*
X555612Y-477900D01*
X542912Y-471450D02*
G54D11*
D03*
X568312Y-471450D02*
G54D11*
D03*
X593712Y-471450D02*
G54D11*
D03*
X619112Y-471450D02*
G54D11*
D03*
X463537Y-471450D02*
G54D12*
D03*
X698487Y-471450D02*
G54D12*
D03*
X698487Y-706400D02*
G54D12*
D03*
X463537Y-706400D02*
G54D12*
D03*
G54D10*
X417537Y-757950D02*
X417537Y-765950D01*
X458737Y-765950D01*
X458737Y-757950D01*
G54D10*
G75*
G01X458837Y-758050D02*
G03X417437Y-758050I-20700J0D01*
G01*
G54D13*
X418990Y-771806D02*
X420768Y-771806D01*
X420768Y-774584D01*
X420323Y-775695D01*
X419434Y-776250D01*
X418545Y-776250D01*
X417656Y-775695D01*
X417212Y-774584D01*
X417212Y-769028D01*
X417656Y-767917D01*
X418545Y-767362D01*
X419434Y-767362D01*
X420323Y-767917D01*
X420768Y-769028D01*
G54D13*
X423212Y-776250D02*
X423212Y-771250D01*
G54D13*
X423212Y-772362D02*
X423656Y-771584D01*
X424545Y-771250D01*
X425434Y-771584D01*
X425879Y-772362D01*
X425879Y-776250D01*
G54D13*
X430979Y-776250D02*
X430979Y-767362D01*
G54D13*
X430979Y-772695D02*
X430534Y-771584D01*
X429645Y-771250D01*
X428756Y-771584D01*
X428312Y-772695D01*
X428312Y-774917D01*
X428756Y-776028D01*
X429645Y-776250D01*
X430534Y-776028D01*
X430979Y-774917D01*
G54D13*
X443087Y-767362D02*
X445309Y-776250D01*
X447531Y-767362D01*
G54D13*
X452554Y-776250D02*
X452554Y-767362D01*
G54D13*
X452554Y-772695D02*
X452109Y-771584D01*
X451220Y-771250D01*
X450331Y-771584D01*
X449887Y-772695D01*
X449887Y-774917D01*
X450331Y-776028D01*
X451220Y-776250D01*
X452109Y-776028D01*
X452554Y-774917D01*
G54D13*
X457654Y-776250D02*
X457654Y-767362D01*
G54D13*
X457654Y-772695D02*
X457209Y-771584D01*
X456320Y-771250D01*
X455431Y-771584D01*
X454987Y-772695D01*
X454987Y-774917D01*
X455431Y-776028D01*
X456320Y-776250D01*
X457209Y-776028D01*
X457654Y-774917D01*
G54D13*
X433687Y-727000D02*
X433687Y-735890D01*
X435909Y-735890D01*
X436798Y-735334D01*
X437243Y-734223D01*
X437243Y-728667D01*
X436798Y-727556D01*
X435909Y-727000D01*
X433687Y-727000D01*
G54D13*
X441465Y-728667D02*
X443687Y-727000D01*
G54D13*
X443243Y-734223D02*
X443243Y-728667D01*
X442798Y-727556D01*
X441909Y-727000D01*
X441020Y-727000D01*
X440131Y-727556D01*
X439687Y-728667D01*
X439687Y-734223D01*
X440131Y-735334D01*
X441020Y-735890D01*
X441909Y-735890D01*
X442798Y-735334D01*
X443243Y-734223D01*
G54D13*
X537187Y-485749D02*
X539409Y-494638D01*
X541631Y-485749D01*
G54D13*
X546209Y-489971D02*
X545320Y-489638D01*
X544431Y-489971D01*
X543987Y-491082D01*
X543987Y-493305D01*
X544431Y-494416D01*
X545320Y-494638D01*
X546209Y-494416D01*
G54D13*
X550809Y-489971D02*
X549920Y-489638D01*
X549031Y-489971D01*
X548587Y-491082D01*
X548587Y-493305D01*
X549031Y-494416D01*
X549920Y-494638D01*
X550809Y-494416D01*
G54D13*
X553187Y-494638D02*
X556743Y-485749D01*
G54D13*
X560965Y-490194D02*
X562743Y-490194D01*
X562743Y-492971D01*
X562298Y-494082D01*
X561409Y-494638D01*
X560520Y-494638D01*
X559631Y-494082D01*
X559187Y-492971D01*
X559187Y-487416D01*
X559631Y-486305D01*
X560520Y-485749D01*
X561409Y-485749D01*
X562298Y-486305D01*
X562743Y-487416D01*
G54D13*
X565187Y-494638D02*
X565187Y-489638D01*
G54D13*
X565187Y-490749D02*
X565631Y-489971D01*
X566520Y-489638D01*
X567409Y-489971D01*
X567854Y-490749D01*
X567854Y-494638D01*
G54D13*
X572954Y-494638D02*
X572954Y-485749D01*
G54D13*
X572954Y-491082D02*
X572509Y-489971D01*
X571620Y-489638D01*
X570731Y-489971D01*
X570287Y-491082D01*
X570287Y-493305D01*
X570731Y-494416D01*
X571620Y-494638D01*
X572509Y-494416D01*
X572954Y-493305D01*
G54D13*
X587037Y-492971D02*
X587481Y-494082D01*
X588370Y-494638D01*
X589259Y-494638D01*
X590148Y-494082D01*
X590593Y-492971D01*
X590593Y-491860D01*
X590148Y-490749D01*
X589259Y-490194D01*
X588370Y-490194D01*
X587481Y-489638D01*
X587037Y-488527D01*
X587037Y-487416D01*
X587481Y-486305D01*
X588370Y-485749D01*
X589259Y-485749D01*
X590148Y-486305D01*
X590593Y-487416D01*
G54D13*
X596593Y-492971D02*
X596148Y-494082D01*
X595259Y-494638D01*
X594370Y-494638D01*
X593481Y-494082D01*
X593037Y-492971D01*
X593037Y-487416D01*
X593481Y-486305D01*
X594370Y-485749D01*
X595259Y-485749D01*
X596148Y-486305D01*
X596593Y-487416D01*
G54D13*
X599037Y-485749D02*
X599037Y-494638D01*
X602148Y-494638D01*
G54D13*
X611700Y-492971D02*
X612144Y-494082D01*
X613033Y-494638D01*
X613922Y-494638D01*
X614811Y-494082D01*
X615255Y-492971D01*
X615255Y-491860D01*
X614811Y-490749D01*
X613922Y-490194D01*
X613033Y-490194D01*
X612144Y-489638D01*
X611700Y-488527D01*
X611700Y-487416D01*
X612144Y-486305D01*
X613033Y-485749D01*
X613922Y-485749D01*
X614811Y-486305D01*
X615255Y-487416D01*
G54D13*
X617700Y-494638D02*
X617700Y-485749D01*
X619922Y-485749D01*
X620811Y-486305D01*
X621255Y-487416D01*
X621255Y-492971D01*
X620811Y-494082D01*
X619922Y-494638D01*
X617700Y-494638D01*
G54D13*
X623700Y-494638D02*
X625922Y-485749D01*
X628144Y-494638D01*
G54D13*
X624588Y-491305D02*
X627255Y-491305D01*
G54D10*
X753256Y-726294D02*
X692856Y-726294D01*
X692856Y-786694D01*
X753256Y-786694D01*
X753256Y-726294D01*
G54D10*
G75*
G01X735793Y-756457D02*
G03X735793Y-756457I-12700J0D01*
G01*
G54D10*
X505312Y-710150D02*
X657712Y-710150D01*
X657712Y-862550D01*
X505312Y-862550D01*
X505312Y-710150D01*
G54D10*
X631812Y-842926D02*
X625512Y-836626D01*
X612712Y-836626D01*
X606412Y-842926D01*
X606412Y-855726D01*
X612712Y-862026D01*
X625512Y-862026D01*
X631812Y-855726D01*
X631812Y-842926D01*
G54D10*
X606412Y-842926D02*
X600112Y-836626D01*
X587312Y-836626D01*
X581012Y-842926D01*
X581012Y-855726D01*
X587312Y-862026D01*
X600112Y-862026D01*
X606412Y-855726D01*
X606412Y-842926D01*
G54D10*
X581012Y-842926D02*
X574712Y-836626D01*
X561912Y-836626D01*
X555612Y-842926D01*
X555612Y-855726D01*
X561912Y-862026D01*
X574712Y-862026D01*
X581012Y-855726D01*
X581012Y-842926D01*
G54D10*
X555612Y-842926D02*
X549312Y-836626D01*
X536512Y-836626D01*
X530212Y-842926D01*
X530212Y-855726D01*
X536512Y-862026D01*
X549312Y-862026D01*
X555612Y-855726D01*
X555612Y-842926D01*
G54D10*
X565087Y-731850D02*
X596837Y-731850D01*
X596837Y-763600D01*
X565087Y-763600D01*
X565087Y-731850D01*
G54D14*
X548650Y-804826D02*
X548650Y-787048D01*
G54D14*
X555761Y-804826D02*
X555761Y-787048D01*
G54D14*
X548650Y-795937D02*
X555761Y-795937D01*
G54D14*
X564205Y-804826D02*
X564205Y-787048D01*
G54D14*
X560650Y-787048D02*
X567761Y-787048D01*
G54D14*
X572650Y-787048D02*
X572650Y-801492D01*
X573538Y-803714D01*
X575316Y-804826D01*
X577094Y-804826D01*
X578872Y-803714D01*
X579761Y-801492D01*
X579761Y-787048D01*
G54D14*
X591761Y-804826D02*
X584650Y-804826D01*
X584650Y-803714D01*
X585538Y-801492D01*
X590872Y-794826D01*
X591761Y-792603D01*
X591761Y-790381D01*
X590872Y-788159D01*
X589094Y-787048D01*
X587316Y-787048D01*
X585538Y-788159D01*
X584650Y-790381D01*
G54D14*
X596650Y-793714D02*
X601094Y-787048D01*
X601094Y-804826D01*
G54D14*
X605950Y-804826D02*
X605950Y-787048D01*
X610394Y-787048D01*
X612172Y-788159D01*
X613061Y-790381D01*
X613061Y-801492D01*
X612172Y-803714D01*
X610394Y-804826D01*
X605950Y-804826D01*
G54D13*
X535512Y-822324D02*
X537734Y-831213D01*
X539956Y-822324D01*
G54D13*
X544534Y-826546D02*
X543645Y-826213D01*
X542756Y-826546D01*
X542312Y-827657D01*
X542312Y-829880D01*
X542756Y-830991D01*
X543645Y-831213D01*
X544534Y-830991D01*
G54D13*
X549134Y-826546D02*
X548245Y-826213D01*
X547356Y-826546D01*
X546912Y-827657D01*
X546912Y-829880D01*
X547356Y-830991D01*
X548245Y-831213D01*
X549134Y-830991D01*
G54D13*
X563052Y-826768D02*
X564830Y-826768D01*
X564830Y-829546D01*
X564386Y-830657D01*
X563497Y-831213D01*
X562608Y-831213D01*
X561719Y-830657D01*
X561274Y-829546D01*
X561274Y-823991D01*
X561719Y-822880D01*
X562608Y-822324D01*
X563497Y-822324D01*
X564386Y-822880D01*
X564830Y-823991D01*
G54D13*
X567274Y-831213D02*
X567274Y-826213D01*
G54D13*
X567274Y-827324D02*
X567719Y-826546D01*
X568608Y-826213D01*
X569497Y-826546D01*
X569941Y-827324D01*
X569941Y-831213D01*
G54D13*
X575041Y-831213D02*
X575041Y-822324D01*
G54D13*
X575041Y-827657D02*
X574597Y-826546D01*
X573708Y-826213D01*
X572819Y-826546D01*
X572374Y-827657D01*
X572374Y-829880D01*
X572819Y-830991D01*
X573708Y-831213D01*
X574597Y-830991D01*
X575041Y-829880D01*
G54D13*
X612412Y-829546D02*
X612856Y-830657D01*
X613745Y-831213D01*
X614634Y-831213D01*
X615523Y-830657D01*
X615968Y-829546D01*
X615968Y-828435D01*
X615523Y-827324D01*
X614634Y-826768D01*
X613745Y-826768D01*
X612856Y-826213D01*
X612412Y-825102D01*
X612412Y-823991D01*
X612856Y-822880D01*
X613745Y-822324D01*
X614634Y-822324D01*
X615523Y-822880D01*
X615968Y-823991D01*
G54D13*
X621968Y-829546D02*
X621523Y-830657D01*
X620634Y-831213D01*
X619745Y-831213D01*
X618856Y-830657D01*
X618412Y-829546D01*
X618412Y-823991D01*
X618856Y-822880D01*
X619745Y-822324D01*
X620634Y-822324D01*
X621523Y-822880D01*
X621968Y-823991D01*
G54D13*
X624412Y-822324D02*
X624412Y-831213D01*
X627523Y-831213D01*
G54D13*
X586274Y-829546D02*
X586719Y-830657D01*
X587608Y-831213D01*
X588497Y-831213D01*
X589386Y-830657D01*
X589830Y-829546D01*
X589830Y-828435D01*
X589386Y-827324D01*
X588497Y-826768D01*
X587608Y-826768D01*
X586719Y-826213D01*
X586274Y-825102D01*
X586274Y-823991D01*
X586719Y-822880D01*
X587608Y-822324D01*
X588497Y-822324D01*
X589386Y-822880D01*
X589830Y-823991D01*
G54D13*
X592274Y-831213D02*
X592274Y-822324D01*
X594497Y-822324D01*
X595386Y-822880D01*
X595830Y-823991D01*
X595830Y-829546D01*
X595386Y-830657D01*
X594497Y-831213D01*
X592274Y-831213D01*
G54D13*
X598274Y-831213D02*
X600497Y-822324D01*
X602719Y-831213D01*
G54D13*
X599163Y-827880D02*
X601830Y-827880D01*
G54D10*
X571487Y-434938D02*
X571487Y-447638D01*
X590537Y-447638D01*
X590537Y-434938D01*
G54D10*
X571550Y-874726D02*
X571550Y-862026D01*
X590600Y-862026D01*
X590600Y-874726D01*
G54D13*
X711200Y-796846D02*
X711866Y-797957D01*
X713200Y-798513D01*
X714533Y-798513D01*
X715866Y-797957D01*
X716533Y-796846D01*
X716533Y-795735D01*
X715866Y-794624D01*
X714533Y-794068D01*
X713200Y-794068D01*
X711866Y-793513D01*
X711200Y-792402D01*
X711200Y-791291D01*
X711866Y-790180D01*
X713200Y-789624D01*
X714533Y-789624D01*
X715866Y-790180D01*
X716533Y-791291D01*
G54D13*
X718900Y-789624D02*
X718900Y-798513D01*
X722233Y-792957D01*
X725566Y-798513D01*
X725566Y-789624D01*
G54D13*
X728000Y-792957D02*
X731333Y-789624D01*
X731333Y-798513D01*
M02*
