%FSLAX34Y34*%
%MOMM*%
%LNCOPPER_BOTTOM*%
G71*
G01*
%ADD10C, 3.400*%
%ADD11C, 2.100*%
%ADD12C, 1.900*%
%ADD13C, 2.300*%
%ADD14C, 2.800*%
%ADD15C, 1.500*%
%ADD16C, 1.100*%
%ADD17C, 1.000*%
%ADD18C, 0.500*%
%ADD19R, 1.800X2.300*%
%ADD20C, 0.400*%
%ADD21C, 0.100*%
%ADD22C, 0.700*%
%ADD23R, 2.400X2.800*%
%ADD24R, 2.100X2.200*%
%ADD25C, 1.500*%
%ADD26C, 1.100*%
%ADD27C, 2.000*%
%ADD28C, 0.700*%
%ADD29R, 1.000X1.500*%
%ADD30R, 1.600X2.000*%
%ADD31R, 1.300X1.400*%
%LPD*%
G36*
X12Y12D02*
X775012Y12D01*
X775012Y-872988D01*
X12Y-872988D01*
X12Y12D01*
G37*
%LPC*%
X249224Y-236550D02*
G54D10*
D03*
X200012Y-300050D02*
G54D11*
D03*
X187212Y-325450D02*
G54D11*
D03*
X161812Y-325450D02*
G54D11*
D03*
X225412Y-300050D02*
G54D11*
D03*
G36*
X159712Y-310550D02*
X138712Y-310550D01*
X138712Y-289550D01*
X159712Y-289550D01*
X159712Y-310550D01*
G37*
X212612Y-325450D02*
G54D11*
D03*
X238012Y-325450D02*
G54D11*
D03*
X174612Y-300050D02*
G54D11*
D03*
X138100Y-236550D02*
G54D10*
D03*
G36*
X100312Y-190578D02*
X108502Y-182388D01*
X120122Y-182388D01*
X128312Y-190578D01*
X128312Y-222198D01*
X120122Y-230388D01*
X108502Y-230388D01*
X100312Y-222198D01*
X100312Y-190578D01*
G37*
G36*
X259012Y-190578D02*
X267202Y-182388D01*
X278822Y-182388D01*
X287012Y-190578D01*
X287012Y-222198D01*
X278822Y-230388D01*
X267202Y-230388D01*
X259012Y-222198D01*
X259012Y-190578D01*
G37*
X38112Y-317488D02*
G54D12*
D03*
X50787Y-317513D02*
G54D12*
D03*
X63487Y-317513D02*
G54D12*
D03*
X368312Y-342888D02*
G54D13*
D03*
X368287Y-296876D02*
G54D13*
D03*
X303212Y-342888D02*
G54D13*
D03*
X303200Y-297000D02*
G54D13*
D03*
X231762Y-412763D02*
G54D14*
D03*
X206362Y-412763D02*
G54D14*
D03*
X180962Y-412763D02*
G54D14*
D03*
X155562Y-412763D02*
G54D14*
D03*
X155562Y-34938D02*
G54D14*
D03*
X180912Y-34988D02*
G54D14*
D03*
X206362Y-34938D02*
G54D14*
D03*
X231762Y-34938D02*
G54D14*
D03*
G54D15*
X212712Y-327038D02*
X212712Y-346088D01*
X196837Y-361963D01*
X171437Y-361963D01*
X155562Y-377838D01*
X155562Y-409588D01*
G54D15*
X63487Y-317513D02*
X63487Y-346088D01*
X79362Y-361963D01*
X139687Y-361963D01*
X155562Y-377838D01*
G54D15*
X200012Y-298463D02*
X200012Y-339738D01*
X190487Y-349263D01*
X85712Y-349263D01*
X76187Y-339738D01*
G54D15*
X76187Y-339738D02*
X76187Y-304813D01*
X69837Y-298463D01*
G54D15*
X69837Y-298463D02*
X57137Y-298463D01*
X50787Y-304813D01*
X50787Y-317513D01*
G54D15*
X266700Y-300038D02*
X266700Y-400050D01*
X254000Y-412750D01*
X231774Y-412750D01*
X285750Y-269876D02*
G54D16*
D03*
X225412Y-269888D02*
G54D16*
D03*
G54D15*
X266700Y-300038D02*
X266700Y-276226D01*
X247650Y-257176D01*
X101587Y-361963D02*
G54D16*
D03*
X303200Y-320688D02*
G54D16*
D03*
G54D15*
X225412Y-300050D02*
X242874Y-300050D01*
X101600Y-269876D02*
G54D16*
D03*
X174612Y-269888D02*
G54D16*
D03*
X242874Y-300050D02*
G54D16*
D03*
X184200Y-434988D02*
G54D17*
D03*
X184200Y-431813D02*
G54D17*
D03*
X184200Y-428638D02*
G54D17*
D03*
X184200Y-425463D02*
G54D17*
D03*
X187374Y-425463D02*
G54D17*
D03*
X190550Y-425463D02*
G54D17*
D03*
X193724Y-425463D02*
G54D17*
D03*
X196900Y-425463D02*
G54D17*
D03*
X200074Y-425463D02*
G54D17*
D03*
X203250Y-425463D02*
G54D17*
D03*
X203250Y-428638D02*
G54D17*
D03*
X203250Y-431813D02*
G54D17*
D03*
X203250Y-434988D02*
G54D17*
D03*
X184200Y-1600D02*
G54D17*
D03*
X184200Y-4776D02*
G54D17*
D03*
X184200Y-7950D02*
G54D17*
D03*
X184200Y-11126D02*
G54D17*
D03*
X187374Y-11126D02*
G54D17*
D03*
X190550Y-11126D02*
G54D17*
D03*
X193724Y-11126D02*
G54D17*
D03*
X196900Y-11126D02*
G54D17*
D03*
X200074Y-11126D02*
G54D17*
D03*
X203250Y-11126D02*
G54D17*
D03*
X203250Y-7950D02*
G54D17*
D03*
X203250Y-4776D02*
G54D17*
D03*
X203250Y-1600D02*
G54D17*
D03*
X184200Y-436576D02*
G54D17*
D03*
X203250Y-436576D02*
G54D17*
D03*
X203250Y-433400D02*
G54D17*
D03*
X203250Y-430226D02*
G54D17*
D03*
X203250Y-427050D02*
G54D17*
D03*
X201662Y-425463D02*
G54D17*
D03*
X198487Y-425463D02*
G54D17*
D03*
X195312Y-425463D02*
G54D17*
D03*
X192137Y-425463D02*
G54D17*
D03*
X188962Y-425463D02*
G54D17*
D03*
X185787Y-425463D02*
G54D17*
D03*
X184200Y-427050D02*
G54D17*
D03*
X184200Y-430226D02*
G54D17*
D03*
X184200Y-433400D02*
G54D17*
D03*
X184200Y-3188D02*
G54D17*
D03*
X184200Y-6363D02*
G54D17*
D03*
X184200Y-9538D02*
G54D17*
D03*
X185787Y-11126D02*
G54D17*
D03*
X188962Y-11126D02*
G54D17*
D03*
X192137Y-11126D02*
G54D17*
D03*
X195312Y-11126D02*
G54D17*
D03*
X198487Y-11126D02*
G54D17*
D03*
X201662Y-11126D02*
G54D17*
D03*
X203250Y-9538D02*
G54D17*
D03*
X203250Y-6363D02*
G54D17*
D03*
X203250Y-3188D02*
G54D17*
D03*
X184200Y-13D02*
G54D17*
D03*
X203250Y-13D02*
G54D17*
D03*
G54D18*
X161924Y-325438D02*
X147637Y-325438D01*
G54D18*
X187324Y-325438D02*
X161924Y-325438D01*
G54D18*
X227012Y-325438D02*
X238124Y-325438D01*
G54D18*
X161924Y-338138D02*
X161924Y-312738D01*
G54D18*
X187324Y-338138D02*
X187324Y-312738D01*
G54D18*
X238124Y-338138D02*
X238124Y-312738D01*
G54D18*
X180974Y-395288D02*
X180974Y-436563D01*
G54D18*
X33337Y-357188D02*
X17462Y-357188D01*
G54D18*
X38100Y-303213D02*
X38100Y-330200D01*
G54D18*
X36512Y-317500D02*
X19050Y-317500D01*
G54D18*
X34924Y-339726D02*
X34924Y-376238D01*
X168274Y-58738D02*
G54D19*
D03*
X142874Y-58738D02*
G54D19*
D03*
X180974Y-58738D02*
G54D19*
D03*
X155574Y-58738D02*
G54D19*
D03*
G54D15*
X155574Y-34926D02*
X142874Y-47626D01*
X142874Y-53976D01*
G54D15*
X180974Y-34926D02*
X168274Y-47626D01*
X168274Y-55563D01*
X130174Y-58738D02*
G54D19*
D03*
G54D20*
X180974Y-58738D02*
X180974Y-73026D01*
G54D20*
X180974Y-58738D02*
X193674Y-58738D01*
G54D20*
X130174Y-58738D02*
X115887Y-58738D01*
G54D20*
X130174Y-41276D02*
X130174Y-76200D01*
G36*
X55512Y-342888D02*
X273012Y-342888D01*
X273012Y-369888D01*
X55512Y-369888D01*
X55512Y-342888D01*
G37*
G54D21*
X55512Y-342888D02*
X273012Y-342888D01*
X273012Y-369888D01*
X55512Y-369888D01*
X55512Y-342888D01*
G54D15*
X155574Y-58738D02*
X155574Y-142876D01*
X138112Y-160338D01*
G54D15*
X138112Y-160338D02*
X107950Y-160338D01*
X96837Y-171450D01*
G54D15*
X231774Y-34926D02*
X231774Y-142876D01*
X249237Y-160338D01*
G54D15*
X249237Y-160338D02*
X279400Y-160338D01*
X290512Y-171450D01*
G54D15*
X303212Y-296863D02*
X368300Y-296863D01*
G54D15*
X149224Y-300038D02*
X149224Y-282576D01*
X161924Y-269876D01*
X174624Y-269876D01*
G54D15*
X225424Y-269876D02*
X242887Y-269876D01*
X255587Y-282576D01*
G54D15*
X255587Y-282576D02*
X255587Y-349250D01*
X242887Y-361950D01*
G54D15*
X242887Y-361950D02*
X215900Y-361950D01*
X206374Y-371476D01*
X206374Y-412750D01*
G54D15*
X247650Y-257176D02*
X193674Y-257176D01*
G54D15*
X290512Y-171450D02*
X290512Y-265113D01*
X285750Y-269876D01*
G54D15*
X303212Y-320676D02*
X334962Y-320676D01*
X334962Y-296863D01*
G36*
X157212Y-274588D02*
X174612Y-274588D01*
X174612Y-309588D01*
X157212Y-309588D01*
X157212Y-274588D01*
G37*
G54D21*
X157212Y-274588D02*
X174612Y-274588D01*
X174612Y-309588D01*
X157212Y-309588D01*
X157212Y-274588D01*
G36*
X52412Y-301588D02*
X74612Y-301588D01*
X74612Y-311188D01*
X52412Y-311188D01*
X52412Y-299988D01*
X52412Y-301588D01*
G37*
G54D21*
X52412Y-301588D02*
X74612Y-301588D01*
X74612Y-311188D01*
X52412Y-311188D01*
X52412Y-299988D01*
X52412Y-301588D01*
G54D22*
X114300Y-206376D02*
X134937Y-206376D01*
G54D22*
X252412Y-206376D02*
X273050Y-206376D01*
G54D22*
X114300Y-177800D02*
X114300Y-233363D01*
G54D22*
X273050Y-177800D02*
X273050Y-233363D01*
G36*
X247612Y-282588D02*
X163512Y-282588D01*
X163512Y-261988D01*
X247612Y-261988D01*
X247612Y-282588D01*
G37*
G54D21*
X247612Y-282588D02*
X163512Y-282588D01*
X163512Y-261988D01*
X247612Y-261988D01*
X247612Y-282588D01*
G54D15*
X96750Y-171450D02*
X96750Y-265113D01*
X101512Y-269876D01*
G54D15*
X174624Y-298450D02*
X174624Y-288926D01*
X193674Y-269876D01*
X193674Y-160338D01*
G54D15*
X193674Y-160338D02*
X206374Y-147638D01*
X206374Y-34926D01*
G54D15*
X50800Y-317500D02*
X50800Y-379413D01*
X39687Y-390526D01*
X95250Y-390526D02*
G54D19*
D03*
X107950Y-390526D02*
G54D19*
D03*
G54D15*
X61912Y-390526D02*
X95250Y-390526D01*
G54D15*
X155574Y-390526D02*
X107950Y-390526D01*
G36*
X41312Y-369876D02*
X150812Y-369888D01*
X150812Y-401676D01*
X41274Y-401638D01*
X41312Y-369876D01*
G37*
G54D21*
X41312Y-369876D02*
X150812Y-369888D01*
X150812Y-401676D01*
X41274Y-401638D01*
X41312Y-369876D01*
X36512Y-355600D02*
G54D23*
D03*
X64512Y-355600D02*
G54D23*
D03*
X41275Y-390525D02*
G54D24*
D03*
X60275Y-390525D02*
G54D24*
D03*
X636574Y-236550D02*
G54D10*
D03*
X587362Y-300050D02*
G54D11*
D03*
X574562Y-325450D02*
G54D11*
D03*
X549162Y-325450D02*
G54D11*
D03*
X612762Y-300050D02*
G54D11*
D03*
G36*
X547062Y-310550D02*
X526062Y-310550D01*
X526062Y-289550D01*
X547062Y-289550D01*
X547062Y-310550D01*
G37*
X599962Y-325450D02*
G54D11*
D03*
X625362Y-325450D02*
G54D11*
D03*
X561962Y-300050D02*
G54D11*
D03*
X525450Y-236550D02*
G54D10*
D03*
G36*
X487662Y-190578D02*
X495852Y-182388D01*
X507472Y-182388D01*
X515662Y-190578D01*
X515662Y-222198D01*
X507472Y-230388D01*
X495852Y-230388D01*
X487662Y-222198D01*
X487662Y-190578D01*
G37*
G36*
X646362Y-190578D02*
X654552Y-182388D01*
X666172Y-182388D01*
X674362Y-190578D01*
X674362Y-222198D01*
X666172Y-230388D01*
X654552Y-230388D01*
X646362Y-222198D01*
X646362Y-190578D01*
G37*
X425462Y-317488D02*
G54D12*
D03*
X438137Y-317513D02*
G54D12*
D03*
X450837Y-317513D02*
G54D12*
D03*
X755662Y-342888D02*
G54D13*
D03*
X755637Y-296876D02*
G54D13*
D03*
X690562Y-342888D02*
G54D13*
D03*
X690550Y-297000D02*
G54D13*
D03*
X619112Y-412763D02*
G54D14*
D03*
X593712Y-412763D02*
G54D14*
D03*
X568312Y-412763D02*
G54D14*
D03*
X542912Y-412763D02*
G54D14*
D03*
X542912Y-34938D02*
G54D14*
D03*
X568262Y-34988D02*
G54D14*
D03*
X593712Y-34938D02*
G54D14*
D03*
X619112Y-34938D02*
G54D14*
D03*
G54D15*
X600062Y-327038D02*
X600062Y-346088D01*
X584187Y-361963D01*
X558787Y-361963D01*
X542912Y-377838D01*
X542912Y-409588D01*
G54D15*
X450837Y-317513D02*
X450837Y-346088D01*
X466712Y-361963D01*
X527037Y-361963D01*
X542912Y-377838D01*
G54D15*
X587362Y-298463D02*
X587362Y-339738D01*
X577837Y-349263D01*
X473062Y-349263D01*
X463537Y-339738D01*
G54D15*
X463537Y-339738D02*
X463537Y-304813D01*
X457187Y-298463D01*
G54D15*
X457187Y-298463D02*
X444487Y-298463D01*
X438137Y-304813D01*
X438137Y-317513D01*
G54D15*
X654050Y-300038D02*
X654050Y-400050D01*
X641350Y-412750D01*
X619124Y-412750D01*
X673100Y-269876D02*
G54D16*
D03*
X612762Y-269888D02*
G54D16*
D03*
G54D15*
X654050Y-300038D02*
X654050Y-276226D01*
X635000Y-257176D01*
X488937Y-361963D02*
G54D16*
D03*
X690550Y-320688D02*
G54D16*
D03*
G54D15*
X612762Y-300050D02*
X630224Y-300050D01*
X488950Y-269876D02*
G54D16*
D03*
X561962Y-269888D02*
G54D16*
D03*
X630224Y-300050D02*
G54D16*
D03*
X571550Y-434988D02*
G54D17*
D03*
X571550Y-431813D02*
G54D17*
D03*
X571550Y-428638D02*
G54D17*
D03*
X571550Y-425463D02*
G54D17*
D03*
X574724Y-425463D02*
G54D17*
D03*
X577900Y-425463D02*
G54D17*
D03*
X581074Y-425463D02*
G54D17*
D03*
X584250Y-425463D02*
G54D17*
D03*
X587424Y-425463D02*
G54D17*
D03*
X590600Y-425463D02*
G54D17*
D03*
X590600Y-428638D02*
G54D17*
D03*
X590600Y-431813D02*
G54D17*
D03*
X590600Y-434988D02*
G54D17*
D03*
X571550Y-1600D02*
G54D17*
D03*
X571550Y-4776D02*
G54D17*
D03*
X571550Y-7950D02*
G54D17*
D03*
X571550Y-11126D02*
G54D17*
D03*
X574724Y-11126D02*
G54D17*
D03*
X577900Y-11126D02*
G54D17*
D03*
X581074Y-11126D02*
G54D17*
D03*
X584250Y-11126D02*
G54D17*
D03*
X587424Y-11126D02*
G54D17*
D03*
X590600Y-11126D02*
G54D17*
D03*
X590600Y-7950D02*
G54D17*
D03*
X590600Y-4776D02*
G54D17*
D03*
X590600Y-1600D02*
G54D17*
D03*
X571550Y-436576D02*
G54D17*
D03*
X590600Y-436576D02*
G54D17*
D03*
X590600Y-433400D02*
G54D17*
D03*
X590600Y-430226D02*
G54D17*
D03*
X590600Y-427050D02*
G54D17*
D03*
X589012Y-425463D02*
G54D17*
D03*
X585837Y-425463D02*
G54D17*
D03*
X582662Y-425463D02*
G54D17*
D03*
X579487Y-425463D02*
G54D17*
D03*
X576312Y-425463D02*
G54D17*
D03*
X573137Y-425463D02*
G54D17*
D03*
X571550Y-427050D02*
G54D17*
D03*
X571550Y-430226D02*
G54D17*
D03*
X571550Y-433400D02*
G54D17*
D03*
X571550Y-3188D02*
G54D17*
D03*
X571550Y-6363D02*
G54D17*
D03*
X571550Y-9538D02*
G54D17*
D03*
X573137Y-11126D02*
G54D17*
D03*
X576312Y-11126D02*
G54D17*
D03*
X579487Y-11126D02*
G54D17*
D03*
X582662Y-11126D02*
G54D17*
D03*
X585837Y-11126D02*
G54D17*
D03*
X589012Y-11126D02*
G54D17*
D03*
X590600Y-9538D02*
G54D17*
D03*
X590600Y-6363D02*
G54D17*
D03*
X590600Y-3188D02*
G54D17*
D03*
X571550Y-13D02*
G54D17*
D03*
X590600Y-13D02*
G54D17*
D03*
G54D18*
X549274Y-325438D02*
X534987Y-325438D01*
G54D18*
X574674Y-325438D02*
X549274Y-325438D01*
G54D18*
X614362Y-325438D02*
X625474Y-325438D01*
G54D18*
X549274Y-338138D02*
X549274Y-312738D01*
G54D18*
X574674Y-338138D02*
X574674Y-312738D01*
G54D18*
X625474Y-338138D02*
X625474Y-312738D01*
G54D18*
X568324Y-395288D02*
X568324Y-436563D01*
G54D18*
X420687Y-357188D02*
X404812Y-357188D01*
G54D18*
X425450Y-303213D02*
X425450Y-330200D01*
G54D18*
X423862Y-317500D02*
X406400Y-317500D01*
G54D18*
X422274Y-339726D02*
X422274Y-376238D01*
X555624Y-58738D02*
G54D19*
D03*
X530224Y-58738D02*
G54D19*
D03*
X568324Y-58738D02*
G54D19*
D03*
X542924Y-58738D02*
G54D19*
D03*
G54D15*
X542924Y-34926D02*
X530224Y-47626D01*
X530224Y-53976D01*
G54D15*
X568324Y-34926D02*
X555624Y-47626D01*
X555624Y-55563D01*
X517524Y-58738D02*
G54D19*
D03*
G54D20*
X568324Y-58738D02*
X568324Y-73026D01*
G54D20*
X568324Y-58738D02*
X581024Y-58738D01*
G54D20*
X517524Y-58738D02*
X503237Y-58738D01*
G54D20*
X517524Y-41276D02*
X517524Y-76200D01*
G36*
X442862Y-342888D02*
X660362Y-342888D01*
X660362Y-369888D01*
X442862Y-369888D01*
X442862Y-342888D01*
G37*
G54D21*
X442862Y-342888D02*
X660362Y-342888D01*
X660362Y-369888D01*
X442862Y-369888D01*
X442862Y-342888D01*
G54D15*
X542924Y-58738D02*
X542924Y-142876D01*
X525462Y-160338D01*
G54D15*
X525462Y-160338D02*
X495300Y-160338D01*
X484187Y-171450D01*
G54D15*
X619124Y-34926D02*
X619124Y-142876D01*
X636587Y-160338D01*
G54D15*
X636587Y-160338D02*
X666750Y-160338D01*
X677862Y-171450D01*
G54D15*
X690562Y-296863D02*
X755650Y-296863D01*
G54D15*
X536574Y-300038D02*
X536574Y-282576D01*
X549274Y-269876D01*
X561974Y-269876D01*
G54D15*
X612774Y-269876D02*
X630237Y-269876D01*
X642937Y-282576D01*
G54D15*
X642937Y-282576D02*
X642937Y-349250D01*
X630237Y-361950D01*
G54D15*
X630237Y-361950D02*
X603250Y-361950D01*
X593724Y-371476D01*
X593724Y-412750D01*
G54D15*
X635000Y-257176D02*
X581024Y-257176D01*
G54D15*
X677862Y-171450D02*
X677862Y-265113D01*
X673100Y-269876D01*
G54D15*
X690562Y-320676D02*
X722312Y-320676D01*
X722312Y-296863D01*
G36*
X544562Y-274588D02*
X561962Y-274588D01*
X561962Y-309588D01*
X544562Y-309588D01*
X544562Y-274588D01*
G37*
G54D21*
X544562Y-274588D02*
X561962Y-274588D01*
X561962Y-309588D01*
X544562Y-309588D01*
X544562Y-274588D01*
G36*
X439762Y-301588D02*
X461962Y-301588D01*
X461962Y-311188D01*
X439762Y-311188D01*
X439762Y-299988D01*
X439762Y-301588D01*
G37*
G54D21*
X439762Y-301588D02*
X461962Y-301588D01*
X461962Y-311188D01*
X439762Y-311188D01*
X439762Y-299988D01*
X439762Y-301588D01*
G54D22*
X501650Y-206376D02*
X522287Y-206376D01*
G54D22*
X639762Y-206376D02*
X660400Y-206376D01*
G54D22*
X501650Y-177800D02*
X501650Y-233363D01*
G54D22*
X660400Y-177800D02*
X660400Y-233363D01*
G36*
X634962Y-282588D02*
X550862Y-282588D01*
X550862Y-261988D01*
X634962Y-261988D01*
X634962Y-282588D01*
G37*
G54D21*
X634962Y-282588D02*
X550862Y-282588D01*
X550862Y-261988D01*
X634962Y-261988D01*
X634962Y-282588D01*
G54D15*
X484100Y-171450D02*
X484100Y-265113D01*
X488862Y-269876D01*
G54D15*
X561974Y-298450D02*
X561974Y-288926D01*
X581024Y-269876D01*
X581024Y-160338D01*
G54D15*
X581024Y-160338D02*
X593724Y-147638D01*
X593724Y-34926D01*
G54D15*
X438150Y-317500D02*
X438150Y-379413D01*
X427037Y-390526D01*
X482600Y-390526D02*
G54D19*
D03*
X495300Y-390526D02*
G54D19*
D03*
G54D15*
X449262Y-390526D02*
X482600Y-390526D01*
G54D15*
X542924Y-390526D02*
X495300Y-390526D01*
G36*
X428662Y-369876D02*
X538162Y-369888D01*
X538162Y-401676D01*
X428624Y-401638D01*
X428662Y-369876D01*
G37*
G54D21*
X428662Y-369876D02*
X538162Y-369888D01*
X538162Y-401676D01*
X428624Y-401638D01*
X428662Y-369876D01*
X423862Y-355600D02*
G54D23*
D03*
X451862Y-355600D02*
G54D23*
D03*
X428625Y-390525D02*
G54D24*
D03*
X447625Y-390525D02*
G54D24*
D03*
X249224Y-673113D02*
G54D10*
D03*
X200012Y-736613D02*
G54D11*
D03*
X187212Y-762013D02*
G54D11*
D03*
X161812Y-762013D02*
G54D11*
D03*
X225412Y-736613D02*
G54D11*
D03*
G36*
X159712Y-747113D02*
X138712Y-747113D01*
X138712Y-726113D01*
X159712Y-726113D01*
X159712Y-747113D01*
G37*
X212612Y-762013D02*
G54D11*
D03*
X238012Y-762013D02*
G54D11*
D03*
X174612Y-736613D02*
G54D11*
D03*
X138100Y-673113D02*
G54D10*
D03*
G36*
X100312Y-627140D02*
X108502Y-618950D01*
X120122Y-618950D01*
X128312Y-627140D01*
X128312Y-658760D01*
X120122Y-666950D01*
X108502Y-666950D01*
X100312Y-658760D01*
X100312Y-627140D01*
G37*
G36*
X259012Y-627140D02*
X267202Y-618950D01*
X278822Y-618950D01*
X287012Y-627140D01*
X287012Y-658760D01*
X278822Y-666950D01*
X267202Y-666950D01*
X259012Y-658760D01*
X259012Y-627140D01*
G37*
X38112Y-754050D02*
G54D12*
D03*
X50787Y-754076D02*
G54D12*
D03*
X63487Y-754076D02*
G54D12*
D03*
X368312Y-779450D02*
G54D13*
D03*
X368287Y-733438D02*
G54D13*
D03*
X303212Y-779450D02*
G54D13*
D03*
X303200Y-733563D02*
G54D13*
D03*
X231762Y-849326D02*
G54D14*
D03*
X206362Y-849326D02*
G54D14*
D03*
X180962Y-849326D02*
G54D14*
D03*
X155562Y-849326D02*
G54D14*
D03*
X155562Y-471500D02*
G54D14*
D03*
X180912Y-471550D02*
G54D14*
D03*
X206362Y-471500D02*
G54D14*
D03*
X231762Y-471500D02*
G54D14*
D03*
G54D15*
X212712Y-763600D02*
X212712Y-782650D01*
X196837Y-798526D01*
X171437Y-798526D01*
X155562Y-814400D01*
X155562Y-846150D01*
G54D15*
X63487Y-754076D02*
X63487Y-782650D01*
X79362Y-798526D01*
X139687Y-798526D01*
X155562Y-814400D01*
G54D15*
X200012Y-735026D02*
X200012Y-776300D01*
X190487Y-785826D01*
X85712Y-785826D01*
X76187Y-776300D01*
G54D15*
X76187Y-776300D02*
X76187Y-741376D01*
X69837Y-735026D01*
G54D15*
X69837Y-735026D02*
X57137Y-735026D01*
X50787Y-741376D01*
X50787Y-754076D01*
G54D15*
X266700Y-736600D02*
X266700Y-836613D01*
X254000Y-849313D01*
X231774Y-849313D01*
X285750Y-706438D02*
G54D16*
D03*
X225412Y-706450D02*
G54D16*
D03*
G54D15*
X266700Y-736600D02*
X266700Y-712788D01*
X247650Y-693738D01*
X101587Y-798526D02*
G54D16*
D03*
X303200Y-757250D02*
G54D16*
D03*
G54D15*
X225412Y-736613D02*
X242874Y-736613D01*
X101600Y-706438D02*
G54D16*
D03*
X174612Y-706450D02*
G54D16*
D03*
X242874Y-736613D02*
G54D16*
D03*
X184200Y-871550D02*
G54D17*
D03*
X184200Y-868376D02*
G54D17*
D03*
X184200Y-865200D02*
G54D17*
D03*
X184200Y-862026D02*
G54D17*
D03*
X187374Y-862026D02*
G54D17*
D03*
X190550Y-862026D02*
G54D17*
D03*
X193724Y-862026D02*
G54D17*
D03*
X196900Y-862026D02*
G54D17*
D03*
X200074Y-862026D02*
G54D17*
D03*
X203250Y-862026D02*
G54D17*
D03*
X203250Y-865200D02*
G54D17*
D03*
X203250Y-868376D02*
G54D17*
D03*
X203250Y-871550D02*
G54D17*
D03*
X184200Y-438163D02*
G54D17*
D03*
X184200Y-441338D02*
G54D17*
D03*
X184200Y-444513D02*
G54D17*
D03*
X184200Y-447688D02*
G54D17*
D03*
X187374Y-447688D02*
G54D17*
D03*
X190550Y-447688D02*
G54D17*
D03*
X193724Y-447688D02*
G54D17*
D03*
X196900Y-447688D02*
G54D17*
D03*
X200074Y-447688D02*
G54D17*
D03*
X203250Y-447688D02*
G54D17*
D03*
X203250Y-444513D02*
G54D17*
D03*
X203250Y-441338D02*
G54D17*
D03*
X203250Y-438163D02*
G54D17*
D03*
X184200Y-873138D02*
G54D17*
D03*
X203250Y-873138D02*
G54D17*
D03*
X203250Y-869963D02*
G54D17*
D03*
X203250Y-866788D02*
G54D17*
D03*
X203250Y-863613D02*
G54D17*
D03*
X201662Y-862026D02*
G54D17*
D03*
X198487Y-862026D02*
G54D17*
D03*
X195312Y-862026D02*
G54D17*
D03*
X192137Y-862026D02*
G54D17*
D03*
X188962Y-862026D02*
G54D17*
D03*
X185787Y-862026D02*
G54D17*
D03*
X184200Y-863613D02*
G54D17*
D03*
X184200Y-866788D02*
G54D17*
D03*
X184200Y-869963D02*
G54D17*
D03*
X184200Y-439750D02*
G54D17*
D03*
X184200Y-442926D02*
G54D17*
D03*
X184200Y-446100D02*
G54D17*
D03*
X185787Y-447688D02*
G54D17*
D03*
X188962Y-447688D02*
G54D17*
D03*
X192137Y-447688D02*
G54D17*
D03*
X195312Y-447688D02*
G54D17*
D03*
X198487Y-447688D02*
G54D17*
D03*
X201662Y-447688D02*
G54D17*
D03*
X203250Y-446100D02*
G54D17*
D03*
X203250Y-442926D02*
G54D17*
D03*
X203250Y-439750D02*
G54D17*
D03*
X184200Y-436576D02*
G54D17*
D03*
X203250Y-436576D02*
G54D17*
D03*
G54D18*
X161924Y-762000D02*
X147637Y-762000D01*
G54D18*
X187324Y-762000D02*
X161924Y-762000D01*
G54D18*
X227012Y-762000D02*
X238124Y-762000D01*
G54D18*
X161924Y-774700D02*
X161924Y-749300D01*
G54D18*
X187324Y-774700D02*
X187324Y-749300D01*
G54D18*
X238124Y-774700D02*
X238124Y-749300D01*
G54D18*
X180974Y-831850D02*
X180974Y-873126D01*
G54D18*
X33337Y-793750D02*
X17462Y-793750D01*
G54D18*
X38100Y-739776D02*
X38100Y-766763D01*
G54D18*
X36512Y-754063D02*
X19050Y-754063D01*
G54D18*
X34924Y-776288D02*
X34924Y-812800D01*
X168274Y-495300D02*
G54D19*
D03*
X142874Y-495300D02*
G54D19*
D03*
X180974Y-495300D02*
G54D19*
D03*
X155574Y-495300D02*
G54D19*
D03*
G54D15*
X155574Y-471488D02*
X142874Y-484188D01*
X142874Y-490538D01*
G54D15*
X180974Y-471488D02*
X168274Y-484188D01*
X168274Y-492126D01*
X130174Y-495300D02*
G54D19*
D03*
G54D20*
X180974Y-495300D02*
X180974Y-509588D01*
G54D20*
X180974Y-495300D02*
X193674Y-495300D01*
G54D20*
X130174Y-495300D02*
X115887Y-495300D01*
G54D20*
X130174Y-477838D02*
X130174Y-512763D01*
G36*
X55512Y-779450D02*
X273012Y-779450D01*
X273012Y-806450D01*
X55512Y-806450D01*
X55512Y-779450D01*
G37*
G54D21*
X55512Y-779450D02*
X273012Y-779450D01*
X273012Y-806450D01*
X55512Y-806450D01*
X55512Y-779450D01*
G54D15*
X155574Y-495300D02*
X155574Y-579438D01*
X138112Y-596900D01*
G54D15*
X138112Y-596900D02*
X107950Y-596900D01*
X96837Y-608013D01*
G54D15*
X231774Y-471488D02*
X231774Y-579438D01*
X249237Y-596900D01*
G54D15*
X249237Y-596900D02*
X279400Y-596900D01*
X290512Y-608013D01*
G54D15*
X303212Y-733426D02*
X368300Y-733426D01*
G54D15*
X149224Y-736600D02*
X149224Y-719138D01*
X161924Y-706438D01*
X174624Y-706438D01*
G54D15*
X225424Y-706438D02*
X242887Y-706438D01*
X255587Y-719138D01*
G54D15*
X255587Y-719138D02*
X255587Y-785813D01*
X242887Y-798513D01*
G54D15*
X242887Y-798513D02*
X215900Y-798513D01*
X206374Y-808038D01*
X206374Y-849313D01*
G54D15*
X247650Y-693738D02*
X193674Y-693738D01*
G54D15*
X290512Y-608013D02*
X290512Y-701676D01*
X285750Y-706438D01*
G54D15*
X303212Y-757238D02*
X334962Y-757238D01*
X334962Y-733426D01*
G36*
X157212Y-711150D02*
X174612Y-711150D01*
X174612Y-746150D01*
X157212Y-746150D01*
X157212Y-711150D01*
G37*
G54D21*
X157212Y-711150D02*
X174612Y-711150D01*
X174612Y-746150D01*
X157212Y-746150D01*
X157212Y-711150D01*
G36*
X52412Y-738150D02*
X74612Y-738150D01*
X74612Y-747750D01*
X52412Y-747750D01*
X52412Y-736550D01*
X52412Y-738150D01*
G37*
G54D21*
X52412Y-738150D02*
X74612Y-738150D01*
X74612Y-747750D01*
X52412Y-747750D01*
X52412Y-736550D01*
X52412Y-738150D01*
G54D22*
X114300Y-642938D02*
X134937Y-642938D01*
G54D22*
X252412Y-642938D02*
X273050Y-642938D01*
G54D22*
X114300Y-614363D02*
X114300Y-669926D01*
G54D22*
X273050Y-614363D02*
X273050Y-669926D01*
G36*
X247612Y-719150D02*
X163512Y-719150D01*
X163512Y-698550D01*
X247612Y-698550D01*
X247612Y-719150D01*
G37*
G54D21*
X247612Y-719150D02*
X163512Y-719150D01*
X163512Y-698550D01*
X247612Y-698550D01*
X247612Y-719150D01*
G54D15*
X96750Y-608013D02*
X96750Y-701676D01*
X101512Y-706438D01*
G54D15*
X174624Y-735013D02*
X174624Y-725488D01*
X193674Y-706438D01*
X193674Y-596900D01*
G54D15*
X193674Y-596900D02*
X206374Y-584200D01*
X206374Y-471488D01*
G54D15*
X50800Y-754063D02*
X50800Y-815976D01*
X39687Y-827088D01*
X95250Y-827088D02*
G54D19*
D03*
X107950Y-827088D02*
G54D19*
D03*
G54D15*
X61912Y-827088D02*
X95250Y-827088D01*
G54D15*
X155574Y-827088D02*
X107950Y-827088D01*
G36*
X41312Y-806438D02*
X150812Y-806450D01*
X150812Y-838238D01*
X41274Y-838200D01*
X41312Y-806438D01*
G37*
G54D21*
X41312Y-806438D02*
X150812Y-806450D01*
X150812Y-838238D01*
X41274Y-838200D01*
X41312Y-806438D01*
X36512Y-792162D02*
G54D23*
D03*
X64512Y-792162D02*
G54D23*
D03*
X41275Y-827088D02*
G54D24*
D03*
X60275Y-827088D02*
G54D24*
D03*
X636574Y-673113D02*
G54D10*
D03*
X587362Y-736613D02*
G54D11*
D03*
X574562Y-762013D02*
G54D11*
D03*
X549162Y-762013D02*
G54D11*
D03*
X612762Y-736613D02*
G54D11*
D03*
G36*
X547062Y-747113D02*
X526062Y-747113D01*
X526062Y-726113D01*
X547062Y-726113D01*
X547062Y-747113D01*
G37*
X599962Y-762013D02*
G54D11*
D03*
X625362Y-762013D02*
G54D11*
D03*
X561962Y-736613D02*
G54D11*
D03*
X525450Y-673113D02*
G54D10*
D03*
G36*
X487662Y-627140D02*
X495852Y-618950D01*
X507472Y-618950D01*
X515662Y-627140D01*
X515662Y-658760D01*
X507472Y-666950D01*
X495852Y-666950D01*
X487662Y-658760D01*
X487662Y-627140D01*
G37*
G36*
X646362Y-627140D02*
X654552Y-618950D01*
X666172Y-618950D01*
X674362Y-627140D01*
X674362Y-658760D01*
X666172Y-666950D01*
X654552Y-666950D01*
X646362Y-658760D01*
X646362Y-627140D01*
G37*
X425462Y-754050D02*
G54D12*
D03*
X438137Y-754076D02*
G54D12*
D03*
X450837Y-754076D02*
G54D12*
D03*
X755662Y-779450D02*
G54D13*
D03*
X755637Y-733438D02*
G54D13*
D03*
X690562Y-779450D02*
G54D13*
D03*
X690550Y-733563D02*
G54D13*
D03*
X619112Y-849326D02*
G54D14*
D03*
X593712Y-849326D02*
G54D14*
D03*
X568312Y-849326D02*
G54D14*
D03*
X542912Y-849326D02*
G54D14*
D03*
X542912Y-471500D02*
G54D14*
D03*
X568262Y-471550D02*
G54D14*
D03*
X593712Y-471500D02*
G54D14*
D03*
X619112Y-471500D02*
G54D14*
D03*
G54D15*
X600062Y-763600D02*
X600062Y-782650D01*
X584187Y-798526D01*
X558787Y-798526D01*
X542912Y-814400D01*
X542912Y-846150D01*
G54D15*
X450837Y-754076D02*
X450837Y-782650D01*
X466712Y-798526D01*
X527037Y-798526D01*
X542912Y-814400D01*
G54D15*
X587362Y-735026D02*
X587362Y-776300D01*
X577837Y-785826D01*
X473062Y-785826D01*
X463537Y-776300D01*
G54D15*
X463537Y-776300D02*
X463537Y-741376D01*
X457187Y-735026D01*
G54D15*
X457187Y-735026D02*
X444487Y-735026D01*
X438137Y-741376D01*
X438137Y-754076D01*
G54D15*
X654050Y-736600D02*
X654050Y-836613D01*
X641350Y-849313D01*
X619124Y-849313D01*
X673100Y-706438D02*
G54D16*
D03*
X612762Y-706450D02*
G54D16*
D03*
G54D15*
X654050Y-736600D02*
X654050Y-712788D01*
X635000Y-693738D01*
X488937Y-798526D02*
G54D16*
D03*
X690550Y-757250D02*
G54D16*
D03*
G54D15*
X612762Y-736613D02*
X630224Y-736613D01*
X488950Y-706438D02*
G54D16*
D03*
X561962Y-706450D02*
G54D16*
D03*
X630224Y-736613D02*
G54D16*
D03*
X571550Y-871550D02*
G54D17*
D03*
X571550Y-868376D02*
G54D17*
D03*
X571550Y-865200D02*
G54D17*
D03*
X571550Y-862026D02*
G54D17*
D03*
X574724Y-862026D02*
G54D17*
D03*
X577900Y-862026D02*
G54D17*
D03*
X581074Y-862026D02*
G54D17*
D03*
X584250Y-862026D02*
G54D17*
D03*
X587424Y-862026D02*
G54D17*
D03*
X590600Y-862026D02*
G54D17*
D03*
X590600Y-865200D02*
G54D17*
D03*
X590600Y-868376D02*
G54D17*
D03*
X590600Y-871550D02*
G54D17*
D03*
X571550Y-438163D02*
G54D17*
D03*
X571550Y-441338D02*
G54D17*
D03*
X571550Y-444513D02*
G54D17*
D03*
X571550Y-447688D02*
G54D17*
D03*
X574724Y-447688D02*
G54D17*
D03*
X577900Y-447688D02*
G54D17*
D03*
X581074Y-447688D02*
G54D17*
D03*
X584250Y-447688D02*
G54D17*
D03*
X587424Y-447688D02*
G54D17*
D03*
X590600Y-447688D02*
G54D17*
D03*
X590600Y-444513D02*
G54D17*
D03*
X590600Y-441338D02*
G54D17*
D03*
X590600Y-438163D02*
G54D17*
D03*
X571550Y-873138D02*
G54D17*
D03*
X590600Y-873138D02*
G54D17*
D03*
X590600Y-869963D02*
G54D17*
D03*
X590600Y-866788D02*
G54D17*
D03*
X590600Y-863613D02*
G54D17*
D03*
X589012Y-862026D02*
G54D17*
D03*
X585837Y-862026D02*
G54D17*
D03*
X582662Y-862026D02*
G54D17*
D03*
X579487Y-862026D02*
G54D17*
D03*
X576312Y-862026D02*
G54D17*
D03*
X573137Y-862026D02*
G54D17*
D03*
X571550Y-863613D02*
G54D17*
D03*
X571550Y-866788D02*
G54D17*
D03*
X571550Y-869963D02*
G54D17*
D03*
X571550Y-439750D02*
G54D17*
D03*
X571550Y-442926D02*
G54D17*
D03*
X571550Y-446100D02*
G54D17*
D03*
X573137Y-447688D02*
G54D17*
D03*
X576312Y-447688D02*
G54D17*
D03*
X579487Y-447688D02*
G54D17*
D03*
X582662Y-447688D02*
G54D17*
D03*
X585837Y-447688D02*
G54D17*
D03*
X589012Y-447688D02*
G54D17*
D03*
X590600Y-446100D02*
G54D17*
D03*
X590600Y-442926D02*
G54D17*
D03*
X590600Y-439750D02*
G54D17*
D03*
X571550Y-436576D02*
G54D17*
D03*
X590600Y-436576D02*
G54D17*
D03*
G54D18*
X549274Y-762000D02*
X534987Y-762000D01*
G54D18*
X574674Y-762000D02*
X549274Y-762000D01*
G54D18*
X614362Y-762000D02*
X625474Y-762000D01*
G54D18*
X549274Y-774700D02*
X549274Y-749300D01*
G54D18*
X574674Y-774700D02*
X574674Y-749300D01*
G54D18*
X625474Y-774700D02*
X625474Y-749300D01*
G54D18*
X568324Y-831850D02*
X568324Y-873126D01*
G54D18*
X420687Y-793750D02*
X404812Y-793750D01*
G54D18*
X425450Y-739776D02*
X425450Y-766763D01*
G54D18*
X423862Y-754063D02*
X406400Y-754063D01*
G54D18*
X422274Y-776288D02*
X422274Y-812800D01*
X555624Y-495300D02*
G54D19*
D03*
X530224Y-495300D02*
G54D19*
D03*
X568324Y-495300D02*
G54D19*
D03*
X542924Y-495300D02*
G54D19*
D03*
G54D15*
X542924Y-471488D02*
X530224Y-484188D01*
X530224Y-490538D01*
G54D15*
X568324Y-471488D02*
X555624Y-484188D01*
X555624Y-492126D01*
X517524Y-495300D02*
G54D19*
D03*
G54D20*
X568324Y-495300D02*
X568324Y-509588D01*
G54D20*
X568324Y-495300D02*
X581024Y-495300D01*
G54D20*
X517524Y-495300D02*
X503237Y-495300D01*
G54D20*
X517524Y-477838D02*
X517524Y-512763D01*
G36*
X442862Y-779450D02*
X660362Y-779450D01*
X660362Y-806450D01*
X442862Y-806450D01*
X442862Y-779450D01*
G37*
G54D21*
X442862Y-779450D02*
X660362Y-779450D01*
X660362Y-806450D01*
X442862Y-806450D01*
X442862Y-779450D01*
G54D15*
X542924Y-495300D02*
X542924Y-579438D01*
X525462Y-596900D01*
G54D15*
X525462Y-596900D02*
X495300Y-596900D01*
X484187Y-608013D01*
G54D15*
X619124Y-471488D02*
X619124Y-579438D01*
X636587Y-596900D01*
G54D15*
X636587Y-596900D02*
X666750Y-596900D01*
X677862Y-608013D01*
G54D15*
X690562Y-733426D02*
X755650Y-733426D01*
G54D15*
X536574Y-736600D02*
X536574Y-719138D01*
X549274Y-706438D01*
X561974Y-706438D01*
G54D15*
X612774Y-706438D02*
X630237Y-706438D01*
X642937Y-719138D01*
G54D15*
X642937Y-719138D02*
X642937Y-785813D01*
X630237Y-798513D01*
G54D15*
X630237Y-798513D02*
X603250Y-798513D01*
X593724Y-808038D01*
X593724Y-849313D01*
G54D15*
X635000Y-693738D02*
X581024Y-693738D01*
G54D15*
X677862Y-608013D02*
X677862Y-701676D01*
X673100Y-706438D01*
G54D15*
X690562Y-757238D02*
X722312Y-757238D01*
X722312Y-733426D01*
G36*
X544562Y-711150D02*
X561962Y-711150D01*
X561962Y-746150D01*
X544562Y-746150D01*
X544562Y-711150D01*
G37*
G54D21*
X544562Y-711150D02*
X561962Y-711150D01*
X561962Y-746150D01*
X544562Y-746150D01*
X544562Y-711150D01*
G36*
X439762Y-738150D02*
X461962Y-738150D01*
X461962Y-747750D01*
X439762Y-747750D01*
X439762Y-736550D01*
X439762Y-738150D01*
G37*
G54D21*
X439762Y-738150D02*
X461962Y-738150D01*
X461962Y-747750D01*
X439762Y-747750D01*
X439762Y-736550D01*
X439762Y-738150D01*
G54D22*
X501650Y-642938D02*
X522287Y-642938D01*
G54D22*
X639762Y-642938D02*
X660400Y-642938D01*
G54D22*
X501650Y-614363D02*
X501650Y-669926D01*
G54D22*
X660400Y-614363D02*
X660400Y-669926D01*
G36*
X634962Y-719150D02*
X550862Y-719150D01*
X550862Y-698550D01*
X634962Y-698550D01*
X634962Y-719150D01*
G37*
G54D21*
X634962Y-719150D02*
X550862Y-719150D01*
X550862Y-698550D01*
X634962Y-698550D01*
X634962Y-719150D01*
G54D15*
X484100Y-608013D02*
X484100Y-701676D01*
X488862Y-706438D01*
G54D15*
X561974Y-735013D02*
X561974Y-725488D01*
X581024Y-706438D01*
X581024Y-596900D01*
G54D15*
X581024Y-596900D02*
X593724Y-584200D01*
X593724Y-471488D01*
G54D15*
X438150Y-754063D02*
X438150Y-815976D01*
X427037Y-827088D01*
X482600Y-827088D02*
G54D19*
D03*
X495300Y-827088D02*
G54D19*
D03*
G54D15*
X449262Y-827088D02*
X482600Y-827088D01*
G54D15*
X542924Y-827088D02*
X495300Y-827088D01*
G36*
X428662Y-806438D02*
X538162Y-806450D01*
X538162Y-838238D01*
X428624Y-838200D01*
X428662Y-806438D01*
G37*
G54D21*
X428662Y-806438D02*
X538162Y-806450D01*
X538162Y-838238D01*
X428624Y-838200D01*
X428662Y-806438D01*
X423862Y-792162D02*
G54D23*
D03*
X451862Y-792162D02*
G54D23*
D03*
X428625Y-827088D02*
G54D24*
D03*
X447625Y-827088D02*
G54D24*
D03*
%LPD*%
G54D18*
G36*
X370812Y-342888D02*
X370812Y-354888D01*
X365812Y-354888D01*
X365812Y-342888D01*
X370812Y-342888D01*
G37*
G36*
X368312Y-345388D02*
X356312Y-345388D01*
X356312Y-340388D01*
X368312Y-340388D01*
X368312Y-345388D01*
G37*
G36*
X365812Y-342888D02*
X365812Y-330888D01*
X370812Y-330888D01*
X370812Y-342888D01*
X365812Y-342888D01*
G37*
G36*
X368312Y-340388D02*
X380312Y-340388D01*
X380312Y-345388D01*
X368312Y-345388D01*
X368312Y-340388D01*
G37*
G54D18*
G36*
X305712Y-342888D02*
X305712Y-354888D01*
X300712Y-354888D01*
X300712Y-342888D01*
X305712Y-342888D01*
G37*
G36*
X303212Y-345388D02*
X291212Y-345388D01*
X291212Y-340388D01*
X303212Y-340388D01*
X303212Y-345388D01*
G37*
G36*
X300712Y-342888D02*
X300712Y-330888D01*
X305712Y-330888D01*
X305712Y-342888D01*
X300712Y-342888D01*
G37*
G36*
X303212Y-340388D02*
X315212Y-340388D01*
X315212Y-345388D01*
X303212Y-345388D01*
X303212Y-340388D01*
G37*
G54D18*
G36*
X758162Y-342888D02*
X758162Y-354888D01*
X753162Y-354888D01*
X753162Y-342888D01*
X758162Y-342888D01*
G37*
G36*
X755662Y-345388D02*
X743662Y-345388D01*
X743662Y-340388D01*
X755662Y-340388D01*
X755662Y-345388D01*
G37*
G36*
X753162Y-342888D02*
X753162Y-330888D01*
X758162Y-330888D01*
X758162Y-342888D01*
X753162Y-342888D01*
G37*
G36*
X755662Y-340388D02*
X767662Y-340388D01*
X767662Y-345388D01*
X755662Y-345388D01*
X755662Y-340388D01*
G37*
G54D18*
G36*
X693062Y-342888D02*
X693062Y-354888D01*
X688062Y-354888D01*
X688062Y-342888D01*
X693062Y-342888D01*
G37*
G36*
X690562Y-345388D02*
X678562Y-345388D01*
X678562Y-340388D01*
X690562Y-340388D01*
X690562Y-345388D01*
G37*
G36*
X688062Y-342888D02*
X688062Y-330888D01*
X693062Y-330888D01*
X693062Y-342888D01*
X688062Y-342888D01*
G37*
G36*
X690562Y-340388D02*
X702562Y-340388D01*
X702562Y-345388D01*
X690562Y-345388D01*
X690562Y-340388D01*
G37*
G54D18*
G36*
X370812Y-779450D02*
X370812Y-791450D01*
X365812Y-791450D01*
X365812Y-779450D01*
X370812Y-779450D01*
G37*
G36*
X368312Y-781950D02*
X356312Y-781950D01*
X356312Y-776950D01*
X368312Y-776950D01*
X368312Y-781950D01*
G37*
G36*
X365812Y-779450D02*
X365812Y-767450D01*
X370812Y-767450D01*
X370812Y-779450D01*
X365812Y-779450D01*
G37*
G36*
X368312Y-776950D02*
X380312Y-776950D01*
X380312Y-781950D01*
X368312Y-781950D01*
X368312Y-776950D01*
G37*
G54D18*
G36*
X305712Y-779450D02*
X305712Y-791450D01*
X300712Y-791450D01*
X300712Y-779450D01*
X305712Y-779450D01*
G37*
G36*
X303212Y-781950D02*
X291212Y-781950D01*
X291212Y-776950D01*
X303212Y-776950D01*
X303212Y-781950D01*
G37*
G36*
X300712Y-779450D02*
X300712Y-767450D01*
X305712Y-767450D01*
X305712Y-779450D01*
X300712Y-779450D01*
G37*
G36*
X303212Y-776950D02*
X315212Y-776950D01*
X315212Y-781950D01*
X303212Y-781950D01*
X303212Y-776950D01*
G37*
G54D18*
G36*
X758162Y-779450D02*
X758162Y-791450D01*
X753162Y-791450D01*
X753162Y-779450D01*
X758162Y-779450D01*
G37*
G36*
X755662Y-781950D02*
X743662Y-781950D01*
X743662Y-776950D01*
X755662Y-776950D01*
X755662Y-781950D01*
G37*
G36*
X753162Y-779450D02*
X753162Y-767450D01*
X758162Y-767450D01*
X758162Y-779450D01*
X753162Y-779450D01*
G37*
G36*
X755662Y-776950D02*
X767662Y-776950D01*
X767662Y-781950D01*
X755662Y-781950D01*
X755662Y-776950D01*
G37*
G54D18*
G36*
X693062Y-779450D02*
X693062Y-791450D01*
X688062Y-791450D01*
X688062Y-779450D01*
X693062Y-779450D01*
G37*
G36*
X690562Y-781950D02*
X678562Y-781950D01*
X678562Y-776950D01*
X690562Y-776950D01*
X690562Y-781950D01*
G37*
G36*
X688062Y-779450D02*
X688062Y-767450D01*
X693062Y-767450D01*
X693062Y-779450D01*
X688062Y-779450D01*
G37*
G36*
X690562Y-776950D02*
X702562Y-776950D01*
X702562Y-781950D01*
X690562Y-781950D01*
X690562Y-776950D01*
G37*
X200012Y-300050D02*
G54D25*
D03*
X187212Y-325450D02*
G54D25*
D03*
X161812Y-325450D02*
G54D25*
D03*
X225412Y-300050D02*
G54D25*
D03*
G36*
X156712Y-307550D02*
X141712Y-307550D01*
X141712Y-292550D01*
X156712Y-292550D01*
X156712Y-307550D01*
G37*
X212612Y-325450D02*
G54D25*
D03*
X238012Y-325450D02*
G54D25*
D03*
X174612Y-300050D02*
G54D25*
D03*
G36*
X104312Y-192238D02*
X110162Y-186388D01*
X118462Y-186388D01*
X124312Y-192238D01*
X124312Y-220538D01*
X118462Y-226388D01*
X110162Y-226388D01*
X104312Y-220538D01*
X104312Y-192238D01*
G37*
G36*
X263012Y-192238D02*
X268862Y-186388D01*
X277162Y-186388D01*
X283012Y-192238D01*
X283012Y-220538D01*
X277162Y-226388D01*
X268862Y-226388D01*
X263012Y-220538D01*
X263012Y-192238D01*
G37*
X38112Y-317488D02*
G54D26*
D03*
X50787Y-317513D02*
G54D26*
D03*
X63487Y-317513D02*
G54D26*
D03*
X368312Y-342888D02*
G54D25*
D03*
X368287Y-296876D02*
G54D25*
D03*
X303212Y-342888D02*
G54D25*
D03*
X303200Y-297000D02*
G54D25*
D03*
X231762Y-412763D02*
G54D27*
D03*
X206362Y-412763D02*
G54D27*
D03*
X180962Y-412763D02*
G54D27*
D03*
X155562Y-412763D02*
G54D27*
D03*
X155562Y-34938D02*
G54D27*
D03*
X180912Y-34988D02*
G54D27*
D03*
X206362Y-34938D02*
G54D27*
D03*
X231762Y-34938D02*
G54D27*
D03*
G54D22*
X212712Y-327038D02*
X212712Y-346088D01*
X196837Y-361963D01*
X171437Y-361963D01*
X155562Y-377838D01*
X155562Y-409588D01*
G54D22*
X63487Y-317513D02*
X63487Y-346088D01*
X79362Y-361963D01*
X139687Y-361963D01*
X155562Y-377838D01*
G54D22*
X200012Y-298463D02*
X200012Y-339738D01*
X190487Y-349263D01*
X85712Y-349263D01*
X76187Y-339738D01*
G54D22*
X76187Y-339738D02*
X76187Y-304813D01*
X69837Y-298463D01*
G54D22*
X69837Y-298463D02*
X57137Y-298463D01*
X50787Y-304813D01*
X50787Y-317513D01*
G54D22*
X266700Y-300038D02*
X266700Y-400050D01*
X254000Y-412750D01*
X231774Y-412750D01*
X285750Y-269876D02*
G54D28*
D03*
X225412Y-269888D02*
G54D28*
D03*
G54D22*
X266700Y-300038D02*
X266700Y-276226D01*
X247650Y-257176D01*
X101587Y-361963D02*
G54D28*
D03*
X303200Y-320688D02*
G54D28*
D03*
G54D22*
X225412Y-300050D02*
X242874Y-300050D01*
X101600Y-269876D02*
G54D28*
D03*
X174612Y-269888D02*
G54D28*
D03*
X242874Y-300050D02*
G54D28*
D03*
G54D18*
X161924Y-325438D02*
X147637Y-325438D01*
G54D18*
X187324Y-325438D02*
X161924Y-325438D01*
G54D18*
X227012Y-325438D02*
X238124Y-325438D01*
G54D18*
X161924Y-338138D02*
X161924Y-312738D01*
G54D18*
X187324Y-338138D02*
X187324Y-312738D01*
G54D18*
X238124Y-338138D02*
X238124Y-312738D01*
G54D18*
X180974Y-395288D02*
X180974Y-436563D01*
G54D18*
X33337Y-357188D02*
X17462Y-357188D01*
G54D18*
X38100Y-303213D02*
X38100Y-330200D01*
G54D18*
X36512Y-317500D02*
X19050Y-317500D01*
G54D18*
X34924Y-339726D02*
X34924Y-376238D01*
X168274Y-58738D02*
G54D29*
D03*
X142874Y-58738D02*
G54D29*
D03*
X180974Y-58738D02*
G54D29*
D03*
X155574Y-58738D02*
G54D29*
D03*
G54D22*
X155574Y-34926D02*
X142874Y-47626D01*
X142874Y-53976D01*
G54D22*
X180974Y-34926D02*
X168274Y-47626D01*
X168274Y-55563D01*
X130174Y-58738D02*
G54D29*
D03*
G54D20*
X180974Y-58738D02*
X180974Y-73026D01*
G54D20*
X180974Y-58738D02*
X193674Y-58738D01*
G54D20*
X130174Y-58738D02*
X115887Y-58738D01*
G54D20*
X130174Y-41276D02*
X130174Y-76200D01*
G54D22*
X155574Y-58738D02*
X155574Y-142876D01*
X138112Y-160338D01*
G54D22*
X138112Y-160338D02*
X107950Y-160338D01*
X96837Y-171450D01*
G54D22*
X231774Y-34926D02*
X231774Y-142876D01*
X249237Y-160338D01*
G54D22*
X249237Y-160338D02*
X279400Y-160338D01*
X290512Y-171450D01*
G54D22*
X303212Y-296863D02*
X368300Y-296863D01*
G54D22*
X149224Y-300038D02*
X149224Y-282576D01*
X161924Y-269876D01*
X174624Y-269876D01*
G54D22*
X225424Y-269876D02*
X242887Y-269876D01*
X255587Y-282576D01*
G54D22*
X255587Y-282576D02*
X255587Y-349250D01*
X242887Y-361950D01*
G54D22*
X242887Y-361950D02*
X215900Y-361950D01*
X206374Y-371476D01*
X206374Y-412750D01*
G54D22*
X247650Y-257176D02*
X193674Y-257176D01*
G54D22*
X290512Y-171450D02*
X290512Y-265113D01*
X285750Y-269876D01*
G54D22*
X303212Y-320676D02*
X334962Y-320676D01*
X334962Y-296863D01*
G54D22*
X114300Y-206376D02*
X134937Y-206376D01*
G54D22*
X252412Y-206376D02*
X273050Y-206376D01*
G54D22*
X114300Y-177800D02*
X114300Y-233363D01*
G54D22*
X273050Y-177800D02*
X273050Y-233363D01*
G54D22*
X96750Y-171450D02*
X96750Y-265113D01*
X101512Y-269876D01*
G54D22*
X174624Y-298450D02*
X174624Y-288926D01*
X193674Y-269876D01*
X193674Y-160338D01*
G54D22*
X193674Y-160338D02*
X206374Y-147638D01*
X206374Y-34926D01*
G54D22*
X50800Y-317500D02*
X50800Y-379413D01*
X39687Y-390526D01*
X95250Y-390526D02*
G54D29*
D03*
X107950Y-390526D02*
G54D29*
D03*
G54D22*
X61912Y-390526D02*
X95250Y-390526D01*
G54D22*
X155574Y-390526D02*
X107950Y-390526D01*
X36512Y-355600D02*
G54D30*
D03*
X64512Y-355600D02*
G54D30*
D03*
X41275Y-390525D02*
G54D31*
D03*
X60275Y-390525D02*
G54D31*
D03*
X587362Y-300050D02*
G54D25*
D03*
X574562Y-325450D02*
G54D25*
D03*
X549162Y-325450D02*
G54D25*
D03*
X612762Y-300050D02*
G54D25*
D03*
G36*
X544062Y-307550D02*
X529062Y-307550D01*
X529062Y-292550D01*
X544062Y-292550D01*
X544062Y-307550D01*
G37*
X599962Y-325450D02*
G54D25*
D03*
X625362Y-325450D02*
G54D25*
D03*
X561962Y-300050D02*
G54D25*
D03*
G36*
X491662Y-192238D02*
X497512Y-186388D01*
X505812Y-186388D01*
X511662Y-192238D01*
X511662Y-220538D01*
X505812Y-226388D01*
X497512Y-226388D01*
X491662Y-220538D01*
X491662Y-192238D01*
G37*
G36*
X650362Y-192238D02*
X656212Y-186388D01*
X664512Y-186388D01*
X670362Y-192238D01*
X670362Y-220538D01*
X664512Y-226388D01*
X656212Y-226388D01*
X650362Y-220538D01*
X650362Y-192238D01*
G37*
X425462Y-317488D02*
G54D26*
D03*
X438137Y-317513D02*
G54D26*
D03*
X450837Y-317513D02*
G54D26*
D03*
X755662Y-342888D02*
G54D25*
D03*
X755637Y-296876D02*
G54D25*
D03*
X690562Y-342888D02*
G54D25*
D03*
X690550Y-297000D02*
G54D25*
D03*
X619112Y-412763D02*
G54D27*
D03*
X593712Y-412763D02*
G54D27*
D03*
X568312Y-412763D02*
G54D27*
D03*
X542912Y-412763D02*
G54D27*
D03*
X542912Y-34938D02*
G54D27*
D03*
X568262Y-34988D02*
G54D27*
D03*
X593712Y-34938D02*
G54D27*
D03*
X619112Y-34938D02*
G54D27*
D03*
G54D22*
X600062Y-327038D02*
X600062Y-346088D01*
X584187Y-361963D01*
X558787Y-361963D01*
X542912Y-377838D01*
X542912Y-409588D01*
G54D22*
X450837Y-317513D02*
X450837Y-346088D01*
X466712Y-361963D01*
X527037Y-361963D01*
X542912Y-377838D01*
G54D22*
X587362Y-298463D02*
X587362Y-339738D01*
X577837Y-349263D01*
X473062Y-349263D01*
X463537Y-339738D01*
G54D22*
X463537Y-339738D02*
X463537Y-304813D01*
X457187Y-298463D01*
G54D22*
X457187Y-298463D02*
X444487Y-298463D01*
X438137Y-304813D01*
X438137Y-317513D01*
G54D22*
X654050Y-300038D02*
X654050Y-400050D01*
X641350Y-412750D01*
X619124Y-412750D01*
X673100Y-269876D02*
G54D28*
D03*
X612762Y-269888D02*
G54D28*
D03*
G54D22*
X654050Y-300038D02*
X654050Y-276226D01*
X635000Y-257176D01*
X488937Y-361963D02*
G54D28*
D03*
X690550Y-320688D02*
G54D28*
D03*
G54D22*
X612762Y-300050D02*
X630224Y-300050D01*
X488950Y-269876D02*
G54D28*
D03*
X561962Y-269888D02*
G54D28*
D03*
X630224Y-300050D02*
G54D28*
D03*
G54D18*
X549274Y-325438D02*
X534987Y-325438D01*
G54D18*
X574674Y-325438D02*
X549274Y-325438D01*
G54D18*
X614362Y-325438D02*
X625474Y-325438D01*
G54D18*
X549274Y-338138D02*
X549274Y-312738D01*
G54D18*
X574674Y-338138D02*
X574674Y-312738D01*
G54D18*
X625474Y-338138D02*
X625474Y-312738D01*
G54D18*
X568324Y-395288D02*
X568324Y-436563D01*
G54D18*
X420687Y-357188D02*
X404812Y-357188D01*
G54D18*
X425450Y-303213D02*
X425450Y-330200D01*
G54D18*
X423862Y-317500D02*
X406400Y-317500D01*
G54D18*
X422274Y-339726D02*
X422274Y-376238D01*
X555624Y-58738D02*
G54D29*
D03*
X530224Y-58738D02*
G54D29*
D03*
X568324Y-58738D02*
G54D29*
D03*
X542924Y-58738D02*
G54D29*
D03*
G54D22*
X542924Y-34926D02*
X530224Y-47626D01*
X530224Y-53976D01*
G54D22*
X568324Y-34926D02*
X555624Y-47626D01*
X555624Y-55563D01*
X517524Y-58738D02*
G54D29*
D03*
G54D20*
X568324Y-58738D02*
X568324Y-73026D01*
G54D20*
X568324Y-58738D02*
X581024Y-58738D01*
G54D20*
X517524Y-58738D02*
X503237Y-58738D01*
G54D20*
X517524Y-41276D02*
X517524Y-76200D01*
G54D22*
X542924Y-58738D02*
X542924Y-142876D01*
X525462Y-160338D01*
G54D22*
X525462Y-160338D02*
X495300Y-160338D01*
X484187Y-171450D01*
G54D22*
X619124Y-34926D02*
X619124Y-142876D01*
X636587Y-160338D01*
G54D22*
X636587Y-160338D02*
X666750Y-160338D01*
X677862Y-171450D01*
G54D22*
X690562Y-296863D02*
X755650Y-296863D01*
G54D22*
X536574Y-300038D02*
X536574Y-282576D01*
X549274Y-269876D01*
X561974Y-269876D01*
G54D22*
X612774Y-269876D02*
X630237Y-269876D01*
X642937Y-282576D01*
G54D22*
X642937Y-282576D02*
X642937Y-349250D01*
X630237Y-361950D01*
G54D22*
X630237Y-361950D02*
X603250Y-361950D01*
X593724Y-371476D01*
X593724Y-412750D01*
G54D22*
X635000Y-257176D02*
X581024Y-257176D01*
G54D22*
X677862Y-171450D02*
X677862Y-265113D01*
X673100Y-269876D01*
G54D22*
X690562Y-320676D02*
X722312Y-320676D01*
X722312Y-296863D01*
G54D22*
X501650Y-206376D02*
X522287Y-206376D01*
G54D22*
X639762Y-206376D02*
X660400Y-206376D01*
G54D22*
X501650Y-177800D02*
X501650Y-233363D01*
G54D22*
X660400Y-177800D02*
X660400Y-233363D01*
G54D22*
X484100Y-171450D02*
X484100Y-265113D01*
X488862Y-269876D01*
G54D22*
X561974Y-298450D02*
X561974Y-288926D01*
X581024Y-269876D01*
X581024Y-160338D01*
G54D22*
X581024Y-160338D02*
X593724Y-147638D01*
X593724Y-34926D01*
G54D22*
X438150Y-317500D02*
X438150Y-379413D01*
X427037Y-390526D01*
X482600Y-390526D02*
G54D29*
D03*
X495300Y-390526D02*
G54D29*
D03*
G54D22*
X449262Y-390526D02*
X482600Y-390526D01*
G54D22*
X542924Y-390526D02*
X495300Y-390526D01*
X423862Y-355600D02*
G54D30*
D03*
X451862Y-355600D02*
G54D30*
D03*
X428625Y-390525D02*
G54D31*
D03*
X447625Y-390525D02*
G54D31*
D03*
X200012Y-736613D02*
G54D25*
D03*
X187212Y-762013D02*
G54D25*
D03*
X161812Y-762013D02*
G54D25*
D03*
X225412Y-736613D02*
G54D25*
D03*
G36*
X156712Y-744113D02*
X141712Y-744113D01*
X141712Y-729113D01*
X156712Y-729113D01*
X156712Y-744113D01*
G37*
X212612Y-762013D02*
G54D25*
D03*
X238012Y-762013D02*
G54D25*
D03*
X174612Y-736613D02*
G54D25*
D03*
G36*
X104312Y-628800D02*
X110162Y-622950D01*
X118462Y-622950D01*
X124312Y-628800D01*
X124312Y-657100D01*
X118462Y-662950D01*
X110162Y-662950D01*
X104312Y-657100D01*
X104312Y-628800D01*
G37*
G36*
X263012Y-628800D02*
X268862Y-622950D01*
X277162Y-622950D01*
X283012Y-628800D01*
X283012Y-657100D01*
X277162Y-662950D01*
X268862Y-662950D01*
X263012Y-657100D01*
X263012Y-628800D01*
G37*
X38112Y-754050D02*
G54D26*
D03*
X50787Y-754076D02*
G54D26*
D03*
X63487Y-754076D02*
G54D26*
D03*
X368312Y-779450D02*
G54D25*
D03*
X368287Y-733438D02*
G54D25*
D03*
X303212Y-779450D02*
G54D25*
D03*
X303200Y-733563D02*
G54D25*
D03*
X231762Y-849326D02*
G54D27*
D03*
X206362Y-849326D02*
G54D27*
D03*
X180962Y-849326D02*
G54D27*
D03*
X155562Y-849326D02*
G54D27*
D03*
X155562Y-471500D02*
G54D27*
D03*
X180912Y-471550D02*
G54D27*
D03*
X206362Y-471500D02*
G54D27*
D03*
X231762Y-471500D02*
G54D27*
D03*
G54D22*
X212712Y-763600D02*
X212712Y-782650D01*
X196837Y-798526D01*
X171437Y-798526D01*
X155562Y-814400D01*
X155562Y-846150D01*
G54D22*
X63487Y-754076D02*
X63487Y-782650D01*
X79362Y-798526D01*
X139687Y-798526D01*
X155562Y-814400D01*
G54D22*
X200012Y-735026D02*
X200012Y-776300D01*
X190487Y-785826D01*
X85712Y-785826D01*
X76187Y-776300D01*
G54D22*
X76187Y-776300D02*
X76187Y-741376D01*
X69837Y-735026D01*
G54D22*
X69837Y-735026D02*
X57137Y-735026D01*
X50787Y-741376D01*
X50787Y-754076D01*
G54D22*
X266700Y-736600D02*
X266700Y-836613D01*
X254000Y-849313D01*
X231774Y-849313D01*
X285750Y-706438D02*
G54D28*
D03*
X225412Y-706450D02*
G54D28*
D03*
G54D22*
X266700Y-736600D02*
X266700Y-712788D01*
X247650Y-693738D01*
X101587Y-798526D02*
G54D28*
D03*
X303200Y-757250D02*
G54D28*
D03*
G54D22*
X225412Y-736613D02*
X242874Y-736613D01*
X101600Y-706438D02*
G54D28*
D03*
X174612Y-706450D02*
G54D28*
D03*
X242874Y-736613D02*
G54D28*
D03*
G54D18*
X161924Y-762000D02*
X147637Y-762000D01*
G54D18*
X187324Y-762000D02*
X161924Y-762000D01*
G54D18*
X227012Y-762000D02*
X238124Y-762000D01*
G54D18*
X161924Y-774700D02*
X161924Y-749300D01*
G54D18*
X187324Y-774700D02*
X187324Y-749300D01*
G54D18*
X238124Y-774700D02*
X238124Y-749300D01*
G54D18*
X180974Y-831850D02*
X180974Y-873126D01*
G54D18*
X33337Y-793750D02*
X17462Y-793750D01*
G54D18*
X38100Y-739776D02*
X38100Y-766763D01*
G54D18*
X36512Y-754063D02*
X19050Y-754063D01*
G54D18*
X34924Y-776288D02*
X34924Y-812800D01*
X168274Y-495300D02*
G54D29*
D03*
X142874Y-495300D02*
G54D29*
D03*
X180974Y-495300D02*
G54D29*
D03*
X155574Y-495300D02*
G54D29*
D03*
G54D22*
X155574Y-471488D02*
X142874Y-484188D01*
X142874Y-490538D01*
G54D22*
X180974Y-471488D02*
X168274Y-484188D01*
X168274Y-492126D01*
X130174Y-495300D02*
G54D29*
D03*
G54D20*
X180974Y-495300D02*
X180974Y-509588D01*
G54D20*
X180974Y-495300D02*
X193674Y-495300D01*
G54D20*
X130174Y-495300D02*
X115887Y-495300D01*
G54D20*
X130174Y-477838D02*
X130174Y-512763D01*
G54D22*
X155574Y-495300D02*
X155574Y-579438D01*
X138112Y-596900D01*
G54D22*
X138112Y-596900D02*
X107950Y-596900D01*
X96837Y-608013D01*
G54D22*
X231774Y-471488D02*
X231774Y-579438D01*
X249237Y-596900D01*
G54D22*
X249237Y-596900D02*
X279400Y-596900D01*
X290512Y-608013D01*
G54D22*
X303212Y-733426D02*
X368300Y-733426D01*
G54D22*
X149224Y-736600D02*
X149224Y-719138D01*
X161924Y-706438D01*
X174624Y-706438D01*
G54D22*
X225424Y-706438D02*
X242887Y-706438D01*
X255587Y-719138D01*
G54D22*
X255587Y-719138D02*
X255587Y-785813D01*
X242887Y-798513D01*
G54D22*
X242887Y-798513D02*
X215900Y-798513D01*
X206374Y-808038D01*
X206374Y-849313D01*
G54D22*
X247650Y-693738D02*
X193674Y-693738D01*
G54D22*
X290512Y-608013D02*
X290512Y-701676D01*
X285750Y-706438D01*
G54D22*
X303212Y-757238D02*
X334962Y-757238D01*
X334962Y-733426D01*
G54D22*
X114300Y-642938D02*
X134937Y-642938D01*
G54D22*
X252412Y-642938D02*
X273050Y-642938D01*
G54D22*
X114300Y-614363D02*
X114300Y-669926D01*
G54D22*
X273050Y-614363D02*
X273050Y-669926D01*
G54D22*
X96750Y-608013D02*
X96750Y-701676D01*
X101512Y-706438D01*
G54D22*
X174624Y-735013D02*
X174624Y-725488D01*
X193674Y-706438D01*
X193674Y-596900D01*
G54D22*
X193674Y-596900D02*
X206374Y-584200D01*
X206374Y-471488D01*
G54D22*
X50800Y-754063D02*
X50800Y-815976D01*
X39687Y-827088D01*
X95250Y-827088D02*
G54D29*
D03*
X107950Y-827088D02*
G54D29*
D03*
G54D22*
X61912Y-827088D02*
X95250Y-827088D01*
G54D22*
X155574Y-827088D02*
X107950Y-827088D01*
X36512Y-792162D02*
G54D30*
D03*
X64512Y-792162D02*
G54D30*
D03*
X41275Y-827088D02*
G54D31*
D03*
X60275Y-827088D02*
G54D31*
D03*
X587362Y-736613D02*
G54D25*
D03*
X574562Y-762013D02*
G54D25*
D03*
X549162Y-762013D02*
G54D25*
D03*
X612762Y-736613D02*
G54D25*
D03*
G36*
X544062Y-744113D02*
X529062Y-744113D01*
X529062Y-729113D01*
X544062Y-729113D01*
X544062Y-744113D01*
G37*
X599962Y-762013D02*
G54D25*
D03*
X625362Y-762013D02*
G54D25*
D03*
X561962Y-736613D02*
G54D25*
D03*
G36*
X491662Y-628800D02*
X497512Y-622950D01*
X505812Y-622950D01*
X511662Y-628800D01*
X511662Y-657100D01*
X505812Y-662950D01*
X497512Y-662950D01*
X491662Y-657100D01*
X491662Y-628800D01*
G37*
G36*
X650362Y-628800D02*
X656212Y-622950D01*
X664512Y-622950D01*
X670362Y-628800D01*
X670362Y-657100D01*
X664512Y-662950D01*
X656212Y-662950D01*
X650362Y-657100D01*
X650362Y-628800D01*
G37*
X425462Y-754050D02*
G54D26*
D03*
X438137Y-754076D02*
G54D26*
D03*
X450837Y-754076D02*
G54D26*
D03*
X755662Y-779450D02*
G54D25*
D03*
X755637Y-733438D02*
G54D25*
D03*
X690562Y-779450D02*
G54D25*
D03*
X690550Y-733563D02*
G54D25*
D03*
X619112Y-849326D02*
G54D27*
D03*
X593712Y-849326D02*
G54D27*
D03*
X568312Y-849326D02*
G54D27*
D03*
X542912Y-849326D02*
G54D27*
D03*
X542912Y-471500D02*
G54D27*
D03*
X568262Y-471550D02*
G54D27*
D03*
X593712Y-471500D02*
G54D27*
D03*
X619112Y-471500D02*
G54D27*
D03*
G54D22*
X600062Y-763600D02*
X600062Y-782650D01*
X584187Y-798526D01*
X558787Y-798526D01*
X542912Y-814400D01*
X542912Y-846150D01*
G54D22*
X450837Y-754076D02*
X450837Y-782650D01*
X466712Y-798526D01*
X527037Y-798526D01*
X542912Y-814400D01*
G54D22*
X587362Y-735026D02*
X587362Y-776300D01*
X577837Y-785826D01*
X473062Y-785826D01*
X463537Y-776300D01*
G54D22*
X463537Y-776300D02*
X463537Y-741376D01*
X457187Y-735026D01*
G54D22*
X457187Y-735026D02*
X444487Y-735026D01*
X438137Y-741376D01*
X438137Y-754076D01*
G54D22*
X654050Y-736600D02*
X654050Y-836613D01*
X641350Y-849313D01*
X619124Y-849313D01*
X673100Y-706438D02*
G54D28*
D03*
X612762Y-706450D02*
G54D28*
D03*
G54D22*
X654050Y-736600D02*
X654050Y-712788D01*
X635000Y-693738D01*
X488937Y-798526D02*
G54D28*
D03*
X690550Y-757250D02*
G54D28*
D03*
G54D22*
X612762Y-736613D02*
X630224Y-736613D01*
X488950Y-706438D02*
G54D28*
D03*
X561962Y-706450D02*
G54D28*
D03*
X630224Y-736613D02*
G54D28*
D03*
G54D18*
X549274Y-762000D02*
X534987Y-762000D01*
G54D18*
X574674Y-762000D02*
X549274Y-762000D01*
G54D18*
X614362Y-762000D02*
X625474Y-762000D01*
G54D18*
X549274Y-774700D02*
X549274Y-749300D01*
G54D18*
X574674Y-774700D02*
X574674Y-749300D01*
G54D18*
X625474Y-774700D02*
X625474Y-749300D01*
G54D18*
X568324Y-831850D02*
X568324Y-873126D01*
G54D18*
X420687Y-793750D02*
X404812Y-793750D01*
G54D18*
X425450Y-739776D02*
X425450Y-766763D01*
G54D18*
X423862Y-754063D02*
X406400Y-754063D01*
G54D18*
X422274Y-776288D02*
X422274Y-812800D01*
X555624Y-495300D02*
G54D29*
D03*
X530224Y-495300D02*
G54D29*
D03*
X568324Y-495300D02*
G54D29*
D03*
X542924Y-495300D02*
G54D29*
D03*
G54D22*
X542924Y-471488D02*
X530224Y-484188D01*
X530224Y-490538D01*
G54D22*
X568324Y-471488D02*
X555624Y-484188D01*
X555624Y-492126D01*
X517524Y-495300D02*
G54D29*
D03*
G54D20*
X568324Y-495300D02*
X568324Y-509588D01*
G54D20*
X568324Y-495300D02*
X581024Y-495300D01*
G54D20*
X517524Y-495300D02*
X503237Y-495300D01*
G54D20*
X517524Y-477838D02*
X517524Y-512763D01*
G54D22*
X542924Y-495300D02*
X542924Y-579438D01*
X525462Y-596900D01*
G54D22*
X525462Y-596900D02*
X495300Y-596900D01*
X484187Y-608013D01*
G54D22*
X619124Y-471488D02*
X619124Y-579438D01*
X636587Y-596900D01*
G54D22*
X636587Y-596900D02*
X666750Y-596900D01*
X677862Y-608013D01*
G54D22*
X690562Y-733426D02*
X755650Y-733426D01*
G54D22*
X536574Y-736600D02*
X536574Y-719138D01*
X549274Y-706438D01*
X561974Y-706438D01*
G54D22*
X612774Y-706438D02*
X630237Y-706438D01*
X642937Y-719138D01*
G54D22*
X642937Y-719138D02*
X642937Y-785813D01*
X630237Y-798513D01*
G54D22*
X630237Y-798513D02*
X603250Y-798513D01*
X593724Y-808038D01*
X593724Y-849313D01*
G54D22*
X635000Y-693738D02*
X581024Y-693738D01*
G54D22*
X677862Y-608013D02*
X677862Y-701676D01*
X673100Y-706438D01*
G54D22*
X690562Y-757238D02*
X722312Y-757238D01*
X722312Y-733426D01*
G54D22*
X501650Y-642938D02*
X522287Y-642938D01*
G54D22*
X639762Y-642938D02*
X660400Y-642938D01*
G54D22*
X501650Y-614363D02*
X501650Y-669926D01*
G54D22*
X660400Y-614363D02*
X660400Y-669926D01*
G54D22*
X484100Y-608013D02*
X484100Y-701676D01*
X488862Y-706438D01*
G54D22*
X561974Y-735013D02*
X561974Y-725488D01*
X581024Y-706438D01*
X581024Y-596900D01*
G54D22*
X581024Y-596900D02*
X593724Y-584200D01*
X593724Y-471488D01*
G54D22*
X438150Y-754063D02*
X438150Y-815976D01*
X427037Y-827088D01*
X482600Y-827088D02*
G54D29*
D03*
X495300Y-827088D02*
G54D29*
D03*
G54D22*
X449262Y-827088D02*
X482600Y-827088D01*
G54D22*
X542924Y-827088D02*
X495300Y-827088D01*
X423862Y-792162D02*
G54D30*
D03*
X451862Y-792162D02*
G54D30*
D03*
X428625Y-827088D02*
G54D31*
D03*
X447625Y-827088D02*
G54D31*
D03*
M02*
